<svg preserveAspectRatio="none" id="Layer_1" data-name="Layer 1" xmlns="http://www.w3.org/2000/svg" viewBox="0 0 1242 2208"><defs><style>.cls-1{fill:#3e9b92;}.cls-2,.cls-3{fill:#37776f;}.cls-2{opacity:0.39;}.cls-4{fill:#a67c52;}.cls-5{fill:#8c6239;}.cls-6{fill:#754c24;}.cls-7{fill:#c69c6d;}.cls-8{fill:#603813;}.cls-9{fill:#bf110e;}.cls-10{fill:#e86352;}.cls-11{fill:#d3422f;}.cls-12{fill:#cf4431;}</style></defs><rect class="cls-1" x="3" y="3" width="1244" height="1507"/><polygon class="cls-2" points="3 1085.28 89.53 1086.85 89.53 1139.66 154.47 1147.03 154.47 860.59 210.94 897.8 210.94 949.86 250.47 949.86 250.47 1003.81 363.41 1003.81 363.41 1108.06 434 1110.3 434 883.55 498.94 883.55 498.94 949.86 561.06 949.86 561.06 1147.03 637.29 1147.03 637.29 1030.42 722 922.58 747.41 922.58 747.41 860.59 826.47 860.59 826.47 913.8 888.59 913.8 928.12 994.24 928.12 1124.06 1021.29 1121.45 1021.29 1030.42 1106 1030.42 1106 1078.86 1204.82 1078.86 1204.82 1152.48 1247 1152.48 1247 1510 3 1510 3 1085.28"/><path class="cls-3" d="M1222,19.25V1487H22V19.25H1222m19-19H3V1506H1241V.25Z"/><rect class="cls-4" x="-0.5" y="1478" width="1242" height="133.56"/><rect class="cls-5" x="-0.5" y="1611.56" width="1242" height="86.29"/><rect class="cls-6" x="-0.5" y="1697.85" width="1242" height="56.66"/><rect class="cls-4" x="-0.5" y="1836.63" width="1242" height="9.37"/><rect class="cls-7" x="0.5" y="1752.8" width="1242" height="9.37"/><rect class="cls-8" x="-0.5" y="1763.57" width="1242" height="72.48"/><path class="cls-9" d="M68.19,1721.62,81,1733.47c12.49,11.6,31.67,18.38,52,18.38h966.25c18.8,0,36.7-5.8,49.2-16l15.47-12.55"/><path class="cls-10" d="M79.51,1686.31l120.63-191.83c8.9-14.15,45.47-25.29,81.6-25.29H952.36c20.94,0,41.83,3.7,57.47,9.51l7.93-2c-15.76-6-37.07-9.82-58.38-9.82H274.73c-36,0-72.56,11.06-81.57,25.11l-16.31,25.41c-2.45,1.62-5.94,3.84-8.64,4.28L148.56,1524c-1,.12-2.06.2-3.09.28-4.12.34-8.63,2.49-10.42,5.09L61.54,1635.76c-2.4,3.48-.89,6.41,3.34,6.87l3.52.38,19.18,2.61c3.06.27,3.8,2.6,4,4.68l-25.82,40.24c-6.93,10.8-5.58,21,2.48,29.08l15-3.83C74.4,1707.66,72.59,1697.32,79.51,1686.31Z"/><path class="cls-11" d="M1089.53,1524.24c-1-.08-2-.16-3.09-.28l-19.65-2.31c-3.4-.55-8-3.92-10.3-5.38L1040.92,1492c-3.72-5.81-12.12-11.09-23.16-15.29l-7.93,2c11.53,4.29,20.32,9.75,24.1,15.78l120.36,191.83c15.52,24.73-12.86,46-63.89,46H143.34c-28,0-49.3-6.52-60.16-16.57l-15,3.83c10.49,10.55,32.18,17.43,60.93,17.43h975.49c51.3,0,79.47-21.53,63.48-46.51l-24.65-38.49c-.06-2.23,0-6.08,4-6.43l19.18-2.61,3.51-.38c4.24-.46,5.75-3.39,3.35-6.87L1100,1529.33C1098.16,1526.73,1093.65,1524.58,1089.53,1524.24Z"/><path class="cls-10" d="M143.34,1732.36H1090.4c51,0,79.41-21.32,63.89-46l-120.36-191.83c-3.78-6-12.57-11.49-24.1-15.78L83.18,1715.79C94,1725.84,115.38,1732.36,143.34,1732.36Z"/><path class="cls-9" d="M952.36,1469.19H281.74c-36.13,0-72.7,11.14-81.6,25.29L79.51,1686.31c-6.92,11-5.11,21.35,3.67,29.48l926.65-237.09C994.19,1472.89,973.3,1469.19,952.36,1469.19Z"/><path class="cls-12" d="M1079.75,1711H153.55c-25.85,0-40.81-10.66-33.44-23.36l112.55-193.88c4.3-7.4,23.35-13.34,42.43-13.34H958.65c19.08,0,38.12,5.94,42.41,13.34l112.17,193.88C1120.57,1700.29,1105.6,1711,1079.75,1711Z"/><rect class="cls-6" x="-1" y="1846" width="1243" height="362"/></svg>