<svg id="Layer_1" data-name="Layer 1" xmlns="http://www.w3.org/2000/svg" viewBox="0 0 946.08 176.61"><defs><style>.cls-1{fill:#aa6e2d;}.cls-2,.cls-4{fill:#7c4713;}.cls-2{opacity:0.17;}.cls-3{fill:#c69f7f;}.cls-4{opacity:0.4;}.cls-5{fill:#d8baa7;}</style></defs><path class="cls-1" d="M898.83,125c-20.57,14-63.21,25-88.84,30.1l-3.12.6-3,.57c-1,.19-2,.36-3,.53s-2,.35-3,.5l-2.92.46-2.87.43-.57.07h0c-4.56.66-8.92,1.19-13,1.62l-2.43.24-2.47.24-2.38.22c-1.57.14-3.11.27-4.58.37l-4.23.3c-.78.06-1.55.1-2.29.14l-1.57.1h-.19l-1.87.1-1.8.09-2.54.12-1.59.08-5.45.25-1.13.06c-.9,0-1.71.1-2.41.15-65.11,5.25-113.07,11.95-245.35,13.91q-13.63.19-28.51.34S186.3,179.1,56.56,131.43c-7.35-2.7-23.58-9-36.72-23.66-23.29-26-21-60.85-17.94-79.67.06-.33.11-.65.17-1l3.84.15,2,.07.87,0,3.15.13,4.12.16c1.4.07,2.81.12,4.24.18l.47,0,5.75.23a1.77,1.77,0,0,1,.33,0l2.62.1,3,.12,5.78.24c1.15,0,2.31.08,3.47.14l3.18.14c1.06,0,2.13.07,3.22.13s2.21.08,3.33.14,2.24.08,3.36.14l10.38.43c1.07,0,2.14.08,3.23.14h.32l5,.21,3.15.13,5.14.23,8.91.38,8.58.38,7,.31,4.37.2,6.06.26c1.93.09,3.87.19,5.83.27l12.81.58,8.34.39,17.58.82,13.56.64c182.9,8.76,236.74,13.86,310.37,16.13C570.86,53.42,692.25,52.53,842,35.73l28.3-5.31,74.77-14c.05.6.13,1.3.19,2.12C946.47,34.49,946.34,92.72,898.83,125Z"/><path class="cls-2" d="M898.83,125c-20.57,14-63.21,25-88.84,30.1l-3.12.6-3,.57c-1,.19-2,.36-3,.53s-2,.35-3,.5l-2.92.46-2.87.43-.58.08c-4.56.66-8.92,1.19-13,1.62l-2.43.24-2.47.24-2.38.22c-1.57.14-3.11.27-4.58.37l-4.23.3c-.78.06-1.55.1-2.29.14l-1.57.1h-.19l-1.87.1-1.8.09-2.54.12-1.59.08-5.45.25-1.13.06c-.9,0-1.71.1-2.41.15-65.11,5.25-113.07,11.95-245.35,13.91-48.65-2.89-113.19,3-180.14-17.94C212.8,126,99,110.37,57.28,46.75A97.89,97.89,0,0,1,48.07,29c1.1,0,2.21.08,3.33.14s2.24.08,3.36.14l10.38.43c1.07,0,2.14.08,3.23.14h.32l5,.21,3.15.13,5.14.23,8.91.38,8.58.38,7,.31,4.37.2,6.06.26c1.93.09,3.87.19,5.83.27l12.81.58,8.34.39,17.58.82,13.56.64c182.9,8.76,236.74,13.86,310.37,16.13C570.86,53.42,692.25,52.53,842,35.73l28.3-5.31,74.77-14c.05.6.13,1.3.19,2.12C946.47,34.49,946.34,92.72,898.83,125Z"/><path class="cls-3" d="M945,16.37,870.27,30.42,842,35.73C692.25,52.53,570.86,53.42,485.4,50.78,411.77,48.51,357.93,43.41,175,34.65L161.47,34l-17.58-.82-8.34-.39-12.81-.58L116.91,32l-6.06-.26-4.37-.2-7-.31-8.58-.38L82,30.42l-5.14-.23-3.15-.13-5-.21h-.32c-1.09-.06-2.16-.1-3.23-.14l-10.38-.43c-1.12-.06-2.25-.1-3.36-.14S49.17,29,48.07,29s-2.16-.1-3.22-.13-2.12-.1-3.18-.14-2.32-.1-3.47-.14l-5.78-.24-3-.12-2.62-.1a1.77,1.77,0,0,0-.33,0l-5.75-.23-.47,0c-1.43-.06-2.84-.11-4.24-.18l-4.12-.16-3.15-.13-.87,0-2-.07-3.84-.15C2.07,21.75,310.64,2.06,474.74.24,635.81-1.54,916.6,6.7,945,16.37Z"/><path class="cls-4" d="M899.37,125.13c-20.57,14-63.21,25-88.84,30.11l-3.12.6-3.06.57-3,.52c-1,.18-2,.35-3,.5l-2.93.46-2.86.43-.58.09h0c48.14-22.2,96.53-52.74,95.53-88.11C887.14,57,879.92,48,874.9,39.43a38.61,38.61,0,0,1-4.09-8.86l74.76-14c.06.59.13,1.3.19,2.12C947,34.65,946.88,92.87,899.37,125.13Z"/><path class="cls-5" d="M945.23,18.49c-13.38,6-43.81,14.22-70.87,20.79-13.73,3.33-26.61,6.24-35.94,8.28-35.07,7.6-63.58,13.64-101.88,15-35.33,1.3-54.77-2.24-87.66-5.38-82.22-7.85-81.8,2.68-183.62-2.15-72.89-3.45-83.87-9.35-154-9.67-26.62-.12-45.39.63-82.93,2.15-90.32,3.65-126.74,9.1-171-.81-4.47-1-9-2.16-13.75-3.49C41,42.55,16.4,35.47,1.9,28.1c.06-.33.11-.65.17-1l3.84.15,2,.07.87,0,3.15.13,4.12.16c1.4.07,2.81.12,4.24.18l.47,0,5.75.23a1.77,1.77,0,0,1,.33,0l2.62.1,3,.12,5.78.24c1.15,0,2.31.08,3.47.14l3.18.14c1.06,0,2.13.07,3.22.13s2.21.08,3.33.14,2.24.08,3.36.14l10.38.43,3.23.14h.32l5,.21,3.15.13,5.14.23,8.91.38,8.58.38,7,.31,4.37.2,6.06.26,5.83.27,12.81.58,8.34.39,17.58.82,13.56.64c182.9,8.76,236.74,13.86,310.37,16.13C570.86,53.42,692.25,52.53,842,35.73l28.3-5.31,74.77-14C945.09,17,945.17,17.67,945.23,18.49Z"/></svg>