<svg id="Layer_1" data-name="Layer 1" xmlns="http://www.w3.org/2000/svg" viewBox="0 0 949.86 292.14"><defs><style>.cls-1{fill:#aa6e2d;}.cls-2,.cls-3{fill:#b28567;}.cls-2{opacity:0.36;}.cls-4{fill:#7f4612;}.cls-5{fill:#c69c6d;}.cls-6{fill:#7c4713;opacity:0.4;}</style></defs><path class="cls-1" d="M949.65,190.87a85.88,85.88,0,0,1-8.32,32.67,71,71,0,0,1-12.84,18.23c-1,1-1.94,1.95-2.94,2.86-12.78,11.77-28.24,17.81-39.76,21.1-4.38,1.27-8.19,2.13-11.08,2.75C774,290.42,602.23,293.77,442.1,291.56c-48.41-.66-95.77-1.83-139.77-3.16-108.2-3.25-196.12-7.39-229.75-7-5.51.06-23,.36-38.9-8.91A59.22,59.22,0,0,1,13.78,253C7.88,243.81,4,233,2,221.78c-.42-2.25-.78-4.5-1-6.77-2.14-17.28-.39-35.09,4.16-49.44,7.23-22.8,25.9-50.69,90.3-82.86,15.52-7.76,33.71-15.76,55-24q20.76-8,41.23-14.74c185.56-61,354-45.22,508-30.78,8.8.82,21.28,2.07,36.31,4.59,28.9,4.85,67.2,14.46,106.72,35,29.5,15.33,90.39,46.95,104.13,104.89A116.84,116.84,0,0,1,949.65,190.87Z"/><path class="cls-2" d="M442.1,291.56c-48.41-.66-95.77-1.83-139.77-3.16-108.2-3.25-196.12-7.39-229.75-7-5.51.06-23,.36-38.9-8.91A59.22,59.22,0,0,1,13.78,253C7.88,243.81,4,233,2,221.78c-.42-2.25-.78-4.5-1-6.77-2.14-17.28-.39-35.09,4.16-49.44,7.23-22.8,25.9-50.69,90.3-82.86-15.49,19-29.07,40.75-37.66,65.05-8.65,24.48-8.35,40.59-2.29,54.43,12.85,29.3,49.23,43,73.23,50.46,55.8,17.43,119.13,24.74,175.2,28.75h0C364.9,285.75,417.33,286.21,442.1,291.56Z"/><path class="cls-3" d="M925.55,244.63c-17.65,16.25-40.41,21.58-50.84,23.85C774,290.42,602.23,293.77,442.1,291.56c-48.41-.66-95.77-1.83-139.77-3.16-108.2-3.25-196.12-7.39-229.75-7-5.51.06-23,.36-38.9-8.91A59.22,59.22,0,0,1,13.78,253,1675.19,1675.19,0,0,0,228.2,279.37c15.57.89,29,1.43,41.29,1.74s23.49.37,34.36.29h0c49.66-.37,93.68-3.66,220.7,0,37.27,1.06,86.39,2.85,155.62,1,39-1,92.13-3.47,156.76-14.85C879.37,260,907.06,252.16,925.55,244.63Z"/><path class="cls-4" d="M169.71,85.54C166.88,87.42,157,80.68,157.23,74c0-.26.15-3.41,2.07-4.32,2.75-1.3,7.82,2.73,9.92,7.35C170.43,79.66,171.5,84.36,169.71,85.54Z"/><path class="cls-5" d="M168.83,86.17c-1.41.92-4.61-.27-7.41-2.58s-5.17-5.67-5-9c0-.24.16-3.4,2.07-4.29,2.74-1.29,7.81,2.73,9.91,7.34C169.57,80.27,170.62,85,168.83,86.17Z"/><path class="cls-4" d="M213.29,65.48c-.59-.37-1-1.41-1.13-2.78a18,18,0,0,1,.13-4.86,15.54,15.54,0,0,1,1.7-5.22,7.6,7.6,0,0,1,3.85-3.55,9,9,0,0,1,2.08-.51,4.41,4.41,0,0,1,3.31.75,3.44,3.44,0,0,1,1.17,2.26,8.22,8.22,0,0,1-.33,3.19,16.89,16.89,0,0,1-3.78,6.51,22.87,22.87,0,0,1-3.71,3.24C215.28,65.36,214.05,66,213.29,65.48Z"/><path class="cls-5" d="M212.5,65a4,4,0,0,1-1.19-2.73,17.79,17.79,0,0,1,0-4.88c.49-3.57,2-7.46,5.42-8.88a9.23,9.23,0,0,1,2.07-.52,4.33,4.33,0,0,1,3.34.69c1.34,1.08,1.55,3.17.94,5.43a17.1,17.1,0,0,1-3.69,6.6A22.51,22.51,0,0,1,215.78,64C214.47,64.93,213.26,65.51,212.5,65Z"/><path class="cls-4" d="M250.48,100.81c-.12-1.36,2.42-3.61,5.62-5.26s7.25-2.58,10.36-.6c.26.1,3.07,2.14,3,4.56-.14,1.74-1.76,3.1-4,3.87a17.36,17.36,0,0,1-7.53.67,25.69,25.69,0,0,1-4.76-1.15C251.63,102.37,250.56,101.7,250.48,100.81Z"/><path class="cls-5" d="M250.36,99.91c-.06-.69.55-1.6,1.55-2.56a18.17,18.17,0,0,1,4-2.81,15.71,15.71,0,0,1,5.21-1.74,7.67,7.67,0,0,1,5.15,1,8.85,8.85,0,0,1,1.66,1.37,4.74,4.74,0,0,1,1.38,3.15c0,1.71-1.72,3.14-3.91,3.94a17.17,17.17,0,0,1-7.49.8,26.69,26.69,0,0,1-4.8-1.07,7.41,7.41,0,0,1-1.87-.89A1.67,1.67,0,0,1,250.36,99.91Z"/><path class="cls-4" d="M236.74,144.36c.67-.22,1.71.16,2.87.9a18.25,18.25,0,0,1,3.65,3.21,15.79,15.79,0,0,1,2.92,4.66,9.29,9.29,0,0,1,.59,2.62,7,7,0,0,1-.32,2.6c-.06.24-1.22,3.55-3.55,4-1.65.32-3.36-.85-4.72-2.79a17,17,0,0,1-2.71-7.05,21.79,21.79,0,0,1-.12-4.93C235.54,146,235.87,144.64,236.74,144.36Z"/><path class="cls-5" d="M237.61,144a3.85,3.85,0,0,1,2.85.83,18,18,0,0,1,3.72,3.16c2.44,2.65,4.43,6.33,3.35,9.84a9,9,0,0,1-.91,1.92A4.3,4.3,0,0,1,244,161.9c-1.65.33-3.39-.84-4.77-2.74a16.9,16.9,0,0,1-2.81-7,21.48,21.48,0,0,1-.16-4.9C236.39,145.62,236.73,144.32,237.61,144Z"/><path class="cls-4" d="M182.45,160.73c1.51.28,3.06,3.25,3.7,6.82s.32,7.7-2.2,10.14c-.18.17-2.62,2.42-4.75,1.75-3.08-1-3.71-7.43-2-12.19a19.71,19.71,0,0,1,2.28-4.41C180.44,161.5,181.48,160.55,182.45,160.73Z"/><path class="cls-5" d="M183.44,160.86c1.52.24,3.09,3.25,3.76,6.8s.36,7.68-2.14,10.15c-.17.21-2.61,2.41-4.74,1.78-3.09-1-3.77-7.42-2.08-12.17C179.23,164.7,181.52,160.51,183.44,160.86Z"/><path class="cls-4" d="M146.36,150.5c-.43.49-1.33.65-2.71.72a24.61,24.61,0,0,1-4.86-.35,14.64,14.64,0,0,1-5.2-1.8,7.19,7.19,0,0,1-3.29-4.23,9.06,9.06,0,0,1-.28-2.25,5,5,0,0,1,1.13-3.4c1.26-1.22,3.37-1.16,5.54-.26a17.15,17.15,0,0,1,6.07,4.49,30.66,30.66,0,0,1,2.84,4,9,9,0,0,1,.84,1.84A1.31,1.31,0,0,1,146.36,150.5Z"/><path class="cls-5" d="M145.91,151.13c-.32.45-1.36.7-2.68.78a28.5,28.5,0,0,1-4.84-.17,14.22,14.22,0,0,1-5.26-1.55,7.87,7.87,0,0,1-2.13-1.74,6.91,6.91,0,0,1-1.32-2.44,8.75,8.75,0,0,1-.33-2.29,7.18,7.18,0,0,1,.2-1.87,4,4,0,0,1,.88-1.61c1.21-1.34,3.37-1.26,5.55-.42a17,17,0,0,1,6.14,4.37A29.25,29.25,0,0,1,145,148.1a10.21,10.21,0,0,1,.92,1.79A1.37,1.37,0,0,1,145.91,151.13Z"/><path class="cls-4" d="M183.28,107.07c-1.42.72-4.46-.75-7.08-3.25s-4.78-6-4.26-9.45c0-.24.58-3.45,2.62-4.17,2.95-1,7.47,3.59,9,8.41C184.48,101.39,185.09,106.14,183.28,107.07Z"/><path class="cls-5" d="M182.38,107.58C179.61,109,170,101.75,171,94.92c0-.26.58-3.45,2.61-4.18,2.94-1,7.49,3.57,9.06,8.38C183.56,101.89,184.19,106.66,182.38,107.58Z"/><path class="cls-4" d="M232.08,71.17c-3,1-11.24-7.79-9.16-14.34.07-.25,1.11-3.31,3.24-3.69,3.05-.57,6.81,4.73,7.58,9.72C234.19,65.77,234,70.53,232.08,71.17Z"/><path class="cls-5" d="M231.11,71.54c-3,1-11.27-7.77-9.21-14.32.08-.24,1.1-3.33,3.23-3.71,3.06-.55,6.82,4.7,7.62,9.71C233.2,66.12,233,70.88,231.11,71.54Z"/><path class="cls-4" d="M285.77,44.73c-1.53.14-3.78-2.41-5.27-5.7s-2.19-7.37-.36-10.36c.12-.23,1.94-3,4.16-2.87,3.24.21,5.44,6.29,4.95,11.32C288.94,40,287.73,44.61,285.77,44.73Z"/><path class="cls-5" d="M284.77,44.86c-1.53.14-3.8-2.4-5.32-5.68s-2.22-7.36-.41-10.35a8.87,8.87,0,0,1,1.27-1.58,4.16,4.16,0,0,1,2.87-1.31c3.23.16,5.49,6.25,5,11.26a20.22,20.22,0,0,1-1.09,4.87C286.54,43.6,285.76,44.76,284.77,44.86Z"/><path class="cls-4" d="M333.26,47.67c-.23-.57.1-1.56.74-2.75a22.28,22.28,0,0,1,2.83-4,14.86,14.86,0,0,1,4.24-3.46,7.34,7.34,0,0,1,5.31-.68,9.61,9.61,0,0,1,2.06.9,5,5,0,0,1,2.35,2.75c.44,1.75-.72,3.54-2.63,4.92a17.39,17.39,0,0,1-7,2.83,30.65,30.65,0,0,1-4.86.4C334.77,48.59,333.54,48.42,333.26,47.67Z"/><path class="cls-5" d="M332.93,47c-.23-.59,0-1.54.66-2.78a21.94,21.94,0,0,1,2.69-4.05,14.88,14.88,0,0,1,4.14-3.6,7.3,7.3,0,0,1,5.29-.81,8.54,8.54,0,0,1,2.11.86,5,5,0,0,1,2.45,2.72c.51,1.75-.64,3.58-2.49,5a17.42,17.42,0,0,1-6.93,3,31.59,31.59,0,0,1-4.84.52C334.46,47.81,333.23,47.67,332.93,47Z"/><path class="cls-4" d="M353.74,108.28a5.19,5.19,0,0,1-.59-2.27,8,8,0,0,1,.4-2.63,10.71,10.71,0,0,1,3.2-4.63,26.22,26.22,0,0,1,4.72-3.12,23.19,23.19,0,0,0,3.91-2.49,6.61,6.61,0,0,0,.85-.88c.34-.4.48-.84.32-.31a21.64,21.64,0,0,0-.48,2.47c-.17,1.21-.32,2.78-.52,4.47a41.29,41.29,0,0,1-.91,5.37l-.18.67a4.53,4.53,0,0,1-.17.49c-.12.29-.24.58-.39.86a7.3,7.3,0,0,1-5.42,4A4.47,4.47,0,0,1,353.74,108.28Z"/><path class="cls-5" d="M352.84,106.58a5.5,5.5,0,0,1-.43-2.35,7.73,7.73,0,0,1,.58-2.57,10,10,0,0,1,3.51-4.23,25.48,25.48,0,0,1,4.93-2.57,19.88,19.88,0,0,0,4-2.08,5.22,5.22,0,0,0,.88-.8c.34-.37.5-.8.29-.32A16.89,16.89,0,0,0,366,94c-.27,1.19-.54,2.71-.87,4.38a43.35,43.35,0,0,1-1.29,5.2c-.07.21-.14.42-.22.64s-.16.43-.22.55a9.27,9.27,0,0,1-.44.82,7.78,7.78,0,0,1-1.11,1.44,7.17,7.17,0,0,1-4.43,2A4.51,4.51,0,0,1,352.84,106.58Z"/><path class="cls-4" d="M397.29,61.62c-.9,1.25-4.29,1.33-7.76.33s-7-3.11-8.13-6.43c-.09-.24-1-3.41.52-5,2.25-2.36,8.32-.06,11.81,3.57C395.75,56.17,398.44,60,397.29,61.62Z"/><path class="cls-5" d="M396.74,62.46c-.9,1.26-4.29,1.36-7.77.39s-7.06-3.08-8.16-6.39c-.09-.24-1.07-3.4.48-5,2.23-2.37,8.31-.13,11.84,3.48C395.16,57,397.88,60.86,396.74,62.46Z"/><path class="cls-4" d="M431.85,33.11c-1.22-.57-2-3.81-1.94-7.42S431,18,434.29,16.26c.21-.14,3.36-1.7,5.39-.43,1.43.92,1.86,3,1.49,5.31a16.89,16.89,0,0,1-2.91,7A24.23,24.23,0,0,1,435,31.75C433.78,32.79,432.66,33.5,431.85,33.11Z"/><path class="cls-5" d="M431,32.79c-.63-.29-1.12-1.23-1.49-2.55a19.12,19.12,0,0,1-.6-4.85c0-3.6.95-7.67,4.2-9.5.21-.14,3.37-1.78,5.42-.52,1.47.88,1.91,3,1.6,5.29a16.92,16.92,0,0,1-2.82,7,24.05,24.05,0,0,1-3.23,3.7C432.94,32.45,431.82,33.12,431,32.79Z"/><path class="cls-4" d="M481.23,59.6c-.85-1.26.29-4.46,2.4-7.38s5.33-5.55,8.86-5.39c.25,0,3.58.23,4.56,2.28,1.42,2.94-2.88,7.8-7.51,9.79C486.85,60,482.28,61.21,481.23,59.6Z"/><path class="cls-5" d="M480.64,58.8c-.84-1.27.24-4.46,2.34-7.41s5.3-5.6,8.82-5.45c.26,0,3.59.21,4.59,2.24C497.83,51.11,493.58,56,489,58,486.27,59.2,481.73,60.39,480.64,58.8Z"/><path class="cls-4" d="M505.88,104.77a4.14,4.14,0,0,1,2.48-1.38,22.19,22.19,0,0,1,4.81-.8c3.59-.21,7.74.47,9.66,3.88a10.22,10.22,0,0,1,.81,2.16,5.21,5.21,0,0,1-.42,3.76c-1,1.64-3.16,2-5.43,1.55a18,18,0,0,1-6.78-3.3,38.18,38.18,0,0,1-3.63-3.16C506.29,106.4,505.57,105.47,505.88,104.77Z"/><path class="cls-5" d="M506.17,104c.21-.56,1.16-1,2.43-1.48a21.46,21.46,0,0,1,4.78-1,14.77,14.77,0,0,1,5.46.42,7.2,7.2,0,0,1,4.31,3.18,7.66,7.66,0,0,1,.86,2.14,5.26,5.26,0,0,1-.26,3.79c-1,1.66-3.06,2.16-5.4,1.73a18.18,18.18,0,0,1-6.89-3.08,40.19,40.19,0,0,1-3.72-3.06,9.83,9.83,0,0,1-1.32-1.47A1.34,1.34,0,0,1,506.17,104Z"/><path class="cls-4" d="M468.76,137.56c1.51-.18,3.85,2.27,5.49,5.49s2.51,7.28.78,10.34c-.12.22-1.83,3.07-4.06,3-3.22-.07-5.67-6.06-5.38-11.1C465.78,142.39,466.83,137.77,468.76,137.56Z"/><path class="cls-5" d="M469.75,137.4c1.51-.18,3.86,2.24,5.53,5.45s2.57,7.27.85,10.33c-.12.23-1.81,3.1-4.05,3.06-3.22,0-5.72-6-5.45-11.06C466.8,142.25,467.82,137.64,469.75,137.4Z"/><path class="cls-4" d="M411.8,147.47c1.37.46,2.51,3.62,2.73,7.24s-.56,7.68-3.48,9.77c-.19.16-3,2.06-5.21,1-1.54-.75-2.21-2.76-2.11-5.12a17.13,17.13,0,0,1,2.16-7.22,23.4,23.4,0,0,1,2.85-4C409.82,148,410.9,147.18,411.8,147.47Z"/><path class="cls-5" d="M412.71,147.73c1.4.43,2.57,3.59,2.84,7.2s-.48,7.69-3.37,9.81c-.2.16-3,2.1-5.18,1.09-1.54-.71-2.25-2.74-2.18-5.07a16.92,16.92,0,0,1,2-7.27,22.34,22.34,0,0,1,2.82-4C410.73,148.26,411.82,147.44,412.71,147.73Z"/><path class="cls-4" d="M408.36,118.44c-1.13,1-4.43.35-7.65-1.33s-6.26-4.46-6.6-8c0-.25-.28-3.6,1.59-4.84,2.68-1.81,8.14,1.72,10.77,6C408,112.8,409.79,117.16,408.36,118.44Z"/><path class="cls-5" d="M407.65,119.12c-1.11,1-4.44.39-7.65-1.25s-6.32-4.41-6.68-7.93c0-.26-.29-3.59,1.57-4.87,2.68-1.82,8.13,1.64,10.82,5.93a19.91,19.91,0,0,1,2.07,4.52C408.27,117.08,408.36,118.47,407.65,119.12Z"/><path class="cls-4" d="M449.46,76.44c-1.43.63-4.37-1.08-6.82-3.74S438.27,66.38,439,63c0-.26.86-3.41,3-4,3.05-.81,7.18,4.17,8.35,9.09C451,70.9,451.31,75.68,449.46,76.44Z"/><path class="cls-5" d="M448.54,76.89c-1.43.62-4.39-1.08-6.84-3.72s-4.41-6.31-3.64-9.7c0-.25.83-3.43,2.95-4,3-.86,7.2,4.13,8.39,9C450.1,71.35,450.37,76.08,448.54,76.89Z"/><path class="cls-4" d="M501.3,47.76c-1.54.19-3.88-2.28-5.48-5.53s-2.4-7.3-.69-10.33c.11-.24,1.8-3,4-3,3.17.06,5.69,6.07,5.4,11.09C504.36,42.93,503.27,47.53,501.3,47.76Z"/><path class="cls-5" d="M500.3,47.92c-1.55.19-3.9-2.28-5.51-5.5s-2.46-7.3-.75-10.33c.12-.22,1.78-3.08,4-3,3.18.05,5.71,6,5.46,11.06C503.34,43.07,502.26,47.66,500.3,47.92Z"/><path class="cls-4" d="M558.85,36.61c-1.5-.35-2.86-3.48-3.28-7.07s.16-7.68,2.82-9.95c.19-.18,2.74-2.28,4.82-1.48,3,1.17,3.28,7.63,1.29,12.28C563.33,33.07,560.76,37,558.85,36.61Z"/><path class="cls-5" d="M557.86,36.42c-1.5-.37-2.88-3.46-3.33-7s.12-7.72,2.77-10c.18-.15,2.73-2.31,4.81-1.5,3,1.13,3.33,7.62,1.36,12.26A19,19,0,0,1,561,34.45C559.93,35.73,558.83,36.65,557.86,36.42Z"/><path class="cls-4" d="M617.24,45.29c-1.34-.79-1.7-4.17-1-7.72s2.52-7.26,5.71-8.64c.23-.1,3.27-1.35,5,0,2.48,2,.88,8.25-2.4,12.09C622.63,43.29,619,46.31,617.24,45.29Z"/><path class="cls-5" d="M616.34,44.81c-1.35-.8-1.73-4.17-1-7.72s2.49-7.29,5.68-8.66c.23-.12,3.26-1.36,5,0,2.48,2,.92,8.24-2.34,12.12C621.73,42.78,618.07,45.82,616.34,44.81Z"/><path class="cls-4" d="M669.32,70.94c-.84-1.17.14-4.4,2.09-7.44s5-5.87,8.59-5.81c.25,0,3.67.15,4.79,2.25.79,1.5.14,3.52-1.33,5.36a16.94,16.94,0,0,1-6,4.57,22.33,22.33,0,0,1-4.68,1.53C671.22,71.71,669.86,71.71,669.32,70.94Z"/><path class="cls-5" d="M668.73,70.2c-.84-1.19.06-4.41,2-7.48s4.94-5.92,8.53-5.91c.25,0,3.67.09,4.81,2.19.82,1.47.18,3.52-1.25,5.36A16.8,16.8,0,0,1,676.88,69a22.59,22.59,0,0,1-4.66,1.58C670.64,71,669.3,71,668.73,70.2Z"/><path class="cls-4" d="M666.59,104.42c1.4-.42,4.11,1.54,6.37,4.37s3.95,6.63,2.74,10c-.06.26-1.3,3.41-3.56,3.78-3.26.51-6.63-5-7.19-10C664.65,109.63,664.81,104.94,666.59,104.42Z"/><path class="cls-5" d="M667.49,104.1c1.39-.44,4.13,1.5,6.43,4.29s4,6.57,2.86,10c-.07.24-1.28,3.44-3.55,3.82-3.27.56-6.69-5-7.29-10a20.57,20.57,0,0,1,0-5C666.15,105.67,666.6,104.38,667.49,104.1Z"/><path class="cls-4" d="M611.9,122.73c1.48.2,3.15,3.14,4,6.66s.7,7.67-1.76,10.22c-.17.19-2.57,2.55-4.8,1.93-1.59-.44-2.62-2.3-3-4.61a16.84,16.84,0,0,1,.66-7.51C607.94,126.65,610,122.48,611.9,122.73Z"/><path class="cls-5" d="M612.88,122.82c1.49.2,3.19,3.1,4,6.63s.76,7.66-1.67,10.23c-.17.19-2.54,2.57-4.78,2-1.59-.43-2.63-2.25-3-4.57a16.7,16.7,0,0,1,.57-7.52C608.93,126.79,611,122.57,612.88,122.82Z"/><path class="cls-4" d="M602.44,101.61c-1.09,1-4.43.41-7.66-1.2s-6.34-4.37-6.73-7.89c0-.24-.33-3.58,1.52-4.85,2.65-1.85,8.16,1.58,10.87,5.83C602,96,603.86,100.32,602.44,101.61Z"/><path class="cls-5" d="M601.75,102.31c-1.11,1-4.42.45-7.67-1.14s-6.4-4.31-6.8-7.82c0-.26-.35-3.59,1.48-4.89,2.65-1.87,8.17,1.52,10.92,5.76C601.26,96.69,603.14,101,601.75,102.31Z"/><path class="cls-4" d="M642.62,58.6c-1.41.65-4.38-1-6.9-3.58s-4.53-6.21-3.83-9.63c.05-.24.78-3.46,2.91-4.08,3.05-.91,7.25,4,8.52,8.92C644,53.06,644.43,57.79,642.62,58.6Z"/><path class="cls-5" d="M641.72,59.06c-1.42.66-4.4-1-6.93-3.55s-4.57-6.19-3.87-9.6c0-.26.76-3.46,2.88-4.11,3.06-.91,7.28,4,8.58,8.88C643.11,53.5,643.52,58.24,641.72,59.06Z"/><path class="cls-4" d="M692.41,35.45c-1.17-.41-2.44-3.44-3-7a15.07,15.07,0,0,1,.07-5.48,7.35,7.35,0,0,1,2.78-4.52,7.76,7.76,0,0,1,2-1,5,5,0,0,1,3.71-.06,3.52,3.52,0,0,1,1.83,2,7.26,7.26,0,0,1,.37,3.21,17.94,17.94,0,0,1-2.41,7.11,34.56,34.56,0,0,1-2.71,4C694.06,34.88,693.19,35.65,692.41,35.45Z"/><path class="cls-5" d="M691.6,35.24c-1.21-.33-2.55-3.41-3.21-6.94S688,20.58,691,18.22a9.08,9.08,0,0,1,2-1.08,5.09,5.09,0,0,1,3.69-.19c1.74.77,2.49,2.76,2.37,5.15a18,18,0,0,1-2.2,7.21,33.62,33.62,0,0,1-2.61,4.07C693.29,34.58,692.39,35.48,691.6,35.24Z"/><path class="cls-4" d="M723.1,71.84c-.5-3.25,9.67-9.66,15.71-6.57.23.13,3,1.58,3.05,3.66,0,2.95-5.68,6-10.76,6C728.16,75,723.43,73.93,723.1,71.84Z"/><path class="cls-5" d="M722.9,70.79c-.49-3.25,9.67-9.65,15.71-6.56.23.12,3,1.6,3.06,3.67,0,3-5.7,6-10.78,6C728,73.91,723.21,72.86,722.9,70.79Z"/><path class="cls-4" d="M759,127.26c-.58-.69-.63-1.88-.23-3.28a13.73,13.73,0,0,1,2.28-4.37,17,17,0,0,1,4-3.79,10.19,10.19,0,0,1,4.72-1.78c.26,0,3.25-.26,4.13,1.44,1.35,2.29-1.72,8-6.08,10.69A14,14,0,0,1,763,128C761.34,128.3,759.75,128.16,759,127.26Z"/><path class="cls-5" d="M758.24,126.38c-1.09-1.48-.06-4.81,2.17-7.65s5.57-5.31,8.72-5.43c.26,0,3.27-.25,4.14,1.44.61,1.24.18,3.15-1,5.2a15.48,15.48,0,0,1-5.24,5.45,14.47,14.47,0,0,1-4.77,1.75C760.57,127.42,759,127.27,758.24,126.38Z"/><path class="cls-4" d="M821,151.67c-1.64-.59-2.59-3.89-2.37-7.49s1.58-7.54,4.28-9.43c.21-.12,2.73-1.91,4.49-.95,2.51,1.36,2.64,7.8.29,12.33C826.31,148.73,823.06,152.43,821,151.67Z"/><path class="cls-5" d="M819.89,151.32c-1.63-.58-2.57-3.9-2.31-7.52s1.61-7.48,4.33-9.38c.21-.14,2.74-1.87,4.49-.93,2.5,1.38,2.59,7.83.21,12.33C825.26,148.4,822,152.11,819.89,151.32Z"/><path class="cls-4" d="M886.9,146.35c-1.89.32-4.31-2.23-5.68-5.55s-1.85-7.46-.52-10.3a7,7,0,0,1,.9-1.51c.55-.66,1.14-1.35,2-1.31,1.21,0,2.67,1.34,4.05,3.27a14.61,14.61,0,0,1,2.7,7,12.81,12.81,0,0,1-.09,2.51,12.57,12.57,0,0,1-.62,2.63C889.08,144.83,888.1,146.14,886.9,146.35Z"/><path class="cls-5" d="M885.69,146.58c-1.87.24-4.24-2.27-5.56-5.66s-1.74-7.47-.36-10.3a12.84,12.84,0,0,1,.93-1.51,2.85,2.85,0,0,1,2.1-1.28c1.26.06,2.68,1.42,4,3.37a14.71,14.71,0,0,1,2.51,7.13,13.64,13.64,0,0,1-.8,5.1C887.87,145.06,886.88,146.41,885.69,146.58Z"/><path class="cls-4" d="M869,93.2c2.54,2-.39,13.66-7,15.54-.24.07-3.35.91-4.84-.65-2.14-2.25.18-8.29,3.92-11.7C863.27,94.42,867.35,91.92,869,93.2Z"/><path class="cls-5" d="M869.83,93.82c2.55,2-.38,13.66-6.93,15.55-.24.07-3.35.91-4.83-.64-2.15-2.24.15-8.29,3.88-11.71C864.11,95,868.2,92.54,869.83,93.82Z"/><path class="cls-4" d="M828.22,55.66a4.71,4.71,0,0,1,.19,2.41,7.25,7.25,0,0,1-.79,2.45,9.65,9.65,0,0,1-4,3.75,23.35,23.35,0,0,1-5.16,1.86,21.16,21.16,0,0,0-4.23,1.46,5.12,5.12,0,0,0-1,.64c-.39.3-.59.68-.36.22a16.09,16.09,0,0,0,.84-2.22c.36-1.11.75-2.53,1.19-4.07a36,36,0,0,1,1.71-4.84l.28-.6a4.31,4.31,0,0,1,.25-.44,8.88,8.88,0,0,1,.53-.78A7.49,7.49,0,0,1,819,54.15a7.57,7.57,0,0,1,2.1-1.16,7.2,7.2,0,0,1,2.68-.38,6.09,6.09,0,0,1,1.4.22,7,7,0,0,1,1.26.62,4.67,4.67,0,0,1,.58.41,3.5,3.5,0,0,1,.47.54A5.31,5.31,0,0,1,828.22,55.66Z"/><path class="cls-5" d="M828.83,57.58A5.65,5.65,0,0,1,828.9,60a7.39,7.39,0,0,1-1,2.38,8.3,8.3,0,0,1-4.12,3.2,20.51,20.51,0,0,1-5.3,1.33,18.43,18.43,0,0,0-4.31,1,5.2,5.2,0,0,0-1,.55c-.39.27-.6.65-.33.24a14.64,14.64,0,0,0,1-2.07c.44-1,1-2.44,1.52-3.93a38.67,38.67,0,0,1,2-4.62l.32-.55c.11-.18.22-.37.3-.47a7.83,7.83,0,0,1,.57-.72,6.56,6.56,0,0,1,3.47-2.18,8.36,8.36,0,0,1,1.28-.2,4.82,4.82,0,0,1,1.37.06,5,5,0,0,1,2.55,1.14,6.56,6.56,0,0,1,1,1.06A4.11,4.11,0,0,1,828.83,57.58Z"/><path class="cls-4" d="M772.2,89.5c2.51-2,13.21,3.51,13.52,10.35,0,.25.1,3.47-1.76,4.56-2.67,1.55-8-2.09-10.47-6.52C772.07,95.34,770.59,90.78,772.2,89.5Z"/><path class="cls-5" d="M773,88.82c2.51-2,13.21,3.49,13.53,10.33,0,.25.11,3.47-1.74,4.56-2.67,1.55-8-2.07-10.49-6.49C772.87,94.66,771.38,90.1,773,88.82Z"/><path class="cls-4" d="M730.87,132.24c1.41-.56,4.32,1.16,6.77,3.81s4.4,6.34,3.53,9.74a8.43,8.43,0,0,1-.75,1.91,4.23,4.23,0,0,1-2.38,2.13c-3.19.8-7.08-4.37-8.12-9.3a20.84,20.84,0,0,1-.4-4.95C729.61,134,730,132.62,730.87,132.24Z"/><path class="cls-5" d="M731.78,131.83c1.4-.57,4.32,1.1,6.79,3.75s4.44,6.29,3.62,9.72c-.06.24-.91,3.48-3.12,4.06-1.55.42-3.37-.65-4.88-2.45a16.43,16.43,0,0,1-3.3-6.77C730.27,137.26,730,132.58,731.78,131.83Z"/><path class="cls-4" d="M677.55,152.53c1.53.09,3.33,2.95,4.25,6.44s.93,7.64-1.35,10.33c-.15.24-2.4,2.57-4.56,2.08-3.12-.72-4.34-7.06-3-12C673.61,156.58,675.59,152.32,677.55,152.53Z"/><path class="cls-5" d="M678.56,152.55c1.53.09,3.34,2.95,4.29,6.44s1,7.62-1.3,10.31a8.69,8.69,0,0,1-1.51,1.38,4.06,4.06,0,0,1-3,.77c-3.14-.72-4.39-7.06-3.12-11.95a18.84,18.84,0,0,1,1.88-4.59C676.6,153.52,677.57,152.51,678.56,152.55Z"/><path class="cls-4" d="M618.78,151.41c1.44.64,2.22,4,1.94,7.58s-1.63,7.5-4.61,9.23c-.22.14-3.05,1.73-4.92.61-2.68-1.59-1.91-8.08.84-12.29C613.64,154.07,616.93,150.59,618.78,151.41Z"/><path class="cls-5" d="M619.74,151.79c1.45.63,2.23,4,2,7.57s-1.61,7.53-4.58,9.25c-.21.14-3,1.73-4.91.61-2.69-1.6-2-8,.79-12.29C614.61,154.46,617.89,151,619.74,151.79Z"/><path class="cls-4" d="M559.52,136.67c2.83,1.61,1.65,13.56-4.54,16.41-.23.11-3.15,1.41-4.82.11-2.4-1.85-1.14-8.2,2-12.17C554,138.73,557.7,135.64,559.52,136.67Z"/><path class="cls-5" d="M560.46,137.17c2.83,1.59,1.66,13.55-4.53,16.41-.24.1-3.15,1.4-4.83.1-2.4-1.85-1.13-8.19,2-12.17C554.94,139.22,558.64,136.13,560.46,137.17Z"/><path class="cls-4" d="M492.77,134.29a3.73,3.73,0,0,1,3,1.41,13.17,13.17,0,0,1,2.68,4.14c1.43,3.35,1.92,7.39.58,10.28a8.44,8.44,0,0,1-1,1.55,3.19,3.19,0,0,1-2.26,1.36c-2.66,0-6.19-5.43-6.42-10.52a15,15,0,0,1,.7-5.08C490.69,135.82,491.61,134.5,492.77,134.29Z"/><path class="cls-5" d="M493.93,134.05c1.87-.23,4.27,2.3,5.62,5.65s1.82,7.48.43,10.27c-.13.21-1.35,2.95-3.23,2.86-2.64,0-6.09-5.48-6.27-10.59a13.83,13.83,0,0,1,.78-5.05C491.85,135.57,492.78,134.25,493.93,134.05Z"/><path class="cls-4" d="M439.41,165c1.33-.1,3.53,2.44,5.15,5.68s2.49,7.27.45,10.39a7.2,7.2,0,0,1-1.48,1.58,4.92,4.92,0,0,1-3.25,1.3c-1.78-.2-3.1-1.87-3.79-4.12a17.42,17.42,0,0,1-.4-7.53,29.62,29.62,0,0,1,1.24-4.71C437.89,166,438.54,165,439.41,165Z"/><path class="cls-5" d="M440.29,164.84c1.35-.11,3.61,2.45,5.28,5.61a15.6,15.6,0,0,1,1.7,5.23,7.79,7.79,0,0,1-1.08,5.13,8.53,8.53,0,0,1-1.42,1.65,5,5,0,0,1-3.25,1.32,3.08,3.08,0,0,1-1.23-.33,4.49,4.49,0,0,1-1.09-.87,7.83,7.83,0,0,1-1.55-2.81,17.14,17.14,0,0,1-.56-7.5,28.6,28.6,0,0,1,1.16-4.78C438.78,166,439.42,164.94,440.29,164.84Z"/><path class="cls-4" d="M388.71,153.52c1,1.12.42,4.42-1.19,7.66s-4.35,6.4-7.86,6.76c-.24,0-3.61.34-4.9-1.54-.93-1.33-.55-3.38.64-5.42a16.38,16.38,0,0,1,5.23-5.42C383.13,154,387.42,152.14,388.71,153.52Z"/><path class="cls-5" d="M389.4,154.21c1,1.11.48,4.4-1.1,7.67s-4.28,6.41-7.81,6.84c-.24,0-3.61.36-4.92-1.51-1.9-2.68,1.52-8.15,5.77-10.9a20.08,20.08,0,0,1,4.47-2.14C387.36,153.65,388.75,153.5,389.4,154.21Z"/><path class="cls-4" d="M341.38,113.17c1.43,1.36.9,4.82-.95,7.92s-4.88,6-7.88,6.64a8.2,8.2,0,0,1-1.71.24,2.56,2.56,0,0,1-2.22-.77c-.72-1-.6-2.92.06-5.2a14.6,14.6,0,0,1,3.86-6.47,12.64,12.64,0,0,1,4.5-2.62C338.78,112.33,340.43,112.35,341.38,113.17Z"/><path class="cls-5" d="M342.31,114a3.83,3.83,0,0,1,.68,3.29,13.08,13.08,0,0,1-1.82,4.59c-1.89,3.11-4.95,5.81-8,6.49-.26,0-3,.7-3.94-.64a3.36,3.36,0,0,1-.43-2.15,12.25,12.25,0,0,1,.64-3,14.7,14.7,0,0,1,4-6.38,13.43,13.43,0,0,1,4.54-2.51C339.7,113.18,341.46,113.14,342.31,114Z"/><path class="cls-4" d="M281.61,139.16c1.09-1.08,4.45-.61,7.72.94s6.44,4.21,7,7.66c.05.25.47,3.53-1.33,4.89-2.62,2-8.21-1.29-11.07-5.45C282.26,144.79,280.21,140.54,281.61,139.16Z"/><path class="cls-5" d="M282.29,138.42c1.09-1.09,4.46-.65,7.73.88s6.47,4.19,7,7.63c0,.24.5,3.52-1.3,4.89-2.58,2-8.23-1.22-11.11-5.35C283,144.06,280.91,139.83,282.29,138.42Z"/><path class="cls-4" d="M240.16,176.57c1.47-.33,4,1.91,5.93,5s3.14,7,1.68,10.24c-.08.27-1.56,3.21-3.8,3.36-3.23.22-6.15-5.52-6.3-10.61C237.6,181.59,238.27,177,240.16,176.57Z"/><path class="cls-5" d="M241.11,176.32c1.48-.33,4,1.89,6,5s3.19,7,1.75,10.21a9.37,9.37,0,0,1-1.08,1.75,4,4,0,0,1-2.71,1.65c-3.23.23-6.2-5.5-6.37-10.56C238.59,181.36,239.26,176.78,241.11,176.32Z"/><path class="cls-4" d="M183.69,191.28c1.53.25,3.1,3.29,3.75,6.83s.34,7.69-2.15,10.12c-.17.17-2.56,2.46-4.68,1.8-3-1-3.8-7.39-2.15-12.17a19.22,19.22,0,0,1,2.25-4.42C181.65,192.08,182.7,191.11,183.69,191.28Z"/><path class="cls-5" d="M184.69,191.4c1.54.28,3.13,3.25,3.8,6.8s.38,7.73-2.1,10.15c-.17.18-2.56,2.44-4.67,1.83-3.06-1-3.85-7.39-2.22-12.15C180.46,195.3,182.74,191.06,184.69,191.4Z"/><path class="cls-4" d="M126.32,185.23c1.22.8,1.38,4.18.55,7.7s-2.76,7.17-6.15,8.37c-.24.15-3.47,1-5.21-.48-1.25-1.07-1.3-3.27-.56-5.48a16.79,16.79,0,0,1,4-6.35,23,23,0,0,1,3.91-3.05C124.28,185.11,125.54,184.7,126.32,185.23Z"/><path class="cls-5" d="M127.14,185.72c1.23.81,1.42,4.2.63,7.73s-2.68,7.2-6,8.41a8.45,8.45,0,0,1-2,.45,4.48,4.48,0,0,1-3.18-.87c-1.25-1.1-1.35-3.17-.64-5.43a16.83,16.83,0,0,1,4-6.43,21.47,21.47,0,0,1,3.88-3.1,7.78,7.78,0,0,1,1.93-.87A1.94,1.94,0,0,1,127.14,185.72Z"/><path class="cls-4" d="M99.5,148.34c-.46,1.35-3.64,2.41-7.24,2.65s-7.7-.57-9.76-3.55c-.16-.2-2-3.09-1-5.15,1.48-3,8-2.44,12.34,0a21.4,21.4,0,0,1,4,2.92C99,146.36,99.81,147.46,99.5,148.34Z"/><path class="cls-5" d="M99.24,149.24c-.44,1.35-3.6,2.46-7.2,2.75s-7.71-.44-9.81-3.41c-.16-.2-2.06-3.08-1-5.17,1.46-3,7.93-2.54,12.34-.11a21.32,21.32,0,0,1,4,2.87C98.73,147.27,99.53,148.37,99.24,149.24Z"/><path class="cls-4" d="M65.59,120.65c1.38-1,4.68,0,7.55,2.2s5.38,5.46,5.47,8.77c0,.25.06,3.34-1.73,4.3-2.56,1.37-8-2.19-10.39-6.65C65.08,126.7,63.79,122,65.59,120.65Z"/><path class="cls-5" d="M66.46,120c1.4-1,4.69,0,7.54,2.25s5.35,5.51,5.42,8.8c0,.26,0,3.34-1.74,4.28-2.56,1.35-8-2.22-10.36-6.7C65.92,126,64.66,121.28,66.46,120Z"/><path class="cls-6" d="M949.65,190.87a85.88,85.88,0,0,1-8.32,32.67,71,71,0,0,1-12.84,18.23c-1,1-1.94,1.95-2.94,2.86-12.78,11.77-28.24,17.81-39.76,21.1,32.4-24-45.65-6.44-54.56-21-11.43-18.68,31.17-38.38,36.62-76.2,7.23-50.25-56.13-97.91-90.4-123.69A361.84,361.84,0,0,0,736,17.78c28.9,4.85,67.2,14.46,106.72,35,29.5,15.33,90.39,46.95,104.13,104.89A116.84,116.84,0,0,1,949.65,190.87Z"/></svg>