<?xml version="1.0" encoding="utf-8"?><svg xml:space="preserve" viewBox="0 0 100 100" y="0" x="0" xmlns="http://www.w3.org/2000/svg" id="Layer_1" version="1.1" width="233px" height="233px" xmlns:xlink="http://www.w3.org/1999/xlink" style="width:100%;height:100%;background-size:initial;background-repeat-y:initial;background-repeat-x:initial;background-position-y:initial;background-position-x:initial;background-origin:initial;background-image:initial;background-color:rgba(255, 255, 255, 0);background-clip:initial;background-attachment:initial;animation-play-state:paused" ><g class="ldl-scale" style="transform-origin:50% 50%;transform:rotate(0deg) scale(1, 1);animation-play-state:paused" ><path d="M51.1 74.9l-7.2-.1 1.7-48.3 6.2.1z" fill="#e3d6ba" style="fill:rgb(233, 200, 85);animation-play-state:paused" ></path>
<path d="M72.7 71.9l-7.2-.2 1.7-48.3 6.2.2z" fill="#e3d6ba" style="fill:rgb(233, 200, 85);animation-play-state:paused" ></path>
<path d="M62.5 63.6l-7.2-.1L57 15.2l6.2.1z" fill="#e3d6ba" style="fill:rgb(233, 200, 85);animation-play-state:paused" ></path>
<path d="M45.3 64.2l-7.2.6L35 16.6l6.2-.5z" fill="#e3d6ba" style="fill:rgb(233, 200, 85);animation-play-state:paused" ></path>
<path d="M38.3 61.3l-6.9 2.2-14.1-46.3 6-1.8z" fill="#f4e6c8" style="fill:rgb(243, 217, 122);animation-play-state:paused" ></path>
<path d="M53.5 70l-7.1-.7 5.1-48.1 6.2.6z" fill="#f4e6c8" style="fill:rgb(243, 217, 122);animation-play-state:paused" ></path>
<path d="M67.4 64.5l-6.8-2.3 16.2-45.6 5.9 2.1z" fill="#f4e6c8" style="fill:rgb(243, 217, 122);animation-play-state:paused" ></path>
<path d="M54 74.8l-6.8-2.4 16.2-45.5 5.9 2z" fill="#f4e6c8" style="fill:rgb(243, 217, 122);animation-play-state:paused" ></path>
<path d="M45.6 58.6l-7.2-.4L41 10l6.2.3z" fill="#f4e6c8" style="fill:rgb(243, 217, 122);animation-play-state:paused" ></path>
<path d="M40.2 67.1l-7.2.8-5.1-48 6.2-.8z" fill="#f4e6c8" style="fill:rgb(243, 217, 122);animation-play-state:paused" ></path>
<path fill="#e15c64" d="M62.6 42.8c0 2.1-1.7 3.9-3.9 3.9h-18c-2.1 0-3.9-1.7-3.9-3.9 0-2.1-1.7-3.9-3.9-3.9H22.5l5.2 47.3c0 5 44 5 44 0L77 39H66.5c-2.2 0-3.9 1.7-3.9 3.8z" style="fill:rgb(211, 66, 66);animation-play-state:paused" ></path>
<metadata xmlns:d="https://loading.io/stock/" style="animation-play-state:paused" ><d:name style="animation-play-state:paused" >french fries</d:name>
<d:tags style="animation-play-state:paused" >french fries,chips,fries,finger chips,fried potatoes,mcdonald</d:tags>
<d:license style="animation-play-state:paused" >by</d:license>
<d:slug style="animation-play-state:paused" >ah4m26</d:slug></metadata></g><!-- generated by https://loading.io/ --></svg>