<svg id="Layer_1" data-name="Layer 1" xmlns="http://www.w3.org/2000/svg" viewBox="0 0 961.67 249.22"><defs><style>.cls-1{fill:#62a03a;}.cls-2{fill:#3e7719;}.cls-3{fill:#528431;}.cls-4{fill:#294f10;}.cls-5{fill:#4a8424;}.cls-6{fill:#56992e;}</style></defs><path class="cls-1" d="M961.67,154.14a3.5,3.5,0,0,0-1-2.42c-3.11-3.41-13.72-5.05-33.15-15-2.29-1.17-4.7-2.45-7.24-3.87-5.77-3.23-10.8-6.15-15.26-8.81l-2.84-1.68-6.58-4-1.31-.8c-12.63-7.67-20.24-12.29-30.51-15.09l-1.28-.34q-1.95-.48-4-.9l-1.91-.35-1.72-.29h0c-.84-.13-1.64-.25-2.42-.34q-1.56-.2-3-.3c-.82-.07-1.61-.11-2.36-.14s-1.23,0-1.82,0c-1.76,0-3.34.06-4.82.19l-1.42.13-.43.05-1.69.2-1.42.19-1.78.23-.26,0-1.82.21a41,41,0,0,1-11-.3q-1.11-.16-2.31-.42l-1.66-.36-.86-.2a57.16,57.16,0,0,1-9.89-3.33h0l-.28-.12a45.65,45.65,0,0,1-4.93-2.6c-1-.62-2-1.27-2.95-1.94-.47-.33-.93-.67-1.39-1h0c-.45-.34-.9-.69-1.35-1.06-1.79-1.43-3.5-3-5.23-4.56l-1.3-1.22-1.31-1.24L785.8,81.4c-2-1.92-4.15-3.93-6.52-6-.79-.69-1.61-1.39-2.45-2.09l-.87-.72-1.78-1.42c-.92-.71-1.87-1.44-2.87-2.17-.66-.48-1.34-1-2-1.46l-1.07-.74c-.82-.56-1.65-1.11-2.52-1.66l-.88-.56q-1.17-.75-2.43-1.5c-.9-.54-1.85-1.06-2.85-1.57l-1-.51c-.55-.27-1.12-.54-1.7-.8l-.89-.4c-.72-.31-1.47-.63-2.23-.94l-1.57-.61-.81-.31-1.67-.61-.87-.3L747,56.41l-.91-.3-1.9-.61-2-.61-2.05-.61L738,53.66l-1.37-.39-2.86-.79-1.48-.4-1.21-.32-3.76-1-2.45-.63-2.55-.64-.7-.18-2.11-.53-2.1-.52-3.9-1L687,40.85c-4.88-1.19-9.42-2.3-13.66-3.31l-2.09-.49-2-.49-2.92-.68c-4.9-1.13-9.36-2.11-13.48-2.91l-1.92-.37-1.36-.26-1.45-.26-1.6-.27-2.88-.46a.76.76,0,0,1-.21,0c-.82-.12-1.63-.23-2.43-.32l-.19,0-1.18-.14c-1.41-.17-2.77-.3-4.1-.4l-1.32-.09-2-.09h-.34c-.75,0-1.48,0-2.21,0l-1.37,0-.93,0h-.11c-1.58.06-3.12.17-4.64.36l-1,.13c-.41.05-.82.11-1.22.18l-2,.34-2.16.42-1.65.36c-.77.16-1.54.34-2.29.51l-1.35.32-1.42.34-2.93.69-1.86.44c-1.27.28-2.53.56-3.82.8l-1.27.23c-.78.14-1.57.27-2.37.38s-1.49.2-2.25.28l-.65.07-.81.07-.5,0-1.14.07-.28,0c-.26,0-.52,0-.79,0-.53,0-1.08,0-1.64,0h-1c-.84,0-1.71,0-2.6-.08l-.8,0-1.05-.08L582.25,36h0l-1.34-.16h0l-.33,0h0q-1.41-.19-2.76-.42l-1.38-.26-.49-.09c-1.47-.29-2.89-.62-4.24-1-.49-.13-1-.26-1.45-.4l-1.41-.42-.88-.27-.06,0c-.72-.23-1.42-.47-2.1-.71-.5-.18-1-.36-1.47-.55l-.79-.31c-.92-.36-1.8-.73-2.64-1.1-.61-.26-1.2-.53-1.77-.8-3.7-1.73-6.64-3.41-8.87-4.57q-2-1-4.09-1.94l-.7-.29c-.61-.26-1.22-.51-1.84-.75s-1.14-.44-1.71-.64l-.43-.15A3.66,3.66,0,0,0,541,21l-1-.35-1-.33L537.82,20l-1.19-.34-.93-.26-.42-.11-.68-.17-.56-.14-1.39-.34-.13,0c-.7-.16-1.41-.31-2.12-.45-1.21-.25-2.43-.47-3.66-.67l-2.24-.34q-2.76-.39-5.58-.63c-.82-.07-1.64-.13-2.47-.18a2.19,2.19,0,0,0-.36,0l-2.35-.13c-2.08-.1-4.18-.14-6.29-.14l-2.86,0c-.91,0-1.82,0-2.74.08q-.72,0-1.44.06c-1.45.06-2.9.14-4.35.25-2,.13-4.07.31-6.1.52l-2.18.24-1.33.15-1.12.14-.61.07-1.52.2-2,.28c-1.07.15-2.14.31-3.2.48-1.85.29-3.7.6-5.53.93s-3.85.7-5.75,1.08l-.77.15-.56.12-.57.12c-3.33.67-6.61,1.4-9.83,2.16l-2.27.54-1.05.25-3,.76-1.31.33-2.64.68-4,1.05-2.32.63c-2.3.63-4.55,1.25-6.73,1.87L425.29,31c-.81.24-1.61.48-2.4.7l-2.14.62-1.48.44-2.15.66-2.59.79-1.62.52L412,35l-1.64.53-2.77.93c-9,3.08-16.34,6-22.82,8.6-1.05.42-2.07.83-3.08,1.22q-2.64,1.05-5.16,2l-1.44.53-.72.26-1.75.61-1,.33-1.75.56-.18.06c-.52.17-1.05.32-1.57.48l-.36.1-.52.15-1.92.52-.5.13c-.47.12-.94.24-1.41.34l-1.42.31-.73.16-.76.14-1.14.22-1.48.25c-.54.09-1.09.17-1.64.24-1.19.16-2.41.29-3.65.39l-.5,0c-.83.07-1.68.12-2.54.16s-1.84.06-2.79.07c-.62,0-1.24,0-1.88,0-.42,0-.85,0-1.28,0l-.89,0-1.52-.06-1.59-.08c-19.27-1.16-18.78-6-43.94-10.29a220.1,220.1,0,0,0-50.84-3.09c-16.44,1-34.87,4.34-52.62,12.23l-.18.08-.84.38A92.35,92.35,0,0,0,179.14,60l-.71.47c-.33.22-.66.43-1,.65q-1.52,1.05-2.85,2.07c-.34.25-.67.51-1,.77l-.37.29c-.4.32-.79.64-1.16,1l-.86.73-.83.73c-.55.48-1.07,1-1.58,1.43s-.77.72-1.15,1.06c-1.69,1.58-3.29,3.13-5,4.62-.29.26-.58.52-.88.77-1,.83-2,1.65-3.05,2.45-.36.27-.73.54-1.1.79l-.57.39-.83.56a50.73,50.73,0,0,1-8.05,4.19l-.66.27c-.43.18-.88.36-1.33.52l-.76.29-1.62.58-1.14.38-.57.19-.62.19-1.27.39c-1.5.45-3,.85-4.43,1.21l-.72.18-.72.18-1.43.32c-.86.18-1.7.36-2.54.52l-.49.09-1.82.33-1.89.3q-3.23.48-6.28.76c-1,.1-2,.18-3,.25q-1.86.14-3.66.21c-1.2.06-2.38.1-3.53.13l-1.72,0-2.58,0-3.44,0-2.08,0-2,0c-.67,0-1.32,0-2,.06q-1.45.06-2.85.15l-.75,0-1.08.09-.61.06-.71.08L88.66,91l-1.41.23-.7.14-.41.08-.41.09-.26,0-.14,0-.88.22-.71.21c-.33.09-.66.2-1,.32a18.38,18.38,0,0,0-1.79.69l-.86.4c-.27.13-.54.26-.8.41l-.6.34-.51.31a8.67,8.67,0,0,0-.81.53,20.63,20.63,0,0,0-3.25,2.81c-10.22,10.84,1,20.75-9,35.93-.52.79-1.06,1.55-1.64,2.28-.15.2-.31.4-.47.59-.38.47-.78.93-1.19,1.38l-.22.25-.12.12-.12.12c-.1.12-.22.24-.34.36l-1,1c-.35.35-.71.68-1.07,1s-.55.49-.83.72a52.37,52.37,0,0,1-9.79,6.47l-1.19.61q-.61.32-1.23.6c-1.87.89-3.77,1.7-5.67,2.45l-1,.39-1,.4c-.76.27-1.5.55-2.25.8-7.3,2.55-14.2,4.28-18.88,6.05l-.3.12-.1,0-1.1.45-.48.22a16.2,16.2,0,0,0-1.93,1c-.15.1-.3.19-.43.29a5.21,5.21,0,0,0-1.27,1.25,2.33,2.33,0,0,0-.2.34c0,.09-.08.19-.11.28a1,1,0,0,0-.05.16.87.87,0,0,0,0,.22.44.44,0,0,0,0,.1,2.18,2.18,0,0,0,0,.51,1.91,1.91,0,0,0,.06.33h0a1.42,1.42,0,0,0,0,.16.07.07,0,0,0,0,.05,1.43,1.43,0,0,0,.08.22,3.26,3.26,0,0,0,.18.38l0,0c0,.08.09.15.14.23l.07.09,0,0a3.56,3.56,0,0,0,.26.31,5.5,5.5,0,0,0,.69.67l.26.2c.1.09.23.17.34.25l.26.19.16.1L14,168c.13.08.26.16.4.23l.24.12c.53.29,1.1.55,1.68.8.33.15.68.29,1,.42s.69.27,1,.39l.75.26,1.21.38c.4.12.79.24,1.18.34L22,171l.55.15.06,0,1,.25h0l.88.21h0l.3.07.75.17,2,.5,2,.53c1.33.36,2.64.75,3.95,1.15a143.45,143.45,0,0,1,30,13.38c4.69,2.72,9.1,5.56,13.24,8.41,13.86-2.34,38.22,1.34,48,14.89,3.84,5.32,7.06,14.41,15.38,16.27,4.52,1,7.6-.78,11.66-1.78,11.33-2.81,19.14,3.24,34.58,9.42,10.14,4.06,42.54,17,53.69,5.74,4-4,1.63-7.5,5.58-10.4,8.53-6.26,21.49,8.52,47.18,11.89,6,.8,17.22,2.27,30.66-1.24,14.94-3.91,24-11.71,29.78-7.61,3.87,2.74,1.57,7.39,4.95,11.76s11.85,7.51,46.48-.8c34.26-8.22,43.34-15.43,57.31-10,9.22,3.59,8.82,8.12,18.69,11.09,13.49,4,21.1-2.32,39.25-6.29,6.42-1.4,36.62-8,67.55.86,9.85,2.82,21.51,7.7,29.52,1.89,4.56-3.32,3.63-6.95,7.68-10.35,7.77-6.48,19.34.06,43.14,5.45,20.05,4.52,35.21,7.77,51.67,2.51,9.62-3.06,8-5.31,20.35-10,22-8.32,44.57-7.81,45.52-4,.64,2.62-9.24,5.2-8.68,8.21.94,5.09,31.77,10.53,52.9-3.79,8.78-6,15-14.72,17.27-13.24,2.59,1.7-4,14.16-1.5,15.8,3,1.9,11.86-15.06,29.08-20.3a44.1,44.1,0,0,1,5.72-1.3c.28-1.19.57-2.41.92-3.67a39.81,39.81,0,0,1,2.08-5.73c7.11-15.57,24.33-23.82,40.82-29.54h0l.84-.28h0l1.78-.6c1.29-.43,2.57-.85,3.84-1.25.48-.15,1-.31,1.43-.45l3.55-1.11c1.42-.45,2.82-.87,4.17-1.29l1.61-.5,1.47-.46.58-.18.37-.12.2-.07,2-.63.75-.25,2.1-.72,1.66-.61c.5-.18,1-.37,1.46-.56l.6-.24c.44-.18.87-.36,1.28-.55l.43-.2.13-.05c.37-.16.72-.33,1.06-.5l.83-.43a19,19,0,0,0,1.76-1l.44-.3a11.23,11.23,0,0,0,.9-.7l.38-.35q.2-.18.36-.36a3.58,3.58,0,0,0,.27-.29,3.45,3.45,0,0,0,.31-.38c.1-.13.19-.27.28-.4a4.93,4.93,0,0,0,.58-1.29,1.66,1.66,0,0,0,.06-.21,4.53,4.53,0,0,0,.12-.89Z"/><polygon class="cls-2" points="924.04 171.65 924.05 171.64 924.04 171.64 924.04 171.65"/><path class="cls-3" d="M961.66,154.35v-.21a3.58,3.58,0,0,0-1-2.42c-3.11-3.41-13.72-5.05-33.15-15-2.29-1.17-4.7-2.45-7.24-3.87-5.77-3.23-10.8-6.15-15.26-8.81l-2.84-1.68-6.58-4-1.31-.8c-12.63-7.67-20.24-12.29-30.51-15.09l-1.28-.34q-1.95-.49-4-.9c-.62-.13-1.26-.25-1.91-.36s-1.16-.2-1.72-.28h0c-.84-.13-1.64-.25-2.42-.34q-1.56-.2-3-.3c-.82-.07-1.61-.11-2.36-.14s-1.23,0-1.82,0c-1.76,0-3.34.06-4.82.19l-1.42.13-.43.05-1.69.2-1.42.19-1.78.23-.26,0-1.82.21a41,41,0,0,1-11-.3q-1.11-.16-2.31-.42l-1.66-.36-.86-.21a57.16,57.16,0,0,1-9.89-3.33l-.28-.12a49.5,49.5,0,0,1-4.93-2.6c-1-.62-2-1.27-2.95-1.94-.47-.33-.94-.67-1.39-1h0c-.45-.34-.9-.69-1.35-1.06-1.79-1.43-3.5-3-5.23-4.56l-1.3-1.22-1.31-1.24L785.8,81.4c-2-1.92-4.15-3.93-6.52-6-.79-.69-1.61-1.39-2.45-2.09l-.87-.72-1.78-1.42c-.92-.71-1.87-1.44-2.87-2.17-.66-.48-1.34-1-2-1.46l-1.07-.74c-.82-.55-1.65-1.1-2.52-1.66l-.88-.56c-.78-.49-1.59-1-2.43-1.49s-1.85-1.06-2.85-1.58l-1-.51c-.55-.27-1.12-.54-1.7-.8l-.89-.4c-.72-.31-1.47-.63-2.23-.94l-1.57-.61-.81-.31-1.67-.61-.87-.3L747,56.41l-.91-.3-1.9-.61-2-.61-2.05-.61L738,53.66l-1.37-.39-2.86-.79-1.48-.4-1.21-.32-3.76-1-2.45-.63-2.55-.64-.7-.18-2.11-.53-2.1-.52-3.9-1L687,40.85c-4.88-1.19-9.42-2.3-13.66-3.31l-4.12-1-2.92-.68c-4.9-1.13-9.36-2.11-13.48-2.91l-1.92-.37-1.36-.26-1.45-.26-1.6-.27-2.88-.46a.76.76,0,0,1-.21,0c-.82-.12-1.63-.23-2.43-.32l-.19,0-1.18-.14c-1.41-.17-2.77-.3-4.1-.4l-1.32-.09-2-.09h-.34c-.75,0-1.48,0-2.21,0l-1.37,0c-.35,0-.69,0-1,0-1.58.06-3.12.17-4.64.36l-1,.13c-.41.05-.82.11-1.22.18l-2,.34-2.16.42-1.65.36c-.77.16-1.54.34-2.29.51l-1.35.32-1.42.34-2.93.69-1.86.44c-1.27.28-2.53.56-3.82.8l-1.27.23c-.78.14-1.57.27-2.37.38s-1.49.2-2.25.28l-.65.07-.81.07c-.54,0-1.09.09-1.64.12l-1.07.05c-.53,0-1.08,0-1.64,0h-1c-.84,0-1.71,0-2.6-.08l-.8,0-1.05-.08L582.25,36h0l-1.34-.16h0l-.33,0h0q-1.41-.19-2.76-.42l-1.38-.26-.49-.09c-1.47-.29-2.89-.62-4.24-1-.49-.13-1-.26-1.45-.4l-1.41-.42-.94-.3c-.72-.23-1.42-.47-2.1-.71-.5-.18-1-.36-1.47-.55l-.79-.31c-.92-.36-1.8-.73-2.64-1.1-.61-.26-1.2-.53-1.77-.8-3.7-1.73-6.64-3.41-8.87-4.57q-2-1-4.09-1.94l-.7-.29c-.61-.26-1.22-.51-1.84-.75s-1.14-.44-1.71-.64l-.43-.15A3.66,3.66,0,0,0,541,21l-1-.35-1-.33L537.82,20l-1.19-.34-.93-.26-.42-.11-.68-.17-.56-.14-1.39-.34-.13,0c-.7-.16-1.41-.31-2.12-.45-1.21-.25-2.43-.47-3.66-.67l-2.24-.34q-2.76-.39-5.58-.63c-.82-.07-1.64-.13-2.47-.18a2.19,2.19,0,0,0-.36,0l-2.35-.13c-2.08-.1-4.18-.14-6.29-.14l-2.86,0c-.91,0-1.82,0-2.74.08q-.72,0-1.44.06c-1.45.06-2.9.14-4.35.25-2,.13-4.07.31-6.1.52l-2.18.24-1.33.15-1.12.14-.61.07-1.52.2-2,.28c-1.07.15-2.14.31-3.2.48-1.85.29-3.7.6-5.53.93s-3.85.7-5.75,1.08l-1.33.27-.57.12c-3.33.67-6.61,1.4-9.83,2.16l-2.27.54-1.05.25-3,.76-1.31.33-2.64.68-4,1.05-2.32.63c-2.3.63-4.55,1.25-6.73,1.87L425.29,31c-.81.24-1.61.48-2.4.7l-2.14.63-1.48.43-2.15.66-2.59.79-1.62.52L412,35l-1.64.53-2.77.93c-9,3.08-16.34,6-22.82,8.6-1.05.42-2.07.83-3.08,1.22q-2.64,1.05-5.16,2l-1.44.53-.72.26-1.75.61-1,.33-1.75.56-.18.06c-.52.17-1.05.32-1.57.48l-.36.1-.52.15c-.64.19-1.28.36-1.92.52l-.5.13c-.47.12-.94.24-1.41.34-1.33.32-2.68.6-4.05.83l-1.48.25c-.54.09-1.09.17-1.64.24-1.19.16-2.41.29-3.65.39l-.5,0c-.83.07-1.68.12-2.54.16s-1.84.06-2.79.07c-.62,0-1.24,0-1.88,0-.42,0-.85,0-1.28,0l-.89,0-1.52-.06-1.59-.08c-19.27-1.16-18.78-6-43.94-10.29a220.1,220.1,0,0,0-50.84-3.09c-16.44,1-34.87,4.34-52.62,12.23l-.18.08-.84.38A92.35,92.35,0,0,0,179.14,60l-.71.47c-.33.22-.66.43-1,.65q-1.52,1.05-2.85,2.07c-.34.25-.67.51-1,.77l-.37.29c-.4.32-.79.64-1.16,1l-.86.73-.83.73c-1,.83-1.86,1.66-2.73,2.49-1.69,1.58-3.29,3.13-5,4.62-.29.26-.58.52-.88.77-1,.83-2,1.65-3.05,2.45-.36.27-.73.54-1.1.79l-.57.39-.83.56a50.73,50.73,0,0,1-8.05,4.19l-.66.27c-.43.18-.88.36-1.33.52l-.76.29-1.62.58-1.14.38-1.19.38-1.27.39c-1.5.45-3,.85-4.43,1.21l-.72.18-2.15.5c-.86.18-1.7.36-2.54.52l-.49.09-1.82.33-1.89.3q-3.23.48-6.28.76c-1,.1-2,.18-3,.25q-1.86.14-3.66.21c-1.2.06-2.38.1-3.53.13l-1.72,0-2.58,0-3.44,0-2.08,0-2,0-2,.06q-1.45.06-2.85.15l-.75,0-1.08.09-.61.06-.71.08L88.66,91l-1.41.23-.7.14-.41.08-.41.09-.4.09-.88.22-.71.21c-.33.09-.66.2-1,.32a18.38,18.38,0,0,0-1.79.69l-.86.4c-.27.13-.54.26-.8.41l-.6.34-.51.31a8.67,8.67,0,0,0-.81.53,20.63,20.63,0,0,0-3.25,2.81c-10.22,10.84,1,20.75-9,35.93-.52.79-1.06,1.55-1.64,2.28-.15.2-.31.4-.47.59-.38.47-.78.93-1.19,1.38-.11.13-.23.25-.34.37l-.12.12c-.1.12-.22.24-.34.36-.33.36-.68.71-1,1s-.71.68-1.07,1-.55.49-.83.72a52.37,52.37,0,0,1-9.79,6.47l-1.19.61q-.61.32-1.23.6c-1.87.89-3.77,1.7-5.67,2.45l-1,.39q-1.66.63-3.3,1.2c-7.3,2.55-14.2,4.28-18.88,6.05l-.4.15-1.1.45-.48.22a16.2,16.2,0,0,0-1.93,1c-.15.1-.3.19-.43.29a5.21,5.21,0,0,0-1.27,1.25,2.33,2.33,0,0,0-.2.34c0,.09-.08.19-.11.28a1,1,0,0,0-.05.16.87.87,0,0,0,0,.22.44.44,0,0,0,0,.1,2.9,2.9,0,0,0,0,.51c0,.11,0,.22.05.33h0a1.42,1.42,0,0,0,0,.16.07.07,0,0,0,0,.05,1.43,1.43,0,0,0,.08.22,3.26,3.26,0,0,0,.18.38l0,0,.21.32,0,0a3.56,3.56,0,0,0,.26.31,5.5,5.5,0,0,0,.69.67l.26.2c.1.09.23.17.34.25l.26.19.16.1L14,168c.13.08.26.16.4.23l.24.12c.53.29,1.1.55,1.68.8.33.15.68.29,1,.42s.69.27,1,.39l.75.26,1.21.38c.4.12.79.24,1.18.34s.71.2,1,.28l.06,0,1,.25h0l.88.21h0l.3.07.75.18,2,.49,2,.53c1.33.36,2.64.75,3.95,1.15,22-20.2,37.41-23.59,48.13-21.7,7,1.25,14,5.09,16.94,2.49,5.45-4.77-13.54-21.47-7-34.37,4.1-8,16.62-11.63,24.17-12.38,14.13-1.41,24.63,5.7,28.3,1.81,2.58-2.75-1.84-7.09.31-11,3.25-6,17.34-1.64,29.61-4.19,18.61-3.88,16.78-19.67,33.74-30.2C244.46,41.69,322.92,72.24,330,75c4.95,1.93,9.67,4,16.88,4.5,20.68,1.43,29.73-12.32,60.94-29.44C431.62,37,454.31,24.52,473,30.78c24.13,8.1,25.84,8.77,25.84,8.77,7.77,3.06,13.79,5.84,18,3.52s2.58-7.24,5.92-8.87c5.76-2.82,16.85,8.84,25.7,13.79,10.49,5.85,18-.19,69.4-8.09,6.1-.95,9.82-1.46,14.76-.59,14.33,2.54,18.6,13.2,29.13,12.88,6.91-.2,7-4.86,13.79-6.64,21.66-5.67,46.16,35.06,67.23,29,5.9-1.69,4.94-5.15,10.37-5.73,14.45-1.56,36.87,21.42,45.32,41.48,1.12,2.66,2.21,5.78,5.47,7.19,9.6,4.15,24.52-12.45,33.12-8.11,3.64,1.83,2.48,5.59,6.6,7.22,5.58,2.22,9.82-3.87,17.14-4.54,12.86-1.19,16.56,16.07,39,26.23,12.77,5.79,23,5.35,23.54,9.71.75,5.51-14.87,10.74-14,12.67,1.2,2.53,28.3-6.92,30.71-3.15,1.46,2.27-7,7.83-15.95,14.08h0l.86-.29h0l1.78-.6c1.29-.43,2.57-.85,3.84-1.25.48-.15,1-.31,1.43-.45l3.55-1.11,4.17-1.29,1.61-.5,1.47-.46.58-.18.37-.12.2-.07,2-.63.75-.25,2.1-.72,1.66-.61c.5-.18,1-.37,1.46-.56l.6-.24c.44-.18.87-.36,1.28-.55l.56-.25c.37-.16.72-.33,1.06-.5l.83-.43a19,19,0,0,0,1.76-1l.44-.3a11.23,11.23,0,0,0,.9-.7l.38-.35q.2-.18.36-.36a3.58,3.58,0,0,0,.27-.29,3.45,3.45,0,0,0,.31-.38c.1-.13.19-.27.28-.4a4.93,4.93,0,0,0,.58-1.29,1.66,1.66,0,0,0,.06-.21A4.53,4.53,0,0,0,961.66,154.35Z"/><path class="cls-2" d="M245.7,230c-3.95,2.89-1.59,6.36-5.58,10.4a11.78,11.78,0,0,1-1.71,1.43,194.19,194.19,0,0,0,22.94-4.46c3-.78,5.58-1.54,7.84-2.26C258.21,230.48,251.08,226.07,245.7,230Z"/><path class="cls-2" d="M353.32,233.06c-2.6-1.83-5.83-1.3-9.94.21,4.39,1.92,8.65,4.08,12.82,6.37C355.74,237.07,355.66,234.71,353.32,233.06Z"/><path class="cls-4" d="M785.43,225.2c-.43-1.71-5.19-2.75-12.29-2.64a45.91,45.91,0,0,1,4.21,3.83,40.13,40.13,0,0,1,2.45,3.55C782.45,228.3,785.81,226.76,785.43,225.2Z"/><path class="cls-5" d="M866.06,211.64c-6.07,3.67-11.52,10.21-12.93,9.13s3.6-8.08,1.36-10.52c-1.78-1.92-7,.2-8.47.82a23.12,23.12,0,0,0-8.49,5.78c-2.53,2.59-4.67,5.49-8.81,8.52-6.59,4.82-13,6-21.34,7.84-6.22,1.32-14.36,3.06-16.89-.48-2.35-3.28,2.41-7.95.33-11.6-1.85-3.26-7.92-3.58-22-1.69h-.09a283,283,0,0,0-40.37,8.36c-15.73,4.71-15.42,5.86-22.36,6.76-6.17.81-13.43.59-33.68-4.12-10-2.34-18.24-5.29-25.09-7.55-10.22-3.37-17.42-5.21-23.23-1.21-3.16,2.18-4.22,4.92-5.22,7.62-1.1,2.95-2.14,5.84-5.78,7.91-5.7,3.24-11.56.92-19.9-2.23-3.41-1.28-7.22-2.7-11.61-3.94-6.29-1.78-29.33-7.58-52.75-1.49-16.1,4.19-28,12.86-39.28,7.34-1.62-.8-3.29-1.92-8.32-4.46a185.28,185.28,0,0,0-17.73-7.89c-10.23-3.7-21.47-.32-39.22,5.23-12.72,4-25.25,9.22-44.73,13.52-3.56.78-12.55,2.66-15.8-1.51-2.39-3.07.24-7-2.84-11.69-2.65-4.06-7.28-5.25-8.29-5.52-5.55-1.43-10.23.87-14.86,2.75-.59.24-2.38,1-5,1.87-6.14,2.14-16.8,5.32-26.92,5.68-7.41.27-13-1-20-2.68-2-.46-3.67-.91-5.17-1.36-10.14-3-11.14-5.76-19.94-6.74-4.25-.47-19.46-2.16-28.7,6.58-3.26,3.1-3.8,5.61-7.59,7.18-5.5,2.27-11.27-.16-16.83-2.59-18-7.86-23.38-10.89-26.2-12.25a11.9,11.9,0,0,0-4-1.27c-7.24-1.17-8.18.84-30.62.19-5.43-.16-7.22-.33-9.47-1.33-9.47-4.18-9.34-15.13-15.2-22.6-6.45-8.23-17.18-8.47-39.86-9.57-6.81-.33-13-.67-18.59-1,4.69,2.72,9.1,5.56,13.24,8.41,13.86-2.35,38.22,1.33,48,14.88,3.84,5.33,7.06,14.41,15.38,16.27,4.52,1,7.6-.77,11.66-1.78,6.77-1.67,12.28-.19,18.92,2.61,4.47,1.87,9.45,4.33,15.66,6.82,5.37,2.14,17,6.78,28.37,9,9.11,1.79,18.09,2,23.61-1.83a11.78,11.78,0,0,0,1.71-1.43c4-4,1.63-7.51,5.58-10.4,5.38-4,12.51.46,23.49,5.11a89.64,89.64,0,0,0,23.69,6.78c6,.79,17.22,2.27,30.66-1.25,8.28-2.16,14.73-5.52,19.84-7.39,4.11-1.51,7.34-2,9.94-.21,2.34,1.65,2.42,4,2.88,6.58a11,11,0,0,0,2.07,5.17c1.92,2.48,5.42,4.54,14.26,4.4,6.9-.1,17-1.55,32.22-5.2,34.26-8.22,43.34-15.43,57.31-10,9.22,3.59,8.82,8.12,18.69,11.09,13.49,4.06,21.1-2.32,39.25-6.28,5.9-1.29,31.89-7,60.07-1,2.48.52,5,1.14,7.48,1.85,5,1.44,10.54,3.43,15.79,4.24,5,.78,9.81.5,13.73-2.35a12.33,12.33,0,0,0,4.12-5.33,13.28,13.28,0,0,1,3.56-5c5.54-4.63,13-2.63,25.46.85,3.55,1,7.51,2.11,11.94,3.22h0q2.75.69,5.73,1.37c20.05,4.53,35.21,7.78,51.67,2.52,9.62-3.07,8-5.32,20.35-10a103.19,103.19,0,0,1,33.23-6.63c7.1-.11,11.86.93,12.29,2.64s-3,3.1-5.63,4.74c-1.8,1.1-3.28,2.25-3,3.46.29,1.58,3.45,3.2,8.31,4.25,10.81,2.32,30,1.85,44.59-8a66.28,66.28,0,0,0,7.09-5.69c5-4.56,8.58-8.59,10.18-7.55,2.59,1.7-4,14.16-1.5,15.79,3,1.9,11.86-15.06,29.08-20.3a42.53,42.53,0,0,1,5.72-1.29c.28-1.2.57-2.41.92-3.67A36.56,36.56,0,0,0,866.06,211.64Z"/><path class="cls-2" d="M624.75,231.22a13.28,13.28,0,0,0-3.56,5c10.63-3.56,20.56-5,29-4.16C637.76,228.59,630.29,226.59,624.75,231.22Z"/><path class="cls-2" d="M244.83,40.77c-16.44,1-34.87,4.34-52.62,12.23l-.18.08-.84.38A92.35,92.35,0,0,0,179.14,60l-.71.47c-.33.22-.66.43-1,.65q-1.52,1.05-2.85,2.07c-.34.25-.67.51-1,.77l-.37.29c-.4.32-.79.64-1.16,1-1.61,1.34-3.05,2.65-4.42,4-1.69,1.58-3.29,3.13-5,4.62l-.88.77c-1,.83-2,1.65-3.05,2.45-.36.27-.73.53-1.1.79l-1.16.78-.24.17a50.73,50.73,0,0,1-8.05,4.19c-.87.36-1.78.72-2.75,1.08l-1.62.58c-.75.25-1.52.51-2.33.76l-1.27.39c-1.5.45-3,.85-4.43,1.21-1,.24-1.92.47-2.87.68s-1.7.36-2.54.52l-.49.09-1.83.33-1.88.3q-3.23.48-6.28.76c-1,.1-2,.18-3,.25q-1.86.14-3.66.21c-1.2.06-2.38.1-3.53.13l-1.72,0-1.69,0-.89,0-3.44,0-2.08,0-2,0c-.67,0-1.32,0-2,.06q-1.45.06-2.85.15h-.27l-.48,0-1.08.09-.61.06-.71.08-.7.08a6.17,6.17,0,0,0-.62.09l-1.41.23-.7.14-.41.08-.67.14-.14,0c-.28.06-.56.13-.83.21s-.51.14-.76.22-.66.2-1,.32a18.38,18.38,0,0,0-1.79.69l-.86.4c-.27.13-.54.26-.8.41l-.6.34-.51.31a8.67,8.67,0,0,0-.81.53,20.63,20.63,0,0,0-3.25,2.81c-10.22,10.84,1,20.75-9,35.93-.52.79-1.06,1.55-1.64,2.28-.15.2-.31.4-.47.59-.38.47-.78.93-1.19,1.38-.15.17-.3.33-.46.49s-.22.24-.34.36l-1,1c-.35.34-.71.68-1.07,1l-.83.72a52.37,52.37,0,0,1-9.79,6.47c-.39.21-.79.41-1.19.61s-.82.41-1.23.6C59.2,151.12,75.13,147,77.05,141c.73-2.3-1-3.67-2-9-1.2-6.23-1.12-16,3-22,5.34-7.79,14-4.2,41-13,9.07-3,7.48-3.16,14-5,19-5.38,27-2.06,36-8,7.17-4.72,8.42-10.93,12-17C192.46,47.66,216.91,47.82,244.83,40.77Z"/><path class="cls-2" d="M580.89,35.87l-.33,0h0q-1.41-.19-2.76-.42l-1.38-.26-.49-.09c-1.47-.29-2.89-.62-4.24-1-.49-.13-1-.26-1.45-.4l-1.41-.42-.94-.3c-.72-.23-1.42-.47-2.1-.71-.5-.18-1-.36-1.47-.55l-.79-.31c-.92-.36-1.8-.73-2.64-1.1-.61-.26-1.2-.53-1.77-.8-3.7-1.73-6.64-3.41-8.87-4.57q-2-1-4.09-1.94l-.7-.29c-.61-.26-1.22-.51-1.84-.75s-1.14-.44-1.71-.64l-.43-.15A3.66,3.66,0,0,0,541,21l-1-.35-1-.33L537.82,20l-1.19-.34-.93-.26-.42-.11-.68-.17-.56-.14-1.39-.34-.13,0c-.7-.16-1.41-.31-2.12-.45-1.21-.25-2.43-.47-3.66-.67l-2.24-.34q-2.76-.39-5.58-.63c-.82-.07-1.64-.13-2.47-.18a2.19,2.19,0,0,0-.36,0l-2.35-.13c-2.08-.1-4.18-.14-6.29-.14l-2.86,0c-.91,0-1.82,0-2.74.08q-.72,0-1.44.06c-1.45.06-2.9.14-4.35.25-2,.13-4.07.31-6.1.52l-2.18.24-1.33.15-1.12.14c5.69,4.21,15.32,6.21,21.72,6.56,7.3.4,7.13-1.52,15-1a58.22,58.22,0,0,1,25,8c8.3,4.89,7.88,7.37,13,9C567,42.23,573.77,39.64,580.89,35.87Z"/><path class="cls-2" d="M927.54,136.74c-2.29-1.17-4.7-2.45-7.24-3.87-5.77-3.23-10.8-6.15-15.26-8.81l-2.84-1.68-6.58-4-1.31-.8c-12.63-7.67-20.24-12.29-30.51-15.09l-1.28-.34q-1.95-.49-4-.9c-.62-.13-1.26-.25-1.91-.36s-1.16-.2-1.72-.28h0c-.84-.13-1.64-.25-2.42-.34q-1.56-.2-3-.3c-.82-.07-1.61-.11-2.36-.14s-1.23,0-1.82,0c-1.76,0-3.34.06-4.82.19l-1.42.13-.43.05-1.69.2-1.42.19-1.78.23-.26,0-1.82.21a41,41,0,0,1-11-.3q-1.11-.16-2.31-.42l-1.66-.36-.86-.21a57.16,57.16,0,0,1-9.89-3.33h0c1.36,5.49-1.3,9.43,1.17,11.59,3.35,2.93,10.7-2.11,26-4,2.55-.32,7.47-.81,10,2,1.11,1.23,1,2.2,2,3,2.78,2.12,7.92-1.7,12-3,5-1.61,9.53.26,33,14,14.41,8.43,16.37,9.87,22,12C916.61,133.76,922.45,136,927.54,136.74Z"/><path class="cls-6" d="M950.67,138.14a3.5,3.5,0,0,0-1-2.42c-3.11-3.41-13.72-5.05-33.15-15-2.29-1.17-4.7-2.45-7.24-3.87-5.77-3.23-10.8-6.15-15.26-8.81l-2.84-1.68-6.58-4-1.31-.8c-12.63-7.67-20.24-12.29-30.51-15.09l-1.28-.34q-1.95-.48-4-.9l-1.91-.35-1.72-.29h0c-.84-.13-1.64-.25-2.42-.34q-1.56-.2-3-.3c-.82-.07-1.61-.11-2.36-.14s-1.23,0-1.82,0c-1.76,0-3.34.06-4.82.19l-1.42.13-.43.05-1.69.2-1.42.19-1.78.23-.26,0-1.82.21a41,41,0,0,1-11-.3q-1.11-.16-2.31-.42L805.63,84l-.86-.2a57.16,57.16,0,0,1-9.89-3.33h0l-.28-.12a45.65,45.65,0,0,1-4.93-2.6c-1-.62-2-1.27-2.95-1.94-.47-.33-.93-.67-1.39-1h0c-.45-.34-.9-.69-1.35-1.06-1.79-1.43-3.5-3-5.23-4.56l-1.3-1.22-1.31-1.24L774.8,65.4c-2-1.92-4.15-3.93-6.52-6-.79-.69-1.61-1.39-2.45-2.09l-.87-.72-1.78-1.42c-.92-.71-1.87-1.44-2.87-2.17-.66-.48-1.34-1-2-1.46l-1.07-.74c-.82-.56-1.65-1.11-2.52-1.66l-.88-.56q-1.17-.75-2.43-1.5c-.9-.54-1.85-1.06-2.85-1.57l-1-.51c-.55-.27-1.12-.54-1.7-.8l-.89-.4c-.72-.31-1.47-.63-2.23-.94l-1.57-.61-.81-.31-1.67-.61-.87-.3L736,40.41l-.91-.3-1.9-.61-2-.61-2.05-.61L727,37.66l-1.37-.39-2.86-.79-1.48-.4-1.21-.32-3.76-1-2.45-.63-2.55-.64-.7-.18-2.11-.53-2.1-.52-3.9-1L676,24.85c-4.88-1.19-9.42-2.3-13.66-3.31l-2.09-.49-2-.49-2.92-.68c-4.9-1.13-9.36-2.11-13.48-2.91l-1.92-.37-1.36-.26-1.45-.26-1.6-.27-2.88-.46a.76.76,0,0,1-.21,0c-.82-.12-1.63-.23-2.43-.32l-.19,0-1.18-.14c-1.41-.17-2.77-.3-4.1-.4l-1.32-.09-2-.09h-.34c-.75,0-1.48,0-2.21,0l-1.37,0-.93,0h-.11c-1.58.06-3.12.17-4.64.36l-1,.13c-.41,0-.82.11-1.22.18l-2,.34-2.16.42-1.65.36c-.77.16-1.54.34-2.29.51l-1.35.32-1.42.34-2.93.69-1.86.44c-1.27.28-2.53.56-3.82.8l-1.27.23c-.78.14-1.57.27-2.37.38s-1.49.2-2.25.28l-.65.07-.81.07-.5,0-1.14.07-.28,0c-.26,0-.52,0-.79,0-.53,0-1.08,0-1.64,0-.32,0-.65,0-1,0-.84,0-1.71,0-2.6-.08l-.8,0-1.05-.08L571.25,20h0l-1.34-.16h0l-.33,0h0q-1.41-.2-2.76-.42l-1.38-.26-.49-.09c-1.47-.29-2.89-.62-4.24-1-.49-.13-1-.26-1.45-.4l-1.41-.42-.88-.27-.06,0c-.72-.23-1.42-.47-2.1-.71-.5-.18-1-.36-1.47-.55l-.79-.31c-.92-.36-1.8-.73-2.64-1.1-.61-.26-1.2-.53-1.77-.8-3.7-1.73-6.64-3.41-8.87-4.57q-2-1-4.09-1.94l-.7-.29c-.61-.26-1.22-.51-1.84-.75s-1.14-.44-1.71-.64l-.43-.15A3.66,3.66,0,0,0,530,5l-1-.35-1-.33L526.82,4l-1.19-.34-.93-.26-.42-.11-.68-.17L523,2.94l-1.39-.34-.13,0c-.7-.16-1.41-.31-2.12-.45-1.21-.25-2.43-.47-3.66-.67l-2.24-.34q-2.76-.39-5.58-.63c-.82-.07-1.64-.13-2.47-.18a2.19,2.19,0,0,0-.36,0L502.74.14C500.66,0,498.56,0,496.45,0l-2.86,0c-.91,0-1.82,0-2.74.08q-.72,0-1.44.06c-1.45.06-2.9.14-4.35.25-2,.13-4.07.31-6.1.52l-2.18.24-1.33.15-1.12.14-.61.07-1.52.2-2,.28c-1.07.15-2.14.31-3.2.48-1.85.29-3.7.6-5.53.93s-3.85.7-5.75,1.08l-.77.15-.56.12-.57.12c-3.33.67-6.61,1.4-9.83,2.16l-2.27.54-1.05.25-3,.76-1.31.33-2.64.68-4,1.05-2.32.63c-2.3.63-4.55,1.25-6.73,1.87L414.29,15c-.81.24-1.61.48-2.4.7l-2.14.62-1.48.44-2.15.66-2.59.79-1.62.52L401,19l-1.64.53-2.77.93c-9,3.08-16.34,6-22.82,8.6-1.05.42-2.07.83-3.08,1.22q-2.64,1.05-5.16,2l-1.44.53-.72.26-1.75.61-1,.33-1.75.56-.18.06c-.52.17-1.05.32-1.57.48l-.36.1-.52.15-1.92.52-.5.13c-.47.12-.94.24-1.41.34l-1.42.31-.73.16-.76.14-1.14.22-1.48.25c-.54.09-1.09.17-1.64.24-1.19.16-2.41.29-3.65.39l-.5,0c-.83.07-1.68.12-2.54.16s-1.84.06-2.79.07c-.62,0-1.24,0-1.88,0-.42,0-.85,0-1.28,0l-.89,0-1.52-.06-1.59-.08c-19.27-1.16-18.78-6-43.94-10.29a220.1,220.1,0,0,0-50.84-3.09c-16.44,1-34.87,4.34-52.62,12.23l-.18.08-.84.38A92.35,92.35,0,0,0,168.14,44l-.71.47c-.33.22-.66.43-1,.65q-1.52,1.05-2.85,2.07c-.34.25-.67.51-1,.77l-.37.29c-.4.32-.79.64-1.16,1l-.86.73-.83.73c-.55.48-1.07,1-1.58,1.43s-.77.72-1.15,1.06c-1.69,1.58-3.29,3.13-5,4.62-.29.26-.58.52-.88.77-1,.83-2,1.65-3.05,2.45-.36.27-.73.54-1.1.79l-.57.39-.83.56a50.73,50.73,0,0,1-8.05,4.19l-.66.27c-.43.18-.88.36-1.33.52l-.76.29-1.62.58-1.14.38-.57.19-.62.19-1.27.39c-1.5.45-3,.85-4.43,1.21l-.72.18-.72.18-1.43.32c-.86.18-1.7.36-2.54.52l-.49.09-1.82.33-1.89.3q-3.23.48-6.28.76c-1,.1-2,.18-3,.25q-1.86.14-3.66.21c-1.2.06-2.38.1-3.53.13l-1.72,0-2.58,0-3.44,0-2.08,0-2,0c-.67,0-1.32,0-2,.06q-1.45.06-2.85.15l-.75,0-1.08.09-.61.06-.71.08L77.66,75l-1.41.23-.7.14-.41.08-.41.09-.26,0-.14,0-.88.22-.71.21c-.33.09-.66.2-1,.32a18.38,18.38,0,0,0-1.79.69l-.86.4c-.27.13-.54.26-.8.41l-.6.34-.51.31a8.67,8.67,0,0,0-.81.53,20.63,20.63,0,0,0-3.25,2.81c-10.22,10.84,1,20.75-9,35.93-.52.79-1.06,1.55-1.64,2.28-.15.2-.31.4-.47.59-.38.47-.78.93-1.19,1.38l-.22.25-.12.12-.12.12c-.1.12-.22.24-.34.36-.34.35-.69.7-1,1s-.71.68-1.07,1-.55.49-.83.72a52.37,52.37,0,0,1-9.79,6.47l-1.19.61q-.61.32-1.23.6c-1.87.89-3.77,1.7-5.67,2.45l-1,.39-1.05.4c-.76.27-1.5.55-2.25.8-7.3,2.55-14.2,4.28-18.88,6.05l-.3.12-.1,0-1.1.45-.48.22a16.2,16.2,0,0,0-1.93,1c-.15.1-.3.19-.43.29a5.21,5.21,0,0,0-1.27,1.25,2.33,2.33,0,0,0-.2.34c0,.09-.08.19-.11.28a1,1,0,0,0,0,.16.87.87,0,0,0,0,.22.44.44,0,0,0,0,.1,2.18,2.18,0,0,0,0,.51,1.91,1.91,0,0,0,.06.33h0a1.42,1.42,0,0,0,0,.16.07.07,0,0,0,0,.05,1.43,1.43,0,0,0,.08.22,3.26,3.26,0,0,0,.18.38s0,0,0,0,.09.15.14.23l.07.09,0,0a3.56,3.56,0,0,0,.26.31,5.5,5.5,0,0,0,.69.67l.26.2c.1.09.23.17.34.25l.26.19.16.1L3,152c.13.08.26.16.4.23l.24.12c.53.29,1.1.55,1.68.8.33.15.68.29,1,.42s.69.27,1,.39l.75.26,1.21.38c.4.12.79.24,1.18.34L11,155l.55.15.06,0,1,.25h0l.88.21h0l.3.07.75.17,2,.5,2,.53c1.33.36,2.64.75,3.95,1.15a143.45,143.45,0,0,1,30,13.38c4.69,2.72,9.1,5.56,13.24,8.41,13.86-2.34,38.22,1.34,48,14.89,3.84,5.32,7.06,14.41,15.38,16.27,4.52,1,7.6-.78,11.66-1.78,11.33-2.81,19.14,3.24,34.58,9.42,10.14,4.06,42.54,17,53.69,5.74,4-4,1.63-7.5,5.58-10.4,8.53-6.26,21.49,8.52,47.18,11.89,6,.8,17.22,2.27,30.66-1.24,14.94-3.91,24-11.71,29.78-7.61,3.87,2.74,1.57,7.39,4.95,11.76s11.85,7.51,46.48-.8c34.26-8.22,43.34-15.43,57.31-10,9.22,3.59,8.82,8.12,18.69,11.09,13.49,4,21.1-2.32,39.25-6.29,6.42-1.4,36.62-8,67.55.86,9.85,2.82,21.51,7.7,29.52,1.89,4.56-3.32,3.63-6.95,7.68-10.35,7.77-6.48,19.34.06,43.14,5.45,20.05,4.52,35.21,7.77,51.67,2.51,9.62-3.06,8-5.31,20.35-10,22-8.32,44.57-7.81,45.52-4,.64,2.62-9.24,5.2-8.68,8.21.94,5.09,31.77,10.53,52.9-3.79,8.78-6,15-14.72,17.27-13.24,2.59,1.7-4,14.16-1.5,15.8,3,1.9,11.86-15.06,29.08-20.3a44.1,44.1,0,0,1,5.72-1.3c.28-1.19.57-2.41.92-3.67a39.81,39.81,0,0,1,2.08-5.73c7.11-15.57,24.33-23.82,40.82-29.54h0l.84-.28h0l1.78-.6c1.29-.43,2.57-.85,3.84-1.25.48-.15,1-.31,1.43-.45l3.55-1.11c1.42-.45,2.82-.87,4.17-1.29l1.61-.5,1.47-.46.58-.18.37-.12.2-.07,2-.63.75-.25,2.1-.72,1.66-.61c.5-.18,1-.37,1.46-.56l.6-.24c.44-.18.87-.36,1.28-.55l.43-.2.13-.05c.37-.16.72-.33,1.06-.5l.83-.43a19,19,0,0,0,1.76-1l.44-.3a11.23,11.23,0,0,0,.9-.7l.38-.35q.2-.18.36-.36a3.58,3.58,0,0,0,.27-.29,3.45,3.45,0,0,0,.31-.38c.1-.13.19-.27.28-.4a4.93,4.93,0,0,0,.58-1.29,1.66,1.66,0,0,0,.06-.21,4.53,4.53,0,0,0,.12-.89Z"/><polygon class="cls-2" points="913.04 155.65 913.05 155.64 913.04 155.64 913.04 155.65"/><path class="cls-3" d="M950.66,138.35v-.21a3.58,3.58,0,0,0-1-2.42c-3.11-3.41-13.72-5.05-33.15-15-2.29-1.17-4.7-2.45-7.24-3.87-5.77-3.23-10.8-6.15-15.26-8.81l-2.84-1.68-6.58-4-1.31-.8c-12.63-7.67-20.24-12.29-30.51-15.09l-1.28-.34q-1.95-.49-4-.9c-.62-.13-1.26-.25-1.91-.36s-1.16-.2-1.72-.28h0c-.84-.13-1.64-.25-2.42-.34q-1.56-.2-3-.3c-.82-.07-1.61-.11-2.36-.14s-1.23,0-1.82,0c-1.76,0-3.34.06-4.82.19l-1.42.13-.43.05-1.69.2-1.42.19-1.78.23-.26,0-1.82.21a41,41,0,0,1-11-.3q-1.11-.16-2.31-.42L805.63,84l-.86-.21a57.16,57.16,0,0,1-9.89-3.33l-.28-.12a49.5,49.5,0,0,1-4.93-2.6c-1-.62-2-1.27-2.95-1.94-.47-.33-.94-.67-1.39-1h0c-.45-.34-.9-.69-1.35-1.06-1.79-1.43-3.5-3-5.23-4.56l-1.3-1.22-1.31-1.24L774.8,65.4c-2-1.92-4.15-3.93-6.52-6-.79-.69-1.61-1.39-2.45-2.09l-.87-.72-1.78-1.42c-.92-.71-1.87-1.44-2.87-2.17-.66-.48-1.34-1-2-1.46l-1.07-.74c-.82-.55-1.65-1.1-2.52-1.66l-.88-.56c-.78-.49-1.59-1-2.43-1.49s-1.85-1.06-2.85-1.58l-1-.51c-.55-.27-1.12-.54-1.7-.8l-.89-.4c-.72-.31-1.47-.63-2.23-.94l-1.57-.61-.81-.31-1.67-.61-.87-.3L736,40.41l-.91-.3-1.9-.61-2-.61-2.05-.61L727,37.66l-1.37-.39-2.86-.79-1.48-.4-1.21-.32-3.76-1-2.45-.63-2.55-.64-.7-.18-2.11-.53-2.1-.52-3.9-1L676,24.85c-4.88-1.19-9.42-2.3-13.66-3.31l-4.12-1-2.92-.68c-4.9-1.13-9.36-2.11-13.48-2.91l-1.92-.37-1.36-.26-1.45-.26-1.6-.27-2.88-.46a.76.76,0,0,1-.21,0c-.82-.12-1.63-.23-2.43-.32l-.19,0-1.18-.14c-1.41-.17-2.77-.3-4.1-.4l-1.32-.09-2-.09h-.34c-.75,0-1.48,0-2.21,0l-1.37,0c-.35,0-.69,0-1,0-1.58.06-3.12.17-4.64.36l-1,.13c-.41,0-.82.11-1.22.18l-2,.34-2.16.42-1.65.36c-.77.16-1.54.34-2.29.51l-1.35.32-1.42.34-2.93.69-1.86.44c-1.27.28-2.53.56-3.82.8l-1.27.23c-.78.14-1.57.27-2.37.38s-1.49.2-2.25.28l-.65.07-.81.07c-.54,0-1.09.09-1.64.12l-1.07.05c-.53,0-1.08,0-1.64,0h-1c-.84,0-1.71,0-2.6-.08l-.8,0-1.05-.08L571.25,20h0l-1.34-.16h0l-.33,0h0q-1.41-.2-2.76-.42l-1.38-.26-.49-.09c-1.47-.29-2.89-.62-4.24-1-.49-.13-1-.26-1.45-.4l-1.41-.42-.94-.3c-.72-.23-1.42-.47-2.1-.71-.5-.18-1-.36-1.47-.55l-.79-.31c-.92-.36-1.8-.73-2.64-1.1-.61-.26-1.2-.53-1.77-.8-3.7-1.73-6.64-3.41-8.87-4.57q-2-1-4.09-1.94l-.7-.29c-.61-.26-1.22-.51-1.84-.75s-1.14-.44-1.71-.64l-.43-.15A3.66,3.66,0,0,0,530,5l-1-.35-1-.33L526.82,4l-1.19-.34-.93-.26-.42-.11-.68-.17L523,2.94l-1.39-.34-.13,0c-.7-.16-1.41-.31-2.12-.45-1.21-.25-2.43-.47-3.66-.67l-2.24-.34q-2.76-.39-5.58-.63c-.82-.07-1.64-.13-2.47-.18a2.19,2.19,0,0,0-.36,0L502.74.14C500.66,0,498.56,0,496.45,0l-2.86,0c-.91,0-1.82,0-2.74.08q-.72,0-1.44.06c-1.45.06-2.9.14-4.35.25-2,.13-4.07.31-6.1.52l-2.18.24-1.33.15-1.12.14-.61.07-1.52.2-2,.28c-1.07.15-2.14.31-3.2.48-1.85.29-3.7.6-5.53.93s-3.85.7-5.75,1.08l-1.33.27-.57.12c-3.33.67-6.61,1.4-9.83,2.16l-2.27.54-1.05.25-3,.76-1.31.33-2.64.68-4,1.05-2.32.63c-2.3.63-4.55,1.25-6.73,1.87L414.29,15c-.81.24-1.61.48-2.4.7l-2.14.63-1.48.43-2.15.66-2.59.79-1.62.52L401,19l-1.64.53-2.77.93c-9,3.08-16.34,6-22.82,8.6-1.05.42-2.07.83-3.08,1.22q-2.64,1.05-5.16,2l-1.44.53-.72.26-1.75.61-1,.33-1.75.56-.18.06c-.52.17-1.05.32-1.57.48l-.36.1-.52.15c-.64.19-1.28.36-1.92.52l-.5.13c-.47.12-.94.24-1.41.34-1.33.32-2.68.6-4.05.83l-1.48.25c-.54.09-1.09.17-1.64.24-1.19.16-2.41.29-3.65.39l-.5,0c-.83.07-1.68.12-2.54.16s-1.84.06-2.79.07c-.62,0-1.24,0-1.88,0-.42,0-.85,0-1.28,0l-.89,0-1.52-.06-1.59-.08c-19.27-1.16-18.78-6-43.94-10.29a220.1,220.1,0,0,0-50.84-3.09c-16.44,1-34.87,4.34-52.62,12.23l-.18.08-.84.38A92.35,92.35,0,0,0,168.14,44l-.71.47c-.33.22-.66.43-1,.65q-1.52,1.05-2.85,2.07c-.34.25-.67.51-1,.77l-.37.29c-.4.32-.79.64-1.16,1l-.86.73-.83.73c-1,.83-1.86,1.66-2.73,2.49-1.69,1.58-3.29,3.13-5,4.62-.29.26-.58.52-.88.77-1,.83-2,1.65-3.05,2.45-.36.27-.73.54-1.1.79l-.57.39-.83.56a50.73,50.73,0,0,1-8.05,4.19l-.66.27c-.43.18-.88.36-1.33.52l-.76.29-1.62.58-1.14.38-1.19.38-1.27.39c-1.5.45-3,.85-4.43,1.21l-.72.18-2.15.5c-.86.18-1.7.36-2.54.52l-.49.09-1.82.33-1.89.3q-3.23.48-6.28.76c-1,.1-2,.18-3,.25q-1.86.14-3.66.21c-1.2.06-2.38.1-3.53.13l-1.72,0-2.58,0-3.44,0-2.08,0-2,0-2,.06q-1.45.06-2.85.15l-.75,0-1.08.09-.61.06-.71.08L77.66,75l-1.41.23-.7.14-.41.08-.41.09-.4.09-.88.22-.71.21c-.33.09-.66.2-1,.32a18.38,18.38,0,0,0-1.79.69l-.86.4c-.27.13-.54.26-.8.41l-.6.34-.51.31a8.67,8.67,0,0,0-.81.53,20.63,20.63,0,0,0-3.25,2.81c-10.22,10.84,1,20.75-9,35.93-.52.79-1.06,1.55-1.64,2.28-.15.2-.31.4-.47.59-.38.47-.78.93-1.19,1.38-.11.13-.23.25-.34.37l-.12.12c-.1.12-.22.24-.34.36-.33.36-.68.71-1,1s-.71.68-1.07,1-.55.49-.83.72a52.37,52.37,0,0,1-9.79,6.47l-1.19.61q-.61.32-1.23.6c-1.87.89-3.77,1.7-5.67,2.45l-1,.39q-1.66.63-3.3,1.2c-7.3,2.55-14.2,4.28-18.88,6.05l-.4.15-1.1.45-.48.22a16.2,16.2,0,0,0-1.93,1c-.15.1-.3.19-.43.29a5.21,5.21,0,0,0-1.27,1.25,2.33,2.33,0,0,0-.2.34c0,.09-.08.19-.11.28a1,1,0,0,0,0,.16.87.87,0,0,0,0,.22.44.44,0,0,0,0,.1,2.9,2.9,0,0,0,0,.51c0,.11,0,.22.05.33h0a1.42,1.42,0,0,0,0,.16.07.07,0,0,0,0,.05,1.43,1.43,0,0,0,.08.22,3.26,3.26,0,0,0,.18.38s0,0,0,0l.21.32,0,0a3.56,3.56,0,0,0,.26.31,5.5,5.5,0,0,0,.69.67l.26.2c.1.09.23.17.34.25l.26.19.16.1L3,152c.13.08.26.16.4.23l.24.12c.53.29,1.1.55,1.68.8.33.15.68.29,1,.42s.69.27,1,.39l.75.26,1.21.38c.4.12.79.24,1.18.34s.71.2,1,.28l.06,0,1,.25h0l.88.21h0l.3.07.75.18,2,.49,2,.53c1.33.36,2.64.75,3.95,1.15,22-20.2,37.41-23.59,48.13-21.7,7,1.25,14,5.09,16.94,2.49,5.45-4.77-13.54-21.47-7-34.37,4.1-8,16.62-11.63,24.17-12.38,14.13-1.41,24.63,5.7,28.3,1.81,2.58-2.75-1.84-7.09.31-11,3.25-6,17.34-1.64,29.61-4.19,18.61-3.88,16.78-19.67,33.74-30.2C233.46,25.69,311.92,56.24,319,59c4.95,1.93,9.67,4,16.88,4.5,20.68,1.43,29.73-12.32,60.94-29.44C420.62,21,443.31,8.52,462,14.78c24.13,8.1,25.84,8.77,25.84,8.77,7.77,3.06,13.79,5.84,18,3.52s2.58-7.24,5.92-8.87c5.76-2.82,16.85,8.84,25.7,13.79,10.49,5.85,18-.19,69.4-8.09,6.1-.95,9.82-1.46,14.76-.59,14.33,2.54,18.6,13.2,29.13,12.88,6.91-.2,7-4.86,13.79-6.64,21.66-5.67,46.16,35.06,67.23,29,5.9-1.69,4.94-5.15,10.37-5.73,14.45-1.56,36.87,21.42,45.32,41.48,1.12,2.66,2.21,5.78,5.47,7.19,9.6,4.15,24.52-12.45,33.12-8.11,3.64,1.83,2.48,5.59,6.6,7.22,5.58,2.22,9.82-3.87,17.14-4.54,12.86-1.19,16.56,16.07,39,26.23,12.77,5.79,23,5.35,23.54,9.71.75,5.51-14.87,10.74-14,12.67,1.2,2.53,28.3-6.92,30.71-3.15,1.46,2.27-7,7.83-15.95,14.08h0l.86-.29h0l1.78-.6c1.29-.43,2.57-.85,3.84-1.25.48-.15,1-.31,1.43-.45l3.55-1.11,4.17-1.29,1.61-.5,1.47-.46.58-.18.37-.12.2-.07,2-.63.75-.25,2.1-.72,1.66-.61c.5-.18,1-.37,1.46-.56l.6-.24c.44-.18.87-.36,1.28-.55l.56-.25c.37-.16.72-.33,1.06-.5l.83-.43a19,19,0,0,0,1.76-1l.44-.3a11.23,11.23,0,0,0,.9-.7l.38-.35q.2-.18.36-.36a3.58,3.58,0,0,0,.27-.29,3.45,3.45,0,0,0,.31-.38c.1-.13.19-.27.28-.4a4.93,4.93,0,0,0,.58-1.29,1.66,1.66,0,0,0,.06-.21A4.53,4.53,0,0,0,950.66,138.35Z"/><path class="cls-4" d="M234.7,214c-3.95,2.89-1.59,6.36-5.58,10.4a11.78,11.78,0,0,1-1.71,1.43,194.19,194.19,0,0,0,22.94-4.46c3-.78,5.58-1.54,7.84-2.26C247.21,214.48,240.08,210.07,234.7,214Z"/><path class="cls-4" d="M342.32,217.06c-2.6-1.83-5.83-1.3-9.94.21,4.39,1.92,8.65,4.08,12.82,6.37C344.74,221.07,344.66,218.71,342.32,217.06Z"/><path class="cls-4" d="M774.43,209.2c-.43-1.71-5.19-2.75-12.29-2.64a45.91,45.91,0,0,1,4.21,3.83,40.13,40.13,0,0,1,2.45,3.55C771.45,212.3,774.81,210.76,774.43,209.2Z"/><path class="cls-2" d="M855.06,195.64c-6.07,3.67-11.52,10.21-12.93,9.13s3.6-8.08,1.36-10.52c-1.78-1.92-7,.2-8.47.82a23.12,23.12,0,0,0-8.49,5.78c-2.53,2.59-4.67,5.49-8.81,8.52-6.59,4.82-13,6-21.34,7.84-6.22,1.32-14.36,3.06-16.89-.48-2.35-3.28,2.41-7.95.33-11.6-1.85-3.26-7.92-3.58-22-1.69h-.09a283,283,0,0,0-40.37,8.36c-15.73,4.71-15.42,5.86-22.36,6.76-6.17.81-13.43.59-33.68-4.12-10-2.34-18.24-5.29-25.09-7.55-10.22-3.37-17.42-5.21-23.23-1.21-3.16,2.18-4.22,4.92-5.22,7.62-1.1,2.95-2.14,5.84-5.78,7.91-5.7,3.24-11.56.92-19.9-2.23-3.41-1.28-7.22-2.7-11.61-3.94-6.29-1.78-29.33-7.58-52.75-1.49-16.1,4.19-28,12.86-39.28,7.34-1.62-.8-3.29-1.92-8.32-4.46a185.28,185.28,0,0,0-17.73-7.89c-10.23-3.7-21.47-.32-39.22,5.23-12.72,4-25.25,9.22-44.73,13.52-3.56.78-12.55,2.66-15.8-1.51-2.39-3.07.24-7-2.84-11.69-2.65-4.06-7.28-5.25-8.29-5.52-5.55-1.43-10.23.87-14.86,2.75-.59.24-2.38,1-5,1.87-6.14,2.14-16.8,5.32-26.92,5.68-7.41.27-13-1-20-2.68-2-.46-3.67-.91-5.17-1.36-10.14-3-11.14-5.76-19.94-6.74-4.25-.47-19.46-2.16-28.7,6.58-3.26,3.1-3.8,5.61-7.59,7.18-5.5,2.27-11.27-.16-16.83-2.59-18-7.86-23.38-10.89-26.2-12.25a11.9,11.9,0,0,0-4-1.27c-7.24-1.17-8.18.84-30.62.19-5.43-.16-7.22-.33-9.47-1.33-9.47-4.18-9.34-15.13-15.2-22.6-6.45-8.23-17.18-8.47-39.86-9.57-6.81-.33-13-.67-18.59-1,4.69,2.72,9.1,5.56,13.24,8.41,13.86-2.35,38.22,1.33,48,14.88,3.84,5.33,7.06,14.41,15.38,16.27,4.52,1,7.6-.77,11.66-1.78,6.77-1.67,12.28-.19,18.92,2.61,4.47,1.87,9.45,4.33,15.66,6.82,5.37,2.14,17,6.78,28.37,9,9.11,1.79,18.09,2,23.61-1.83a11.78,11.78,0,0,0,1.71-1.43c4-4,1.63-7.51,5.58-10.4,5.38-4,12.51.46,23.49,5.11a89.64,89.64,0,0,0,23.69,6.78c6,.79,17.22,2.27,30.66-1.25,8.28-2.16,14.73-5.52,19.84-7.39,4.11-1.51,7.34-2,9.94-.21,2.34,1.65,2.42,4,2.88,6.58a11,11,0,0,0,2.07,5.17c1.92,2.48,5.42,4.54,14.26,4.4,6.9-.1,17-1.55,32.22-5.2,34.26-8.22,43.34-15.43,57.31-10,9.22,3.59,8.82,8.12,18.69,11.09,13.49,4.06,21.1-2.32,39.25-6.28,5.9-1.29,31.89-7,60.07-1,2.48.52,5,1.14,7.48,1.85,5,1.44,10.54,3.43,15.79,4.24,5,.78,9.81.5,13.73-2.35a12.33,12.33,0,0,0,4.12-5.33,13.28,13.28,0,0,1,3.56-5c5.54-4.63,13-2.63,25.46.85,3.55,1,7.51,2.11,11.94,3.22h0q2.75.69,5.73,1.37c20.05,4.53,35.21,7.78,51.67,2.52,9.62-3.07,8-5.32,20.35-10a103.19,103.19,0,0,1,33.23-6.63c7.1-.11,11.86.93,12.29,2.64s-3,3.1-5.63,4.74c-1.8,1.1-3.28,2.25-3,3.46.29,1.58,3.45,3.2,8.31,4.25,10.81,2.32,30,1.85,44.59-8a66.28,66.28,0,0,0,7.09-5.69c5-4.56,8.58-8.59,10.18-7.55,2.59,1.7-4,14.16-1.5,15.79,3,1.9,11.86-15.06,29.08-20.3a42.53,42.53,0,0,1,5.72-1.29c.28-1.2.57-2.41.92-3.67A36.56,36.56,0,0,0,855.06,195.64Z"/><path class="cls-4" d="M613.75,215.22a13.28,13.28,0,0,0-3.56,5c10.63-3.56,20.56-5,29-4.16C626.76,212.59,619.29,210.59,613.75,215.22Z"/><path class="cls-2" d="M233.83,24.77c-16.44,1-34.87,4.34-52.62,12.23l-.18.08-.84.38A92.35,92.35,0,0,0,168.14,44l-.71.47c-.33.22-.66.43-1,.65q-1.52,1.05-2.85,2.07c-.34.25-.67.51-1,.77l-.37.29c-.4.32-.79.64-1.16,1-1.61,1.34-3.05,2.65-4.42,3.95-1.69,1.58-3.29,3.13-5,4.62l-.88.77c-1,.83-2,1.65-3.05,2.45-.36.27-.73.53-1.1.79l-1.16.78-.24.17a50.73,50.73,0,0,1-8.05,4.19c-.87.36-1.78.72-2.75,1.08l-1.62.58c-.75.25-1.52.51-2.33.76l-1.27.39c-1.5.45-3,.85-4.43,1.21-1,.24-1.92.47-2.87.68s-1.7.36-2.54.52l-.49.09-1.83.33-1.88.3q-3.23.48-6.28.76c-1,.1-2,.18-3,.25q-1.86.14-3.66.21c-1.2.06-2.38.1-3.53.13l-1.72,0-1.69,0-.89,0-3.44,0-2.08,0-2,0c-.67,0-1.32,0-2,.06q-1.45.06-2.85.15h-.27l-.48,0-1.08.09-.61.06-.71.08-.7.08a6.17,6.17,0,0,0-.62.09l-1.41.23-.7.14-.41.08-.67.14-.14,0c-.28.06-.56.13-.83.21s-.51.14-.76.22-.66.2-1,.32a18.38,18.38,0,0,0-1.79.69l-.86.4c-.27.13-.54.26-.8.41l-.6.34-.51.31a8.67,8.67,0,0,0-.81.53,20.63,20.63,0,0,0-3.25,2.81c-10.22,10.84,1,20.75-9,35.93-.52.79-1.06,1.55-1.64,2.28-.15.2-.31.4-.47.59-.38.47-.78.93-1.19,1.38-.15.17-.3.33-.46.49s-.22.24-.34.36c-.34.35-.69.7-1,1s-.71.68-1.07,1l-.83.72a52.37,52.37,0,0,1-9.79,6.47c-.39.21-.79.41-1.19.61s-.82.41-1.23.6C48.2,135.12,64.13,131,66.05,125c.73-2.3-1-3.67-2-9-1.2-6.23-1.12-16,3-22,5.34-7.79,14-4.2,41-13,9.07-3,7.48-3.16,14-5,19-5.38,27-2.06,36-8,7.17-4.72,8.42-10.93,12-17C181.46,31.66,205.91,31.82,233.83,24.77Z"/><path class="cls-2" d="M569.89,19.87l-.33,0h0q-1.41-.2-2.76-.42l-1.38-.26-.49-.09c-1.47-.29-2.89-.62-4.24-1-.49-.13-1-.26-1.45-.4l-1.41-.42-.94-.3c-.72-.23-1.42-.47-2.1-.71-.5-.18-1-.36-1.47-.55l-.79-.31c-.92-.36-1.8-.73-2.64-1.1-.61-.26-1.2-.53-1.77-.8-3.7-1.73-6.64-3.41-8.87-4.57q-2-1-4.09-1.94l-.7-.29c-.61-.26-1.22-.51-1.84-.75s-1.14-.44-1.71-.64l-.43-.15A3.66,3.66,0,0,0,530,5l-1-.35-1-.33L526.82,4l-1.19-.34-.93-.26-.42-.11-.68-.17L523,2.94l-1.39-.34-.13,0c-.7-.16-1.41-.31-2.12-.45-1.21-.25-2.43-.47-3.66-.67l-2.24-.34q-2.76-.39-5.58-.63c-.82-.07-1.64-.13-2.47-.18a2.19,2.19,0,0,0-.36,0L502.74.14C500.66,0,498.56,0,496.45,0l-2.86,0c-.91,0-1.82,0-2.74.08q-.72,0-1.44.06c-1.45.06-2.9.14-4.35.25-2,.13-4.07.31-6.1.52l-2.18.24-1.33.15-1.12.14C480,5.68,489.65,7.68,496.05,8c7.3.4,7.13-1.52,15-1a58.22,58.22,0,0,1,25,8c8.3,4.89,7.88,7.37,13,9C556,26.23,562.77,23.64,569.89,19.87Z"/><path class="cls-2" d="M916.54,120.74c-2.29-1.17-4.7-2.45-7.24-3.87-5.77-3.23-10.8-6.15-15.26-8.81l-2.84-1.68-6.58-4-1.31-.8c-12.63-7.67-20.24-12.29-30.51-15.09l-1.28-.34q-1.95-.49-4-.9c-.62-.13-1.26-.25-1.91-.36s-1.16-.2-1.72-.28h0c-.84-.13-1.64-.25-2.42-.34q-1.56-.2-3-.3c-.82-.07-1.61-.11-2.36-.14s-1.23,0-1.82,0c-1.76,0-3.34.06-4.82.19l-1.42.13-.43.05-1.69.2-1.42.19-1.78.23-.26,0-1.82.21a41,41,0,0,1-11-.3q-1.11-.16-2.31-.42L805.63,84l-.86-.21a57.16,57.16,0,0,1-9.89-3.33h0c1.36,5.49-1.3,9.43,1.17,11.59,3.35,2.93,10.7-2.11,26-4,2.55-.32,7.47-.81,10,2,1.11,1.23,1,2.2,2,3,2.78,2.12,7.92-1.7,12-3,5-1.61,9.53.26,33,14,14.41,8.43,16.37,9.87,22,12C905.61,117.76,911.45,120,916.54,120.74Z"/></svg>