<svg preserveAspectRatio="none" xmlns="http://www.w3.org/2000/svg" viewBox="0 0 1242 1907"><defs><style>.a{fill:#3f2006;}.b{fill:#d8baa7;}</style></defs><rect class="a" width="1242" height="1907"/><path class="b" d="M1176.56567,68.43408l3.30725,439.1836,2.65857,441.17675.975,221.09424.73572,221.28906q.52569,221.37306.1853,442.82227l-.01392,8.44678-8.41369-.01953L618.5,1841.14014l-139.375-.45166-139.375-.65235-278.75-1.65625-4.40759-.02588L56.62,1834q1.39287-220.62525,1.86194-441.25.21133-110.31225.05641-220.625Q58.35217,1061.81275,57.819,951.5L54.94649,510.25Q53.54392,289.62475,53.84276,69l.00945-7.16406,7.14789.00683q140.0055.13623,279.99071.65235,139.95511.4812,279.61661,1.41748l278.70075,2.05908Zm-1.13134,1.13184-280.2425,2.4624L616.3927,74.0874q-139.11355.84888-277.88336,1.41748-138.80757.54126-277.50924.65235L68.15724,69q.29106,220.62525-1.10374,441.25L64.181,951.5q-.54984,110.31225-.71931,220.625-.10294,110.31225.05641,220.625.431,220.62525,1.86194,441.25l-4.3799-4.37988,278.75-1.65625,139.375-.65235,139.375-.45166,557.49988-1.28711L1167.57251,1834q-.36219-219.8811.1853-439.67773l.73572-219.96143.975-220.15527,2.65857-441.32325Z"/></svg>