<svg id="Layer_1" data-name="Layer 1" xmlns="http://www.w3.org/2000/svg" viewBox="0 0 901.12 268.13"><defs><style>.cls-1{fill:#f1dcf4;}.cls-2,.cls-3{fill:#702161;}.cls-3{stroke:#702161;stroke-miterlimit:10;stroke-width:0.25px;}.cls-4{fill:#d5b8d8;}.cls-5{fill:#cc9fce;}.cls-6{fill:#5e1c55;}</style></defs><path class="cls-1" d="M865.64,114.91c0,.29,0,.57-.09.86a13.57,13.57,0,0,1-1.08,3.65s0,0,0,0c-5.46,12.25-27.94,23.94-34.93,27.32l-1.9.91c-39.54,18.09-96.3,24.39-157.41,31.17-64.3,7.14-114.87,8.59-181.83,10.36-70.66,1.89-127,3.38-201.72.44-75.77-3-165.52-6.88-232.2-26.75-5.9-1.75-11.63-3.64-17.14-5.66-18.12-6.65-32.42-11.89-35.77-18.54h0a6.77,6.77,0,0,1-.71-2.39s0-.09,0-.13v-.66C1.67,104.88,222,81.25,251,78.13,416.58,60.38,538,69.39,780.69,87.42c21.52,1.6,60.21,4.68,77,15.28C863.69,106.51,865.91,110.69,865.64,114.91Z"/><path class="cls-2" d="M865.79,114.92a13.29,13.29,0,0,1-.39,2.34,14.66,14.66,0,0,1-.79,2.22l0-.06a.26.26,0,0,1-.06.13l0,0c-2,4.22-5.24,7.67-8.68,10.73a88.65,88.65,0,0,1-11.12,8.25c-3.9,2.49-7.91,4.77-12,6.9-2.06,1-4.12,2.1-6.24,3l-6.37,2.73a253.41,253.41,0,0,1-26.29,8.67c-8.91,2.42-17.92,4.44-27,6.29-18.12,3.54-36.39,6.26-54.69,8.59q-13.72,1.77-27.47,3.36t-27.5,3.14q-27.54,3-55.17,4.79c-18.42,1.21-36.86,2.1-55.3,2.81s-36.89,1.17-55.33,1.65-36.88.95-55.32,1.32c-36.9.69-73.82.85-110.72-.11-18.44-.45-36.88-1.22-55.31-2s-36.86-1.66-55.28-2.82-36.81-2.63-55.17-4.47S123,178.1,104.79,175a464.41,464.41,0,0,1-53.95-12.48c-8.86-2.68-17.51-5.92-26.15-9.17-4.32-1.66-8.61-3.39-12.79-5.46a46.35,46.35,0,0,1-6.07-3.54,16,16,0,0,1-5-5.24l-.08-.16v-.21h0l.08.37a7.93,7.93,0,0,1-.8-2.68v-.08c0-.28,0-.57,0-.88a7.89,7.89,0,0,1,.11-1,7.24,7.24,0,0,1,.55-1.84,11.92,11.92,0,0,1,2-3.12,26.47,26.47,0,0,1,5.48-4.58,76.75,76.75,0,0,1,12.5-6.32,235.94,235.94,0,0,1,26.43-8.68c17.87-4.86,36-8.62,54.18-12,36.37-6.76,73-12,109.68-16.53,18.35-2.25,36.71-4.4,55.12-6.15l13.8-1.38c4.6-.44,9.21-.78,13.82-1.17,9.22-.76,18.43-1.58,27.66-2.1C358.25,68,395.25,67,432.23,67s74,1.18,110.88,3.14,73.8,4.32,110.65,7.08,73.7,5.64,110.54,8.57c18.4,1.53,36.89,2.55,55.17,5.41,2.29.33,4.56.77,6.84,1.15s4.55.85,6.8,1.38a126.8,126.8,0,0,1,13.39,3.66,54.9,54.9,0,0,1,12.5,6,18.68,18.68,0,0,1,5,4.88A10.68,10.68,0,0,1,865.79,114.92Zm-.3,0a10.42,10.42,0,0,0-1.81-6.45,18.76,18.76,0,0,0-4.88-4.77,54.16,54.16,0,0,0-12.44-5.9A127.58,127.58,0,0,0,833,94.18c-2.24-.52-4.52-.9-6.78-1.35s-4.55-.79-6.83-1.11c-18.27-2.76-36.73-3.81-55.16-5.1q-55.31-3.86-110.61-7.44C616.75,76.89,579.87,74.65,543,73l-27.68-1.15-27.68-.93-27.69-.59c-9.23-.15-18.46-.14-27.7-.22Q376.84,70,321.55,73.62c-9.22.5-18.42,1.29-27.62,2-4.6.38-9.2.71-13.8,1.13l-13.78,1.34c-18.38,1.7-36.73,3.8-55.07,6s-36.64,4.63-54.92,7.25-36.52,5.48-54.68,8.76-36.27,7-54.08,11.69a231.46,231.46,0,0,0-26.26,8.45A74.66,74.66,0,0,0,9.1,126.34,25,25,0,0,0,4,130.58a7.64,7.64,0,0,0-2.27,5.71v-.08a6.11,6.11,0,0,0,.62,2.1l.09.18v.19h0l-.09-.37A14.63,14.63,0,0,0,6.76,143a45.26,45.26,0,0,0,5.84,3.45c4.08,2.05,8.33,3.8,12.62,5.48,8.6,3.29,17.21,6.58,26,9.3,2.19.7,4.41,1.34,6.62,2l6.65,1.87c1.11.3,2.22.63,3.33.92l3.36.81,6.71,1.64q13.45,3.11,27.08,5.49c36.33,6.34,73.12,9.63,109.93,11.82,18.41,1.1,36.83,1.92,55.26,2.64s36.86,1.31,55.3,1.62c36.87.68,73.75.21,110.62-.72,18.44-.42,36.88-.94,55.31-1.46l55.31-1.65c18.42-.62,36.84-1.43,55.24-2.54s36.77-2.57,55.12-4.35q13.76-1.35,27.51-2.86t27.49-3.08c18.31-2.15,36.58-4.69,54.71-8.05,9-1.77,18.06-3.66,27-6.06A253.87,253.87,0,0,0,820,150.66l6.36-2.7c2.12-.9,4.17-1.94,6.23-3,4.09-2.11,8.11-4.37,12-6.84a89.56,89.56,0,0,0,11.1-8.17c3.43-3,6.65-6.45,8.63-10.59l0,0a.11.11,0,0,0,0,.09v-.06a14.59,14.59,0,0,0,.79-2.18A13.57,13.57,0,0,0,865.49,114.9Z"/><path class="cls-3" d="M866,194.08c-4.1,14.63-34.9,29.07-37.58,30.29-39.53,18.1-96.29,24.4-157.4,31.17-64.3,7.14-114.88,8.6-181.83,10.37-70.67,1.88-127,3.38-201.72.44-82.49-3.23-181.53-7.57-249.34-32.42-20.91-7.67-36.73-13.46-36.5-21.72L1.2,181.73.54,135.45a11.75,11.75,0,0,0,.31,1.84c.08.82.32.61.71,1.39h0c3.35,6.65,17.65,11.89,35.77,18.54,5.51,2,11.24,3.91,17.14,5.66,66.68,19.87,156.43,23.78,232.2,26.75,74.74,2.94,131.06,1.45,201.72-.44,67-1.77,117.53-3.22,181.83-10.36,61.11-6.78,117.87-13.08,157.41-31.17l1.9-.91c7-3.38,29.47-15.07,34.93-27.32,0,0,0,0,0,0a13.57,13.57,0,0,0,1.08-3.65l.25,44.69.16,27.32Z"/><path class="cls-2" d="M.85,136.29c.17.71.41,1.51.71,2.39A6.77,6.77,0,0,1,.85,136.29Z"/><path class="cls-2" d="M865.55,115.77a13.57,13.57,0,0,1-1.08,3.65,20.77,20.77,0,0,0,1.07-5Z"/><path class="cls-4" d="M65.5,128.35c5.35-6.22,13.54-9.68,21.06-12.45,11-4.06,22.58-6.78,34.1-9.13,30.1-6.13,60.74-9.59,91.25-13,48.39-5.34,96.81-9.23,145.5-10.57,39.64-1.09,78.91-.35,118.46,2.14,53.18,3.35,106.46,3.89,159.7,5.56,33.3,1,66.58,2.5,99.81,4.82q26.79,1.86,53.52,4.51c13,1.31,28.09,1.79,40,7.76,3.29,1.66,6.76,4.19,5.16,8.22-1.34,3.36-4.94,6-7.77,8-7.38,5.25-15.79,9.13-24.09,12.68-20.25,8.64-41.48,14.58-63,19.05-63.5,13.16-129.06,16-193.67,18.67-65.29,2.71-130.56,4.65-195.9,3.25-61.25-1.32-122.74-3.23-183.82-7.87-19.45-1.48-39-3.19-58.17-7.11-10.71-2.2-21.78-5.06-31.24-10.75-8.12-4.88-18.45-14-10.86-23.81,1.17-1.51-.94-3.65-2.12-2.13-11.1,14.35,6.58,26.92,18.7,32.2s25.51,7.84,38.6,9.81c23.23,3.5,46.76,5.09,70.2,6.45,33.71,2,67.48,3.2,101.23,4.46,64.77,2.41,129.49,3,194.28.71,69.92-2.44,140.26-4.26,209.68-13.63,28.56-3.85,57.19-9,84.62-18,16.51-5.42,34.6-11.88,48.55-22.45,4.14-3.13,10.11-8.41,7.74-14.28-3.48-8.62-18.83-10.28-26.46-11.54-15.58-2.58-31.44-3.69-47.16-5q-27.18-2.31-54.42-3.83c-63.86-3.64-127.82-4-191.72-6.58-36-1.47-71.84-4.76-107.86-4.91a1579.56,1579.56,0,0,0-163.92,7.62C217.27,90,189.09,93.11,161.05,97c-26.31,3.67-54,7.3-78.78,17.33-6.83,2.76-14,6.18-18.89,11.87C62.13,127.68,64.24,129.81,65.5,128.35Z"/><path class="cls-4" d="M104.09,126.36c11.47-8.19,27.61-10,41.1-12.26,30.94-5.07,62.23-8.17,93.37-11.71,43.95-5,88-9,132.23-9.86,27.61-.5,55.2,1,82.79,1.93,58.87,1.88,117.76,1.88,176.65,2.46,44.89.44,90.39.94,134.42,10.7,4.85,1.08,9.68,2.1,14.58,3,5.33,1,12.09,1.69,16.65,4.86,5.78,4-3.6,8.78-6.85,10.5-15.42,8.16-33.1,12.68-49.89,17.1-45.77,12-93,16.93-140.12,19.72-55.21,3.27-110.64,4.85-165.95,5.23-60.26.42-120.66,1-180.89-1.08-25.56-.9-51.08-2.57-76.48-5.57-14.58-1.73-29.2-3.67-43.56-6.75-8.24-1.77-16.86-3.76-24.32-7.82a22.71,22.71,0,0,1-5.81-4.19c-5.48-5.79-3.59-11.82,2.38-16.49,1.52-1.19-.62-3.3-2.12-2.13-7.86,6.16-8.94,15.06-1.23,21.85,4.63,4.08,10.87,6.36,16.67,8.17,24.89,7.82,52,10,77.88,12.45,62,5.75,124.5,4.7,186.69,4.69q81.89,0,163.65-2.9c57-2.08,114.54-4.82,170.49-16.69a478.34,478.34,0,0,0,49.13-13.07c8.49-2.77,17.08-5.75,25-9.93,3.7-2,10.39-5.37,10.4-10.39,0-7.56-14-9.14-19-10.11-10.17-1.94-20.25-4.31-30.44-6.14-21.08-3.77-42.45-5.62-63.83-6.63C625.94,92.38,564,93.83,502.3,92.68c-36.36-.68-72.69-2.66-109-3.19-38-.57-76.16,1.84-114,5.54-31.18,3-62.31,6.74-93.41,10.51-22.82,2.76-46.69,4.74-68.75,11.57a50.56,50.56,0,0,0-14.53,6.66C101,124.88,102.51,127.49,104.09,126.36Z"/><path class="cls-4" d="M323.39,103.51c-28.09,2.14-56.15,5-84.08,8.77-13.38,1.81-26.75,3.81-40,6.4-9.24,1.8-18.69,3.68-27.49,7.09-3.2,1.25-9.64,3.5-9.56,7.89.06,3.84,5.22,5.78,8.14,6.91,17.08,6.61,36.79,8.06,54.83,10.18,41.66,4.89,83.69,7.74,125.61,9.4,16.54.65,33.07.61,49.61.19,33.67-.84,67.31-2.72,100.92-4.64q42.06-2.4,84.11-5.11c35.15-2.24,70.48-3.71,105.54-7,16.84-1.6,33.62-4.73,49.56-10.5,3.88-1.41,21.48-6.87,17.22-14-1.36-2.26-4.66-3.17-7-3.84a98.91,98.91,0,0,0-15.58-2.67c-20.32-2.36-40.87-3-61.29-3.84-36-1.43-72.1-2.38-108.16-3.4-54.48-1.53-109-3.19-163.48-3.75-22.43-.23-44.89-.27-67.29,1.1-3.87.24-7.73.52-11.6.81-1.91.14-1.93,3.14,0,3,18-1.37,36-2,54.1-2,40.4-.13,80.81,1,121.19,2.05,65.89,1.68,131.87,2.9,197.71,6.21,16,.8,32.34,1.29,48.13,4.18,2.84.53,7.48.93,9.79,2.94,1.77,1.53.54,2.66-1.48,4.14-5.63,4.12-13,6.28-19.58,8.33-32.61,10.18-67.67,10-101.47,12.26q-46.69,3-93.41,5.92c-39,2.37-78.09,4.69-117.18,6.16-19.2.72-38.42,1.25-57.64.86-28.05-.58-56.11-2.52-84.08-4.67-24.4-1.88-48.83-4-73.05-7.58a262.91,262.91,0,0,1-26.83-5c-3.19-.81-12.42-2.29-14-5.88-2.77-6.3,33.82-12.68,37.31-13.34,27.07-5.1,54.53-8.31,81.92-11.09q19.28-2,38.58-3.44C325.3,106.36,325.32,103.36,323.39,103.51Z"/><path class="cls-4" d="M387.11,112.42c-27.34.52-54.74,3-81.91,6q-18.4,2-36.74,4.61c-8.62,1.23-18,1.93-26.3,4.88-2.12.76-5.33,2.25-4,5,1.1,2.23,5,3,7.1,3.64,11.41,3.22,23.58,4.32,35.32,5.65,13.18,1.49,26.39,2.66,39.61,3.7q64.95,5.08,130.16,3.85c47.06-.83,94-4,140.89-8.29q32.51-3,65-6.44c15.67-1.64,31.53-3,47-6,1.93-.37,9.65-1.06,8.86-4.62-.53-2.36-4.79-2.55-6.59-2.8-18-2.54-36.68-2.24-54.83-2.82-43.13-1.4-86.26-2.63-129.39-4.07-36.51-1.22-73-2.69-109.56-2.57q-12.33,0-24.65.28c-1.93,0-1.94,3,0,3,75.38-1.39,150.86,2.91,226.19,5.2,25.86.78,51.76,1.29,77.6,2.75a126.67,126.67,0,0,1,15.68,1.4c.63.12,2.8.85,2.91.8-.46.21,0-1.1-.17-1.21s.07.16-.74.28c-2.59.36-5.24,1.34-7.85,1.8-6.15,1.09-12.35,1.87-18.55,2.64-20.12,2.48-40.3,4.42-60.47,6.43-42.62,4.23-85.31,7.89-128.1,9.84-73.47,3.34-147.68,2.05-220.74-7.11-9.94-1.24-21.25-1.94-30.58-5.92-.87-.37-1.28-1.18-1.49-.47.38-1.29,5.43-2,6.38-2.26,10.3-2.41,20.94-3.6,31.4-5,34.34-4.57,68.95-7.84,103.57-9,1.65-.06,3.31-.11,5-.14C389,115.38,389,112.38,387.11,112.42Z"/><path class="cls-4" d="M402.59,121.31c-19.47.59-39,1.49-58.36,3.62-1.75.19-23.4,2-17.61,7,2.45,2.15,7.92,2.17,10.92,2.57,7.2,1,14.46,1.58,21.71,2.13,18.14,1.36,36.34,2.22,54.53,2.79,39.11,1.24,78.53,1.51,117.6-1,5.63-.36,11.29-.76,16.88-1.58,2-.3,6.14-.43,7.66-2.18,4.07-4.69-10.5-6.4-12.34-6.71-18.93-3.22-38.27-4.47-57.42-5.53q-41.73-2.3-83.57-1.17c-1.93,0-1.93,3,0,3,40.37-1.14,81.05-.14,121.23,4.1,6.34.67,12.68,1.42,19,2.49,2,.35,4.06.72,6.06,1.19,1.15.27,3.16,1.32,4.3,1.27.23,0,.54.43.73.4-20.69,2.47.06-1.29.08-1.28s-.29.24-.4.22c-.81-.15-2.87.77-3.72.93A131.12,131.12,0,0,1,536,135.16c-33.28,2.53-66.89,2.36-100.24,1.83-31.91-.51-64.28-1.2-96-5.15-2.61-.32-5.25-.67-7.82-1.23a12.37,12.37,0,0,0-2.55-.64c-.22,0-.52-.3-.71-.26-.37.1-1.14.84-.21,1,1.09.23,4.07-1.16,5.27-1.39,3.47-.63,7-1.05,10.48-1.43,19.36-2.13,38.9-3,58.36-3.62C404.52,124.25,404.52,121.25,402.59,121.31Z"/><path class="cls-5" d="M65.47,126.16c5.35-6.22,13.54-9.68,21.06-12.45,11-4.06,22.58-6.78,34.1-9.13,30.1-6.13,60.73-9.59,91.25-13,48.39-5.34,96.8-9.23,145.49-10.57C397,80,436.29,80.7,475.84,83.19c53.17,3.35,106.46,3.89,159.7,5.56,33.29,1,66.58,2.5,99.81,4.82q26.79,1.86,53.52,4.52c13,1.3,28.09,1.78,40,7.75,3.29,1.66,6.76,4.19,5.15,8.23-1.33,3.35-4.93,6-7.76,8-7.38,5.24-15.79,9.12-24.09,12.67-20.25,8.64-41.49,14.58-63,19.05-63.49,13.16-129,16-193.67,18.67-65.28,2.71-130.55,4.65-195.9,3.25-61.24-1.32-122.73-3.23-183.82-7.87-19.44-1.48-39-3.19-58.16-7.11-10.72-2.2-21.78-5.06-31.24-10.74-8.13-4.89-18.46-14-10.86-23.82,1.17-1.51-.94-3.65-2.12-2.12C52.24,138.38,69.93,151,82,156.23s25.52,7.84,38.6,9.81c23.24,3.5,46.76,5.09,70.2,6.45,33.72,2,67.48,3.2,101.23,4.46,64.78,2.41,129.5,3,194.28.72C556.28,175.22,626.62,173.4,696,164c28.56-3.85,57.19-9,84.62-18,16.51-5.42,34.6-11.88,48.55-22.45,4.14-3.13,10.11-8.41,7.74-14.28-3.48-8.62-18.83-10.28-26.46-11.54-15.58-2.58-31.44-3.69-47.16-5q-27.18-2.31-54.42-3.83c-63.87-3.64-127.83-4-191.73-6.57-36-1.47-71.83-4.77-107.85-4.92A1582.33,1582.33,0,0,0,245.41,85c-28.17,2.82-56.35,5.89-84.39,9.8-26.31,3.67-54,7.3-78.78,17.33-6.83,2.76-14,6.18-18.89,11.88C62.1,125.49,64.21,127.62,65.47,126.16Z"/><path class="cls-5" d="M104.05,124.17c11.47-8.18,27.62-10,41.11-12.26,30.94-5.07,62.23-8.17,93.37-11.71,44-5,88-9,132.23-9.86,27.61-.5,55.19,1,82.78,1.93,58.87,1.88,117.76,1.88,176.65,2.46,44.9.44,90.39.94,134.43,10.7,4.85,1.08,9.68,2.1,14.58,3,5.33,1,12.08,1.7,16.65,4.86,5.78,4-3.61,8.78-6.86,10.5-15.42,8.16-33.1,12.69-49.89,17.1-45.77,12.05-93,16.93-140.11,19.72-55.22,3.27-110.64,4.85-166,5.23-60.25.42-120.65,1-180.88-1.08-25.56-.9-51.08-2.57-76.48-5.57-14.58-1.72-29.2-3.67-43.56-6.75-8.24-1.77-16.86-3.76-24.32-7.82a22.93,22.93,0,0,1-5.82-4.19c-5.47-5.79-3.58-11.82,2.39-16.49,1.52-1.19-.62-3.3-2.12-2.12C94.38,128,93.3,136.87,101,143.66c4.63,4.08,10.87,6.36,16.66,8.17,24.9,7.82,52,10.06,77.89,12.45,62,5.75,124.5,4.7,186.69,4.69q81.88,0,163.65-2.9c57-2.08,114.53-4.82,170.49-16.69a479,479,0,0,0,49.13-13.07c8.48-2.77,17.08-5.75,25-9.93,3.7-2,10.39-5.37,10.39-10.39,0-7.56-14-9.14-19-10.11-10.17-1.94-20.25-4.31-30.44-6.14C730.35,96,709,94.12,687.6,93.11c-61.69-2.92-123.6-1.47-185.33-2.62-36.36-.68-72.7-2.66-109-3.19-38-.57-76.16,1.84-114,5.54-31.18,3-62.31,6.75-93.42,10.51-22.81,2.76-46.68,4.74-68.74,11.57a50.56,50.56,0,0,0-14.53,6.66C101,122.69,102.48,125.3,104.05,124.17Z"/><path class="cls-5" d="M323.36,101.32c-28.1,2.14-56.16,5-84.08,8.77-13.38,1.81-26.75,3.81-40,6.4-9.23,1.8-18.68,3.68-27.48,7.1-3.2,1.24-9.65,3.49-9.57,7.88.07,3.84,5.23,5.78,8.14,6.91,17.09,6.61,36.8,8.06,54.83,10.18,41.67,4.89,83.7,7.74,125.62,9.4,16.53.65,33.07.61,49.61.19,33.66-.84,67.3-2.72,100.92-4.63q42.06-2.42,84.1-5.12c35.15-2.24,70.49-3.71,105.55-7,16.84-1.6,33.62-4.73,49.55-10.5,3.88-1.41,21.49-6.87,17.23-14-1.36-2.26-4.67-3.17-7-3.83a97.91,97.91,0,0,0-15.59-2.68c-20.31-2.36-40.86-3-61.28-3.84-36-1.43-72.11-2.38-108.16-3.39-54.48-1.54-109-3.2-163.48-3.76-22.43-.23-44.89-.27-67.29,1.1-3.87.24-7.74.52-11.6.81-1.91.14-1.93,3.15,0,3,18-1.37,36-1.95,54.1-2,40.39-.14,80.8,1,121.19,2,65.89,1.68,131.87,2.9,197.71,6.21,16,.8,32.34,1.29,48.13,4.19,2.84.52,7.48.92,9.79,2.93,1.77,1.53.54,2.66-1.48,4.14-5.63,4.12-13,6.29-19.58,8.34-32.61,10.17-67.67,10-101.47,12.25q-46.69,3.06-93.41,5.92c-39,2.37-78.1,4.69-117.18,6.16-19.2.72-38.43,1.25-57.64.86-28-.58-56.11-2.52-84.08-4.67-24.4-1.88-48.83-4-73.06-7.58a259.52,259.52,0,0,1-26.82-5c-3.19-.81-12.42-2.29-14-5.88-2.77-6.29,33.81-12.68,37.31-13.34,27.07-5.1,54.52-8.31,81.92-11.09q19.26-2,38.58-3.44C325.27,104.17,325.29,101.17,323.36,101.32Z"/><path class="cls-5" d="M387.08,110.23c-27.35.52-54.74,3-81.91,6q-18.41,2-36.74,4.62c-8.63,1.22-18,1.92-26.31,4.87-2.11.76-5.32,2.25-4,5,1.1,2.23,5,3,7.1,3.64,11.41,3.22,23.58,4.32,35.32,5.65,13.18,1.49,26.39,2.67,39.6,3.7q65,5.08,130.17,3.86c47.06-.84,94-4,140.89-8.3q32.5-3,65-6.44c15.66-1.64,31.52-3,47-6,1.94-.37,9.65-1.06,8.87-4.62-.53-2.36-4.8-2.55-6.6-2.8-18-2.54-36.67-2.23-54.82-2.82-43.13-1.4-86.26-2.63-129.39-4.07-36.51-1.22-73-2.69-109.57-2.57-8.21,0-16.43.13-24.64.28-1.93,0-1.94,3,0,3,75.38-1.39,150.86,2.91,226.19,5.2,25.86.78,51.76,1.29,77.59,2.75a126.66,126.66,0,0,1,15.69,1.4c.63.12,2.8.85,2.91.8-.47.21,0-1.1-.17-1.21s.07.16-.74.28c-2.6.36-5.24,1.34-7.85,1.8-6.15,1.09-12.35,1.87-18.55,2.64-20.12,2.48-40.31,4.42-60.48,6.43-42.62,4.23-85.3,7.89-128.09,9.84-73.48,3.34-147.68,2.05-220.74-7.11-9.94-1.24-21.25-1.94-30.58-5.91-.87-.38-1.28-1.19-1.5-.48.39-1.29,5.44-2,6.39-2.26,10.29-2.41,20.93-3.6,31.4-5,34.33-4.57,68.94-7.84,103.57-9,1.65-.06,3.3-.11,5-.14C389,113.19,389,110.19,387.08,110.23Z"/><path class="cls-5" d="M402.56,119.12c-19.47.59-39,1.49-58.37,3.62-1.75.19-23.39,2-17.61,7,2.46,2.15,7.93,2.17,10.93,2.57,7.2,1,14.46,1.58,21.7,2.13,18.15,1.36,36.35,2.22,54.54,2.79,39.11,1.24,78.52,1.52,117.59-1,5.64-.36,11.3-.76,16.89-1.58,2-.3,6.14-.43,7.66-2.18,4.07-4.69-10.5-6.39-12.34-6.71-18.93-3.22-38.27-4.47-57.42-5.52q-41.73-2.31-83.57-1.18c-1.93,0-1.94,3,0,3,40.36-1.14,81-.13,121.22,4.1,6.34.67,12.68,1.42,19,2.49,2,.35,4.06.72,6.06,1.19,1.14.27,3.16,1.32,4.3,1.27.23,0,.53.43.72.41-20.68,2.47.07-1.3.09-1.29s-.29.24-.41.22c-.81-.15-2.87.77-3.72.93A128.07,128.07,0,0,1,536,133c-33.28,2.53-66.89,2.36-100.24,1.83-31.91-.51-64.28-1.2-96-5.15-2.61-.32-5.25-.67-7.83-1.23a12.22,12.22,0,0,0-2.55-.64c-.21,0-.52-.3-.7-.26-.38.1-1.14.84-.21,1s4.07-1.16,5.27-1.38c3.46-.64,7-1.06,10.47-1.44,19.37-2.13,38.9-3,58.37-3.62C404.48,122.06,404.49,119.06,402.56,119.12Z"/><path class="cls-6" d="M866,194.08c-4.1,14.63-34.9,29.07-37.58,30.29-39.53,18.1-96.29,24.4-157.4,31.17-64.3,7.14-114.88,8.6-181.83,10.37-70.67,1.88-127,3.38-201.72.44-82.49-3.23-181.53-7.57-249.34-32.42-20.91-7.67-36.73-13.46-36.5-21.72L1.2,181.73C25.3,192,58.73,221.22,119.54,239.45c24.39,7.31,44,10.1,111,14,97.72,5.69,163,9.48,269,7,143.3-3.36,75.35-11.51,240-22,19.82-1.26,50.45-3,80-23,23.43-15.83,37.22-37,46.26-55l.16,27.32Z"/><path class="cls-1" d="M900.64,47.91c0,.29,0,.57-.09.86a13.57,13.57,0,0,1-1.08,3.65v0C894,64.69,871.52,76.38,864.53,79.76l-1.9.91c-39.54,18.09-96.3,24.39-157.41,31.17-64.3,7.14-114.87,8.59-181.83,10.36-70.66,1.89-127,3.38-201.72.44-75.77-3-165.52-6.88-232.2-26.75-5.9-1.75-11.63-3.64-17.14-5.66C54.21,83.58,39.91,78.34,36.56,71.69h0a6.77,6.77,0,0,1-.71-2.39s0-.09,0-.13V68.5C36.67,37.88,257,14.25,286,11.13,451.58-6.62,573,2.39,815.69,20.42c21.52,1.6,60.21,4.68,77,15.28C898.69,39.51,900.91,43.69,900.64,47.91Z"/><path class="cls-2" d="M900.79,47.92a13.29,13.29,0,0,1-.39,2.34,14.66,14.66,0,0,1-.79,2.22l0-.06a.26.26,0,0,1-.06.13l0,0c-2,4.22-5.24,7.67-8.68,10.73a88.65,88.65,0,0,1-11.12,8.25c-3.9,2.49-7.91,4.77-12,6.9-2.06,1-4.12,2.1-6.24,3l-6.37,2.73a253.41,253.41,0,0,1-26.29,8.67c-8.91,2.42-17.92,4.44-27,6.29-18.12,3.54-36.39,6.26-54.69,8.59q-13.72,1.77-27.47,3.36t-27.5,3.14q-27.54,3-55.17,4.79c-18.42,1.21-36.86,2.1-55.3,2.81s-36.89,1.17-55.33,1.65-36.88.95-55.32,1.32c-36.9.69-73.82.85-110.72-.11-18.44-.45-36.88-1.22-55.31-2s-36.86-1.66-55.28-2.82-36.81-2.63-55.17-4.47S158,111.1,139.79,108A464.41,464.41,0,0,1,85.84,95.47C77,92.79,68.33,89.55,59.69,86.3c-4.32-1.66-8.61-3.39-12.79-5.46a46.35,46.35,0,0,1-6.07-3.54,16,16,0,0,1-5-5.24l-.08-.16v-.21h0l.08.37a7.93,7.93,0,0,1-.8-2.68v-.08c0-.28,0-.57,0-.88a7.89,7.89,0,0,1,.11-1,7.24,7.24,0,0,1,.55-1.84,11.92,11.92,0,0,1,2-3.12,26.47,26.47,0,0,1,5.48-4.58,76.75,76.75,0,0,1,12.5-6.32,235.94,235.94,0,0,1,26.43-8.68c17.87-4.86,36-8.62,54.18-12.05,36.37-6.76,73-12,109.68-16.53,18.35-2.25,36.71-4.4,55.12-6.15l13.8-1.38c4.6-.44,9.21-.78,13.82-1.17,9.22-.76,18.43-1.58,27.66-2.1C393.25,1,430.25,0,467.23,0s74,1.18,110.88,3.14,73.8,4.32,110.65,7.08,73.7,5.64,110.54,8.57c18.4,1.53,36.89,2.55,55.17,5.41,2.29.33,4.56.77,6.84,1.15s4.55.85,6.8,1.38a126.8,126.8,0,0,1,13.39,3.66,54.9,54.9,0,0,1,12.5,6,18.68,18.68,0,0,1,5,4.88A10.68,10.68,0,0,1,900.79,47.92Zm-.3,0a10.42,10.42,0,0,0-1.81-6.45,18.76,18.76,0,0,0-4.88-4.77,54.16,54.16,0,0,0-12.44-5.9A127.58,127.58,0,0,0,868,27.18c-2.24-.52-4.52-.9-6.78-1.35s-4.55-.79-6.83-1.11c-18.27-2.76-36.73-3.81-55.16-5.1q-55.31-3.86-110.61-7.44C651.75,9.89,614.87,7.65,578,6L550.29,4.83,522.61,3.9l-27.69-.59c-9.23-.15-18.46-.14-27.7-.22Q411.84,3,356.55,6.62c-9.22.5-18.42,1.29-27.62,2-4.6.38-9.2.71-13.8,1.13l-13.78,1.34c-18.38,1.7-36.73,3.8-55.07,6s-36.64,4.63-54.92,7.25-36.52,5.48-54.68,8.76-36.27,7-54.08,11.69a231.46,231.46,0,0,0-26.26,8.45A74.66,74.66,0,0,0,44.1,59.34,25,25,0,0,0,39,63.58a7.64,7.64,0,0,0-2.27,5.71v-.08a6.11,6.11,0,0,0,.62,2.1l.09.18v.19h0l-.09-.37A14.63,14.63,0,0,0,41.76,76a45.26,45.26,0,0,0,5.84,3.45c4.08,2,8.33,3.8,12.62,5.48,8.6,3.29,17.21,6.58,26,9.3,2.19.7,4.41,1.34,6.62,2l6.65,1.87c1.11.3,2.22.63,3.33.92l3.36.81,6.71,1.64q13.45,3.1,27.08,5.49c36.33,6.34,73.12,9.63,109.93,11.82,18.41,1.1,36.83,1.92,55.26,2.64s36.86,1.31,55.3,1.62c36.87.68,73.75.21,110.62-.72,18.44-.42,36.88-.94,55.31-1.46l55.31-1.65c18.42-.62,36.84-1.43,55.24-2.54s36.77-2.57,55.12-4.35q13.76-1.35,27.51-2.86t27.49-3.08c18.31-2.15,36.58-4.69,54.71-8,9-1.77,18.06-3.66,27-6.06A253.87,253.87,0,0,0,855,83.66l6.36-2.7c2.12-.9,4.17-1.94,6.23-3,4.09-2.11,8.11-4.37,12-6.84A89.56,89.56,0,0,0,890.68,63c3.43-3,6.65-6.45,8.63-10.59l0-.05a.11.11,0,0,0,0,.09v-.06a14.59,14.59,0,0,0,.79-2.18A13.57,13.57,0,0,0,900.49,47.9Z"/><path class="cls-3" d="M901,127.08c-4.1,14.63-34.9,29.07-37.58,30.29-39.53,18.1-96.29,24.4-157.4,31.17-64.3,7.14-114.88,8.6-181.83,10.37-70.67,1.88-127,3.38-201.72.44-82.49-3.23-181.53-7.57-249.34-32.42-20.91-7.67-36.73-13.46-36.5-21.72l-.43-30.48-.66-46.28a11.75,11.75,0,0,0,.31,1.84c.08.82.32.61.71,1.39h0c3.35,6.65,17.65,11.89,35.77,18.54,5.51,2,11.24,3.91,17.14,5.66,66.68,19.87,156.43,23.78,232.2,26.75,74.74,2.94,131.06,1.45,201.72-.44,67-1.77,117.53-3.22,181.83-10.36,61.11-6.78,117.87-13.08,157.41-31.17l1.9-.91c7-3.38,29.47-15.07,34.93-27.32v0a13.57,13.57,0,0,0,1.08-3.65l.25,44.69.16,27.32Z"/><path class="cls-2" d="M35.85,69.29c.17.71.41,1.51.71,2.39A6.77,6.77,0,0,1,35.85,69.29Z"/><path class="cls-2" d="M900.55,48.77a13.57,13.57,0,0,1-1.08,3.65,20.77,20.77,0,0,0,1.07-5Z"/><path class="cls-4" d="M100.5,61.35c5.35-6.22,13.54-9.68,21.06-12.45,11-4.06,22.58-6.78,34.1-9.13,30.1-6.13,60.74-9.59,91.25-13,48.39-5.34,96.81-9.23,145.5-10.57,39.64-1.09,78.91-.35,118.46,2.14,53.18,3.35,106.46,3.89,159.7,5.56,33.3,1,66.58,2.5,99.81,4.82q26.79,1.86,53.52,4.51c13,1.31,28.09,1.79,40,7.76,3.29,1.66,6.76,4.19,5.16,8.22-1.34,3.36-4.94,6-7.77,8-7.38,5.25-15.79,9.13-24.09,12.68-20.25,8.64-41.48,14.58-63,19-63.5,13.16-129.06,16-193.67,18.67-65.29,2.71-130.56,4.65-195.9,3.25-61.25-1.32-122.74-3.23-183.82-7.87-19.45-1.48-39-3.19-58.17-7.11-10.71-2.2-21.78-5.06-31.24-10.75-8.12-4.88-18.45-14-10.86-23.81,1.17-1.51-.94-3.65-2.12-2.13-11.1,14.35,6.58,26.92,18.7,32.2s25.51,7.84,38.6,9.81c23.23,3.5,46.76,5.09,70.2,6.45,33.71,2,67.48,3.2,101.23,4.46,64.77,2.41,129.49,3,194.28.71,69.92-2.44,140.26-4.26,209.68-13.63,28.56-3.85,57.19-9,84.62-18,16.51-5.42,34.6-11.88,48.55-22.45,4.14-3.13,10.11-8.41,7.74-14.28-3.48-8.62-18.83-10.28-26.46-11.54-15.58-2.58-31.44-3.69-47.16-5q-27.18-2.31-54.42-3.83c-63.86-3.64-127.82-4-191.72-6.58-36-1.47-71.84-4.76-107.86-4.91a1579.56,1579.56,0,0,0-163.92,7.62C252.27,23,224.09,26.11,196.05,30c-26.31,3.67-54,7.3-78.78,17.33-6.83,2.76-14,6.18-18.89,11.87C97.13,60.68,99.24,62.81,100.5,61.35Z"/><path class="cls-4" d="M139.09,59.36c11.47-8.19,27.61-10,41.1-12.26,30.94-5.07,62.23-8.17,93.37-11.71,43.95-5,88-9,132.23-9.86,27.61-.5,55.2,1,82.79,1.93,58.87,1.88,117.76,1.88,176.65,2.46,44.89.44,90.39.94,134.42,10.7,4.85,1.08,9.68,2.1,14.58,3,5.33,1,12.09,1.69,16.65,4.86,5.78,4-3.6,8.78-6.85,10.5-15.42,8.16-33.1,12.68-49.89,17.1C728.37,88.13,681.16,93,634,95.8c-55.21,3.27-110.64,4.85-165.95,5.23-60.26.42-120.66,1-180.89-1.08-25.56-.9-51.08-2.57-76.48-5.57-14.58-1.73-29.2-3.67-43.56-6.75-8.24-1.77-16.86-3.76-24.32-7.82A22.71,22.71,0,0,1,137,75.62c-5.48-5.79-3.59-11.82,2.38-16.49,1.52-1.19-.62-3.3-2.12-2.13-7.86,6.16-8.94,15.06-1.23,21.85,4.63,4.08,10.87,6.36,16.67,8.17,24.89,7.82,52,10,77.88,12.45,62,5.75,124.5,4.7,186.69,4.69q81.89,0,163.65-2.9c57-2.08,114.54-4.82,170.49-16.69A478.34,478.34,0,0,0,800.55,71.5c8.49-2.77,17.08-5.75,25-9.93,3.7-2,10.39-5.37,10.4-10.39,0-7.56-14-9.14-19-10.11-10.17-1.94-20.25-4.31-30.44-6.14-21.08-3.77-42.45-5.62-63.83-6.63C660.94,25.38,599,26.83,537.3,25.68c-36.36-.68-72.69-2.66-109-3.19-38-.57-76.16,1.84-114,5.54-31.18,3-62.31,6.74-93.41,10.51C198,41.3,174.16,43.28,152.1,50.11a50.56,50.56,0,0,0-14.53,6.66C136,57.88,137.51,60.49,139.09,59.36Z"/><path class="cls-4" d="M358.39,36.51c-28.09,2.14-56.15,5-84.08,8.77-13.38,1.81-26.75,3.81-40,6.4-9.24,1.8-18.69,3.68-27.49,7.09-3.2,1.25-9.64,3.5-9.56,7.89.06,3.84,5.22,5.78,8.14,6.91,17.08,6.61,36.79,8.06,54.83,10.18,41.66,4.89,83.69,7.74,125.61,9.4,16.54.65,33.07.61,49.61.19,33.67-.84,67.31-2.72,100.92-4.64q42.06-2.4,84.11-5.11c35.15-2.24,70.48-3.71,105.54-7,16.84-1.6,33.62-4.73,49.56-10.5,3.88-1.41,21.48-6.87,17.22-13.95-1.36-2.26-4.66-3.17-7-3.84a98.91,98.91,0,0,0-15.58-2.67c-20.32-2.36-40.87-3-61.29-3.84-36-1.43-72.1-2.38-108.16-3.4-54.48-1.53-109-3.19-163.48-3.75-22.43-.23-44.89-.27-67.29,1.1-3.87.24-7.73.52-11.6.81-1.91.14-1.93,3.14,0,3,18-1.37,36-2,54.1-2,40.4-.13,80.81,1,121.19,2,65.89,1.68,131.87,2.9,197.71,6.21,16,.8,32.34,1.29,48.13,4.18,2.84.53,7.48.93,9.79,2.94,1.77,1.53.54,2.66-1.48,4.14-5.63,4.12-13,6.28-19.58,8.33-32.61,10.18-67.67,10-101.47,12.26q-46.69,3-93.41,5.92c-39,2.37-78.09,4.69-117.18,6.16-19.2.72-38.42,1.25-57.64.86C370.5,90,342.44,88,314.47,85.87c-24.4-1.88-48.83-4-73.05-7.58a262.91,262.91,0,0,1-26.83-5c-3.19-.81-12.42-2.29-14-5.88C197.81,61.08,234.4,54.7,237.89,54,265,48.94,292.42,45.73,319.81,43q19.28-2,38.58-3.44C360.3,39.36,360.32,36.36,358.39,36.51Z"/><path class="cls-4" d="M422.11,45.42c-27.34.52-54.74,3-81.91,5.95q-18.4,2-36.74,4.61c-8.62,1.23-18,1.93-26.3,4.88-2.12.76-5.33,2.25-4,5,1.1,2.23,5,3,7.1,3.64,11.41,3.22,23.58,4.32,35.32,5.65,13.18,1.49,26.39,2.66,39.61,3.7Q420.18,84,485.39,82.72c47.06-.83,94-4,140.89-8.29q32.51-3,65-6.44c15.67-1.64,31.53-3,47-6,1.93-.37,9.65-1.06,8.86-4.62-.53-2.36-4.79-2.55-6.59-2.8-18-2.54-36.68-2.24-54.83-2.82-43.13-1.4-86.26-2.63-129.39-4.07-36.51-1.22-73-2.69-109.56-2.57q-12.33,0-24.65.28c-1.93,0-1.94,3,0,3C497.49,47,573,51.33,648.3,53.62c25.86.78,51.76,1.29,77.6,2.75a126.67,126.67,0,0,1,15.68,1.4c.63.12,2.8.85,2.91.8-.46.21,0-1.1-.17-1.21s.07.16-.74.28c-2.59.36-5.24,1.34-7.85,1.8-6.15,1.09-12.35,1.87-18.55,2.64-20.12,2.48-40.3,4.42-60.47,6.43-42.62,4.23-85.31,7.89-128.1,9.84-73.47,3.34-147.68,2.05-220.74-7.11-9.94-1.24-21.25-1.94-30.58-5.92-.87-.37-1.28-1.18-1.49-.47.38-1.29,5.43-2,6.38-2.26,10.3-2.41,20.94-3.6,31.4-5,34.34-4.57,68.95-7.84,103.57-9,1.65-.06,3.31-.11,5-.14C424,48.38,424,45.38,422.11,45.42Z"/><path class="cls-4" d="M437.59,54.31c-19.47.59-39,1.49-58.36,3.62-1.75.19-23.4,2-17.61,7.05,2.45,2.15,7.92,2.17,10.92,2.57,7.2,1,14.46,1.58,21.71,2.13,18.14,1.36,36.34,2.22,54.53,2.79,39.11,1.24,78.53,1.51,117.6-1,5.63-.36,11.29-.76,16.88-1.58,2-.3,6.14-.43,7.66-2.18C595,63,580.42,61.32,578.58,61c-18.93-3.22-38.27-4.47-57.42-5.53q-41.73-2.29-83.57-1.17c-1.93,0-1.93,3,0,3,40.37-1.14,81.05-.14,121.23,4.1,6.34.67,12.68,1.42,19,2.49,2,.35,4.06.72,6.06,1.19,1.15.27,3.16,1.32,4.3,1.27.23,0,.54.43.73.4-20.69,2.47.06-1.29.08-1.28s-.29.24-.4.22c-.81-.15-2.87.77-3.72.93A131.12,131.12,0,0,1,571,68.16c-33.28,2.53-66.89,2.36-100.24,1.83-31.91-.51-64.28-1.2-96-5.15-2.61-.32-5.25-.67-7.82-1.23A12.37,12.37,0,0,0,364.4,63c-.22,0-.52-.3-.71-.26-.37.1-1.14.84-.21,1,1.09.23,4.07-1.16,5.27-1.39,3.47-.63,7-1,10.48-1.43,19.36-2.13,38.9-3,58.36-3.62C439.52,57.25,439.52,54.25,437.59,54.31Z"/><path class="cls-5" d="M100.47,59.16c5.35-6.22,13.54-9.68,21.06-12.45,11-4.06,22.58-6.78,34.1-9.13,30.1-6.13,60.73-9.59,91.25-13,48.39-5.34,96.8-9.23,145.49-10.57C432,13,471.29,13.7,510.84,16.19c53.17,3.35,106.46,3.89,159.7,5.56,33.29,1,66.58,2.5,99.81,4.82q26.79,1.86,53.52,4.52c13,1.3,28.09,1.78,40,7.75,3.29,1.66,6.76,4.19,5.15,8.23-1.33,3.35-4.93,6-7.76,8-7.38,5.24-15.79,9.12-24.09,12.67-20.25,8.64-41.49,14.58-63,19-63.49,13.16-129,16-193.67,18.67-65.28,2.71-130.55,4.65-195.9,3.25-61.24-1.32-122.73-3.23-183.82-7.87-19.44-1.48-39-3.19-58.16-7.11-10.72-2.2-21.78-5.06-31.24-10.74-8.13-4.89-18.46-14-10.86-23.82,1.17-1.51-.94-3.65-2.12-2.12C87.24,71.38,104.93,84,117,89.23s25.52,7.84,38.6,9.81c23.24,3.5,46.76,5.09,70.2,6.45,33.72,2,67.48,3.2,101.23,4.46,64.78,2.41,129.5,3,194.28.72C591.28,108.22,661.62,106.4,731,97c28.56-3.85,57.19-9,84.62-18,16.51-5.42,34.6-11.88,48.55-22.45,4.14-3.13,10.11-8.41,7.74-14.28-3.48-8.62-18.83-10.28-26.46-11.54-15.58-2.58-31.44-3.69-47.16-5q-27.18-2.31-54.42-3.83c-63.87-3.64-127.83-4-191.73-6.57-36-1.47-71.83-4.77-107.85-4.92A1582.33,1582.33,0,0,0,280.41,18c-28.17,2.82-56.35,5.89-84.39,9.8-26.31,3.67-54,7.3-78.78,17.33-6.83,2.76-14,6.18-18.89,11.88C97.1,58.49,99.21,60.62,100.47,59.16Z"/><path class="cls-5" d="M139.05,57.17c11.47-8.18,27.62-10,41.11-12.26,30.94-5.07,62.23-8.17,93.37-11.71,44-5,88-9.05,132.23-9.86,27.61-.5,55.19,1,82.78,1.93,58.87,1.88,117.76,1.88,176.65,2.46,44.9.44,90.39.94,134.43,10.7,4.85,1.08,9.68,2.1,14.58,3,5.33,1,12.08,1.7,16.65,4.86,5.78,4-3.61,8.78-6.86,10.5-15.42,8.16-33.1,12.69-49.89,17.1-45.77,12-93,16.93-140.11,19.72-55.22,3.27-110.64,4.85-166,5.23-60.25.42-120.65,1-180.88-1.08-25.56-.9-51.08-2.57-76.48-5.57-14.58-1.72-29.2-3.67-43.56-6.75-8.24-1.77-16.86-3.76-24.32-7.82A22.93,22.93,0,0,1,137,73.43c-5.47-5.79-3.58-11.82,2.39-16.49,1.52-1.19-.62-3.3-2.12-2.12C129.38,61,128.3,69.87,136,76.66c4.63,4.08,10.87,6.36,16.66,8.17,24.9,7.82,52,10.06,77.89,12.45,62,5.75,124.5,4.7,186.69,4.69q81.88,0,163.65-2.9c57-2.08,114.53-4.82,170.49-16.69a479,479,0,0,0,49.13-13.07c8.48-2.77,17.08-5.75,25-9.93,3.7-2,10.39-5.37,10.39-10.39,0-7.56-14-9.14-19-10.11-10.17-1.94-20.25-4.31-30.44-6.14C765.35,29,744,27.12,722.6,26.11c-61.69-2.92-123.6-1.47-185.33-2.62-36.36-.68-72.7-2.66-109-3.19-38-.57-76.16,1.84-114,5.54-31.18,3.05-62.31,6.75-93.42,10.51-22.81,2.76-46.68,4.74-68.74,11.57a50.56,50.56,0,0,0-14.53,6.66C136,55.69,137.48,58.3,139.05,57.17Z"/><path class="cls-5" d="M358.36,34.32c-28.1,2.14-56.16,5-84.08,8.77-13.38,1.81-26.75,3.81-40,6.4-9.23,1.8-18.68,3.68-27.48,7.1-3.2,1.24-9.65,3.49-9.57,7.88.07,3.84,5.23,5.78,8.14,6.91,17.09,6.61,36.8,8.06,54.83,10.18,41.67,4.89,83.7,7.74,125.62,9.4,16.53.65,33.07.61,49.61.19,33.66-.84,67.3-2.72,100.92-4.63q42.06-2.42,84.1-5.12c35.15-2.24,70.49-3.71,105.55-7,16.84-1.6,33.62-4.73,49.55-10.5,3.88-1.41,21.49-6.87,17.23-14-1.36-2.26-4.67-3.17-7-3.83a97.91,97.91,0,0,0-15.59-2.68c-20.31-2.36-40.86-3-61.28-3.84-36-1.43-72.11-2.38-108.16-3.39-54.48-1.54-109-3.2-163.48-3.76-22.43-.23-44.89-.27-67.29,1.1-3.87.24-7.74.52-11.6.81-1.91.14-1.93,3.15,0,3,18-1.37,36-2,54.1-2,40.39-.14,80.8,1,121.19,2,65.89,1.68,131.87,2.9,197.71,6.21,16,.8,32.34,1.29,48.13,4.19,2.84.52,7.48.92,9.79,2.93,1.77,1.53.54,2.66-1.48,4.14-5.63,4.12-13,6.29-19.58,8.34-32.61,10.17-67.67,10-101.47,12.25q-46.69,3.06-93.41,5.92c-39,2.37-78.1,4.69-117.18,6.16-19.2.72-38.43,1.25-57.64.86-28-.58-56.11-2.52-84.08-4.67-24.4-1.88-48.83-4-73.06-7.58a259.52,259.52,0,0,1-26.82-5c-3.19-.81-12.42-2.29-14-5.88-2.77-6.29,33.81-12.68,37.31-13.34,27.07-5.1,54.52-8.31,81.92-11.09q19.26-1.95,38.58-3.44C360.27,37.17,360.29,34.17,358.36,34.32Z"/><path class="cls-5" d="M422.08,43.23c-27.35.52-54.74,3-81.91,6q-18.41,2-36.74,4.62c-8.63,1.22-18,1.92-26.31,4.87-2.11.76-5.32,2.25-3.95,5,1.1,2.23,5,3,7.1,3.64,11.41,3.22,23.58,4.32,35.32,5.65,13.18,1.49,26.39,2.67,39.6,3.7q65,5.08,130.17,3.86c47.06-.84,94-4,140.89-8.3q32.5-3,65-6.44c15.66-1.64,31.52-3,47-6,1.94-.37,9.65-1.06,8.87-4.62-.53-2.36-4.8-2.55-6.6-2.8-18-2.54-36.67-2.23-54.82-2.82-43.13-1.4-86.26-2.63-129.39-4.07-36.51-1.22-73-2.69-109.57-2.57-8.21,0-16.43.13-24.64.28-1.93,0-1.94,3,0,3,75.38-1.39,150.86,2.91,226.19,5.2,25.86.78,51.76,1.29,77.59,2.75a126.66,126.66,0,0,1,15.69,1.4c.63.12,2.8.85,2.91.8-.47.21,0-1.1-.17-1.21s.07.16-.74.28c-2.6.36-5.24,1.34-7.85,1.8-6.15,1.09-12.35,1.87-18.55,2.64-20.12,2.48-40.31,4.42-60.48,6.43-42.62,4.23-85.3,7.89-128.09,9.84-73.48,3.34-147.68,2-220.74-7.11-9.94-1.24-21.25-1.94-30.58-5.91-.87-.38-1.28-1.19-1.5-.48.39-1.29,5.44-2,6.39-2.26,10.29-2.41,20.93-3.6,31.4-5,34.33-4.57,68.94-7.84,103.57-9,1.65-.06,3.3-.11,5-.14C424,46.19,424,43.19,422.08,43.23Z"/><path class="cls-5" d="M437.56,52.12c-19.47.59-39,1.49-58.37,3.62-1.75.19-23.39,2-17.61,7,2.46,2.15,7.93,2.17,10.93,2.57,7.2,1,14.46,1.58,21.7,2.13,18.15,1.36,36.35,2.22,54.54,2.79,39.11,1.24,78.52,1.52,117.59-1,5.64-.36,11.3-.76,16.89-1.58,2-.3,6.14-.43,7.66-2.18,4.07-4.69-10.5-6.39-12.34-6.71-18.93-3.22-38.27-4.47-57.42-5.52Q479.4,51,437.56,52.12c-1.93.05-1.94,3.05,0,3,40.36-1.14,81-.13,121.22,4.1,6.34.67,12.68,1.42,19,2.49,2,.35,4.06.72,6.06,1.19,1.14.27,3.16,1.32,4.3,1.27.23,0,.53.43.72.41-20.68,2.47.07-1.3.09-1.29s-.29.24-.41.22c-.81-.15-2.87.77-3.72.93A128.07,128.07,0,0,1,571,66c-33.28,2.53-66.89,2.36-100.24,1.83-31.91-.51-64.28-1.2-96-5.15-2.61-.32-5.25-.67-7.83-1.23a12.22,12.22,0,0,0-2.55-.64c-.21,0-.52-.3-.7-.26-.38.1-1.14.84-.21,1s4.07-1.16,5.27-1.38c3.46-.64,7-1.06,10.47-1.44,19.37-2.13,38.9-3,58.37-3.62C439.48,55.06,439.49,52.06,437.56,52.12Z"/><path class="cls-6" d="M901,127.08c-4.1,14.63-34.9,29.07-37.58,30.29-39.53,18.1-96.29,24.4-157.4,31.17-64.3,7.14-114.88,8.6-181.83,10.37-70.67,1.88-127,3.38-201.72.44-82.49-3.23-181.53-7.57-249.34-32.42-20.91-7.67-36.73-13.46-36.5-21.72l-.43-30.48C60.3,125,93.73,154.22,154.54,172.45c24.39,7.31,44,10.1,111,14,97.72,5.69,163,9.48,269,7,143.3-3.36,75.35-11.51,240-22,19.82-1.26,50.45-3,80-23,23.43-15.83,37.22-37,46.26-55l.16,27.32Z"/></svg>