<svg xmlns="http://www.w3.org/2000/svg" viewBox="0 0 936.32603 282.48295"><defs><style>.a,.b{fill:#5bbf90;}.b{stroke:#5bbf90;stroke-width:5px;}.b,.e{stroke-miterlimit:10;}.c{fill:#f1dcf4;}.d,.e{fill:#702161;}.e{stroke:#702161;stroke-width:0.25px;}.f{fill:#d5b8d8;}.g{fill:#cc9fce;}.h{fill:#5e1c55;}</style></defs><path class="a" d="M897.252,120.64773c-.02071.30186-.052.5933-.09343.89516a14.19849,14.19849,0,0,1-1.11659,3.79863c0,.01041,0,.01041-.01061.02083-5.64711,12.74916-28.89761,24.91543-36.12694,28.43329-.97266.4787-1.65494.80139-1.96553.947-40.89531,18.82721-99.60057,25.38371-162.805,32.44026-66.50425,7.43083-118.8074,8.93986-188.06248,10.782-73.08211,1.96716-131.33235,3.51761-208.63438.45787-78.36711-3.091-171.19338-7.16022-240.15858-27.84-6.10213-1.82131-12.029-3.78821-17.72764-5.89054-18.7412-6.92112-33.53114-12.37437-36.99607-19.29549v-.01042a7.07956,7.07956,0,0,1-.73429-2.48753c0-.04142-.01061-.0935-.01061-.13517l-.0101-.68681C3.66836,110.209,231.55047,85.61627,261.57579,82.369,432.8,63.89575,558.34028,73.2729,809.39007,92.0376c22.25764,1.6653,62.27372,4.87063,79.60845,15.90265C895.235,111.90556,897.53129,116.25581,897.252,120.64773Z"/><path class="a" d="M897.50136,120.66433a13.576,13.576,0,0,1-.40185,2.44776,15.60171,15.60171,0,0,1-.82325,2.33325l.022-.103a.32314.32314,0,0,1-.08667.20239l.0542-.07836c-2.074,4.394-5.42115,7.97851-8.96631,11.16967a93.46366,93.46366,0,0,1-11.49292,8.57959c-4.023,2.58545-8.17749,4.95752-12.41211,7.17359-2.1272,1.08593-4.25464,2.18579-6.447,3.14013l-6.57447,2.865a263.212,263.212,0,0,1-27.17065,9.1167c-9.21655,2.53247-18.53052,4.67969-27.88477,6.6333-18.73925,3.74683-37.63891,6.63233-56.571,9.12134q-14.19911,1.88306-28.415,3.58521-14.20826,1.73509-28.44482,3.3584c-37.97291,4.27832-76.14869,6.75927-114.31519,8.15649-19.08276.752-38.16772,1.23462-57.24536,1.73706q-28.61463.78259-57.24756,1.2959c-38.17725.62768-76.38867.717-114.56738-.37305-19.08887-.51831-38.16992-1.36059-57.23072-2.27807-19.06738-.8667-38.134-1.83057-57.18725-3.0481q-28.58351-1.77538-57.09229-4.63037c-18.99829-1.92969-37.95849-4.34863-56.78833-7.62061A485.83439,485.83439,0,0,1,54.351,170.513c-9.18042-2.77808-18.13476-6.13648-27.0813-9.50074-4.47021-1.7146-8.92407-3.51831-13.27026-5.67358a48.37863,48.37863,0,0,1-6.34619-3.71216,17.02457,17.02457,0,0,1-5.32447-5.616l-.14306-.26684-.002-.34692v-.01026l.14307.60986a8.48571,8.48571,0,0,1-.88623-2.96362l-.00659-.134c-.02-.28516-.02442-.59009-.01953-.92188a8.5019,8.5019,0,0,1,.11206-1.09716,8.65063,8.65063,0,0,1,.59082-2.02637,12.91314,12.91314,0,0,1,2.14355-3.38574,27.94516,27.94516,0,0,1,5.74976-4.88794,79.28246,79.28246,0,0,1,12.9939-6.66309,241.14954,241.14954,0,0,1,27.36962-9.14429c18.5-5.13672,37.2627-9.07983,56.07154-12.65576,37.6372-7.082,75.52612-12.56445,113.49023-17.323,18.98926-2.35278,37.97925-4.60839,57.03589-6.45l14.28223-1.45141c4.76318-.46,9.53637-.81714,14.30395-1.23072,9.53858-.79516,19.07227-1.65942,28.62988-2.21313,38.19947-2.63867,76.502-3.77881,114.78418-3.71558,76.5896.18213,152.99317,5.17115,229.2251,11.07862l114.32544,9.2749c19.033,1.65185,38.16016,2.76684,57.07153,5.8A170.681,170.681,0,0,1,877.55,102.356a56.02121,56.02121,0,0,1,12.93872,6.25855,19.56893,19.56893,0,0,1,5.11694,5.10156A11.258,11.258,0,0,1,897.50136,120.66433Zm-.49878-.0332a10.74184,10.74184,0,0,0-1.83764-6.62769,19.04683,19.04683,0,0,0-4.99634-4.9392,55.49063,55.49063,0,0,0-12.81616-6.13721,129.4612,129.4612,0,0,0-13.791-3.74976c-2.321-.54834-4.67773-.937-7.0144-1.41333-2.35474-.3872-4.70191-.81616-7.06568-1.14721-18.89258-2.814-37.99145-3.86158-57.06152-5.15113q-57.21826-3.83679-114.449-7.38452Q620.73537,80.649,563.48891,77.92971L534.8622,76.76l-28.63013-.93579L477.598,75.25c-9.54443-.14234-19.08935-.1211-28.63354-.18994-4.77246-.0564-9.54346.03295-14.315.06762l-14.314.13159-7.157.07984-7.15406.19018-14.30834.38062-7.1543.19018-7.14942.31324-14.29882.63989c-9.53614.35449-19.05445,1.04614-28.58057,1.60278-9.52979.50952-19.03857,1.32984-28.55225,2.08057-4.75561.39136-9.51611.72632-14.26806,1.16406L277.463,83.28518c-19.00537,1.75171-37.99243,3.92188-56.95239,6.18628q-28.44215,3.42408-56.79688,7.49463c-18.90014,2.71265-37.76416,5.67261-56.542,9.07105-9.38769,1.70312-18.7539,3.51538-28.07837,5.50244-9.32422,1.98364-18.61645,4.10962-27.81372,6.55664a238.08222,238.08222,0,0,0-27.09277,8.69555,76.45327,76.45327,0,0,0-12.56128,6.24561,25.16947,25.16947,0,0,0-5.19995,4.29443A10.11791,10.11791,0,0,0,4.7101,139.949a6.11918,6.11918,0,0,0-.51294,2.08106c-.00732.26416-.00708.55835.00977.86865l-.00659-.13379a5.71728,5.71728,0,0,0,.582,2.011l.14526.29711-.00171.31348-.00024.01026-.145-.61377a14.52646,14.52646,0,0,0,4.43139,4.67773,45.86513,45.86513,0,0,0,5.96241,3.56323c4.18286,2.12842,8.56494,3.95948,12.98437,5.70532,8.87818,3.4419,17.77173,6.88111,26.83423,9.72315,2.26172.731,4.54492,1.40088,6.83643,2.03931l6.864,1.95483c1.146.31958,2.28467.66553,3.43628.96387l3.46533.85815L82.527,175.9844q13.909,3.24464,27.99145,5.729c37.54517,6.62963,75.60376,10.08813,113.67359,12.37207,19.042,1.14013,38.10522,1.92236,57.17236,2.63134,19.07324.67627,38.13452,1.27588,57.20581,1.552,38.14111.61132,76.28149.03784,114.418-1.01319l57.21826-1.59985,57.20532-1.69849q28.58753-.98986,57.13306-2.58227c19.02417-1.15747,38.03418-2.56226,57.01465-4.34888q14.22729-1.36964,28.46435-2.89087c9.48755-.99634,18.97071-2.0144,28.44141-3.12305,18.94409-2.18945,37.84106-4.77295,56.58887-8.217,9.35205-1.8164,18.68725-3.75952,27.89062-6.2312a262.44116,262.44116,0,0,0,27.15674-8.842l6.572-2.79443c2.19312-.92456,4.311-2.01416,6.43384-3.09229,4.22436-2.19678,8.37036-4.55,12.38183-7.11328a92.91021,92.91021,0,0,0,11.44532-8.49707c3.52368-3.1521,6.834-6.69531,8.86255-10.96631l.05419-.07861a.20541.20541,0,0,0-.06567.16089l.02222-.10327a15.10236,15.10236,0,0,0,.802-2.2544A13.07676,13.07676,0,0,0,897.00258,120.63113Z"/><path class="b" d="M897.62422,203.04362c-4.24064,15.22626-36.09614,30.25459-38.86818,31.52428-40.88471,18.83762-99.59047,25.39438-162.79494,32.44-66.50374,7.43108-118.8175,8.95053-188.06248,10.79267-73.09221,1.95648-131.33235,3.5176-208.63388.45787-85.31767-3.3616-187.7524-7.87828-257.88672-33.74095C19.75165,236.53505,3.38908,230.50908,3.627,221.9125l-.44442-31.722-.68278-48.16581a12.30672,12.30672,0,0,0,.32069,1.91481c.08282.85348.33078.635.73429,1.44678v.01042c3.46493,6.92112,18.25487,12.37437,36.99607,19.29549,5.69862,2.10233,11.62551,4.06923,17.72764,5.89054,68.9652,20.67977,161.79147,24.749,240.15858,27.84,77.302,3.05974,135.55227,1.50929,208.63438-.45787,69.25508-1.84214,121.55823-3.35117,188.06248-10.782,63.20447-7.05655,121.90973-13.613,162.805-32.44026.31059-.1456.99287-.46829,1.96553-.947,7.22933-3.51786,30.47983-15.68413,36.12694-28.43329.01061-.01042.01061-.01042.01061-.02083a14.19849,14.19849,0,0,0,1.11659-3.79863l.25857,46.51094.16564,28.43328Z"/><path class="b" d="M2.82044,142.89879c.17574.73914.4237,1.57179.73429,2.48753A7.07956,7.07956,0,0,1,2.82044,142.89879Z"/><path class="b" d="M897.15859,121.54289a14.19849,14.19849,0,0,1-1.11659,3.79863,21.73017,21.73017,0,0,0,1.10649-5.17249Z"/><path class="b" d="M897.62422,203.04362c-4.24064,15.22626-36.09614,30.25459-38.86818,31.52428-40.88471,18.83762-99.59047,25.39438-162.79494,32.44-66.50374,7.43108-118.8175,8.95053-188.06248,10.79267-73.09221,1.95648-131.33235,3.5176-208.63388.45787-85.31767-3.3616-187.7524-7.87828-257.88672-33.74095C19.75165,236.53505,3.38908,230.50908,3.627,221.9125l-.44442-31.722c24.92565,10.6885,59.50168,41.0991,122.39606,60.07191,25.22614,7.60792,45.47684,10.51165,114.80464,14.57046,101.06917,5.92179,168.59709,9.86626,278.22024,7.28523,148.21155-3.49677,77.9328-11.979,248.22624-22.89644,20.49917-1.31135,52.17943-3.1535,82.74208-23.93719,24.23327-16.47511,38.49547-38.5389,47.84537-57.23068l.16564,28.43328Z"/><path class="a" d="M933.45168,50.91766c-.02071.30186-.052.5933-.09343.89516a14.19832,14.19832,0,0,1-1.11659,3.79862c0,.01042,0,.01042-.01061.02084-5.64711,12.74915-28.89761,24.91543-36.12694,28.43329-.97266.4787-1.65494.80139-1.96553.947-40.89531,18.82721-99.60057,25.38371-162.805,32.44026-66.50425,7.43083-118.8074,8.93986-188.06248,10.782-73.08211,1.96716-131.33235,3.51761-208.63438.45787-78.36711-3.091-171.19338-7.16022-240.15858-27.84-6.10213-1.82131-12.029-3.78821-17.72764-5.89054C58.00926,88.041,43.21932,82.58779,39.75439,75.66667v-.01042a7.07962,7.07962,0,0,1-.73429-2.48753c0-.04142-.01061-.0935-.01061-.13518l-.0101-.6868C39.868,40.47894,267.75013,15.8862,297.77545,12.639,468.99964-5.83432,594.53994,3.54283,845.58973,22.30753c22.25764,1.6653,62.27372,4.87063,79.60845,15.90265C931.43464,42.17549,933.731,46.52574,933.45168,50.91766Z"/><path class="a" d="M933.70107,50.93411a13.57514,13.57514,0,0,1-.40186,2.448,15.59718,15.59718,0,0,1-.82324,2.333l.022-.10278a.32186.32186,0,0,1-.08667.20215l.0542-.07837c-2.07422,4.39429-5.42114,7.97852-8.96631,11.16992a93.4556,93.4556,0,0,1-11.49292,8.57935c-4.023,2.58545-8.17749,4.95752-12.41211,7.17383-2.12719,1.08593-4.25488,2.18579-6.447,3.13989l-6.57446,2.86523a263.21639,263.21639,0,0,1-27.1709,9.1167c-9.21631,2.53223-18.53027,4.67969-27.88452,6.63306-18.73926,3.74707-37.63892,6.63232-56.571,9.12134q-14.1991,1.88341-28.415,3.5852-14.20863,1.73511-28.44483,3.35864c-37.9729,4.27808-76.14892,6.75928-114.31518,8.1565-19.08277.75171-38.16773,1.23462-57.24561,1.73682q-28.61462.783-57.24756,1.29614c-38.17724.62768-76.38843.717-114.56714-.37329-19.08886-.51807-38.16992-1.3606-57.23071-2.27784-19.06738-.86694-38.134-1.83056-57.1875-3.04809q-28.58313-1.77576-57.092-4.63037c-18.99829-1.92969-37.95874-4.34863-56.78833-7.62061A485.88413,485.88413,0,0,1,90.55068,100.783c-9.18042-2.77808-18.13477-6.13648-27.08155-9.501-4.47-1.71436-8.92407-3.51831-13.27-5.67358a48.33384,48.33384,0,0,1-6.3462-3.71192,17.02454,17.02454,0,0,1-5.32446-5.616l-.14307-.26684-.002-.34717-.00024-.01025.14331.6101a8.482,8.482,0,0,1-.88623-2.96362l-.00659-.134c-.02-.2854-.02442-.59033-.01954-.92212a8.55761,8.55761,0,0,1,.11182-1.09717,8.66022,8.66022,0,0,1,.59107-2.02612,12.90484,12.90484,0,0,1,2.14355-3.38574,27.93087,27.93087,0,0,1,5.74976-4.88794,79.26322,79.26322,0,0,1,12.99389-6.66309A241.09956,241.09956,0,0,1,86.57387,45.042c18.5-5.13648,37.2627-9.07959,56.07129-12.65552,37.63721-7.082,75.52637-12.56445,113.49048-17.323,18.98926-2.353,37.97925-4.6084,57.03589-6.45019l14.28222-1.45117c4.76319-.46,9.53638-.81714,14.304-1.231,9.53857-.79492,19.072-1.65942,28.62988-2.21289,38.19922-2.63867,76.502-3.77881,114.78418-3.71582,76.58936.18237,152.99317,5.17114,229.2251,11.07861l114.32544,9.27515c19.03271,1.65161,38.15991,2.76684,57.07153,5.7998a170.68833,170.68833,0,0,1,27.95581,6.47,56.00567,56.00567,0,0,1,12.93872,6.25855,19.56681,19.56681,0,0,1,5.1167,5.10132A11.25857,11.25857,0,0,1,933.70107,50.93411Zm-.49878-.033a10.74185,10.74185,0,0,0-1.83765-6.62769,19.04033,19.04033,0,0,0-4.99658-4.9392,55.47406,55.47406,0,0,0-12.81592-6.13721,129.46041,129.46041,0,0,0-13.791-3.75c-2.32105-.54834-4.67774-.93677-7.01441-1.41309-2.35473-.38745-4.7019-.8164-7.06567-1.14721-18.89282-2.814-37.99146-3.86158-57.06177-5.15137q-57.21827-3.83679-114.449-7.38452Q656.9352,10.91909,599.68862,8.19973l-28.627-1.16992L542.43178,6.094l-28.634-.574c-9.54444-.14258-19.08936-.12134-28.63355-.19-4.77246-.05664-9.54345.033-14.31494.06763l-14.31421.13159-7.15674.07959-7.154.19043-14.30835.38037-7.15429.19019-7.14966.31348L399.31337,7.323c-9.53613.3545-19.05468,1.04639-28.58056,1.603-9.52979.50952-19.03858,1.32959-28.55249,2.08032-4.75562.39161-9.51612.72632-14.26783,1.16431L313.66274,13.5552c-19.00537,1.75171-37.99243,3.92163-56.95239,6.186q-28.4425,3.42406-56.79688,7.49487c-18.90015,2.71265-37.7644,5.67261-56.542,9.0708-9.3877,1.70313-18.75391,3.51563-28.07837,5.50244-9.32422,1.98389-18.6167,4.10987-27.81372,6.55689a238.06621,238.06621,0,0,0-27.09277,8.69555A76.43346,76.43346,0,0,0,47.82534,63.3074a25.16223,25.16223,0,0,0-5.2,4.29419A10.11914,10.11914,0,0,0,40.90981,70.219a6.11593,6.11593,0,0,0-.51294,2.08106c-.00733.26416-.00708.55835.00952.86865L40.4,73.03494a5.7192,5.7192,0,0,0,.582,2.011l.14527.29687-.002.31348v.01025l-.145-.61352a14.52579,14.52579,0,0,0,4.43139,4.67749,45.82421,45.82421,0,0,0,5.9624,3.56347c4.18287,2.12818,8.56495,3.95923,12.98438,5.70532,8.87793,3.4419,17.77173,6.88086,26.834,9.7229,2.262.731,4.54517,1.40113,6.83667,2.03956l6.864,1.95483c1.14575.31958,2.28467.66553,3.43628.96362l3.46533.8584,6.93164,1.71558q13.90942,3.245,27.9917,5.729c37.54516,6.62988,75.60376,10.08814,113.67358,12.37207,19.042,1.14014,38.10523,1.92236,57.17237,2.63159,19.07324.676,38.13452,1.27588,57.20581,1.552,38.14111.61109,76.28149.0376,114.418-1.01318l57.21827-1.6001,57.20532-1.69824q28.58752-.98987,57.13306-2.58227c19.02417-1.15772,38.03393-2.5625,57.01464-4.34888q14.22731-1.36964,28.46436-2.89087c9.48755-.99658,18.97046-2.0144,28.44141-3.123,18.94409-2.18969,37.84106-4.773,56.58862-8.21728,9.35229-1.81641,18.6875-3.75928,27.89087-6.231a262.41723,262.41723,0,0,0,27.15649-8.842l6.572-2.79443c2.19336-.92456,4.311-2.01416,6.43409-3.09229,4.22436-2.197,8.37036-4.55,12.38183-7.11352a92.90852,92.90852,0,0,0,11.44531-8.49683c3.52369-3.1521,6.83374-6.69531,8.86255-10.96631l.0542-.07861a.20508.20508,0,0,0-.06567.16089l.02221-.10328a15.09516,15.09516,0,0,0,.802-2.25463A13.09631,13.09631,0,0,0,933.20229,50.90115Z"/><path class="b" d="M933.82388,133.31355c-4.24064,15.22626-36.09614,30.25459-38.86818,31.52428-40.88471,18.83762-99.59047,25.39438-162.79494,32.44-66.50374,7.43108-118.8175,8.95053-188.06248,10.79267-73.09221,1.95648-131.33235,3.5176-208.63388.45787-85.31767-3.3616-187.7524-7.87828-257.88672-33.74095-21.62637-7.98245-37.98894-14.00842-37.75107-22.605l-.44442-31.722-.68278-48.16582a12.30664,12.30664,0,0,0,.32069,1.91482c.08282.85348.33078.635.73429,1.44678v.01042C43.21932,82.58779,58.00926,88.041,76.75046,94.96216c5.69862,2.10233,11.62551,4.06923,17.72764,5.89054,68.9652,20.67977,161.79147,24.749,240.15858,27.84,77.302,3.05974,135.55227,1.50929,208.63438-.45787,69.25508-1.84214,121.55823-3.35117,188.06248-10.782,63.20447-7.05655,121.90973-13.613,162.805-32.44026.31059-.1456.99287-.46829,1.96553-.947,7.22933-3.51786,30.47983-15.68414,36.12694-28.43329.01061-.01042.01061-.01042.01061-.02084a14.19832,14.19832,0,0,0,1.11659-3.79862l.25857,46.51094.16564,28.43328Z"/><path class="b" d="M39.0201,73.16872c.17574.73914.4237,1.57179.73429,2.48753A7.07962,7.07962,0,0,1,39.0201,73.16872Z"/><path class="b" d="M933.35825,51.81282a14.19832,14.19832,0,0,1-1.11659,3.79862,21.73,21.73,0,0,0,1.10649-5.17248Z"/><path class="b" d="M933.82388,133.31355c-4.24064,15.22626-36.09614,30.25459-38.86818,31.52428-40.88471,18.83762-99.59047,25.39438-162.79494,32.44-66.50374,7.43108-118.8175,8.95053-188.06248,10.79267-73.09221,1.95648-131.33235,3.5176-208.63388.45787-85.31767-3.3616-187.7524-7.87828-257.88672-33.74095-21.62637-7.98245-37.98894-14.00842-37.75107-22.605l-.44442-31.722c24.92565,10.6885,59.50168,41.0991,122.39606,60.07191,25.22614,7.60792,45.47684,10.51165,114.80464,14.57046,101.06917,5.92179,168.59709,9.86626,278.22024,7.28523,148.21155-3.49677,77.9328-11.979,248.22624-22.89644,20.49917-1.31135,52.17943-3.1535,82.74208-23.93719,24.23327-16.47511,38.49547-38.5389,47.84537-57.23068l.16564,28.43328Z"/><path class="c" d="M883.03193,121.45659c-.02.29-.05029.57007-.09033.8601a13.57828,13.57828,0,0,1-1.07959,3.64991c0,.01,0,.01-.01026.02-5.46,12.25-27.93994,23.93994-34.92968,27.32006-.94043.46-1.6001.77-1.90039.90992-39.54,18.09008-96.29981,24.38989-157.40967,31.17016-64.3003,7.1399-114.87012,8.58985-181.83008,10.35987-70.66016,1.89013-126.98,3.37988-201.72022.43994-75.77-2.97-165.52-6.87989-232.1997-26.75-5.8999-1.75-11.63037-3.6399-17.14014-5.65991-18.12012-6.65015-32.41992-11.8899-35.77-18.54v-.01a6.77089,6.77089,0,0,1-.71-2.39014c0-.0398-.01025-.08984-.01025-.12988l-.00977-.65992c.83984-30.62011,221.16992-54.25,250.2002-57.37011,165.5498-17.75,286.92968-8.74,529.65966,9.29,21.52,1.60009,60.21,4.67993,76.97022,15.28C881.08173,113.05668,883.302,117.23662,883.03193,121.45659Z"/><path class="d" d="M883.18154,121.46658a12.87556,12.87556,0,0,1-.385,2.33594,14.85256,14.85256,0,0,1-.79,2.22851l.01367-.064a.22192.22192,0,0,1-.05762.13232l.03369-.04834c-2.00488,4.22266-5.24609,7.6709-8.67846,10.73926a90.10818,90.10818,0,0,1-11.12622,8.24829c-3.8938,2.48584-7.91284,4.76831-12.01075,6.89722-2.05737,1.04468-4.11425,2.10473-6.24072,3.00708l-6.36474,2.73608a256.21957,256.21957,0,0,1-26.29322,8.67139c-8.91308,2.41113-17.92236,4.43579-26.96606,6.28589-18.11939,3.541-36.38892,6.25854-54.69287,8.59253-9.15137,1.18017-18.31128,2.28247-27.47266,3.35986q-13.73913,1.62488-27.5,3.14087-27.53026,2.94286-55.16821,4.78906c-18.4209,1.20435-36.85938,2.09546-55.29981,2.80322-18.43994.727-36.88525,1.17627-55.32519,1.64966-18.44019.46753-36.88159.9502-55.32861,1.32422-36.8938.68628-73.815.85376-110.71094-.10547-18.44751-.4541-36.8877-1.21948-55.31372-2.05713-18.43042-.79858-36.86158-1.65674-55.27637-2.8208q-27.62365-1.71532-55.17334-4.46484c-18.35815-1.865-36.67847-4.19946-54.87036-7.3523a464.11324,464.11324,0,0,1-53.95166-12.48193c-8.85718-2.67944-17.5083-5.92212-26.15015-9.16992-4.31494-1.65357-8.61133-3.39063-12.7876-5.45752a46.43144,46.43144,0,0,1-6.0747-3.54077,15.9733,15.9733,0,0,1-5.00244-5.23828l-.08789-.16382v-.21631l.08691.36767a7.61939,7.61939,0,0,1-.80029-2.677l-.00415-.08081c-.01831-.28076-.02247-.57251-.01612-.88232a7.579,7.579,0,0,1,.10547-.98487,7.81344,7.81344,0,0,1,.54932-1.84228,11.91343,11.91343,0,0,1,2.011-3.11939,26.59733,26.59733,0,0,1,5.47974-4.58374,76.55072,76.55072,0,0,1,12.5022-6.314,234.18868,234.18868,0,0,1,26.42553-8.68115c17.87745-4.86011,36.00586-8.62647,54.17994-12.04834,36.37011-6.76563,72.99121-11.99878,109.68286-16.53809,18.35156-2.24463,36.70874-4.39429,55.1206-6.14746l13.80054-1.38208c4.6023-.43628,9.21387-.77661,13.82031-1.16943,9.21582-.75659,18.42725-1.5774,27.66065-2.10132,36.90527-2.50928,73.90527-3.55054,110.88818-3.49365q55.47767.11938,110.87622,3.13281,55.37842,2.88611,110.65943,7.08594,55.28027,4.16235,110.5354,8.56884c18.40478,1.531,36.88964,2.55323,55.17431,5.41187,2.28809.3291,4.55982.76636,6.84033,1.144,2.26563.46314,4.54639.85156,6.79761,1.38379a127.88167,127.88167,0,0,1,13.38281,3.66162,54.79233,54.79233,0,0,1,12.50611,5.99488,18.88161,18.88161,0,0,1,4.94848,4.88134A10.68766,10.68766,0,0,1,883.18154,121.46658Zm-.29932-.02a10.37276,10.37276,0,0,0-1.8125-6.45264,18.54789,18.54789,0,0,0-4.87988-4.77148,54.436,54.436,0,0,0-12.43433-5.89722A127.41422,127.41422,0,0,0,850.40615,100.73c-2.24659-.522-4.52466-.90039-6.78614-1.35352-2.27783-.36792-4.54565-.79516-6.8313-1.1145C818.5248,95.51,800.05971,94.46023,781.632,93.1636q-55.29749-3.84888-110.60913-7.43433c-36.8794-2.28955-73.75953-4.52832-110.66089-6.20141l-27.67871-1.148-27.68335-.93433L477.31,76.85843c-9.23023-.14893-18.46167-.1399-27.69214-.21778q-55.385-.07873-110.678,3.52612c-9.217.49756-18.41333,1.29175-27.6145,2.02149-4.59937.37988-9.20337.70679-13.79908,1.12964L283.7455,84.66018c-18.38135,1.69922-36.73681,3.79761-55.071,5.989q-27.50172,3.31274-54.9209,7.24707c-18.2771,2.62231-36.52051,5.48242-54.68482,8.76416-18.15527,3.30664-36.26318,6.958-54.08007,11.68823a232.35766,232.35766,0,0,0-26.25586,8.45044,74.8649,74.8649,0,0,0-12.24073,6.08423,24.96317,24.96317,0,0,0-5.1477,4.241,7.69234,7.69234,0,0,0-2.27271,5.71216l-.0039-.08056a5.961,5.961,0,0,0,.61963,2.10278l.08667.1748v.20313l-.08789-.36987a14.49352,14.49352,0,0,0,4.46411,4.67553,44.907,44.907,0,0,0,5.84546,3.45288c4.07861,2.05127,8.33227,3.80494,12.61694,5.47754,8.60107,3.29444,17.21533,6.58545,26.0022,9.30347,2.19189.69946,4.40381,1.33789,6.62329,1.94824l6.64819,1.86768c1.10986.30469,2.2124.63769,3.32861.91894l3.355.81909,6.71119,1.63746q13.46192,3.108,27.0852,5.48632c36.32178,6.34327,73.11987,9.63477,109.92432,11.82618,18.4082,1.10034,36.83325,1.91943,55.26343,2.63427,18.43359.69312,36.86181,1.31275,55.29882,1.62159,36.87354.67529,73.75245.20654,110.62207-.719,18.43653-.41846,36.87354-.94531,55.3125-1.45727l55.301-1.64917c18.42725-.6233,36.845-1.43018,55.24341-2.54908,18.39477-1.16357,36.77466-2.57006,55.12378-4.34179q13.756-1.35609,27.51147-2.86011c9.1687-.98535,18.33423-1.99048,27.48853-3.08252,18.311-2.1543,36.5791-4.69092,54.70337-8.05029,9.0415-1.772,18.06787-3.65869,26.96533-6.06079a255.60126,255.60126,0,0,0,26.26172-8.55933l6.35449-2.70557c2.12207-.8916,4.17309-1.93969,6.22949-2.97509,4.09351-2.1084,8.10986-4.3711,11.99951-6.83521a89.73765,89.73765,0,0,0,11.10718-8.17383c3.4231-3.03711,6.64649-6.45215,8.63037-10.59448l.03369-.04858a.10932.10932,0,0,0-.03711.09228l.01392-.064a14.54012,14.54012,0,0,0,.781-2.17847A12.597,12.597,0,0,0,882.88222,121.44656Z"/><path class="e" d="M883.39179,200.62651c-4.10009,14.63013-34.8999,29.07007-37.58008,30.29-39.52978,18.1001-96.29,24.40014-157.3999,31.16992-64.2998,7.14014-114.87988,8.6001-181.83008,10.37012-70.66992,1.87988-126.98,3.37988-201.71972.43994-82.49024-3.23-181.53028-7.56983-249.34033-32.41992-20.90967-7.66993-36.73-13.46-36.5-21.72l-.42969-30.48-.66016-46.28a11.75821,11.75821,0,0,0,.31006,1.83984c.08008.82007.31982.61011.71,1.39014v.01c3.3501,6.65014,17.6499,11.88989,35.77,18.54,5.50977,2.02,11.24024,3.90991,17.14014,5.65991,66.67969,19.87011,156.42969,23.78,232.1997,26.75,74.74024,2.93994,131.06006,1.45019,201.72022-.43994,66.96-1.77,117.52978-3.22,181.83008-10.35987,61.10986-6.78027,117.86963-13.08008,157.40967-31.17016.30029-.1399.96-.45,1.90039-.90992,6.98974-3.38012,29.46972-15.07006,34.92968-27.32006.01026-.01.01026-.01.01026-.02a13.57828,13.57828,0,0,0,1.07959-3.64991l.25,44.69.16015,27.32006Z"/><path class="d" d="M18.24189,142.83647c.16992.7102.40967,1.51025.71,2.39014A6.77089,6.77089,0,0,1,18.24189,142.83647Z"/><path class="d" d="M882.9416,122.31669a13.57828,13.57828,0,0,1-1.07959,3.64991,20.76682,20.76682,0,0,0,1.06982-4.97Z"/><path class="f" d="M82.89812,134.8923c5.34645-6.21611,13.53417-9.6812,21.05289-12.44711,11.04712-4.0639,22.58633-6.77932,34.103-9.12663,30.103-6.13552,60.736-9.592,91.24773-12.96146,48.39491-5.34437,96.80732-9.22778,145.49788-10.57115,39.64684-1.09386,78.91474-.34637,118.46158,2.14108,53.1773,3.34478,106.46273,3.88772,159.7057,5.55718,33.29238,1.0439,66.57491,2.50334,99.80489,4.819q26.79072,1.86695,53.51914,4.51769c12.98731,1.30131,28.09644,1.78339,39.97614,7.75876,3.28962,1.65465,6.75608,4.18355,5.15269,8.221-1.33382,3.35861-4.9353,5.97961-7.76417,7.99014-7.38424,5.2481-15.79142,9.12555-24.09442,12.67149-20.24547,8.64619-41.48089,14.58623-63.01068,19.04942-63.4961,13.16294-129.05308,15.99155-193.67108,18.67253-65.28722,2.70875-130.55484,4.65268-195.89965,3.24726-61.2422-1.31719-122.734-3.23008-183.821-7.86936-19.44488-1.47675-39.03051-3.18879-58.16169-7.10713-10.71811-2.19522-21.7814-5.05854-31.2433-10.74442-8.12407-4.882-18.45517-14.00634-10.85573-23.81825,1.16792-1.50794-.9402-3.64631-2.12132-2.12132-11.10716,14.34085,6.5767,26.91838,18.69313,32.19825,12.197,5.31495,25.51214,7.83787,38.5991,9.80938,23.23474,3.50024,46.75963,5.08281,70.19952,6.45144,33.7161,1.96866,67.482,3.19926,101.231,4.45479,64.7721,2.40966,129.49209,2.979,194.27939.71575,69.926-2.44277,140.26586-4.2621,209.68676-13.63189,28.5562-3.85425,57.19032-8.99982,84.61788-18.00974,16.50988-5.42348,34.59836-11.88659,48.55216-22.45142,4.14088-3.13518,10.11113-8.40858,7.73929-14.283-3.48083-8.62109-18.83357-10.28055-26.46243-11.54108-15.57445-2.57339-31.44113-3.68954-47.15654-5.02238Q753.57345,99.1557,726.33229,97.632C662.46955,93.9911,598.50834,93.67138,534.609,91.06045c-35.97192-1.46981-71.83673-4.76814-107.85548-4.9158a1580.55453,1580.55453,0,0,0-163.91815,7.62389c-28.16921,2.82168-56.34869,5.891-84.3894,9.79865-26.31034,3.6665-53.98255,7.2946-78.778,17.32716-6.835,2.76553-13.99335,6.18208-18.89121,11.87663C79.52383,134.22777,81.63656,136.35907,82.89812,134.8923Z"/><path class="f" d="M121.48058,132.90679c11.469-8.1859,27.61651-10.0449,41.107-12.2567,30.93583-5.072,62.22664-8.17176,93.36522-11.71114,43.954-4.99607,87.97741-9.05483,132.23207-9.86175,27.61228-.50346,55.19513,1.04273,82.7842,1.92512,58.87063,1.8829,117.76034,1.88582,176.65152,2.4618,44.89633.4391,90.38921.946,134.42137,10.7054,4.85615,1.07633,9.68568,2.09765,14.57916,2.99481,5.33132.97743,12.08916,1.69609,16.65683,4.86256,5.77512,4.00351-3.60792,8.77466-6.85876,10.495-15.42053,8.16071-33.09934,12.68892-49.8885,17.10741-45.772,12.04608-92.97352,16.92736-140.113,19.71983-55.21864,3.27106-110.64419,4.84666-165.959,5.22753-60.25652.41491-120.65745,1.01891-180.886-1.08532-25.55477-.89281-51.08176-2.56908-76.48044-5.56881-14.57994-1.722-29.19477-3.66854-43.559-6.74862-8.23582-1.766-16.85528-3.759-24.31567-7.8155a22.89879,22.89879,0,0,1-5.81915-4.19694c-5.4705-5.78251-3.58089-11.81914,2.38565-16.48926,1.51891-1.18888-.61744-3.29844-2.12132-2.12132-7.86193,6.15368-8.93713,15.05216-1.2261,21.8456,4.631,4.07993,10.87045,6.35466,16.6639,8.17311,24.89332,7.81355,52.01494,10.05073,77.88565,12.44826,61.99648,5.74541,124.50152,4.695,186.68974,4.69035q81.88444-.00606,163.64552-2.9068c57.00425-2.07709,114.53738-4.81468,170.49079-16.68817a477.83588,477.83588,0,0,0,49.131-13.06419c8.48719-2.77188,17.07856-5.74992,24.99006-9.93675,3.69928-1.95769,10.39219-5.36889,10.39519-10.38258.00452-7.56612-13.98779-9.14579-19.03544-10.11084-10.16757-1.94392-20.247-4.31611-30.43817-6.14014-21.082-3.77328-42.45392-5.6189-63.83133-6.63251-61.69168-2.9251-123.59356-1.4712-185.3326-2.6251-36.3588-.67955-72.69132-2.651-109.04774-3.189-38.02837-.56273-76.15814,1.83944-113.9856,5.54095-31.18219,3.05125-62.31421,6.74775-93.41735,10.50969-22.81477,2.75946-46.6842,4.7413-68.74542,11.57573a50.40621,50.40621,0,0,0-14.52848,6.65785C118.4083,131.42848,119.90479,134.03149,121.48058,132.90679Z"/><path class="f" d="M340.78388,110.05413c-28.09457,2.146-56.15383,5.00648-84.0783,8.77441-13.38227,1.8057-26.75118,3.81059-40.007,6.39808-9.23194,1.80205-18.68206,3.68337-27.48129,7.094-3.20473,1.24219-9.64754,3.49642-9.56905,7.88188.06886,3.84736,5.22463,5.78482,8.1404,6.91313,17.08383,6.61092,36.79932,8.0607,54.82962,10.17878,41.66963,4.89507,83.69768,7.745,125.6179,9.40152,16.53312.65333,33.07118.6072,49.61017.19234,33.66366-.8444,67.30442-2.71843,100.9204-4.638q42.06006-2.40177,84.10153-5.11664c35.15044-2.2361,70.48568-3.70521,105.54921-7.03515,16.83516-1.59881,33.61924-4.73562,49.55177-10.50663,3.88025-1.40549,21.48774-6.86789,17.22817-13.94658-1.36008-2.26023-4.66868-3.16754-7.01192-3.835a98.3137,98.3137,0,0,0-15.58651-2.672c-20.31765-2.35994-40.86424-3.02809-61.28726-3.83847-36.04148-1.43011-72.10256-2.38293-108.15747-3.39908-54.48009-1.53543-108.97514-3.198-163.47646-3.7549-22.43192-.22921-44.89207-.27306-67.29215,1.10215-3.86936.23755-7.73621.51328-11.60174.80618-1.91307.145-1.9288,3.14616,0,3,18.01294-1.36491,36.03348-1.9535,54.09737-2.01355,40.39838-.1343,80.80912,1.0167,121.19008,2.04662,65.89466,1.68064,131.87294,2.9019,197.71087,6.20926,15.9915.80333,32.34081,1.29153,48.129,4.18416,2.84485.52122,7.48627.9278,9.79676,2.93275,1.76719,1.53349.53451,2.66667-1.48478,4.144-5.628,4.11739-13.00816,6.28313-19.57977,8.33347-32.60687,10.17332-67.6719,10.0364-101.46653,12.25036q-46.69819,3.05929-93.4089,5.925c-39.04155,2.3694-78.099,4.68639-117.18666,6.16-19.19824.7238-38.42083,1.24931-57.63319.85673-28.054-.57324-56.11571-2.519-84.08267-4.66793-24.39918-1.8748-48.83456-4.02769-73.055-7.577a261.07515,261.07515,0,0,1-26.82352-5.03052c-3.18873-.815-12.42528-2.28808-14.01031-5.88428-2.7734-6.29247,33.81337-12.68031,37.30451-13.33789,27.07456-5.09972,54.52714-8.30777,81.92386-11.089q19.26759-1.956,38.57892-3.44219C342.69673,112.908,342.71256,109.90681,340.78388,110.05413Z"/><path class="f" d="M404.50223,118.9611c-27.34208.525-54.74147,2.97554-81.90628,5.956q-18.40323,2.01918-36.73776,4.6133c-8.62986,1.22366-18.03788,1.921-26.30972,4.87642-2.11553.75586-5.32227,2.24649-3.95521,5.01533,1.10457,2.23722,4.9918,3.04522,7.10405,3.6411,11.409,3.21855,23.58029,4.32011,35.31989,5.64787,13.17455,1.49006,26.38471,2.66937,39.60232,3.70335q64.95432,5.08125,130.16823,3.85631c47.05651-.83076,94.02825-4.0024,140.88563-8.29954q32.509-2.98129,64.97482-6.43143c15.66222-1.64251,31.52214-3.02518,47.0108-5.97706,1.93789-.36933,9.6517-1.0572,8.863-4.61518-.524-2.36382-4.79245-2.553-6.59147-2.80578-18.0232-2.532-36.67844-2.23085-54.82615-2.819-43.128-1.39776-86.26111-2.62958-129.388-4.067-36.50924-1.21681-73.03124-2.69014-109.56742-2.574q-12.32436.03918-24.64671.27923c-1.92818.03535-1.93444,3.03546,0,3,75.38305-1.382,150.85985,2.91491,226.189,5.20338,25.86166.78567,51.76311,1.29134,77.59848,2.75522a125.54764,125.54764,0,0,1,15.686,1.39705c.62694.116,2.798.85195,2.90886.80246-.46449.2073.024-1.10713-.16751-1.2148-.08285-.04658.07037.16268-.73986.27712-2.59643.36673-5.23968,1.34309-7.85088,1.80416-6.15014,1.08593-12.35482,1.874-18.55147,2.638-20.1184,2.48056-40.30543,4.42625-60.47572,6.43052-42.62025,4.23509-85.30518,7.89592-128.09794,9.84-73.47054,3.33781-147.67559,2.04816-220.73457-7.10441-9.94109-1.24538-21.25139-1.94018-30.58244-5.91888-.87318-.37232-1.28114-1.18987-1.49372-.47863.38492-1.28783,5.43235-2.03689,6.38157-2.25856,10.29776-2.40473,20.93736-3.59877,31.40526-4.99056,34.33191-4.56469,68.94161-7.83734,103.566-9.03738,1.65259-.05728,3.30563-.113,4.959-.14473C406.43028,121.92408,406.43667,118.924,404.50223,118.9611Z"/><path class="f" d="M419.98272,127.85488c-19.46455.587-38.99978,1.49127-58.36448,3.61728-1.74887.192-23.3954,1.97678-17.60893,7.051,2.45507,2.15287,7.92735,2.16831,10.92219,2.57528,7.20414.979,14.46114,1.57948,21.70892,2.125,18.14761,1.36605,36.34177,2.21876,54.53068,2.79315,39.11119,1.2351,78.529,1.51415,117.59913-.98655,5.63653-.36077,11.292-.76552,16.88408-1.58268,2.05291-.3,6.13948-.42887,7.66016-2.18159,4.06827-4.689-10.50062-6.39549-12.34137-6.709-18.92807-3.22366-38.26814-4.46945-57.4155-5.52627q-41.73708-2.30363-83.57488-1.17566c-1.92649.05427-1.93437,3.05449,0,3,40.36728-1.13714,81.04579-.13441,121.22594,4.10432,6.33994.66883,12.68069,1.41981,18.96692,2.49045,2.02778.34536,4.05567.71477,6.05844,1.18655,1.14436.26958,3.16354,1.32277,4.30184,1.26757.23091-.0112.53332.42979.72245.40721-20.68176,2.46951.06348-1.29158.08365-1.28884-.10662-.0145-.285.24279-.40358.221-.809-.14853-2.87.7751-3.71975.93276a129.5191,129.5191,0,0,1-13.82381,1.53328c-33.28084,2.52413-66.88845,2.35816-100.23746,1.82375-31.91523-.51144-64.28571-1.19565-95.99124-5.14467-2.61536-.32576-5.24848-.66944-7.8263-1.2292a12.44437,12.44437,0,0,0-2.55048-.64514c-.21418.01107-.5191-.30259-.70232-.25479-.37732.09844-1.13925.83926-.21571,1.0365,1.088.23236,4.07291-1.16445,5.27162-1.38529,3.46585-.63854,6.97385-1.05378,10.47531-1.43819,19.36451-2.12595,38.9-3.03031,58.36448-3.61728C421.90882,130.7968,421.917,127.79655,419.98272,127.85488Z"/><path class="g" d="M82.8656,132.70307c5.34644-6.21611,13.53416-9.6812,21.05288-12.44711,11.04712-4.06389,22.58633-6.77931,34.10305-9.12663,30.103-6.13552,60.736-9.592,91.24773-12.96145,48.39491-5.34437,96.80732-9.22779,145.49788-10.57116,39.64685-1.09386,78.91474-.34636,118.46158,2.14108,53.1773,3.34478,106.46273,3.88772,159.7057,5.55718,33.29238,1.0439,66.57491,2.50334,99.8049,4.819q26.79071,1.86695,53.51914,4.51769c12.9873,1.30132,28.09643,1.78339,39.97613,7.75877,3.28962,1.65464,6.75608,4.18354,5.15269,8.22094-1.33382,3.35861-4.9353,5.97962-7.76417,7.99014-7.38424,5.24811-15.79142,9.12555-24.09442,12.6715-20.24546,8.64618-41.48089,14.58622-63.01068,19.04941C693.02191,173.48538,627.46493,176.314,562.84694,178.995c-65.28723,2.70875-130.55484,4.65268-195.89965,3.24726-61.2422-1.31718-122.734-3.23008-183.821-7.86935-19.44489-1.47675-39.03052-3.1888-58.1617-7.10714-10.71811-2.19522-21.7814-5.05854-31.2433-10.74442-8.12407-4.88195-18.45516-14.00634-10.85572-23.81825,1.16791-1.50794-.9402-3.64631-2.12132-2.12132C69.63712,144.9226,87.321,157.50014,99.4374,162.78c12.197,5.315,25.51214,7.83787,38.5991,9.80938,23.23475,3.50024,46.75963,5.08281,70.19952,6.45145,33.71611,1.96865,67.482,3.19925,101.231,4.45478,64.7721,2.40966,129.49209,2.979,194.2794.71575,69.926-2.44277,140.26585-4.2621,209.68675-13.63188,28.5562-3.85425,57.19032-8.99983,84.61788-18.00975,16.50988-5.42347,34.59837-11.88659,48.55216-22.45141,4.14088-3.13519,10.11113-8.40859,7.7393-14.283-3.48084-8.6211-18.83357-10.28055-26.46243-11.54108-15.57446-2.57339-31.44114-3.68955-47.15655-5.02239q-27.18265-2.30538-54.4238-3.82911c-63.86275-3.64088-127.82395-3.9606-191.72328-6.57153-35.97193-1.46981-71.83674-4.76814-107.85549-4.9158a1580.5573,1580.5573,0,0,0-163.91815,7.62389c-28.16921,2.82168-56.34868,5.891-84.3894,9.79865-26.31034,3.6665-53.98255,7.29461-78.778,17.32716-6.835,2.76553-13.99335,6.18208-18.8912,11.87663C79.4913,132.03854,81.604,134.16984,82.8656,132.70307Z"/><path class="g" d="M121.44805,130.71756c11.469-8.18589,27.61651-10.0449,41.107-12.2567,30.93583-5.072,62.22664-8.17176,93.36523-11.71114,43.954-4.99606,87.97741-9.05483,132.23207-9.86174,27.61227-.50347,55.19512,1.04272,82.78419,1.92512,58.87064,1.88289,117.76034,1.88582,176.65152,2.46179,44.89633.4391,90.38921.946,134.42137,10.7054,4.85615,1.07633,9.68568,2.09766,14.57916,2.99481,5.33132.97743,12.08916,1.69609,16.65684,4.86256,5.77511,4.00351-3.60793,8.77466-6.85877,10.495-15.42053,8.16071-33.09933,12.68892-49.88849,17.10742-45.772,12.04607-92.97353,16.92735-140.113,19.71982-55.21864,3.27106-110.64419,4.84666-165.959,5.22754-60.25652.4149-120.65745,1.0189-180.886-1.08532-25.55477-.89282-51.08176-2.56909-76.48045-5.56882-14.57994-1.722-29.19476-3.66854-43.559-6.74862-8.23582-1.766-16.85528-3.759-24.31567-7.8155a22.89855,22.89855,0,0,1-5.81915-4.19694c-5.47049-5.78251-3.58088-11.81914,2.38565-16.48926,1.51891-1.18888-.61744-3.29844-2.12132-2.12132-7.86193,6.15368-8.93713,15.05216-1.22609,21.84561,4.631,4.07992,10.87044,6.35465,16.66389,8.1731,24.89332,7.81355,52.01494,10.05074,77.88565,12.44826,61.99649,5.74541,124.50152,4.695,186.68975,4.69036q81.88443-.00607,163.64551-2.90681c57.00425-2.07708,114.53738-4.81468,170.4908-16.68817a477.83724,477.83724,0,0,0,49.131-13.06419c8.48718-2.77188,17.07856-5.74992,24.99-9.93675,3.69928-1.95769,10.39219-5.36889,10.39519-10.38258.00452-7.56612-13.98779-9.14579-19.03544-10.11084-10.16757-1.94391-20.247-4.31611-30.43816-6.14014-21.082-3.77328-42.45393-5.6189-63.83134-6.6325-61.69168-2.92511-123.59356-1.47121-185.3326-2.62511-36.3588-.67955-72.69132-2.651-109.04773-3.189-38.02838-.56273-76.15814,1.83944-113.98561,5.541-31.18219,3.05125-62.3142,6.74776-93.41735,10.50969-22.81476,2.75946-46.6842,4.7413-68.74542,11.57574a50.40631,50.40631,0,0,0-14.52848,6.65784C118.37577,129.23925,119.87226,131.84227,121.44805,130.71756Z"/><path class="g" d="M340.75136,107.86491c-28.09458,2.146-56.15384,5.00648-84.0783,8.7744-13.38228,1.8057-26.75119,3.81059-40.007,6.39809-9.23194,1.802-18.68205,3.68336-27.48129,7.094-3.20473,1.24218-9.64754,3.49642-9.56905,7.88187.06886,3.84737,5.22463,5.78482,8.1404,6.91313,17.08383,6.61092,36.79933,8.06071,54.82962,10.17879,41.66963,4.89507,83.69768,7.745,125.6179,9.40152,16.53312.65333,33.07118.60719,49.61017.19233,33.66366-.8444,67.30442-2.71843,100.9204-4.638q42.06006-2.40179,84.10153-5.11665c35.15044-2.2361,70.48569-3.70521,105.54921-7.03515,16.83516-1.59881,33.61924-4.73562,49.55177-10.50663,3.88026-1.40549,21.48774-6.86789,17.22817-13.94658-1.36008-2.26023-4.66868-3.16753-7.01191-3.835a98.3139,98.3139,0,0,0-15.58651-2.672c-20.31766-2.35993-40.86424-3.02809-61.28726-3.83846-36.04149-1.43012-72.10256-2.38294-108.15748-3.39909-54.48009-1.53543-108.97514-3.198-163.47646-3.7549-22.43191-.22921-44.89207-.27306-67.29215,1.10215-3.86936.23755-7.73621.51328-11.60173.80619-1.91307.145-1.92881,3.14615,0,3,18.01293-1.36491,36.03347-1.95351,54.09736-2.01356,40.39839-.1343,80.80912,1.01671,121.19009,2.04662,65.89466,1.68065,131.87294,2.9019,197.71087,6.20926,15.99149.80333,32.3408,1.29153,48.129,4.18416,2.84485.52122,7.48628.9278,9.79676,2.93275,1.76719,1.5335.53451,2.66667-1.48477,4.144-5.628,4.11738-13.00817,6.28312-19.57978,8.33346C718.004,146.87489,682.939,146.738,649.14434,148.95193q-46.6982,3.05929-93.40889,5.925c-39.04155,2.3694-78.099,4.68639-117.18666,6.16-19.19825.72379-38.42084,1.2493-57.6332.85672-28.054-.57324-56.1157-2.519-84.08266-4.66793-24.39919-1.8748-48.83457-4.02769-73.055-7.577a261.07569,261.07569,0,0,1-26.82352-5.03053c-3.18873-.815-12.42528-2.28807-14.0103-5.88428-2.7734-6.29247,33.81336-12.68031,37.3045-13.33789,27.07457-5.09971,54.52714-8.30777,81.92386-11.089q19.2676-1.956,38.57893-3.44218C342.6642,110.71879,342.68,107.71758,340.75136,107.86491Z"/><path class="g" d="M404.4697,116.77187c-27.34208.525-54.74147,2.97554-81.90627,5.956q-18.40324,2.01918-36.73777,4.6133c-8.62985,1.22366-18.03787,1.921-26.30971,4.87642-2.11553.75586-5.32228,2.24649-3.95522,5.01533,1.10458,2.23722,4.9918,3.04522,7.10405,3.6411,11.409,3.21855,23.5803,4.32011,35.31989,5.64787,13.17455,1.49006,26.38472,2.66937,39.60232,3.70336q64.95434,5.08124,130.16823,3.8563c47.05651-.83076,94.02825-4.0024,140.88563-8.29954q32.509-2.98129,64.97482-6.43142c15.66223-1.64252,31.52214-3.02519,47.0108-5.97707,1.93789-.36933,9.65171-1.05719,8.863-4.61517-.524-2.36383-4.79245-2.55305-6.59147-2.80579-18.0232-2.532-36.67843-2.23084-54.82614-2.819-43.12805-1.39775-86.26112-2.62958-129.388-4.06695-36.50924-1.21681-73.03124-2.69014-109.56742-2.574q-12.32436.03918-24.64671.27923c-1.92818.03535-1.93443,3.03547,0,3,75.38306-1.382,150.85985,2.91491,226.189,5.20338,25.86166.78567,51.7631,1.29134,77.59847,2.75522a125.54592,125.54592,0,0,1,15.686,1.39706c.62693.116,2.798.85194,2.90885.80245-.46449.2073.024-1.10713-.16751-1.2148-.08285-.04658.07037.16269-.73986.27713-2.59642.36672-5.23968,1.34309-7.85088,1.80415-6.15014,1.08594-12.35482,1.874-18.55147,2.638-20.1184,2.48056-40.30543,4.42625-60.47571,6.43053-42.62026,4.23508-85.30519,7.89591-128.09794,9.84-73.47055,3.33781-147.6756,2.04816-220.73458-7.1044-9.94109-1.24539-21.25139-1.94019-30.58244-5.91889-.87317-.37231-1.28113-1.18987-1.49372-.47862.38492-1.28783,5.43235-2.0369,6.38157-2.25856,10.29776-2.40474,20.93736-3.59877,31.40526-4.99056,34.33191-4.5647,68.94161-7.83734,103.566-9.03739,1.65259-.05728,3.30563-.113,4.959-.14473C406.39775,119.73485,406.40415,116.73473,404.4697,116.77187Z"/><path class="g" d="M419.95019,125.66566c-19.46455.587-38.99977,1.49126-58.36448,3.61727-1.74887.192-23.3954,1.97678-17.60893,7.051,2.45507,2.15287,7.92735,2.16832,10.92219,2.57528,7.20415.979,14.46115,1.57948,21.70892,2.12505,18.14761,1.36605,36.34177,2.21876,54.53068,2.79315,39.11119,1.23511,78.529,1.51415,117.59914-.98655,5.63652-.36077,11.292-.76551,16.88408-1.58268,2.0529-.3,6.13947-.42887,7.66016-2.18159,4.06826-4.689-10.50063-6.39548-12.34138-6.709-18.92806-3.22366-38.26814-4.46945-57.4155-5.52626q-41.73707-2.30362-83.57488-1.17566c-1.92648.05426-1.93437,3.05449,0,3,40.36728-1.13714,81.04579-.13442,121.22594,4.10432,6.34.66882,12.68069,1.4198,18.96692,2.49044,2.02778.34536,4.05568.71477,6.05844,1.18656,1.14437.26957,3.16354,1.32276,4.30184,1.26756.23091-.0112.53332.42979.72245.40721-20.68176,2.46951.06349-1.29158.08365-1.28883-.10662-.01451-.285.24278-.40358.221-.809-.14853-2.87.7751-3.71974.93276A129.51441,129.51441,0,0,1,553.36229,139.52c-33.28084,2.52413-66.88845,2.35816-100.23746,1.82375-31.91523-.51144-64.28571-1.19565-95.99123-5.14467-2.61536-.32575-5.24849-.66944-7.82631-1.2292a12.44434,12.44434,0,0,0-2.55048-.64513c-.21418.01106-.5191-.3026-.70232-.2548-.37731.09844-1.13925.83926-.21571,1.0365,1.088.23236,4.07291-1.16444,5.27162-1.38529,3.46585-.63853,6.97385-1.05378,10.47531-1.43819,19.36451-2.12595,38.90006-3.0303,58.36448-3.61727C421.87629,128.60757,421.8845,125.60732,419.95019,125.66566Z"/><path class="h" d="M883.39179,200.62651c-4.10009,14.63013-34.8999,29.07007-37.58008,30.29-39.52978,18.1001-96.29,24.40014-157.3999,31.16992-64.2998,7.14014-114.87988,8.6001-181.83008,10.37012-70.66992,1.87988-126.98,3.37988-201.71972.43994-82.49024-3.23-181.53028-7.56983-249.34033-32.41992-20.90967-7.66993-36.73-13.46-36.5-21.72l-.42969-30.48c24.09961,10.27,57.52978,39.49,118.33984,57.72,24.39014,7.31,43.96973,10.10009,111,14,97.71973,5.68994,163.00977,9.48,269,7,143.29981-3.35987,75.3501-11.51,240-22,19.81983-1.26,50.4502-3.03,80-23,23.43018-15.83008,37.21973-37.03,46.25977-54.99l.16015,27.32006Z"/><path class="c" d="M918.03193,54.45659c-.02.29-.05029.57007-.09033.8601A13.57828,13.57828,0,0,1,916.862,58.9666c0,.01,0,.01-.01026.02-5.46,12.25-27.93994,23.93994-34.92968,27.32006-.94043.46-1.6001.77-1.90039.90992-39.54,18.09008-96.29981,24.38989-157.40967,31.17016-64.3003,7.1399-114.87012,8.58985-181.83008,10.35987-70.66016,1.89013-126.98,3.37988-201.72022.43994-75.77-2.97-165.52-6.87989-232.1997-26.75-5.8999-1.75-11.63037-3.6399-17.14014-5.65991-18.12012-6.65015-32.41992-11.8899-35.77-18.54v-.01a6.77089,6.77089,0,0,1-.71-2.39014c0-.0398-.01025-.08984-.01025-.12988l-.00977-.65992c.83984-30.62011,221.16992-54.25,250.2002-57.37011,165.5498-17.75,286.92968-8.74,529.65966,9.29,21.52,1.60009,60.21,4.67993,76.97022,15.28C916.08173,46.05668,918.302,50.23662,918.03193,54.45659Z"/><path class="d" d="M918.18154,54.46658a12.87556,12.87556,0,0,1-.385,2.33594,14.85256,14.85256,0,0,1-.79,2.22851l.01367-.064a.22192.22192,0,0,1-.05762.13232l.03369-.04834c-2.00488,4.22266-5.24609,7.6709-8.67846,10.73926a90.10818,90.10818,0,0,1-11.12622,8.24829c-3.8938,2.48584-7.91284,4.76831-12.01075,6.89722-2.05737,1.04468-4.11425,2.10473-6.24072,3.00708L872.57534,90.679a256.21957,256.21957,0,0,1-26.29322,8.67139c-8.91308,2.41113-17.92236,4.43579-26.96606,6.28589-18.11939,3.541-36.38892,6.25854-54.69287,8.59253-9.15137,1.18017-18.31128,2.28247-27.47266,3.35986q-13.73913,1.62487-27.5,3.14087-27.53026,2.94286-55.16821,4.78906c-18.4209,1.20435-36.85938,2.09546-55.29981,2.80322-18.43994.727-36.88525,1.17627-55.32519,1.64966-18.44019.46753-36.88159.9502-55.32861,1.32422-36.8938.68628-73.815.85376-110.71094-.10547-18.44751-.4541-36.8877-1.21948-55.31372-2.05713-18.43042-.79858-36.86158-1.65674-55.27637-2.8208q-27.62366-1.71533-55.17334-4.46484c-18.35815-1.865-36.67847-4.19946-54.87036-7.3523a464.11324,464.11324,0,0,1-53.95166-12.48193c-8.85718-2.67944-17.5083-5.92212-26.15015-9.16992-4.31494-1.65357-8.61133-3.39063-12.7876-5.45752a46.43144,46.43144,0,0,1-6.0747-3.54077,15.9733,15.9733,0,0,1-5.00244-5.23828l-.08789-.16382v-.21631l.08691.36767a7.61939,7.61939,0,0,1-.80029-2.677l-.00415-.08081c-.01831-.28076-.02247-.57251-.01612-.88232a7.579,7.579,0,0,1,.10547-.98487,7.81344,7.81344,0,0,1,.54932-1.84228,11.91343,11.91343,0,0,1,2.011-3.11939,26.59733,26.59733,0,0,1,5.47974-4.58374,76.55072,76.55072,0,0,1,12.5022-6.314,234.18868,234.18868,0,0,1,26.42553-8.68115c17.87745-4.86011,36.00586-8.62647,54.17994-12.04834,36.37011-6.76563,72.99121-11.99878,109.68286-16.53809,18.35156-2.24463,36.70874-4.39429,55.1206-6.14746l13.80054-1.38208c4.6023-.43628,9.21387-.77661,13.82031-1.16943,9.21582-.75659,18.42725-1.5774,27.66065-2.10132C410.6393,7.53274,447.6393,6.49148,484.62221,6.54837q55.47766.11938,110.87622,3.13281,55.37842,2.88611,110.65943,7.08594,55.28027,4.16235,110.5354,8.56884c18.40478,1.531,36.88964,2.55323,55.17431,5.41187,2.28809.3291,4.55982.76636,6.84033,1.144,2.26563.46314,4.54639.85156,6.79761,1.38379a127.88167,127.88167,0,0,1,13.38281,3.66162,54.79233,54.79233,0,0,1,12.50611,5.99488,18.88161,18.88161,0,0,1,4.94848,4.88134A10.68766,10.68766,0,0,1,918.18154,54.46658Zm-.29932-.02a10.37276,10.37276,0,0,0-1.8125-6.45264,18.54789,18.54789,0,0,0-4.87988-4.77148,54.436,54.436,0,0,0-12.43433-5.89722A127.41422,127.41422,0,0,0,885.40615,33.73c-2.24659-.522-4.52466-.90039-6.78614-1.35352-2.27783-.36792-4.54565-.79516-6.8313-1.1145-18.26391-2.752-36.729-3.80176-55.15673-5.09839q-55.29749-3.84888-110.60913-7.43433c-36.8794-2.28955-73.75953-4.52832-110.66089-6.20141l-27.67871-1.14795-27.68335-.93433L512.31,9.85843c-9.23023-.14893-18.46167-.1399-27.69214-.21778q-55.385-.07874-110.678,3.52612c-9.217.49756-18.41333,1.29175-27.6145,2.02149-4.59937.37988-9.20337.70679-13.79908,1.12964L318.7455,17.66018c-18.38135,1.69922-36.73681,3.79761-55.071,5.989q-27.50172,3.31274-54.9209,7.24707c-18.2771,2.62231-36.52051,5.48242-54.68482,8.76416-18.15527,3.30664-36.26318,6.958-54.08007,11.68823A232.35766,232.35766,0,0,0,73.73281,59.7991a74.8649,74.8649,0,0,0-12.24073,6.08423,24.96317,24.96317,0,0,0-5.1477,4.241,7.69234,7.69234,0,0,0-2.27271,5.71216l-.0039-.08056a5.961,5.961,0,0,0,.61963,2.10278l.08667.1748v.20313l-.08789-.36987a14.49352,14.49352,0,0,0,4.46411,4.67553,44.907,44.907,0,0,0,5.84546,3.45288c4.07861,2.05127,8.33227,3.80494,12.61694,5.47754,8.60107,3.29444,17.21533,6.58545,26.0022,9.30347,2.19189.69946,4.40381,1.33789,6.62329,1.94824l6.64819,1.86768c1.10986.30469,2.2124.63769,3.32861.91894l3.355.81909,6.71119,1.63746q13.46192,3.108,27.0852,5.48632c36.32178,6.34327,73.11987,9.63477,109.92432,11.82618,18.4082,1.10034,36.83325,1.91943,55.26343,2.63427,18.43359.69312,36.86181,1.31275,55.29882,1.62159,36.87354.67529,73.75245.20654,110.62207-.719,18.43653-.41846,36.87354-.94531,55.3125-1.45727l55.301-1.64917c18.42725-.6233,36.845-1.43018,55.24341-2.54908,18.39477-1.16357,36.77466-2.57006,55.12378-4.34179q13.756-1.35609,27.51147-2.86011c9.1687-.98535,18.33423-1.99048,27.48853-3.08252,18.311-2.1543,36.5791-4.69092,54.70337-8.05029,9.0415-1.772,18.06787-3.65869,26.96533-6.06079a255.60126,255.60126,0,0,0,26.26172-8.55933l6.35449-2.70557c2.12207-.8916,4.17309-1.93969,6.22949-2.97509,4.09351-2.1084,8.10986-4.3711,11.99951-6.83521a89.73765,89.73765,0,0,0,11.10718-8.17383c3.4231-3.03711,6.64649-6.45215,8.63037-10.59448l.03369-.04858a.10932.10932,0,0,0-.03711.09228l.01392-.064a14.54012,14.54012,0,0,0,.781-2.17847A12.597,12.597,0,0,0,917.88222,54.44656Z"/><path class="e" d="M918.39179,133.62651c-4.10009,14.63013-34.8999,29.07007-37.58008,30.29-39.52978,18.1001-96.29,24.40014-157.3999,31.16992-64.2998,7.14014-114.87988,8.6001-181.83008,10.37012-70.66992,1.87988-126.98,3.37988-201.71972.43994-82.49024-3.23-181.53028-7.56983-249.34033-32.41992-20.90967-7.66993-36.73-13.46-36.5-21.72l-.42969-30.48-.66016-46.28a11.75821,11.75821,0,0,0,.31006,1.83984c.08008.82007.31982.61011.71,1.39014v.01c3.3501,6.65014,17.6499,11.88989,35.77,18.54,5.50977,2.02,11.24024,3.90991,17.14014,5.65991,66.67969,19.87011,156.42969,23.78,232.1997,26.75,74.74024,2.93994,131.06006,1.45019,201.72022-.43994,66.96-1.77,117.52978-3.22,181.83008-10.35987,61.10986-6.78027,117.86963-13.08008,157.40967-31.17016.30029-.1399.96-.45,1.90039-.90992,6.98974-3.38012,29.46972-15.07006,34.92968-27.32006.01026-.01.01026-.01.01026-.02a13.57828,13.57828,0,0,0,1.07959-3.64991l.25,44.69.16015,27.32006Z"/><path class="d" d="M53.24189,75.83647c.16992.7102.40967,1.51025.71,2.39014A6.77089,6.77089,0,0,1,53.24189,75.83647Z"/><path class="d" d="M917.9416,55.31669A13.57828,13.57828,0,0,1,916.862,58.9666a20.76682,20.76682,0,0,0,1.06982-4.97Z"/><path class="f" d="M117.89812,67.8923c5.34645-6.21611,13.53417-9.6812,21.05289-12.44711,11.04712-4.0639,22.58633-6.77932,34.103-9.12663,30.103-6.13552,60.736-9.592,91.24773-12.96146,48.39491-5.34437,96.80732-9.22778,145.49788-10.57115,39.64684-1.09386,78.91474-.34637,118.46158,2.14108,53.1773,3.34478,106.46273,3.88772,159.7057,5.55718,33.29238,1.0439,66.57491,2.50334,99.80489,4.819q26.79072,1.86694,53.51914,4.51769c12.98731,1.30131,28.09644,1.78339,39.97614,7.75876,3.28962,1.65465,6.75608,4.18355,5.15269,8.221-1.33382,3.35861-4.9353,5.97961-7.76417,7.99014-7.38424,5.2481-15.79142,9.12555-24.09442,12.67149-20.24547,8.64619-41.48089,14.58623-63.01068,19.04942-63.4961,13.16294-129.05308,15.99155-193.67108,18.67253-65.28722,2.70875-130.55484,4.65268-195.89965,3.24726-61.2422-1.31719-122.734-3.23008-183.821-7.86936-19.44488-1.47675-39.03051-3.18879-58.16169-7.10713-10.71811-2.19522-21.7814-5.05854-31.2433-10.74442-8.12407-4.882-18.45517-14.00634-10.85573-23.81825,1.16792-1.50794-.9402-3.64631-2.12132-2.12132-11.10716,14.34085,6.5767,26.91838,18.69313,32.19825,12.19695,5.315,25.51214,7.83787,38.5991,9.80938,23.23474,3.50024,46.75963,5.08281,70.19952,6.45144,33.7161,1.96866,67.482,3.19926,101.231,4.45479,64.7721,2.40966,129.49209,2.979,194.27939.71575,69.926-2.44277,140.26586-4.2621,209.68676-13.63189,28.5562-3.85425,57.19032-8.99982,84.61788-18.00974,16.50988-5.42348,34.59836-11.88659,48.55216-22.45142,4.14088-3.13518,10.11113-8.40858,7.73929-14.283-3.48083-8.62109-18.83357-10.28055-26.46243-11.54108-15.57445-2.57339-31.44113-3.68954-47.15654-5.02238Q788.57345,32.1557,761.33229,30.632C697.46955,26.9911,633.50834,26.67138,569.609,24.06045c-35.97192-1.46981-71.83673-4.76814-107.85548-4.9158a1580.55453,1580.55453,0,0,0-163.91815,7.62389c-28.16921,2.82168-56.34869,5.891-84.3894,9.79865-26.31034,3.6665-53.98255,7.2946-78.778,17.32716-6.835,2.76553-13.99335,6.18208-18.89121,11.87663C114.52383,67.22777,116.63656,69.35907,117.89812,67.8923Z"/><path class="f" d="M156.48058,65.90679c11.469-8.1859,27.61651-10.0449,41.107-12.2567,30.93583-5.072,62.22664-8.17176,93.36522-11.71114,43.954-4.99607,87.97741-9.05483,132.23207-9.86175,27.61228-.50346,55.19513,1.04273,82.7842,1.92512,58.87063,1.8829,117.76034,1.88582,176.65152,2.4618,44.89633.4391,90.38921.946,134.42137,10.7054,4.85615,1.07633,9.68568,2.09765,14.57916,2.99481,5.33132.97743,12.08916,1.69609,16.65683,4.86256,5.77512,4.00351-3.60792,8.77466-6.85876,10.495-15.42053,8.16071-33.09934,12.68892-49.8885,17.10741-45.772,12.04608-92.97352,16.92736-140.113,19.71983-55.21864,3.27106-110.64419,4.84666-165.959,5.22753-60.25652.41491-120.65745,1.01891-180.886-1.08532-25.55477-.89281-51.08176-2.56908-76.48044-5.56881-14.57994-1.722-29.19477-3.66854-43.559-6.74862-8.23582-1.766-16.85528-3.759-24.31567-7.8155a22.89879,22.89879,0,0,1-5.81915-4.19694c-5.4705-5.78251-3.58089-11.81914,2.38565-16.48926,1.51891-1.18888-.61744-3.29844-2.12132-2.12132-7.86193,6.15368-8.93713,15.05216-1.2261,21.8456,4.631,4.07993,10.87045,6.35466,16.6639,8.17311,24.89332,7.81355,52.01494,10.05073,77.88565,12.44826,61.99648,5.74541,124.50152,4.695,186.68974,4.69035q81.88444-.00606,163.64552-2.9068c57.00425-2.07709,114.53738-4.81468,170.49079-16.68817a477.83588,477.83588,0,0,0,49.131-13.06419c8.48719-2.77188,17.07856-5.74992,24.99006-9.93675,3.69928-1.95769,10.39219-5.36889,10.39519-10.38258.00452-7.56612-13.98779-9.14579-19.03544-10.11084-10.16757-1.94392-20.247-4.31611-30.43817-6.14014-21.082-3.77328-42.45392-5.6189-63.83133-6.63251-61.69168-2.9251-123.59356-1.4712-185.3326-2.6251-36.3588-.67955-72.69132-2.651-109.04774-3.189-38.02837-.56273-76.15814,1.83944-113.9856,5.54095-31.18219,3.05125-62.31421,6.74775-93.41735,10.50969-22.81477,2.75946-46.6842,4.7413-68.74542,11.57573a50.40621,50.40621,0,0,0-14.52848,6.65785C153.4083,64.42848,154.90479,67.03149,156.48058,65.90679Z"/><path class="f" d="M375.78388,43.05413c-28.09457,2.146-56.15383,5.00648-84.0783,8.77441-13.38227,1.8057-26.75118,3.81059-40.007,6.39808-9.23194,1.80205-18.68206,3.68337-27.48129,7.094-3.20473,1.24219-9.64754,3.49642-9.56905,7.88188.06886,3.84736,5.22463,5.78482,8.1404,6.91313,17.08383,6.61092,36.79932,8.0607,54.82962,10.17878,41.66963,4.89507,83.69768,7.745,125.6179,9.40152,16.53312.65333,33.07118.6072,49.61017.19234,33.66366-.8444,67.30442-2.71843,100.9204-4.638q42.06006-2.40177,84.10153-5.11664c35.15044-2.2361,70.48568-3.70521,105.54921-7.03515,16.83516-1.59881,33.61924-4.73562,49.55177-10.50663,3.88025-1.40549,21.48774-6.86789,17.22817-13.94658-1.36008-2.26023-4.66868-3.16754-7.01192-3.835a98.3137,98.3137,0,0,0-15.58651-2.672c-20.31765-2.35994-40.86424-3.02809-61.28726-3.83847-36.04148-1.43011-72.10256-2.38293-108.15747-3.39908-54.48009-1.53543-108.97514-3.198-163.47646-3.7549-22.43192-.22921-44.89207-.27306-67.29215,1.10215-3.86936.23755-7.73621.51328-11.60174.80618-1.91307.145-1.9288,3.14616,0,3,18.01294-1.36491,36.03348-1.9535,54.09737-2.01355,40.39838-.1343,80.80912,1.0167,121.19008,2.04662,65.89466,1.68064,131.87294,2.9019,197.71087,6.20926,15.9915.80333,32.34081,1.29153,48.129,4.18416,2.84485.52122,7.48627.9278,9.79676,2.93275,1.76719,1.53349.53451,2.66667-1.48478,4.144-5.628,4.11739-13.00816,6.28313-19.57977,8.33347-32.60687,10.17332-67.6719,10.0364-101.46653,12.25036q-46.69819,3.0593-93.4089,5.925c-39.04155,2.3694-78.099,4.68639-117.18666,6.16-19.19824.7238-38.42083,1.24931-57.63319.85673-28.054-.57324-56.11571-2.519-84.08267-4.66793-24.39918-1.8748-48.83456-4.02769-73.055-7.577a261.07515,261.07515,0,0,1-26.82352-5.03052c-3.18873-.815-12.42528-2.28808-14.01031-5.88428-2.7734-6.29247,33.81337-12.68031,37.30451-13.33789,27.07456-5.09972,54.52714-8.30777,81.92386-11.089q19.26759-1.956,38.57892-3.44219C377.69673,45.908,377.71256,42.90681,375.78388,43.05413Z"/><path class="f" d="M439.50223,51.9611c-27.34208.525-54.74147,2.97554-81.90628,5.956q-18.40323,2.01918-36.73776,4.6133c-8.62986,1.22366-18.03788,1.921-26.30972,4.87642-2.11553.75586-5.32227,2.24649-3.95521,5.01533,1.10457,2.23722,4.9918,3.04522,7.10405,3.6411,11.409,3.21855,23.58029,4.32011,35.31989,5.64787,13.17455,1.49006,26.38471,2.66937,39.60232,3.70335q64.95432,5.08125,130.16823,3.85631c47.05651-.83076,94.02825-4.0024,140.88563-8.29954q32.509-2.9813,64.97482-6.43143c15.66222-1.64251,31.52214-3.02518,47.0108-5.97706,1.93789-.36933,9.6517-1.0572,8.863-4.61518-.524-2.36382-4.79245-2.553-6.59147-2.80578-18.0232-2.532-36.67844-2.23085-54.82615-2.819-43.128-1.39776-86.26111-2.62958-129.388-4.06695-36.50924-1.21681-73.03124-2.69014-109.56742-2.574q-12.32436.03918-24.64671.27923c-1.92818.03535-1.93444,3.03546,0,3,75.383-1.382,150.85985,2.91491,226.189,5.20338,25.86166.78567,51.76311,1.29134,77.59848,2.75522a125.54764,125.54764,0,0,1,15.686,1.39705c.62694.116,2.798.852,2.90886.80246-.46449.2073.024-1.10713-.16751-1.2148-.08285-.04658.07037.16268-.73986.27712-2.59643.36673-5.23968,1.34309-7.85088,1.80416-6.15014,1.08593-12.35482,1.874-18.55147,2.638-20.1184,2.48056-40.30543,4.42625-60.47572,6.43052-42.62025,4.23509-85.30518,7.89592-128.09794,9.84-73.47054,3.33781-147.67559,2.04816-220.73457-7.10441-9.94109-1.24538-21.25139-1.94018-30.58244-5.91888-.87318-.37232-1.28114-1.18987-1.49372-.47863.38492-1.28783,5.43235-2.03689,6.38157-2.25856,10.29776-2.40473,20.93736-3.59877,31.40526-4.99056,34.33191-4.56469,68.94161-7.83734,103.566-9.03738,1.65259-.05728,3.30563-.113,4.959-.14473C441.43028,54.92408,441.43667,51.924,439.50223,51.9611Z"/><path class="f" d="M454.98272,60.85488c-19.46455.587-38.99978,1.49127-58.36448,3.61728-1.74887.192-23.3954,1.97678-17.60893,7.051,2.45507,2.15287,7.92735,2.16831,10.92219,2.57528,7.20414.979,14.46114,1.57948,21.70892,2.12505,18.14761,1.366,36.34177,2.21876,54.53068,2.79315,39.11119,1.2351,78.529,1.51415,117.59913-.98655,5.63653-.36077,11.292-.76552,16.88408-1.58268,2.05291-.3,6.13948-.42887,7.66016-2.18159,4.06827-4.689-10.50062-6.39549-12.34137-6.709-18.92807-3.22366-38.26814-4.46945-57.4155-5.52627q-41.73708-2.30362-83.57488-1.17566c-1.92649.05427-1.93437,3.05449,0,3,40.36728-1.13714,81.04579-.13441,121.22594,4.10432,6.33994.66883,12.68069,1.41981,18.96692,2.49045,2.02778.34536,4.05567.71477,6.05844,1.18655,1.14436.26958,3.16354,1.32277,4.30184,1.26757.23091-.0112.53332.42979.72245.40721-20.68176,2.46951.06348-1.29158.08365-1.28884-.10662-.0145-.285.24279-.40358.221-.809-.14853-2.87.7751-3.71975.93276a129.5191,129.5191,0,0,1-13.82381,1.53328c-33.28084,2.52413-66.88845,2.35816-100.23746,1.82375-31.91523-.51144-64.28571-1.19565-95.99124-5.14467-2.61536-.32576-5.24848-.66944-7.8263-1.2292a12.44437,12.44437,0,0,0-2.55048-.64514c-.21418.01107-.5191-.30259-.70232-.25479-.37732.09844-1.13925.83926-.21571,1.0365,1.088.23236,4.07291-1.16445,5.27162-1.38529,3.46585-.63854,6.97385-1.05378,10.47531-1.43819,19.36451-2.126,38.9-3.03031,58.36448-3.61728C456.90882,63.7968,456.917,60.79655,454.98272,60.85488Z"/><path class="g" d="M117.8656,65.70307c5.34644-6.21611,13.53416-9.6812,21.05288-12.44711,11.04712-4.06389,22.58633-6.77931,34.10305-9.12663,30.103-6.13552,60.736-9.592,91.24773-12.96145,48.39491-5.34437,96.80732-9.22779,145.49788-10.57116,39.64685-1.09386,78.91474-.34636,118.46158,2.14108,53.1773,3.34478,106.46273,3.88772,159.7057,5.55718,33.29238,1.0439,66.57491,2.50334,99.8049,4.819q26.79071,1.86695,53.51914,4.51769c12.9873,1.30132,28.09643,1.78339,39.97613,7.75877,3.28962,1.65464,6.75608,4.18354,5.15269,8.22094-1.33382,3.35861-4.9353,5.97962-7.76417,7.99014-7.38424,5.24811-15.79142,9.12555-24.09442,12.6715C834.28323,82.91921,813.0478,88.85925,791.518,93.32244,728.02191,106.48538,662.46493,109.314,597.84694,111.995c-65.28723,2.70875-130.55484,4.65268-195.89965,3.24726-61.2422-1.31718-122.734-3.23008-183.821-7.86935-19.44489-1.47675-39.03052-3.1888-58.1617-7.10714-10.71811-2.19522-21.7814-5.05854-31.2433-10.74442-8.12407-4.882-18.45516-14.00634-10.85572-23.81825,1.16791-1.50794-.9402-3.64631-2.12132-2.12132C104.63712,77.9226,122.321,90.50014,134.4374,95.78c12.197,5.31495,25.51214,7.83787,38.5991,9.80938,23.23475,3.50024,46.75963,5.08281,70.19952,6.45145,33.71611,1.96865,67.482,3.19925,101.231,4.45478,64.7721,2.40966,129.49209,2.979,194.2794.71575,69.926-2.44277,140.26585-4.2621,209.68675-13.63188,28.5562-3.85425,57.19032-8.99983,84.61788-18.00975,16.50988-5.42347,34.59837-11.88659,48.55216-22.45141,4.14088-3.13519,10.11113-8.40859,7.7393-14.283-3.48084-8.6211-18.83357-10.28055-26.46243-11.54108-15.57446-2.57339-31.44114-3.68955-47.15655-5.02239q-27.18265-2.30538-54.4238-3.82911c-63.86275-3.64088-127.82395-3.9606-191.72328-6.57153-35.97193-1.46981-71.83674-4.76814-107.85549-4.9158a1580.5573,1580.5573,0,0,0-163.91815,7.62389c-28.16921,2.82168-56.34868,5.891-84.3894,9.79865-26.31034,3.6665-53.98255,7.29461-78.778,17.32716-6.835,2.76553-13.99335,6.18208-18.8912,11.87663C114.4913,65.03854,116.604,67.16984,117.8656,65.70307Z"/><path class="g" d="M156.44805,63.71756c11.469-8.18589,27.61651-10.0449,41.107-12.2567,30.93583-5.072,62.22664-8.17176,93.36523-11.71114,43.954-4.99606,87.97741-9.05483,132.23207-9.86174,27.61227-.50347,55.19512,1.04272,82.78419,1.92512,58.87064,1.88289,117.76034,1.88582,176.65152,2.46179,44.89633.4391,90.38921.946,134.42137,10.7054,4.85615,1.07633,9.68568,2.09766,14.57916,2.99481,5.33132.97743,12.08916,1.69609,16.65684,4.86256,5.77511,4.00351-3.60793,8.77466-6.85877,10.495-15.42053,8.16071-33.09933,12.68892-49.88849,17.10742-45.772,12.04607-92.97353,16.92735-140.113,19.71982-55.21864,3.27106-110.64419,4.84666-165.959,5.22754-60.25652.4149-120.65745,1.0189-180.886-1.08532-25.55477-.89282-51.08176-2.56909-76.48045-5.56882-14.57994-1.722-29.19476-3.66854-43.559-6.74862-8.23582-1.766-16.85528-3.759-24.31567-7.8155a22.89855,22.89855,0,0,1-5.81915-4.19694c-5.47049-5.78251-3.58088-11.81914,2.38565-16.48926,1.51891-1.18888-.61744-3.29844-2.12132-2.12132-7.86193,6.15368-8.93713,15.05216-1.22609,21.84561,4.631,4.07992,10.87044,6.35465,16.66389,8.1731,24.89332,7.81355,52.01494,10.05074,77.88565,12.44826,61.99649,5.74541,124.50152,4.695,186.68975,4.69036q81.88443-.00608,163.64551-2.90681c57.00425-2.07708,114.53738-4.81468,170.4908-16.68817a477.83724,477.83724,0,0,0,49.131-13.06419c8.48718-2.77188,17.07856-5.74992,24.99-9.93675,3.69928-1.95769,10.39219-5.36889,10.39519-10.38258.00452-7.56612-13.98779-9.14579-19.03544-10.11084-10.16757-1.94391-20.247-4.31611-30.43816-6.14014-21.082-3.77328-42.45393-5.6189-63.83134-6.6325-61.69168-2.92511-123.59356-1.47121-185.3326-2.62511-36.3588-.67955-72.69132-2.651-109.04773-3.189-38.02838-.56273-76.15814,1.83944-113.98561,5.54095-31.18219,3.05125-62.3142,6.74776-93.41735,10.50969-22.81476,2.75946-46.6842,4.7413-68.74542,11.57574a50.40631,50.40631,0,0,0-14.52848,6.65784C153.37577,62.23925,154.87226,64.84227,156.44805,63.71756Z"/><path class="g" d="M375.75136,40.86491c-28.09458,2.146-56.15384,5.00648-84.0783,8.7744-13.38228,1.8057-26.75119,3.81059-40.007,6.39809-9.23194,1.802-18.68205,3.68336-27.48129,7.094-3.20473,1.24218-9.64754,3.49642-9.56905,7.88187.06886,3.84737,5.22463,5.78482,8.1404,6.91313,17.08383,6.61092,36.79933,8.06071,54.82962,10.17879,41.66963,4.89507,83.69768,7.745,125.6179,9.40152,16.53312.65333,33.07118.60719,49.61017.19233,33.66366-.8444,67.30442-2.71843,100.9204-4.638q42.06006-2.40179,84.10153-5.11665c35.15044-2.2361,70.48569-3.70521,105.54921-7.03515,16.83516-1.59881,33.61924-4.73562,49.55177-10.50663,3.88026-1.40549,21.48774-6.86789,17.22817-13.94658-1.36008-2.26023-4.66868-3.16753-7.01191-3.835a98.3139,98.3139,0,0,0-15.58651-2.672c-20.31766-2.35993-40.86424-3.02809-61.28726-3.83846-36.04149-1.43012-72.10256-2.38294-108.15748-3.39909-54.48009-1.53543-108.97514-3.198-163.47646-3.7549-22.43191-.22921-44.89207-.27306-67.29215,1.10215-3.86936.23755-7.73621.51328-11.60173.80619-1.91307.145-1.92881,3.14615,0,3,18.01293-1.36491,36.03347-1.95351,54.09736-2.01356,40.39839-.1343,80.80912,1.01671,121.19009,2.04662,65.89466,1.68065,131.87294,2.9019,197.71087,6.20926,15.99149.80333,32.3408,1.29153,48.129,4.18416,2.84485.52122,7.48628.9278,9.79676,2.93275,1.76719,1.5335.53451,2.66667-1.48477,4.144-5.628,4.11738-13.00817,6.28312-19.57978,8.33346C753.004,79.87489,717.939,79.738,684.14434,81.95193q-46.6982,3.05929-93.40889,5.925c-39.04155,2.3694-78.099,4.68639-117.18666,6.16-19.19825.72379-38.42084,1.2493-57.6332.85672-28.054-.57324-56.1157-2.519-84.08266-4.66793-24.39919-1.8748-48.83457-4.02769-73.055-7.577a261.07569,261.07569,0,0,1-26.82352-5.03053c-3.18873-.815-12.42528-2.28807-14.0103-5.88428-2.7734-6.29247,33.81336-12.68031,37.3045-13.33789,27.07457-5.09971,54.52714-8.30777,81.92386-11.089q19.2676-1.956,38.57893-3.44218C377.6642,43.71879,377.68,40.71758,375.75136,40.86491Z"/><path class="g" d="M439.4697,49.77187c-27.34208.525-54.74147,2.97554-81.90627,5.956q-18.40324,2.01918-36.73777,4.6133c-8.62985,1.22366-18.03787,1.921-26.30971,4.87642-2.11553.75586-5.32228,2.24649-3.95522,5.01533,1.10458,2.23722,4.9918,3.04522,7.10405,3.6411,11.409,3.21855,23.5803,4.32011,35.31989,5.64787,13.17455,1.49006,26.38472,2.66937,39.60232,3.70336q64.95434,5.08123,130.16823,3.8563c47.05651-.83076,94.02825-4.0024,140.88563-8.29954q32.509-2.9813,64.97482-6.43142c15.66223-1.64252,31.52214-3.02519,47.0108-5.97707,1.93789-.36933,9.65171-1.05719,8.863-4.61517-.524-2.36383-4.79245-2.553-6.59147-2.80579-18.0232-2.532-36.67843-2.23084-54.82614-2.819-43.12805-1.39775-86.26112-2.62958-129.388-4.06695-36.50924-1.21681-73.03124-2.69014-109.56742-2.574q-12.32436.03918-24.64671.27923c-1.92818.03535-1.93443,3.03547,0,3,75.38306-1.382,150.85985,2.91491,226.189,5.20338,25.86166.78567,51.7631,1.29134,77.59847,2.75522a125.54592,125.54592,0,0,1,15.686,1.39706c.62693.116,2.798.85194,2.90885.80245-.46449.2073.024-1.10713-.16751-1.2148-.08285-.04658.07037.16269-.73986.27713-2.59642.36672-5.23968,1.34309-7.85088,1.80415-6.15014,1.08594-12.35482,1.874-18.55147,2.638-20.1184,2.48056-40.30543,4.42625-60.47571,6.43053-42.62026,4.23508-85.30519,7.89591-128.09794,9.84-73.47055,3.33781-147.6756,2.04816-220.73458-7.1044-9.94109-1.24539-21.25139-1.94019-30.58244-5.91889-.87317-.37231-1.28113-1.18987-1.49372-.47862.38492-1.28783,5.43235-2.0369,6.38157-2.25856,10.29776-2.40474,20.93736-3.59877,31.40526-4.99056,34.33191-4.5647,68.94161-7.83734,103.566-9.03739,1.65259-.05728,3.30563-.113,4.959-.14473C441.39775,52.73485,441.40415,49.73473,439.4697,49.77187Z"/><path class="g" d="M454.95019,58.66566c-19.46455.587-38.99977,1.49126-58.36448,3.61727-1.74887.192-23.3954,1.97678-17.60893,7.051,2.45507,2.15287,7.92735,2.16832,10.92219,2.57528,7.20415.979,14.46115,1.57948,21.70892,2.12505,18.14761,1.36605,36.34177,2.21876,54.53068,2.79315,39.11119,1.23511,78.529,1.51415,117.59914-.98655,5.63652-.36077,11.292-.76551,16.88408-1.58268,2.0529-.3,6.13947-.42887,7.66016-2.18159,4.06826-4.689-10.50063-6.39548-12.34138-6.709-18.92806-3.22366-38.26814-4.46945-57.4155-5.52626Q496.788,57.5377,454.95019,58.66566c-1.92648.05426-1.93437,3.05449,0,3,40.36728-1.13714,81.04579-.13442,121.22594,4.10432,6.34.66882,12.68069,1.4198,18.96692,2.49044,2.02778.34536,4.05568.71477,6.05844,1.18656,1.14437.26957,3.16354,1.32276,4.30184,1.26756.23091-.0112.53332.42979.72245.40721-20.68176,2.46951.06349-1.29158.08365-1.28883-.10662-.01451-.285.24278-.40358.221-.809-.14853-2.87.7751-3.71974.93276A129.51441,129.51441,0,0,1,588.36229,72.52c-33.28084,2.52413-66.88845,2.35816-100.23746,1.82375-31.91523-.51144-64.28571-1.19565-95.99123-5.14467-2.61536-.32575-5.24849-.66944-7.82631-1.2292a12.44434,12.44434,0,0,0-2.55048-.64513c-.21418.01106-.5191-.3026-.70232-.2548-.37731.09844-1.13925.83926-.21571,1.0365,1.088.23236,4.07291-1.16444,5.27162-1.38529,3.46585-.63853,6.97385-1.05378,10.47531-1.43819,19.36451-2.12595,38.90006-3.0303,58.36448-3.61727C456.87629,61.60757,456.8845,58.60732,454.95019,58.66566Z"/><path class="h" d="M918.39179,133.62651c-4.10009,14.63013-34.8999,29.07007-37.58008,30.29-39.52978,18.1001-96.29,24.40014-157.3999,31.16992-64.2998,7.14014-114.87988,8.6001-181.83008,10.37012-70.66992,1.87988-126.98,3.37988-201.71972.43994-82.49024-3.23-181.53028-7.56983-249.34033-32.41992-20.90967-7.66993-36.73-13.46-36.5-21.72l-.42969-30.48c24.09961,10.27,57.52978,39.49,118.33984,57.72,24.39014,7.31,43.96973,10.10009,111,14,97.71973,5.68994,163.00977,9.48,269,7,143.29981-3.35987,75.3501-11.51,240-22,19.81983-1.26,50.4502-3.03,80-23,23.43018-15.83008,37.21973-37.03,46.25977-54.99l.16015,27.32006Z"/></svg>