<svg id="Layer_1" data-name="Layer 1" xmlns="http://www.w3.org/2000/svg" viewBox="0 0 926.49 279.03"><defs><style>.cls-1{fill:#4f2b08;}.cls-2{fill:#724110;}.cls-3{fill:#3f2006;opacity:0.72;}.cls-4{opacity:0.49;}</style></defs><path class="cls-1" d="M891.65,192.67c-11.14,9.75-25.38,15.89-53.85,28.15C773.45,248.51,721.32,270.93,684.89,256c-9.08-3.72-21.69-4-35.5-.64l-.87.21c-10.26,2.56-11.4,8.86-23.19,12.25-10.7,3.09-16.31-.23-35.41-2.34-25.7-2.82-25.45,3.36-48-.59-18.28-3.21-27.77-8.69-43.09-6.19-12.39,2-18.45,7.6-25.73,11.65-32.85,18.36-86.38,3.81-133.2-8.93-40.8-11.07-41.38-16.92-64.49-17.78-24.06-.87-36.08,5-66.4,2-20.13-2-18-5.67-40.64-8.29-45.69-5.32-76.17,4.25-87.76-8.93-6.64-7.55-.08-14.55-8.21-20.85A16.5,16.5,0,0,0,70,206c-10.36-5.36-24.54,1.35-38-2.64-16.7-5-23.68-23.73-27.31-42.38-1.49-7.68-2.42-15.33-3.24-22A170.62,170.62,0,0,1,0,117.64S.53,91.4,11,67.3c2.81-6.45,10.14-12.48,21-18.06l1.18-.6c29.67-14.62,93-24.85,166.4-32,14-1.38,28.42-2.63,43-3.78,41.44-3.27,84.54-5.72,125.55-7.53,13.18-.59,26.13-1.11,38.75-1.57C442.85,2.44,476,1.58,503.55,1,522.47.65,538.75.4,551.44.25,570.29,0,581.23,0,581.23,0s25.29,2,59.39,5.06c10.37,1,21.55,2,33.09,3.14,36.66,3.61,76.87,8.06,105.77,12.65,7.51,1.18,14.26,2.37,20,3.57l3.08.66c15.18,3.4,41.83,4.65,69.65,17.53l.36.17c6.7,3.1,14.14,6.48,18.83,10.35,7.43,6.1,9.1,4.43,13.94,10.67a109,109,0,0,1,13,21.48A93.74,93.74,0,0,1,925,105.14c0,.1,0,.23.08.42s0,.11,0,.17a72.92,72.92,0,0,1,1.35,14.47v.19C926.47,137.68,921.25,166.7,891.65,192.67Z"/><path class="cls-2" d="M872.55,42.78c-.21,14.1-3.67,22.48-3.67,22.48-2.77,6.69-8.56,20.7-22.25,28.2C831,102,815.59,96.37,805.31,108c-1.7,1.92-5.13,6.44-11.29,8.32a21.34,21.34,0,0,1-10.65.32c-22.1-4.31-65.86,17.8-111,1.57-1.6-.58-2.76-1-3.71-1.45a38,38,0,0,0-7.07-2.68,41.3,41.3,0,0,0-18-.9h0c-13.81,2.37-24.45,11-43,10.73-21.91-.32-24.47-12.57-49.19-11-9.7.62-7.25,2.38-27.35,6.15-10.21,1.91-19.12,3.66-26.73,4.54a65.56,65.56,0,0,1-12.66.44h0c-5.91-.49-10.54-2.27-13.93-6.05s-6.39-11-11.89-11.2c-4.58-.15-6.09,4.63-11.29,8.34-6.64,4.73-14.59,4.39-39.82-.11l-6.42-1.16c-19.2-3.53-19.33-3.88-24.13-4.61-.56-.09-1.13-.17-1.7-.24-43-5.83-75.85,15.69-82.52,5.43-2.95-4.54,2.71-10-.41-13.3a5,5,0,0,0-4.15-1.38h0c-6.1.26-16.41,6.19-27.3,10.41-10,3.86-20.43,6.28-28.62,1.65-8-4.53-5.38-11-13-15.19,0,0,0,0,0,0-.24-.14-.5-.25-.76-.39a15,15,0,0,0-2.58-1,16.39,16.39,0,0,0-5.52-.66c-10.91.54-21.85,10.7-39.54,8.73-.63-.07-1.26-.16-1.9-.26-12.6-2-10.88-7.38-24.26-9-19-2.35-29.37,7.65-38.16,1.14a9.8,9.8,0,0,1-3.37-4.31c-1.32-3.1-1.62-6.77-6-11.4l-.72-.73c-4.7-4.61-10.57-6.7-21.79-9.25C45.82,63,38,66.29,33.72,61c-1.83-2.25-2.83-5.85-1.69-11.77l1.18-.6c29.67-14.62,93-24.85,166.4-32,14-1.38,28.42-2.63,43-3.78,41.44-3.27,84.54-5.72,125.55-7.53,13.18-.59,26.13-1.11,38.75-1.57C442.85,2.44,476,1.58,503.55,1,522.47.65,538.75.4,551.44.25,570.29,0,581.23,0,581.23,0s25.29,2,59.39,5.06c10.37,1,21.55,2,33.09,3.14,36.66,3.61,76.87,8.06,105.77,12.65,7.51,1.18,14.26,2.37,20,3.57l3.08.66c15.18,3.4,41.83,4.65,69.65,17.53Z"/><path class="cls-3" d="M926.49,120.21v.18c0,17.29-5.24,46.31-34.84,72.28-11.13,9.75-25.38,15.89-53.85,28.14-64.35,27.7-116.48,50.12-152.91,35.19-9.08-3.71-21.69-4-35.5-.64l-.86.2c-10.27,2.57-11.42,8.87-23.2,12.26-10.7,3.08-16.31-.23-35.41-2.33-25.71-2.83-25.45,3.36-48-.6-18.28-3.22-27.77-8.69-43.09-6.19-12.39,2-18.45,7.59-25.73,11.65-32.85,18.36-86.38,3.81-133.2-8.92-40.8-11.08-41.37-16.93-64.49-17.78-24.06-.88-36.08,5-66.41,2-20.12-2-18-5.67-40.63-8.29-45.69-5.32-76.17,4.25-87.76-8.93-6.64-7.55-.08-14.55-8.21-20.84A16.58,16.58,0,0,0,70,206c-10.36-5.36-24.54,1.35-38-2.64-16.7-5-23.68-23.73-27.31-42.38a73.86,73.86,0,0,0,24.74,20.5c23,11.64,32.9,1.37,55.17,13.74,18.41,10.22,17.25,20.35,36.64,28.1,10.95,4.38,17,3.42,34.68,5,29.67,2.72,35.6,7.52,59.58,11,36.82,5.41,40.49-3.31,74.59-.63,46.47,3.64,43.14,20.1,91.68,25.85,33.27,3.95,62.87,7.46,92.3-5.22,8.17-3.52,23.5-11.37,44.32-10.15,10.4.61,14.39,3,25.8,6,6.53,1.69,38.39,9.95,71.06,2.94,26.61-5.7,31.38-16.74,52.27-14.65,14.62,1.47,14.68,7.11,30.28,11.29,31.7,8.46,71.54-4.14,96.58-24.8,9.36-7.74,14.08-14.46,27.35-20.66,16.2-7.56,27.32-6,36.34-8.3,33.61-8.6,44.49-68.56,46.39-78.54a169.3,169.3,0,0,0,1-58.72,109.78,109.78,0,0,1,13,21.48A94.55,94.55,0,0,1,925,105.14c0,.1,0,.23.08.42A89.64,89.64,0,0,1,926.49,120.21Z"/><g class="cls-4"><path class="cls-1" d="M215.84,7.65l-.57.06.9-.11Z"/><path class="cls-1" d="M242.63,12.86a182.59,182.59,0,0,1-56.75,23.66c-13,2.9-23.52,3.53-36.49,11.82-11.59,7.41-12.61,13-23.66,22.82a109.7,109.7,0,0,1-22.44,15.32c-1.32-3-1.63-6.47-6-10.9-.23-.24-.47-.48-.71-.7,5.15-4.56,11.28-10.15,18.39-17,15-14.55,17.43-18.36,26.4-23.34C156.89,25.94,161,31,182.18,24.07a108.7,108.7,0,0,0,17.43-7.43C213.63,15.26,228,14,242.63,12.86Z"/><path class="cls-1" d="M406.93,3.76a192.38,192.38,0,0,1-35.88,19.48c-34.32,14-49,7.09-76.16,25.29C292.56,50.1,283.13,58.82,264.06,76c-6.13,5.51-11.38,10.27-16,14.39-9-2.59-17.38,3.3-28.64,6.33,0,0,0,0,0,0A43.94,43.94,0,0,1,203,98.12q3.51-1.53,7.55-3.45c3.4-1.62,7.09-3.46,11-5.57,17.8-9.63,31-19.83,43.26-29.26,21-16.17,23.35-21.23,37.05-27.51,14.82-6.8,16.87-3.13,33.67-8.79,15-5,23.71-11.45,32.65-18.21C381.36,4.74,394.31,4.22,406.93,3.76Z"/><path class="cls-1" d="M551.44.25c-11.66,7.13-17,5.64-34.61,12.51A172,172,0,0,0,489.1,26.83c-18.43,11.73-17,17.05-32.38,27.9-9.07,6.39-22.7,11.37-49.6,21.05-27.82,10-26.15,7.93-37.58,12.83-4.3,1.85-8.36,3.78-12.14,5.75h0l-27.3,10A222.73,222.73,0,0,1,355.9,82.45a199.68,199.68,0,0,1,41.5-23.23c16.38-6.55,16.81-3.94,30.6-9.95,14.65-6.38,19.49-11.65,43.07-27.54,0,0,15.2-10.26,30.12-19.29L503.55,1C522.47.65,538.75.4,551.44.25Z"/><path class="cls-1" d="M673.71,8.2c-12.45,9.59-19.93,15-27,18.64-28,14.34-35.3,6.26-61.11,18.37-17.27,8.09-30.33,20-56.46,43.82-9.6,8.76-15.69,15-21.9,19.62-2-.33-4.18-.7-6.43-1.1-19.2-3.37-19.33-3.71-24.13-4.41l-1.7-.22a207.07,207.07,0,0,0,49.6-27.45C548.64,57.31,549,48.16,574,33.41c18.3-10.77,19.89-6.92,51.32-20.84,3.69-1.62,7-3.15,15.3-7.51C651,6,662.17,7.06,673.71,8.2Z"/><path class="cls-1" d="M799.46,24.42C794,30.46,784,39,765.21,47.93c-21,10-25,7.34-40.7,16.49-7.51,4.39-9.35,6.63-28.22,23.18-11.2,9.84-20.2,17.5-27.67,23.43a38.8,38.8,0,0,0-7.08-2.56,43,43,0,0,0-18-.86,241.23,241.23,0,0,0,28.75-18.1C691.66,75.23,690,71.37,708.48,59.46c19.51-12.59,24.1-10.06,45.1-21.63a207.2,207.2,0,0,0,25.9-17C787,22,793.74,23.22,799.46,24.42Z"/></g></svg>