<svg xmlns="http://www.w3.org/2000/svg" viewBox="0 0 967.15578 294.77093"><defs><style>.a,.b{fill:#ee6565;stroke:#ee6565;stroke-miterlimit:10;stroke-width:5px;}.b,.e{opacity:0.72;}.c{fill:#4f2b08;}.d{fill:#724110;}.e{fill:#3f2006;}.f{opacity:0.49;}</style></defs><path class="a" d="M928.47587,202.58273c-11.56312,10.13554-26.35844,16.5019-55.9207,29.2348C805.72175,260.57284,751.5876,283.85591,713.756,268.35914c-9.42834-3.86232-22.52-4.11276-36.86072-.66379-.29621.06062-.6011.13012-.90656.20908-10.65973,2.65956-11.84556,9.20951-24.08476,12.72379-11.10976,3.2069-16.93777-.238-36.77255-2.42392-26.69483-2.93353-26.43124,3.48853-49.82713-.6176-18.98935-3.33671-28.83571-9.02139-44.7509-6.42357-12.86529,2.09482-19.15935,7.88413-26.72313,12.09782-34.11152,19.06248-89.70077,3.9529-138.32508-9.27336-42.36736-11.50043-42.96794-17.57671-66.97018-18.46331-24.98853-.90938-37.46532,5.19313-68.96275,2.075-20.89677-2.07149-18.71488-5.88754-42.20329-8.6116-47.44674-5.52856-79.10172,4.41869-91.136-9.27273-6.894-7.83953-.0819-15.10669-8.52393-21.64845a17.14285,17.14285,0,0,0-2.56931-1.63932c-10.75168-5.56767-25.48138,1.40793-39.498-2.73767C18.3,208.54929,11.04711,189.04813,7.27905,169.67711c-1.55246-7.9797-2.51462-15.92351-3.362-22.83325a175.56208,175.56208,0,0,1-1.40661-22.17935s.54313-27.24383,11.40368-52.27335c2.91251-6.702,10.5314-12.96224,21.85128-18.75752q.59858-.31,1.22552-.61993c30.813-15.18745,96.55315-25.80863,172.79966-33.23535,14.56243-1.4264,29.51944-2.7277,44.67857-3.92472C297.50781,12.4604,342.269,9.9201,384.85455,8.03306c13.68457-.60836,27.13718-1.14579,40.23923-1.633C462.39711,5.032,496.83508,4.1413,525.43113,3.5684c19.65714-.39824,36.5556-.64957,49.736-.80365,19.58152-.23355,30.94333-.26449,30.94333-.26449s26.25534,2.03309,61.67068,5.25957c10.76721.98455,22.38137,2.07285,34.363,3.25842,38.07367,3.74195,79.83315,8.3728,109.84182,13.13088,7.80365,1.23046,14.81423,2.46867,20.75485,3.7109,1.10331.227,2.17.46271,3.19049.68858,15.76856,3.52377,43.44451,4.829,72.34075,18.204.11946.057.24747.11389.36693.17089,6.9649,3.22024,14.68228,6.73681,19.553,10.74942,7.7162,6.33855,9.45485,4.60048,14.48574,11.08693a113.17672,113.17672,0,0,1,13.54078,22.30655,97.9199,97.9199,0,0,1,6.91494,20.62165c.01663.10177.04268.24036.086.4348.00871.05528.02642.1109.03456.17563a75.27137,75.27137,0,0,1,1.40182,15.03221l-.00262.19382C964.64119,145.47962,959.2174,175.61776,928.47587,202.58273Z"/><path class="a" d="M874.96693,55.79276c-.20821,14.099-3.66923,22.47931-3.66923,22.47931-2.76357,6.69391-8.55617,20.69971-22.244,28.205-15.61136,8.5362-31.04011,2.91082-41.32082,14.56485-1.70443,1.92169-5.13107,6.43993-11.29247,8.32809a21.36112,21.36112,0,0,1-10.65182.31792c-22.09751-4.31231-65.85612,17.8031-110.99632,1.56446-1.59964-.57206-2.76565-1.0496-3.71034-1.44436a37.54082,37.54082,0,0,0-7.077-2.67964,41.102,41.102,0,0,0-17.952-.89958l-.0182-.00025c-13.805,2.37093-24.4446,11.00094-43.02688,10.73219-21.912-.32262-24.4726-12.57632-49.19027-10.95657-9.69683.62393-7.25161,2.37966-27.34533,6.14878-10.21115,1.91324-19.1241,3.66667-26.72828,4.54087a65.82947,65.82947,0,0,1-12.6693.44157l-.00867-.00012c-5.90774-.48825-10.537-2.27369-13.93145-6.04894-3.5078-3.91923-6.387-11.00913-11.8812-11.19868-4.58027-.15075-6.09212,4.62425-11.29259,8.337-6.64425,4.73213-14.58761,4.394-39.81745-.11155-2.01968-.35595-4.1633-.74891-6.42244-1.16121-19.20428-3.52744-19.33269-3.8754-24.12713-4.60617q-.85091-.13149-1.70173-.2361c-42.95442-5.83715-75.8533,15.688-82.52577,5.43017-2.94915-4.54214,2.7096-9.95359-.40649-13.308a5.07846,5.07846,0,0,0-4.15479-1.37947l-.0091-.00013c-6.09524.26413-16.40525,6.1901-27.29624,10.412-9.96213,3.86153-20.42908,6.28643-28.61624,1.656-7.9934-4.53049-5.38426-10.99537-13.03528-15.19256-.00012.00889-.00012.00889-.00867-.00012-.23837-.13633-.503-.25546-.75871-.392a15.39691,15.39691,0,0,0-2.57951-.994,16.42737,16.42737,0,0,0-5.52353-.65173c-10.90322.53653-21.84757,10.69847-39.53706,8.728-.6295-.07073-1.25876-.159-1.90568-.25664-12.5918-1.99032-10.876-7.38414-24.25359-9.04774-18.96315-2.34305-29.37273,7.64855-38.16506,1.145a9.85792,9.85792,0,0,1-3.36931-4.31692c-1.31662-3.09917-1.62227-6.76182-5.98245-11.39412-.22739-.24285-.47288-.49462-.71817-.72905-4.69738-4.61-10.56563-6.705-21.78231-9.25414-29.0292-6.58153-36.83511-3.25934-41.12411-8.5387-1.8346-2.24482-2.834-5.84594-1.68816-11.77124q.57639-.29856,1.18009-.597c29.67074-14.62443,92.97383-24.85187,166.39379-32.00328,14.02259-1.37352,28.42512-2.62658,43.02229-3.77922,41.44313-3.26745,84.545-5.71358,125.55183-7.53066,13.17727-.58581,26.13117-1.10332,38.74752-1.57248,35.92046-1.31733,69.08177-2.175,96.61774-2.72668,18.92843-.38347,35.20044-.62549,47.89223-.77385,18.85561-.22489,29.79622-.25468,29.79622-.25468s25.282,1.95771,59.38448,5.06458c10.36806.94806,21.55168,1.996,33.08914,3.13763,36.66224,3.60323,76.87365,8.06242,105.76987,12.64411,7.51436,1.18484,14.265,2.37715,19.98544,3.57332,1.06241.21858,2.08958.44557,3.07222.66307,15.184,3.39313,41.834,4.65,69.659,17.52914C874.72863,55.6831,874.8519,55.73788,874.96693,55.79276Z"/><path class="b" d="M928.90676,133.22184l.00159.18643c-.01269,17.28882-5.23547,46.3076-34.84092,72.27557-11.13182,9.75583-25.37593,15.88874-53.84647,28.14554-64.3546,27.69354-116.48257,50.11487-152.9102,35.18757-9.08-3.71428-21.691-3.96194-35.49728-.63887-.28387.06464-.576.12935-.86846.20295-10.27,2.56474-11.41468,8.87027-23.19606,12.25608-10.7,3.08372-16.31363-.23389-35.4055-2.33558-25.71272-2.8266-25.45579,3.36032-47.98178-.5945-18.28409-3.21854-27.76968-8.68752-43.0927-6.18617-12.3875,2.0148-18.44912,7.58937-25.73161,11.64727-32.84928,18.359-86.37575,3.80847-133.20011-8.92567-40.79871-11.08043-41.37272-16.92733-64.48491-17.77815-24.0624-.8785-36.07969,4.99567-66.41149,1.99533-20.12072-1.99517-18.021-5.67159-40.63319-8.29372-45.68679-5.32032-76.169,4.25416-87.76292-8.931-6.63515-7.54452-.07969-14.54434-8.20483-20.84178a16.15005,16.15005,0,0,0-2.47313-1.57731c-10.35489-5.364-24.54068,1.3546-38.03646-2.64182-16.70021-4.94576-23.68-23.72894-27.311-42.38088a73.81661,73.81661,0,0,0,24.736,20.50561c23.01768,11.64057,32.90205,1.37117,55.171,13.73743,18.41488,10.22339,17.249,20.3474,36.64611,28.10274,10.9505,4.3821,16.98938,3.416,34.67362,5.03239,29.67248,2.71287,35.60049,7.51085,59.58787,11.0359,36.81694,5.40478,40.481-3.31079,74.58389-.63545,46.47159,3.64436,43.14013,20.10015,91.681,25.85791,33.27039,3.94328,62.86947,7.45607,92.30413-5.22626,8.166-3.51479,23.49627-11.37089,44.31195-10.14518,10.40329.61289,14.39337,3.03858,25.80215,5.99594,6.532,1.69362,38.39188,9.95564,71.06253,2.94642,26.6082-5.70539,31.38017-16.74809,52.26526-14.65278,14.61973,1.46493,14.68518,7.11173,30.28706,11.28553,31.70166,8.46737,71.53507-4.13468,96.57722-24.798,9.36442-7.73417,14.08428-14.46059,27.351-20.65629,16.19432-7.56127,27.31593-5.99564,36.336-8.30129,33.6162-8.59767,44.498-68.55732,46.39317-78.53644a169.25417,169.25417,0,0,0,.95609-58.72068,109.23279,109.23279,0,0,1,13.04073,21.47544,94.15421,94.15421,0,0,1,6.6512,19.86061c.01861.09739.04619.23027.08333.41639A89.80516,89.80516,0,0,1,928.90676,133.22184Z"/><path class="c" d="M911.98239,200.5359c-11.13446,9.7598-25.3813,15.89016-53.84766,28.151-64.35583,27.68932-116.48317,50.10926-152.91231,35.187-9.07882-3.71913-21.68514-3.96029-35.49425-.63918-.28523.05837-.57882.1253-.873.20133-10.26456,2.561-11.40643,8.86811-23.19191,12.25211-10.6979,3.088-16.30987-.22918-35.40935-2.33407-25.70522-2.82478-25.4514,3.35921-47.98-.5947-18.28538-3.213-27.76674-8.687-43.09192-6.18545-12.38837,2.01717-18.4491,7.59186-25.73248,11.64935-32.847,18.35581-86.37547,3.80636-133.19722-8.92959-40.79675-11.0741-41.37507-16.92513-64.48752-17.77886-24.06219-.87566-36.07644,5.00062-66.40623,1.998-20.1221-1.99469-18.0211-5.66927-40.63877-8.29236-45.68784-5.3236-76.16933,4.25489-87.75749-8.929-6.63838-7.54892-.07886-14.54668-8.20794-20.84592a16.507,16.507,0,0,0-2.47406-1.57855c-10.35311-5.36127-24.53676,1.35574-38.03377-2.63618-16.69879-4.94963-23.68285-23.72787-27.31122-42.38078-1.49491-7.68388-2.4214-15.33321-3.23733-21.98679a169.05209,169.05209,0,0,1-1.35446-21.35714s.523-26.23387,10.98092-50.33552C34.129,68.7171,41.46547,62.689,52.36571,57.10851q.57638-.29854,1.18009-.59695c29.67074-14.62443,92.97382-24.85187,166.39378-32.00328,14.02259-1.37352,28.42512-2.62658,43.02229-3.77923,41.44313-3.26744,84.545-5.71357,125.55183-7.53065,13.17727-.58582,26.13118-1.10332,38.74752-1.57248,35.92046-1.31733,69.08177-2.175,96.61774-2.72668,18.92843-.38348,35.20044-.62549,47.89223-.77385,18.85562-.22489,29.79623-.25469,29.79623-.25469s25.282,1.95772,59.38448,5.06459c10.368.94805,21.55167,1.996,33.08914,3.13763,36.66223,3.60323,76.87364,8.06241,105.76986,12.64411,7.51436,1.18484,14.26505,2.37715,19.98544,3.57332,1.06241.21858,2.08958.44557,3.07222.66306,15.184,3.39314,41.834,4.65,69.659,17.52915.115.05488.2383.10966.35333.16455,6.7067,3.10086,14.138,6.48707,18.82811,10.35093,7.43015,6.10358,9.10434,4.42994,13.94873,10.67593a108.98138,108.98138,0,0,1,13.03882,21.47961,94.29019,94.29019,0,0,1,6.65859,19.85719c.016.098.0411.23145.0828.41868.00838.05323.02544.10679.03327.16912a72.48083,72.48083,0,0,1,1.34985,14.475l-.00252.18663C946.807,145.54966,941.5843,174.57055,911.98239,200.5359Z"/><path class="d" d="M892.88089,50.64711c-.2082,14.099-3.66923,22.47931-3.66923,22.47931-2.76357,6.69391-8.55617,20.69971-22.244,28.205-15.61135,8.5362-31.04011,2.91083-41.32082,14.56486-1.70442,1.92168-5.13107,6.43993-11.29247,8.32808a21.36088,21.36088,0,0,1-10.65182.31792c-22.09751-4.31231-65.85612,17.8031-110.99632,1.56447-1.59963-.57207-2.76564-1.0496-3.71033-1.44436a37.5412,37.5412,0,0,0-7.07705-2.67964,41.10216,41.10216,0,0,0-17.952-.89959l-.01821-.00024c-13.805,2.37093-24.4446,11.00094-43.02688,10.73218-21.912-.32261-24.4726-12.57631-49.19027-10.95657-9.69682.62394-7.25161,2.37966-27.34533,6.14879-10.21114,1.91324-19.1241,3.66667-26.72827,4.54087a65.83031,65.83031,0,0,1-12.66931.44156l-.00867-.00011c-5.90773-.48825-10.537-2.27369-13.93145-6.049-3.5078-3.91922-6.387-11.00913-11.88119-11.19867-4.58027-.15075-6.09213,4.62425-11.2926,8.337-6.64425,4.73213-14.58761,4.394-39.81745-.11156-2.01968-.356-4.1633-.74891-6.42243-1.16121-19.20428-3.52743-19.3327-3.8754-24.12714-4.60617q-.85091-.13149-1.70173-.23609c-42.95441-5.83715-75.8533,15.688-82.52577,5.43016-2.94915-4.54213,2.7096-9.95359-.40649-13.308a5.07848,5.07848,0,0,0-4.15478-1.37947l-.00911-.00012c-6.09524.26412-16.40524,6.1901-27.29624,10.412-9.96213,3.86152-20.42907,6.28643-28.61624,1.656-7.9934-4.53048-5.38425-10.99537-13.03527-15.19255-.00012.00888-.00012.00888-.00867-.00012-.23838-.13634-.503-.25547-.75871-.392a15.39727,15.39727,0,0,0-2.57952-.994,16.42683,16.42683,0,0,0-5.52352-.65173c-10.90323.53653-21.84757,10.69846-39.53706,8.72795-.6295-.07072-1.25877-.159-1.90569-.25663-12.59179-1.99033-10.876-7.38414-24.25359-9.04774-18.96315-2.34305-29.37273,7.64855-38.165,1.145a9.85793,9.85793,0,0,1-3.36932-4.31692c-1.31662-3.09918-1.62227-6.76182-5.98244-11.39412-.2274-.24286-.47289-.49463-.71817-.72905-4.69739-4.61-10.56564-6.705-21.78231-9.25415-29.02921-6.58152-36.83512-3.25933-41.12412-8.53869-1.8346-2.24482-2.834-5.84594-1.68815-11.77125q.57638-.29854,1.18009-.59695c29.67074-14.62443,92.97382-24.85187,166.39378-32.00328,14.02259-1.37352,28.42512-2.62658,43.02229-3.77923,41.44313-3.26744,84.545-5.71357,125.55183-7.53065,13.17727-.58582,26.13118-1.10332,38.74752-1.57248,35.92046-1.31733,69.08177-2.175,96.61774-2.72668,18.92843-.38348,35.20044-.62549,47.89223-.77385,18.85562-.22489,29.79623-.25469,29.79623-.25469s25.282,1.95772,59.38448,5.06459c10.368.94805,21.55167,1.996,33.08914,3.13763,36.66223,3.60323,76.87364,8.06241,105.76986,12.64411,7.51436,1.18484,14.26505,2.37715,19.98544,3.57332,1.06241.21858,2.08958.44557,3.07222.66306,15.184,3.39314,41.834,4.65,69.659,17.52915C892.64259,50.53744,892.76586,50.59222,892.88089,50.64711Z"/><path class="e" d="M946.82073,128.07619l.00158.18643c-.01269,17.28881-5.23547,46.3076-34.84092,72.27556-11.13181,9.75583-25.37593,15.88875-53.84646,28.14555-64.35461,27.69353-116.48258,50.11487-152.91021,35.18756-9.08-3.71428-21.691-3.96193-35.49727-.63886-.28388.06464-.576.12934-.86847.20294-10.27,2.56475-11.41467,8.87027-23.19606,12.25609-10.7,3.08372-16.31363-.23389-35.4055-2.33559-25.71272-2.8266-25.45579,3.36033-47.98178-.59449-18.28409-3.21855-27.76968-8.68753-43.09269-6.18617-12.38751,2.0148-18.44913,7.58936-25.73162,11.64726-32.84927,18.359-86.37575,3.80847-133.20011-8.92567-40.79871-11.08043-41.37272-16.92732-64.48491-17.77815-24.0624-.8785-36.07969,4.99568-66.41149,1.99533-20.12071-1.99516-18.021-5.67158-40.63319-8.29371-45.68679-5.32033-76.169,4.25415-87.76292-8.931-6.63515-7.54453-.07969-14.54435-8.20483-20.84178a16.14964,16.14964,0,0,0-2.47313-1.57732c-10.35488-5.364-24.54068,1.3546-38.03646-2.64182-16.70021-4.94575-23.68-23.72893-27.311-42.38088a73.81622,73.81622,0,0,0,24.736,20.50561c23.01768,11.64057,32.90205,1.37118,55.171,13.73743,18.41488,10.2234,17.249,20.34741,36.64611,28.10275,10.9505,4.3821,16.98938,3.416,34.67363,5.03239,29.67248,2.71287,35.60048,7.51085,59.58787,11.0359,36.81693,5.40478,40.481-3.31079,74.58388-.63546,46.47159,3.64436,43.14014,20.10015,91.681,25.85792,33.27039,3.94327,62.86948,7.45607,92.30413-5.22627,8.166-3.51478,23.49627-11.37089,44.31195-10.14518,10.40329.6129,14.39337,3.03859,25.80216,5.99594,6.532,1.69362,38.39187,9.95564,71.06253,2.94642,26.6082-5.70539,31.38016-16.74809,52.26526-14.65278,14.61972,1.46494,14.68518,7.11174,30.28705,11.28554,31.70166,8.46737,71.53507-4.13468,96.57722-24.798,9.36443-7.73417,14.08428-14.46059,27.351-20.65629,16.19432-7.56126,27.31593-5.99563,36.336-8.30129,33.61619-8.59766,44.498-68.55731,46.39316-78.53643a169.25423,169.25423,0,0,0,.95609-58.72069,109.23313,109.23313,0,0,1,13.04073,21.47545,94.15437,94.15437,0,0,1,6.6512,19.8606c.01861.0974.04619.23027.08333.4164A89.80576,89.80576,0,0,1,946.82073,128.07619Z"/><g class="f"><path class="c" d="M236.17841,15.51877l-.578.0633.89821-.11231Z"/><path class="c" d="M262.96187,20.72905a182.39371,182.39371,0,0,1-56.74421,23.66316c-12.96871,2.89734-23.52675,3.5272-36.49715,11.81485-11.59107,7.41825-12.60732,12.96352-23.65423,22.82228a109.571,109.571,0,0,1-22.44285,15.31695c-1.31885-2.96587-1.62666-6.46876-5.98005-10.89675-.22795-.234-.47312-.47706-.70986-.70227,5.14987-4.557,11.28151-10.1487,18.3896-17.0235,15.03532-14.55565,17.43118-18.35958,26.40513-23.34447,15.49651-8.57331,19.64559-3.46429,40.78589-10.434a109.33277,109.33277,0,0,0,17.42544-7.437C233.96217,23.13476,248.3647,21.8817,262.96187,20.72905Z"/><path class="c" d="M427.26122,11.62592A192.08977,192.08977,0,0,1,391.3798,31.113c-34.316,14.01991-48.96357,7.091-76.15169,25.29219-2.33876,1.56689-11.7629,10.28421-30.83876,27.45823-6.13056,5.51175-11.37193,10.26282-15.983,14.38307-9.05-2.58184-17.38789,3.30855-28.64432,6.33547-.00012.00888-.00012.00888-.00867-.00012a43.87186,43.87186,0,0,1-16.41226,1.41236q3.51082-1.53762,7.55051-3.45009c3.40532-1.62337,7.08893-3.46521,10.989-5.57035,17.80157-9.63442,31.01983-19.83675,43.2598-29.26206,20.96237-16.17184,23.35736-21.22781,37.05554-27.50759,14.81488-6.80626,16.86992-3.12888,33.66779-8.78945,14.95142-5.03727,23.714-11.45482,32.65-18.21625C401.691,12.61258,414.64488,12.09508,427.26122,11.62592Z"/><path class="c" d="M571.77119,8.12539C560.113,15.24962,554.74261,13.75618,537.16475,20.632A171.84293,171.84293,0,0,0,509.4285,34.69633c-18.42478,11.7307-16.96951,17.05179-32.372,27.90841-9.07308,6.38647-22.70031,11.36184-49.60467,21.042-27.81478,10.023-26.14406,7.93216-37.57666,12.83051-4.30508,1.851-8.36284,3.78556-12.14566,5.75007l-.00911-.00012-27.29892,9.96792a223.14371,223.14371,0,0,1,25.8082-21.87851,200.26725,200.26725,0,0,1,41.49985-23.22948c16.3836-6.54551,16.81883-3.93759,30.60229-9.94976,14.64946-6.3736,19.48942-11.64522,43.06777-27.53306,0,0,15.19936-10.26446,30.12454-19.29817.779-.469,1.5667-.938,2.35482-1.40688C542.80739,8.51576,559.0794,8.27375,571.77119,8.12539Z"/><path class="c" d="M694.041,16.07292c-12.446,9.59119-19.926,15.04027-26.95426,18.63941-28.01525,14.33612-35.303,6.26332-61.11272,18.36451-17.26568,8.09652-30.32954,19.99718-56.45675,43.825-9.60248,8.75936-15.68986,14.99082-21.90609,19.62228q-3.04353-.50745-6.43226-1.108c-19.19777-3.36735-19.3263-3.70665-24.12122-4.40186-.56684-.08766-1.13435-.15733-1.70186-.22722a207.15154,207.15154,0,0,0,49.60227-27.44458c24.01755-18.16418,24.3276-27.31549,49.37349-42.06461,18.3055-10.76408,19.88733-6.91531,51.32455-20.83231,3.68939-1.62842,6.99585-3.15557,15.29571-7.51022C671.31995,13.88334,682.50357,14.9313,694.041,16.07292Z"/><path class="c" d="M819.79634,32.29035c-5.41873,6.03648-15.47045,14.5411-34.24866,23.51388C764.57044,65.822,760.50394,63.13856,744.84,72.29562c-7.50934,4.38288-9.34251,6.62261-28.21446,23.17781-11.20621,9.83884-20.19891,17.49641-27.67623,23.42509a39.27239,39.27239,0,0,0-7.07829-2.55543,42.87722,42.87722,0,0,0-17.95289-.864,240.69964,240.69964,0,0,0,28.74079-18.10039C711.98872,83.103,710.33547,79.2444,728.81653,67.32822c19.5108-12.586,24.09448-10.05543,45.10138-21.62681A206.50169,206.50169,0,0,0,799.8109,28.717C807.32526,29.90187,814.076,31.09418,819.79634,32.29035Z"/></g></svg>