<svg xmlns="http://www.w3.org/2000/svg" viewBox="0 0 711.16574 279.02979"><defs><style>.a{fill:#4f2b08;}.b{fill:#724110;}.c{fill:#3f2006;opacity:0.72;}.d{opacity:0.49;}</style></defs><path class="a" d="M684.42289,192.66519c-8.54673,9.7598-19.48249,15.89016-41.33305,28.151-49.399,27.68932-89.41159,50.10926-117.37432,35.187-6.96883-3.71914-16.64535-3.96029-27.24512-.63918-.21894.05837-.44429.1253-.67007.20132-7.879,2.561-8.75549,8.86811-17.80193,12.25211-8.21163,3.088-12.51934-.22917-27.18-2.33406-19.73113-2.82479-19.5363,3.3592-36.82907-.5947-14.03572-3.213-21.31354-8.687-33.077-6.18545-9.50922,2.01716-14.16139,7.59186-19.75206,11.64934-25.21308,18.35582-66.30114,3.80637-102.24116-8.92958C229.60386,250.3489,229.16,244.49787,211.419,243.64414c-18.46994-.87567-27.692,5.00062-50.97291,1.998-15.44557-1.99469-13.83286-5.66928-31.194-8.29236-35.06963-5.32361-58.467,4.25489-67.362-8.929-5.09557-7.54891-.06054-14.54667-6.30035-20.84591a12.81126,12.81126,0,0,0-1.89907-1.57856c-7.947-5.36126-18.83423,1.35575-29.19443-2.63617-12.81787-4.94964-18.17878-23.72787-20.96389-42.38078-1.14748-7.68388-1.85865-15.33321-2.48495-21.98679-.9872-10.6558-1.081-18.68493-1.03967-21.35715,0,0,.40145-26.23387,8.42887-50.33551,2.15275-6.45358,7.78415-12.48172,16.15109-18.06216q.44244-.29854.90583-.597c22.775-14.62442,71.366-24.85186,127.72259-32.00327,10.76364-1.37353,21.81891-2.62658,33.02358-3.77923,31.81143-3.26744,64.89608-5.71357,96.37262-7.53066,10.11477-.58581,20.05809-1.10331,29.7423-1.57247,27.57227-1.31733,53.02664-2.175,74.163-2.72668C401.047.64506,413.53726.40305,423.27938.25469,437.7528.02979,446.15073,0,446.15073,0S465.557,1.95772,491.7338,5.06459c7.95845.94805,16.5429,1.996,25.399,3.13763,28.14165,3.60323,59.00762,8.06241,81.18814,12.6441,5.768,1.18485,10.94974,2.37716,15.34067,3.57333.8155.21857,1.604.44556,2.35822.66306,11.65512,3.39314,32.11143,4.65,53.46971,17.52914.08829.05489.18291.10967.27121.16456,5.148,3.10086,10.85222,6.48707,14.45231,10.35093,5.70333,6.10357,6.98843,4.42993,10.707,10.67593a119.17516,119.17516,0,0,1,10.00849,21.47961,115.53139,115.53139,0,0,1,5.11108,19.85719c.0123.098.03155.23145.06356.41868.00643.05323.01953.10679.02554.16912a93.71974,93.71974,0,0,1,1.03613,14.475l-.00193.18663C711.154,137.67895,707.14509,166.69984,684.42289,192.66519Z"/><path class="b" d="M669.76072,42.77641c-.15981,14.099-2.81647,22.47931-2.81647,22.47931-2.12129,6.69391-6.56765,20.69971-17.07434,28.205-11.98316,8.5362-23.82615,2.91083-31.71754,14.56486-1.30831,1.92168-3.93857,6.43993-8.668,8.32808a12.72856,12.72856,0,0,1-8.17625.31792c-16.96188-4.31231-50.55066,17.8031-85.19993,1.56446-1.22786-.57206-2.12288-1.04959-2.848-1.44436a25.1435,25.1435,0,0,0-5.43229-2.67963,24.472,24.472,0,0,0-13.7798-.89959l-.014-.00025c-10.59658,2.37093-18.76349,11.00095-33.0271,10.73219-16.81952-.32262-18.785-12.57632-37.75807-10.95657-7.44321.62393-5.56629,2.37966-20.99007,6.14879-7.838,1.91324-14.67951,3.66667-20.51642,4.54087a38.89365,38.89365,0,0,1-9.72486.44156l-.00666-.00012c-4.53473-.48824-8.08815-2.27368-10.69367-6.04894-2.69256-3.91922-4.9026-11.00913-9.11992-11.19867-3.51578-.15075-4.67626,4.62425-8.6681,8.337-5.10008,4.73213-11.19734,4.394-30.56357-.11156-1.55029-.356-3.19572-.74891-4.92982-1.16121-14.741-3.52743-14.83963-3.8754-18.5198-4.60617q-.65314-.13149-1.30624-.2361c-32.97147-5.83714-58.22441,15.688-63.34614,5.43017-2.26375-4.54214,2.07986-9.95359-.312-13.308a3.39765,3.39765,0,0,0-3.18918-1.37947l-.007-.00012c-4.67866.26412-12.59254,6.19009-20.95239,10.412-7.64685,3.86152-15.6812,6.28642-21.96561,1.656-6.13567-4.53048-4.13291-10.99537-10.00577-15.19256-.00009.00889-.00009.00889-.00665-.00011-.183-.13634-.3861-.25547-.58239-.392a10.32882,10.32882,0,0,0-1.98-.994,9.863,9.863,0,0,0-4.23981-.65172c-8.36924.53653-16.77,10.69846-30.34835,8.72795-.4832-.07072-.96622-.159-1.46279-.25663-9.66536-1.99033-8.34835-7.38414-18.61687-9.04774-14.556-2.34305-22.54628,7.64854-29.2952,1.145a9.96643,9.96643,0,0,1-2.58626-4.31691c-1.01063-3.09918-1.24524-6.76182-4.59208-11.39413-.17455-.24285-.363-.49462-.55126-.729-3.60568-4.61-8.11011-6.705-16.71994-9.25415-22.28259-6.58153-28.27435-3.25933-31.56655-8.5387-1.40823-2.24482-2.17534-5.84594-1.29582-11.77124q.44244-.29854.90583-.597c22.775-14.62442,71.366-24.85186,127.72259-32.00327,10.76364-1.37353,21.81891-2.62658,33.02358-3.77923,31.81143-3.26744,64.89608-5.71357,96.37262-7.53066,10.11477-.58581,20.05809-1.10331,29.7423-1.57247,27.57227-1.31733,53.02664-2.175,74.163-2.72668C401.047.64506,413.53726.40305,423.27938.25469,437.7528.02979,446.15073,0,446.15073,0S465.557,1.95772,491.7338,5.06459c7.95845.94805,16.5429,1.996,25.399,3.13763,28.14165,3.60323,59.00762,8.06241,81.18814,12.6441,5.768,1.18485,10.94974,2.37716,15.34067,3.57333.8155.21857,1.604.44556,2.35822.66306,11.65512,3.39314,32.11143,4.65,53.46971,17.52914C669.5778,42.66674,669.67242,42.72152,669.76072,42.77641Z"/><path class="c" d="M711.16453,120.20549l.00121.18642c-.00974,17.28882-4.0187,46.3076-26.74362,72.27557-8.5447,9.75583-19.47837,15.88875-41.33213,28.14555-49.39811,27.69353-89.41113,50.11486-117.37271,35.18756-6.96972-3.71428-16.64982-3.96193-27.24743-.63886-.2179.06463-.44213.12934-.66663.20294-7.88316,2.56475-8.76181,8.87027-17.80512,12.25608-8.21324,3.08372-12.52221-.23388-27.177-2.33558-19.73688-2.8266-19.53966,3.36032-36.83044-.5945-14.03473-3.21854-21.3158-8.68752-33.07763-6.18616-9.50855,2.0148-14.1614,7.58936-19.75138,11.64726-25.21486,18.359-66.30137,3.80847-102.24339-8.92567-31.31678-11.08043-31.75738-16.92732-49.49812-17.77815-18.47011-.8785-27.6945,4.99568-50.977,1.99533-15.44451-1.99516-13.83278-5.67158-31.18973-8.29372-35.06882-5.32032-58.46673,4.25416-67.36614-8.931-5.09309-7.54453-.06117-14.54435-6.298-20.84178a12.53189,12.53189,0,0,0-1.89835-1.57732c-7.94833-5.364-18.83724,1.3546-29.1965-2.64182-12.81895-4.94575-18.17657-23.72894-20.9637-42.38088,3.83743,6.22651,9.60874,14.32283,18.98719,20.50561,17.66819,11.64057,25.25535,1.37118,42.34887,13.73743C79.002,205.44318,78.107,215.56719,92.99615,223.32253c8.40551,4.38209,13.04091,3.416,26.6152,5.03239,22.77637,2.71286,27.32666,7.51084,45.73919,11.03589,28.2604,5.40478,31.0729-3.31078,57.25-.63545,35.67124,3.64436,33.114,20.10015,70.37363,25.85792,25.53809,3.94327,48.25812,7.45606,70.85194-5.22627,6.26814-3.51478,18.03555-11.37089,34.01351-10.14518,7.98549.61289,11.04824,3.03859,19.80554,5.99594,5.01389,1.69362,29.46931,9.95564,54.54705,2.94642,20.42425-5.70539,24.08717-16.74809,40.11841-14.65278,11.222,1.46494,11.27223,7.11173,23.24812,11.28554,24.33395,8.46736,54.90977-4.13469,74.13193-24.798,7.18806-7.73417,10.811-14.46059,20.99442-20.65629,12.43064-7.56126,20.9675-5.99563,27.8912-8.30129,25.80354-8.59767,34.15636-68.55732,35.611-78.53644a219.79314,219.79314,0,0,0,.73389-58.72068,119.43873,119.43873,0,0,1,10.01,21.47545,115.38273,115.38273,0,0,1,5.10542,19.8606c.01428.0974.03545.23027.064.41639A116.162,116.162,0,0,1,711.16453,120.20549Z"/><g class="d"><path class="a" d="M165.68094,7.64807l-.44366.0633.68946-.11231Z"/><path class="a" d="M186.23971,12.85835C176.035,21.44362,160.2474,31.41357,142.68329,36.52151c-9.95468,2.89734-18.05895,3.5272-28.01493,11.81484-8.89722,7.41826-9.67728,12.96352-18.15681,22.82229a87.08376,87.08376,0,0,1-17.227,15.31695c-1.01234-2.96587-1.24861-6.46876-4.59025-10.89675-.175-.234-.36316-.47707-.54488-.70227,3.953-4.557,8.6596-10.14871,14.11572-17.0235,11.541-14.55565,13.38-18.35959,20.26837-23.34448,11.895-8.5733,15.07981-3.46428,31.30694-10.434a75.2332,75.2332,0,0,0,13.37563-7.437C163.97977,15.26405,175.035,14.011,186.23971,12.85835Z"/><path class="a" d="M312.35463,3.75522a141.428,141.428,0,0,1-27.5423,19.48707c-26.34069,14.0199-37.58406,7.091-58.45345,25.29219-1.79522,1.56688-9.02911,10.28421-23.67159,27.45823-4.70578,5.51174-8.729,10.26282-12.26844,14.38307-6.94667-2.58184-13.34681,3.30854-21.98716,6.33546-.00009.00889-.00009.00889-.00665-.00011a26.22074,26.22074,0,0,1-12.59793,1.41236q2.69488-1.53762,5.79572-3.45009c2.61389-1.62338,5.4414-3.46521,8.43506-5.57036,13.66435-9.63441,23.81059-19.83674,33.20589-29.262,16.09056-16.17185,17.92894-21.22782,28.44355-27.50759,11.37179-6.80626,12.94922-3.12888,25.84314-8.78945,11.47659-5.03727,18.20271-11.45482,25.06186-18.21626C292.7271,4.74188,302.67042,4.22438,312.35463,3.75522Z"/><path class="a" d="M423.27938.25469c-8.94876,7.12423-13.071,5.63078-26.56364,12.50661a122.88766,122.88766,0,0,0-21.29013,14.06433C361.28289,38.55633,362.4,43.87742,350.57712,54.734c-6.96443,6.38647-17.42459,11.36184-38.07617,21.042-21.35041,10.023-20.068,7.93216-28.84355,12.83051-3.30455,1.851-6.41926,3.78556-9.32292,5.75007l-.007-.00013-20.95444,9.96793a193.21569,193.21569,0,0,1,19.81017-21.87851c15.40529-14.50565,28.90105-21.683,31.855-23.22949,12.57592-6.54551,12.91-3.93758,23.49008-9.94976,11.24482-6.37359,14.95993-11.64521,33.05849-27.533,0,0,11.66692-10.26447,23.12337-19.29817.598-.469,1.20258-.938,1.80754-1.40688C401.047.64506,413.53726.40305,423.27938.25469Z"/><path class="a" d="M517.13277,8.20222c-9.55345,9.59119-15.295,15.04027-20.68987,18.63941-21.5043,14.33612-27.09834,6.26331-46.90966,18.36451-13.253,8.09651-23.28072,19.99718-43.33577,43.825-7.37079,8.75936-12.04341,14.99082-16.815,19.62228q-2.33619-.50744-4.93735-1.108c-14.73606-3.36735-14.83472-3.70665-18.51526-4.40187-.4351-.08765-.87072-.15732-1.30633-.22721a152.71149,152.71149,0,0,0,38.07431-27.44458c18.43569-18.16418,18.67368-27.31549,37.89872-42.06461C454.64777,22.643,455.862,26.49181,479.99293,12.57481c2.832-1.62842,5.37-3.15557,11.74087-7.51022C499.69225,6.01264,508.2767,7.06059,517.13277,8.20222Z"/><path class="a" d="M613.66158,24.41965c-4.15938,6.03648-11.875,14.5411-26.289,23.51387-16.102,10.01776-19.22338,7.33434-31.24692,16.49139-5.76412,4.38289-7.17124,6.62262-21.65721,23.17782-8.6018,9.83883-15.50452,17.49641-21.24406,23.42508a26.04564,26.04564,0,0,0-5.43324-2.55542,25.50751,25.50751,0,0,0-13.7805-.86405A185.75478,185.75478,0,0,0,516.07185,89.508c14.83742-14.27564,13.56841-18.13427,27.75433-30.05044,14.97634-12.586,18.49474-10.05543,34.61947-21.62681a162.10523,162.10523,0,0,0,19.87526-16.98439C604.08888,22.03117,609.27065,23.22348,613.66158,24.41965Z"/></g></svg>