<svg xmlns="http://www.w3.org/2000/svg" viewBox="0 0 909.68155 282.58125"><defs><style>.a{fill:#ee6565;stroke:#ee6565;stroke-linejoin:round;stroke-width:5px;}.b{fill:#0e49a8;}.c{fill:#aa0c0c;}.d{fill:#7c0808;}.e{fill:#cf4431;}.f{fill:#931a11;}.g{fill:#ce6c65;}.h{fill:#fbb03b;}.i{fill:#f4b867;}</style></defs><path class="a" d="M3.07121,133.31331v9.37086A19.50472,19.50472,0,0,1,3.07121,133.31331Z"/><path class="a" d="M892.97237,128.42167v6.38763c-2.16462,9.814-13.9969,19.742-31.21553,28.98126-26.622,14.28-66.08177,26.91055-102.54659,34.8951-52.07258,11.4021-129.64613,27.20009-362.5057,20.61942-108.6637-3.071-171.68661-9.48493-221.53127-16.23231-32.96529-4.4661-110.21187-14.925-149.25679-36.64116-9.62893-5.35667-16.92915-11.39334-20.66776-18.19773a22.13137,22.13137,0,0,1-2.17752-5.54971v-9.37086a24.5328,24.5328,0,0,1,1.98884-5.37421c8.43354-16.90794,36.85448-32.29352,69.4172-42.0022,70.28564-20.94845,169.15692-18.23283,258.03358-15.7936,64.59628,1.77239,81.50085,5.85678,159.85495,6.58067,80.38043.74142,93.97476-3.2684,143.49184-2.63227,88.63758,1.13186,231.2991,16.35514,254.25747,48.25823a17.08634,17.08634,0,0,1,2.73128,5.58917C892.89677,128.097,892.93426,128.25935,892.97237,128.42167Z"/><path class="a" d="M892.97237,194.03531v-6.38764A14.21424,14.21424,0,0,1,892.97237,194.03531Z"/><path class="a" d="M892.97237,134.8093v59.226c-5.513,24.98021-73.70957,50.7238-133.76212,63.87635-52.07258,11.4021-129.64613,27.20009-362.5057,20.61942-108.6637-3.071-171.68661-9.48493-221.53127-16.23231C134.07684,256.73155,24.16673,241.8504,5.24873,207.45988a22.13145,22.13145,0,0,1-2.17752-5.5497v-59.226a22.13137,22.13137,0,0,0,2.17752,5.54971c3.73861,6.80439,11.03883,12.84106,20.66776,18.19773,39.04492,21.7162,116.2915,32.17506,149.25679,36.64116,49.84466,6.74738,112.86757,13.16134,221.53127,16.23231,232.85957,6.58067,310.43312-9.21732,362.5057-20.61942,36.46482-7.98455,75.92459-20.61506,102.54659-34.8951C878.97547,154.55131,890.80775,144.62327,892.97237,134.8093Z"/><path class="a" d="M892.97237,127.9391v.48257c-.03811-.16232-.0756-.32464-.126-.48257Z"/><path class="a" d="M16.91691,67.31482v9.37086A19.50484,19.50484,0,0,1,16.91691,67.31482Z"/><path class="a" d="M906.81807,62.42318v6.38763c-2.16462,9.814-13.99689,19.742-31.21552,28.98126-26.622,14.28-66.08177,26.91055-102.54659,34.8951-52.07258,11.4021-129.64614,27.20009-362.50571,20.61942-108.6637-3.071-171.68661-9.48493-221.53126-16.23231-32.96529-4.4661-110.21188-14.925-149.25679-36.64116-9.62894-5.35667-16.92915-11.39334-20.66776-18.19773a22.13194,22.13194,0,0,1-2.17753-5.54971V67.31482a24.53265,24.53265,0,0,1,1.98885-5.37421c8.43353-16.90795,36.85447-32.29352,69.4172-42.0022C158.60859-1.01,257.47987,1.70558,346.35653,4.14481c64.59628,1.77238,81.50085,5.85678,159.85495,6.58067,80.38043.74142,93.97477-3.26841,143.49184-2.63227C738.3409,9.22506,881.00242,24.44835,903.9608,56.35143a17.08687,17.08687,0,0,1,2.73128,5.58918C906.74248,62.09854,906.78,62.26086,906.81807,62.42318Z"/><path class="a" d="M906.81807,128.03681v-6.38763A14.21405,14.21405,0,0,1,906.81807,128.03681Z"/><path class="a" d="M906.81807,68.81081v59.226c-5.513,24.98022-73.70957,50.72381-133.76211,63.87636-52.07258,11.4021-129.64614,27.20009-362.50571,20.61942-108.6637-3.071-171.68661-9.48493-221.53126-16.23231-41.09645-5.56722-151.00656-20.44837-169.92455-54.83889a22.13179,22.13179,0,0,1-2.17753-5.54971v-59.226a22.13194,22.13194,0,0,0,2.17753,5.54971c3.73861,6.80439,11.03882,12.84106,20.66776,18.19773,39.04491,21.7162,116.2915,32.17506,149.25679,36.64116,49.84465,6.74738,112.86756,13.16133,221.53126,16.23231,232.85957,6.58067,310.43313-9.21732,362.50571-20.61942,36.46482-7.98455,75.92458-20.61506,102.54659-34.8951C892.82118,88.55281,904.65345,78.62478,906.81807,68.81081Z"/><path class="a" d="M906.81807,61.94061v.48257c-.0381-.16232-.07559-.32464-.126-.48257Z"/><path class="b" d="M15.63586,133.81522v8.78128A17.63741,17.63741,0,0,1,15.63586,133.81522Z"/><path class="c" d="M880.787,129.23135v5.98574c-2.10441,9.1965-13.60761,18.49989-30.34735,27.15784-25.88159,13.38159-64.2439,25.21743-99.69456,32.69961-50.62433,10.68472-126.0404,25.48875-352.42366,19.32212-105.64154-2.87776-166.91165-8.88817-215.37-15.211C150.903,195.00052,75.80476,185.1997,37.84577,164.84982c-9.36113-5.01965-16.45831-10.67651-20.09294-17.05279a20.29944,20.29944,0,0,1-2.117-5.20053v-8.78128a22.46859,22.46859,0,0,1,1.93353-5.03608C25.76837,112.935,53.39887,98.51743,85.056,89.41959c68.33084-19.63045,164.4523-17.08568,250.85712-14.79992,62.79972,1.66087,79.23414,5.48829,155.40905,6.16663,78.14488.69478,91.36113-3.06276,139.501-2.46665,86.17239,1.06064,224.86619,15.32612,247.18605,45.222a15.77807,15.77807,0,0,1,2.65532,5.23753C880.71352,128.92713,880.75,129.07924,880.787,129.23135Z"/><path class="b" d="M880.787,190.71678V184.731A12.85141,12.85141,0,0,1,880.787,190.71678Z"/><path class="d" d="M880.787,135.21709v55.49969c-5.35963,23.40853-71.65955,47.53242-130.04191,59.85745-50.62433,10.68471-126.0404,25.48874-352.42366,19.32211-105.64154-2.87776-166.91165-8.88817-215.37-15.211-39.95347-5.21695-146.80675-19.16183-165.19859-51.3886a20.29935,20.29935,0,0,1-2.117-5.20054V142.5965a20.29944,20.29944,0,0,0,2.117,5.20053c3.63463,6.37628,10.73181,12.03314,20.09294,17.05279,37.959,20.34988,113.05719,30.1507,145.10565,34.33581,48.45837,6.32286,109.72848,12.33327,215.37,15.211,226.38326,6.16663,301.79933-8.6374,352.42366-19.32212,35.45066-7.48218,73.813-19.318,99.69456-32.69961C867.1794,153.717,878.6826,144.41359,880.787,135.21709Z"/><path class="b" d="M880.787,128.77914v.45221c-.037-.15211-.07349-.30422-.12248-.45221Z"/><path class="e" d="M94.47377,109.43782c15.8418-6.26807,31.76709-12.48609,48.19873-17.22656,8.20215-2.40284,16.51416-4.43921,24.88867-6.187q12.57276-2.57849,25.31543-4.29248c17.01465-2.27417,34.32666-2.40991,51.394-1.87231,17.085.53955,34.09229,1.2478,51.10791,1.72925,17.01124.53344,34.02051.87573,51.03272,1.16626,8.50488.15429,17.01025.31079,25.51709.40014l25.519.32984q51.04029.5907,102.11035.74072l51.08936.208c17.02783.07007,34.0581-.07715,51.16064.06958,17.10352.14819,34.21875.79248,51.24024,1.65039,17.03613.81152,34.09619,1.614,51.13574,2.9729,8.51953.67114,17.03272,1.4729,25.52881,2.46387q12.74268,1.50183,25.417,3.5874c8.45361,1.39966,16.834,3.14526,25.17822,4.90063,8.35108,1.803,16.71192,3.65357,25.0044,5.91724,8.28027,2.29858,16.54492,4.856,24.46094,8.804a48.49663,48.49663,0,0,1,5.80908,3.39307,25.33807,25.33807,0,0,1,5.29541,4.70191,11.91978,11.91978,0,0,1,.93213,14.92334,25.61866,25.61866,0,0,1-4.74561,5.36572,48.4763,48.4763,0,0,1-5.4126,4.09106,101.80375,101.80375,0,0,1-11.4917,6.45386,246.08131,246.08131,0,0,1-23.96142,9.87012c-8.09131,2.91479-16.249,5.56787-24.42236,8.11059-8.18506,2.53028-16.31592,4.99439-24.604,7.3562-16.53369,4.67652-33.27881,8.54932-50.12158,11.82373-16.8374,3.31324-33.7915,5.93287-50.76318,8.22706-8.48243,1.18481-16.9961,2.05175-25.498,3.05249l-12.75977,1.44287-12.7832,1.18042c-34.085,3.20825-68.27881,5.14917-102.49121,6.01513-34.21338.90821-68.44775.53711-102.63184-.82519q-51.2688-2.11011-102.34326-7.25171c-8.5-.86353-16.97217-1.82691-25.45849-2.74487-8.47754-1.01172-16.95459-1.9917-25.42774-3.065q-25.42675-3.09411-50.77392-7.0559c-16.89307-2.64844-33.75977-5.6106-50.50782-9.30689-8.37207-1.84424-16.71533-3.88354-24.95654-6.34057-4.12256-1.21363-8.22949-2.4939-12.28809-3.92823-4.05908-1.40454-8.04882-2.88769-12.05615-4.42773-3.99805-1.54419-7.97217-3.1731-11.88623-4.95825a114.15712,114.15712,0,0,1-11.50879-5.91358,43.22135,43.22135,0,0,1-10.29394-8.1145,15.45719,15.45719,0,0,1-3.3584-5.927,10.19087,10.19087,0,0,1,.585-6.89893A16.15429,16.15429,0,0,1,53.985,128.742a36.12331,36.12331,0,0,1,5.2915-3.83765,100.70246,100.70246,0,0,1,11.48291-5.83154C78.57973,115.60457,86.54018,112.54793,94.47377,109.43782Zm.47656,1.20947c-7.90869,3.16553-15.855,6.2522-23.582,9.77222a99.26355,99.26355,0,0,0-11.208,5.904,34.48381,34.48381,0,0,0-4.9873,3.729,14.0293,14.0293,0,0,0-3.57715,4.76124,8.03762,8.03762,0,0,0-.66113,2.77465,8.62333,8.62333,0,0,0,.02246,1.41577,12.52941,12.52941,0,0,0,.291,1.39332A13.3746,13.3746,0,0,0,54.27846,145.41a39.66093,39.66093,0,0,0,9.93408,7.33984,143.31567,143.31567,0,0,0,23.3081,9.77686c4.00831,1.35034,8.06836,2.66821,12.11866,3.8811q6.05272,1.84863,12.21826,3.33472c8.21142,1.99707,16.5332,3.585,24.89111,4.98144,16.71289,2.81641,33.59033,4.79736,50.49121,6.57446,33.80811,3.52588,67.76172,6.11963,101.68213,8.88868q25.41577,2.04015,50.8335,3.56372l12.71728.70385,12.72071.617c8.479.45019,16.96582.709,25.44921,1.03613q50.907,1.82264,101.8462,1.11914l25.4541-.56543c8.48388-.23047,16.95849-.65381,25.43945-.9707l6.35986-.25977,6.353-.36572,12.70654-.731c8.478-.41528,16.93116-1.12744,25.39014-1.78467l12.68945-.98754,12.6626-1.24854c8.43653-.87305,16.89307-1.61523,25.31348-2.61865,16.85058-1.9292,33.625-4.32129,50.33008-7.07178q12.52734-2.07678,24.95752-4.63183c8.28955-1.68116,16.55859-3.47168,24.76513-5.50391,8.1792-2.03,16.44336-4.22681,24.62354-6.45166,8.18408-2.24121,16.32519-4.58423,24.36426-7.17261a239.61136,239.61136,0,0,0,23.60546-8.81372,93.68173,93.68173,0,0,0,10.97852-5.69653,42.83068,42.83068,0,0,0,4.874-3.478,20.21862,20.21862,0,0,0,3.82666-4.05713,7.46449,7.46449,0,0,0,1.45264-4.363,7.717,7.717,0,0,0-1.80127-4.33032,20.40445,20.40445,0,0,0-4.147-3.84839,41.358,41.358,0,0,0-5.14356-3.17407c-7.28906-3.79907-15.34765-6.47461-23.43115-8.85766-8.11035-2.3711-16.36572-4.35352-24.66992-6.1565-8.32227-1.79956-16.62158-3.5769-24.97607-5.00854a479.84059,479.84059,0,0,0-50.585-5.77c-16.958-1.12305-33.97119-1.54663-51.001-1.82715-17.04444-.26441-34.01514-.38867-50.998.19385-16.981.541-34.02441,1.36059-51.07861,1.96411-8.52588.334-17.05567.54687-25.58448.79541-8.52.22-17.04687.48413-25.57568.63305-68.22705,1.38477-136.59619.175-204.71-5.21-17.02344-1.29931-34.023-2.939-50.97021-4.31518-8.47364-.67945-16.92872-1.23023-25.38184-1.40161a243.84071,243.84071,0,0,0-25.34277.90478,291.1041,291.1041,0,0,0-50.09082,8.85669c-8.208,2.20117-16.30469,4.81738-24.32422,7.65942C110.81117,104.4261,102.88393,107.53816,94.95033,110.64729Z"/><path class="f" d="M308.7104,122.407c8.56227-.44965,19.69979-1.86808,19.57909-3.28887-.19717-2.32032-30.13882-1.31613-36.71079-6.16663-5.41879-3.99935,5.99657-11.2803,22.02648-13.56659,8.42364-1.20141,12.59722-.23572,50.17142,1.23332,16.1512.63147,24.2271.94721,29.36864.82222,23.1964-.56384,25.31993-3.76193,46.50034-4.11109,6.5911-.10864,16.631.47573,36.7108,1.64444,19.74879,1.14944,17.82422,1.39208,25.69756,1.64443,22.27265.7139,26.4552-1.58722,48.94773-1.23332,13.62853.21444,29.37581.46219,36.7108,4.11109,7.49871,3.73046,1.89051,8.8694,1.22369,9.4555-9.67183,8.49922-43.06348,10.0288-41.60557,12.33326,1.115,1.76252,21.812,2.70761,42.82927,1.23333,28.72273-2.01477,30.93291-6.64632,61.18466-9.04439,4.80395-.3808,39.08888-3.09863,51.39512,2.05554,3.57369,1.49677,1.7967,2.19267,6.11847,4.11109,10.56391,4.68936,27.29887,3.24634,30.59233,6.16663,3.38906,3.00475-13.1308,5.5935-11.01324,9.86661,1.87677,3.78672,15.90263,3.87818,19.57909,7.4,5.18158,4.96356-13.58909,13.48863-36.7108,17.26657-13.78447,2.25229-28.96173,2.79242-93.00069-1.64444-32.17333-2.22908-86.694-6.40824-86.88222-6.16663-.18821.24131,56.14649,1.90783,64.85574,11.09994,5.09913,5.3817-6.14774,13.321-22.02647,15.211-21.03582,2.50382-39.57764-6.87367-62.40836-3.7-9.03131,1.25544-7.41088,2.90087-22.02648,5.75553a167.20615,167.20615,0,0,1-35.48711,3.7,191.38341,191.38341,0,0,1-41.60557-5.75553c0,.00033-30.31091,3.21059-57.51358.82222-8.34956-.73309-26.42652-2.32022-30.59234-6.57774-5.30227-5.41914,17.39163-9.58465,12.23694-14.79992-4.24469-4.29441-24.43025-6.32441-39.15819-6.16663-16.73376.17928-22.28938,3.13859-37.93449,5.34442-35.8247,5.05088-88.11309,1.01349-101.56654-8.22218-5.41939-3.72045-3.85631-7.81732-2.44739-11.511,2.15282-5.64255,8.91659-9.94351,15.908-14.3888a63.791,63.791,0,0,1,12.23694-6.57774,96.76818,96.76818,0,0,1,29.36864-7.4c16.95125-1.33212,26.34047,3.10534,70.97421,8.22217A146.96907,146.96907,0,0,0,308.7104,122.407Z"/><path class="e" d="M367.21593,132.27356c8.79058-2.72982,5.38347-10.00765-5.143-13.56659-16.20688-5.47958-46.773-1.29222-55.28736-6.16663-4.266-2.44221-1.77293-6.45893,5.143-8.63328,15.95576-5.01644,42.352,3.89318,86.14543.82221,23.91952-1.67735,31.61708-5.42729,54.00161-4.52219,14.97952.60569,17.45559,2.52459,32.14381,4.11108,42.53531,4.59429,77.43081-5.48613,87.43118-1.64443,8.62107,3.31185-10.51894,13.41287-24.4293,18.911-19.64351,7.7643-37.98621,9.95742-36.00107,11.511,3.20119,2.50557,56.28432,1.01068,108.00322-5.75552,24.74257-3.237,52.04912-8.0567,65.57338-4.5222,5.29745,1.38453,4.05062,2.89329,11.57177,4.9333,14.02274,3.80351,30.45187,1.8391,33.42957,4.11109,3.45044,2.63276-18.04448,5.70246-16.71478,10.27772,1.34853,4.64144,24.62392,5.45337,25.71505,9.0444,1.34351,4.42215-31.22408,12.16871-68.14489,12.74437-25.53424.39811-44.42313-2.76974-140.147-15.211-8.48484-1.10279-24.58688-3.12509-33.42957-.82221-6.04706,1.57472-8.32224,5.07377-5.143,7.81106,5.8292,5.0187,26.491,4.45992,61.71612,11.09994,14.54633,2.742,28.2106,5.31774,27.00081,7.81107-1.378,2.84-21.89484,5.245-39.85833,4.52219-20.01518-.8053-28.14844-5.143-38.57258-3.7-8.186,1.13316-5.1336,4.07988-14.14328,6.98885-14.47288,4.67273-46.51248,4.8708-60.43037.41111-9.19489-2.94616-6.21092-6.55681-14.14328-7.4-8.64367-.91874-14.0083,3.17486-30.85806,4.5222-14.07862,1.12578-34.27963.18262-42.42984-4.11109-5.1022-2.688-3.53456-5.75923-2.57151-7.4,7.70071-13.11982,65.97581-18.23514,63.00188-20.96654-2.57025-2.36024-46.53068.43211-59.14462,1.23332-58.48165,3.71471-68.55673,7.06859-101.57445,6.98885-36.60252-.0884-69.93917-4.32048-70.7164-8.22217-.38987-1.95794,7.62223-2.813,9.00027-6.57774,1.36737-3.73531-5.87817-4.64533-3.85726-7.4,2.57841-3.5138,15.28589-3.2836,25.71505-8.22218,6.54554-3.09952,4.16677-4.43407,7.71452-5.75552C227.79151,112.07671,342.95551,139.80754,367.21593,132.27356Z"/><path class="g" d="M374.178,113.56811c-4.90015,5.885,49.01824,10.15,44.053,16.03324-5.13915,6.08945-77.29463,11.271-132.15887,4.93331-9.16814-1.05906-26.34406-3.42058-35.48711-.82222-6.9245,1.96787-9.54935,6.86818-3.67108,9.86661,16.13268,8.229,103.03163,5.561,154.18536-3.7,5.45045-.98674,15.75385-3.00041,22.02647-1.64443,9.90069,2.14033,8.11355,12.32-7.34216,18.49989-14.09517,5.636-35.02941,6.13429-34.26341,8.22218.50908,1.38714,10.08472,2.08141,24.47387,2.87776,43.66637,2.4167,65.49985,3.625,72.1979,1.23333,13.28257-4.74278-28.89481-17.14676-15.908-24.25542,5.91113-3.2356,19.57192-3.67644,33.03972-4.11109,32.337-1.04358,62.10721,3.33083,91.777,7.81107,22.85342,3.451,30.96457,5.471,44.053,4.5222,14.36406-1.04128,29.4977-5.27948,29.36864-9.86662-.15475-5.5042-22.23142-9.63435-39.15818-10.68882-22.58575-1.407-30.90662,2.97958-63.63205,5.34441-27.223,1.96722-71.45819,2.54434-79.54007-3.28887-6.11667-4.4149,29.03583-9.862,24.47387-16.44435-.52939-.76411-1.45521-7.618-29.36864-7.4C420.67834,111.10146,378.79373,108.02411,374.178,113.56811Z"/><path class="h" d="M349.04522,105.80447A80.51374,80.51374,0,0,1,357.3,107.3789c.39827.10331,7.25731,1.91,5.2658,2.81818a2.41939,2.41939,0,0,1-.29222.10721c-1.22623.37075-3.71278.34828-19.52449.04218-12.68271-.24561-14.33455-.29427-16.10361-.648-5.48736-1.09763-5.0489-3.71834.81134-4.67991C332.71436,104.15554,341.66769,104.73857,349.04522,105.80447Z"/><path class="i" d="M349.04522,105.80447A80.51374,80.51374,0,0,1,357.3,107.3789c.39827.10331,7.25731,1.91,5.2658,2.81818-1.57651-.15592-3.48085-.35682-5.74325-.555-12.99427-1.13814-18.75512-.51411-22.88432-1.66107-2.18033-.60589-3.28677-1.5337-1.513-2.06,2.19239-.65029,8.03956-.4677,11.56889-.35782C345.6469,105.61473,347.3483,105.695,349.04522,105.80447Z"/><path class="h" d="M402.58575,103.55274a15.52432,15.52432,0,0,1,4.37538,2.14481c.15663.12837,2.799,2.3642-.82252,3.01884-.14952.02706-.31031.051-.47953.07236-1.85452.23162-4.07258-.00331-17.85188-1.64574-11.05231-1.31749-12.4586-1.50425-13.36372-1.97877-2.80689-1.4722,2.81327-3.81931,10.062-4.18888A50.98256,50.98256,0,0,1,402.58575,103.55274Z"/><path class="i" d="M402.58575,103.55274a15.52432,15.52432,0,0,1,4.37538,2.14481c.15663.12837,2.799,2.3642-.82252,3.01884-1.124-.27788-2.45679-.625-4.12079-1.00048-9.55769-2.15658-16.04345-2.08562-17.51611-3.48555-.77707-.73945.06447-1.67922,2.72722-2.00517,3.29069-.40267,8.248.26784,11.2409.67227C399.87118,103.087,401.25963,103.30674,402.58575,103.55274Z"/><path class="h" d="M457.94679,104.70015a10.94312,10.94312,0,0,1-3.71313,2.19821,32.91966,32.91966,0,0,1-10.3842,2.11519q-.29717-.00145-.58865-.01377c-2.12034-.0889-2.99835-.57348-7.8604-3.71906-3.89949-2.52312-4.33373-2.8583-3.46576-3.33581,2.6938-1.48132,14.44741-2.4275,21.00006-1.68419C458.81481,100.92746,459.75742,102.86966,457.94679,104.70015Z"/><path class="i" d="M457.94679,104.70015a10.94312,10.94312,0,0,1-3.71313,2.19821,32.91966,32.91966,0,0,1-10.3842,2.11519,5.691,5.691,0,0,0,.19532-1.317c-.07775-2.93354-5.09967-3.7905-1.65409-5.03135a26.17033,26.17033,0,0,1,8.50874-1.09915c3.73544.16388,5.22677,1.35438,6.12836,2.07284A3.29285,3.29285,0,0,1,457.94679,104.70015Z"/><path class="h" d="M503.35881,107.57752c-3.14385.47311-6.60041.85895-9.87334,1.0993-.60036.044-11.065.79232-14.52354.10057-.14295-.02855-.27182-.05973-.38941-.09287-1.27515-.36354-.34977-.84429,6.27462-3.84732,5.31389-2.40873,6.08156-2.71693,8.27161-2.94711,6.7947-.71386,18.53373.24012,20.95347,1.70913C516.24447,104.91726,510.63556,106.482,503.35881,107.57752Z"/><path class="i" d="M503.35881,107.57752c-3.14385.47311-6.60041.85895-9.87334,1.0993-.60036.044-11.065.79232-14.52354.10057,1.22916-.25788,2.77085-.56524,4.41882-.9438,9.46444-2.17432,8.54247-3.512,15.11106-3.94291,3.4696-.22742,8.04337-.1374,9.84259.38516,2.22285.6458-.54152,1.73334-2.20862,2.38988A29.12421,29.12421,0,0,1,503.35881,107.57752Z"/><path class="h" d="M538.6,111.3971c-3.83889.117-7.76117.12663-11.19733.02487-.63007-.01876-11.5718-.362-13.10142-1.30806a.49619.49619,0,0,1-.13891-.11982c-.32289-.445,1.56589-.78228,14.11256-2.80775,10.06409-1.62458,11.42961-1.824,13.883-1.81741,7.61106.02071,15.90021,1.996,14.78157,3.53132C555.93681,110.27793,547.48641,111.1258,538.6,111.3971Z"/><path class="i" d="M538.6,111.3971c-3.83889.117-7.76117.12663-11.19733.02487-.63007-.01876-11.5718-.362-13.10142-1.30806,1.66292-.11042,3.71289-.23463,6.0153-.41175,13.2235-1.01743,15.37845-2.29228,22.1602-2.0424,3.58183.13214,7.43733.652,7.87154,1.28843.536.78648-4.33171,1.48485-7.26878,1.90662C541.70371,111.05224,540.19822,111.23566,538.6,111.3971Z"/><path class="h" d="M189.01315,153.37905c2.36466-.55853,5.00923-1.04624,7.55491-1.39044.467-.063,8.613-1.14462,11.61787-.6186.12419.0217.23795.04638.34331.07333,1.144.296.5616.78168-3.75327,3.84593-3.46133,2.45785-3.97461,2.7755-5.655,3.07106-5.21338.91675-14.94839.44277-17.37852-.852C179.56116,156.34671,183.54006,154.67221,189.01315,153.37905Z"/><path class="i" d="M189.01315,153.37905c2.36466-.55853,5.00923-1.04624,7.55491-1.39044.467-.063,8.613-1.14462,11.61787-.6186-.90024.287-2.03475.63175-3.23083,1.04735-6.86908,2.38706-5.68422,3.61232-10.81039,4.25467a27.84568,27.84568,0,0,1-8.0243-.00725c-1.99819-.52737-.14246-1.65026.97644-2.32809A15.10334,15.10334,0,0,1,189.01315,153.37905Z"/><path class="h" d="M175.39113,143.3388c2.99831-.28715,6.12087-.47821,8.91561-.54312.51252-.01181,9.42212-.20066,11.1503.60841a.89181.89181,0,0,1,.17516.105c.49663.399-.82829.80043-9.74477,3.26726-7.15227,1.97862-8.134,2.22755-10.09391,2.33535-6.08034.33418-13.75178-1.11836-13.68485-2.59857C162.16781,145.185,168.45068,144.00385,175.39113,143.3388Z"/><path class="i" d="M175.39113,143.3388c2.99831-.28715,6.12087-.47821,8.91561-.54312.51252-.01181,9.42212-.20066,11.1503.60841-1.26671.17994-2.83465.39069-4.57546.66237-9.99792,1.56054-11.03123,2.84653-16.57342,2.929-2.92723.04342-6.281-.26112-6.96932-.833-.85007-.70673,2.65624-1.58243,4.77166-2.11117C173.10146,143.80373,174.20341,143.5632,175.39113,143.3388Z"/><path class="h" d="M187.11125,132.21014c2.80686.27095,5.43431.63993,7.49538,1.05546.37771.07628,6.89886,1.41553,5.84776,2.35512a.89048.89048,0,0,1-.16953.11373c-.758.40383-2.75016.5048-15.51428.99557-10.23826.39356-11.58152.42937-13.19746.188-5.01256-.74894-6.20435-3.2004-2.10565-4.37907C173.14449,131.48124,180.613,131.58323,187.11125,132.21014Z"/><path class="i" d="M187.11125,132.21014c2.80686.27095,5.43431.63993,7.49538,1.05546.37771.07628,6.89886,1.41553,5.84776,2.35512-1.34637-.06734-2.9801-.16033-4.89721-.23327-11.01095-.41875-15.229.44207-19.18964-.41913-2.09148-.455-3.51754-1.26106-2.41523-1.836,1.36256-.71036,6.12352-.82751,8.997-.89851C184.29506,132.20069,185.69635,132.19175,187.11125,132.21014Z"/><path class="h" d="M210.66458,124.11623a4.82218,4.82218,0,0,1,2.14241,2.10434c.04458.12458.75308,2.29327-2.53255,2.87109-.13567.02389-.27833.04462-.42613.06284-1.618.197-3.23459-.05614-13.16335-1.80321-7.96374-1.40142-8.96514-1.598-9.38915-2.06274-1.31448-1.44187,4.61287-3.60932,10.60371-3.86784C203.27491,121.18853,208.0163,122.5231,210.66458,124.11623Z"/><path class="i" d="M210.66458,124.11623a4.82218,4.82218,0,0,1,2.14241,2.10434c.04458.12458.75308,2.29327-2.53255,2.87109-.72037-.27989-1.56354-.62855-2.65228-1.00865-6.25368-2.183-11.45235-2.1996-11.75144-3.55513-.15736-.716,1.09634-1.60214,3.4154-1.87866a29.37648,29.37648,0,0,1,8.51519.78795C208.79709,123.63628,209.76376,123.86414,210.66458,124.11623Z"/><path class="h" d="M239.383,119.80637a5.26455,5.26455,0,0,1-2.14993,2.20575,17.59774,17.59774,0,0,1-7.52745,2.383q-.23871.01-.47693.00959c-1.73268-.00234-2.61838-.42369-7.69668-3.1908-4.073-2.21958-4.547-2.51763-4.03075-2.99914,1.60235-1.49372,10.66645-2.83162,16.19712-2.38446C238.66127,116.23131,240.14636,118.01861,239.383,119.80637Z"/><path class="i" d="M239.383,119.80637a5.26455,5.26455,0,0,1-2.14993,2.20575,17.59774,17.59774,0,0,1-7.52745,2.383,6.70581,6.70581,0,0,0-.33825-1.24389c-1.16441-2.75108-5.511-3.36349-3.21584-4.66022a15.15673,15.15673,0,0,1,6.40613-1.35739,9.57933,9.57933,0,0,1,5.69013,1.71158A5.08593,5.08593,0,0,1,239.383,119.80637Z"/><path class="h" d="M699.18547,126.69356a53.17113,53.17113,0,0,1-6.20665,1.38582c-.40549.06652-7.49591,1.21183-10.99312.86149-.14451-.01445-.28145-.0317-.41218-.05108-1.42269-.21338-1.30506-.63644.07572-3.32461,1.10788-2.1562,1.3168-2.43682,2.71032-2.73362,4.32374-.92059,14.48121-.81337,18.13826.19629C705.77994,123.93369,703.40931,125.45076,699.18547,126.69356Z"/><path class="i" d="M699.18547,126.69356a53.17113,53.17113,0,0,1-6.20665,1.38582c-.40549.06652-7.49591,1.21183-10.99312.86149.624-.26647,1.42638-.58819,2.22267-.9709,4.57283-2.19816,2.22353-3.18671,6.7219-3.87546a32.41348,32.41348,0,0,1,8.007-.232c2.4949.38134,1.71519,1.37456,1.24582,1.97407A4.05928,4.05928,0,0,1,699.18547,126.69356Z"/><path class="h" d="M721.9456,134.19248c-2.71553.32886-5.64652.58112-8.371.71826-.49971.02507-9.2024.44716-11.69664-.17755a2.867,2.867,0,0,1-.27474-.08254c-.87547-.31861.06277-.69332,6.60078-3.01886,5.24452-1.86531,5.986-2.10241,7.83723-2.25061,5.74343-.45958,14.77638.52642,16.1207,1.76512C733.3691,132.25771,728.23115,133.43094,721.9456,134.19248Z"/><path class="i" d="M721.9456,134.19248c-2.71553.32886-5.64652.58112-8.371.71826-.49971.02507-9.2024.44716-11.69664-.17755,1.09135-.18791,2.45366-.41051,3.93023-.68914,8.48014-1.60041,8.28442-2.70551,13.73126-2.93883,2.877-.12311,6.511.03184,7.74239.48923,1.52121.56525-1.13974,1.40091-2.74474,1.90543C723.78516,133.7361,722.91584,133.96976,721.9456,134.19248Z"/><path class="h" d="M728.28659,143.19941c-2.57163-.14194-5.07107-.37115-7.13253-.65625-.37788-.05235-6.91982-.97486-6.789-1.79112a.209.209,0,0,1,.05134-.10007c.31316-.36,1.904-.5042,12.22116-1.29755,8.27564-.63629,9.37405-.70655,10.92279-.55355,4.80434.47485,7.76382,2.48633,5.267,3.59381C740.58776,143.3885,734.23993,143.52772,728.28659,143.19941Z"/><path class="i" d="M728.28659,143.19941c-2.57163-.14194-5.07107-.37115-7.13253-.65625-.37788-.05235-6.91982-.97486-6.789-1.79112,1.18348.01579,2.62856.04437,4.29537.04768,9.57325.01888,12.42424-.82675,16.43572-.22654,2.1185.31713,3.95933.94746,3.494,1.46069-.57541.63419-4.47637.87506-6.83058,1.02069C730.657,143.12269,729.48843,143.17226,728.28659,143.19941Z"/><path class="h" d="M725.89222,151.90126a46.25845,46.25845,0,0,1-5.42664-1.48069c-.26713-.09465-4.873-1.74805-3.81377-2.48386a.92541.92541,0,0,1,.16048-.08587c.68876-.29316,2.23572-.23055,12.10435.3061,7.91573.43053,8.94993.50074,10.11608.83194,3.61727,1.02759,3.85392,3.244.405,3.95741C736.34354,153.58659,730.67595,152.935,725.89222,151.90126Z"/><path class="i" d="M725.89222,151.90126a46.25845,46.25845,0,0,1-5.42664-1.48069c-.26713-.09465-4.873-1.74805-3.81377-2.48386,1.00829.15993,2.2287.36377,3.6707.57158,8.28225,1.19343,11.735.76473,14.5193,1.8104,1.47023.55237,2.33672,1.35913,1.33844,1.77472-1.23389.51348-4.89677.25614-7.10762.10108C728.03728,152.12179,726.96619,152.02389,725.89222,151.90126Z"/><path class="h" d="M708.77406,157.46589a18.25316,18.25316,0,0,1-4.142-1.69461c-.1632-.10276-2.93693-1.89368-.212-2.47391.11249-.024.235-.04554.36494-.06515,1.42537-.21257,3.27834-.04905,14.84258,1.11608,9.27566.93463,10.46143,1.06916,11.32719,1.44488,2.685,1.16568-1.15828,3.15242-6.8846,3.54613A46.46691,46.46691,0,0,1,708.77406,157.46589Z"/><path class="i" d="M708.77406,157.46589a18.25316,18.25316,0,0,1-4.142-1.69461c-.1632-.10276-2.93693-1.89368-.212-2.47391.985.21247,2.158.47876,3.6058.764,8.3158,1.63836,13.51461,1.498,15.105,2.62168.83942.59353.43425,1.37111-1.61421,1.67093-2.53158.37042-6.71506-.11373-9.24063-.40572C711.09344,157.81149,709.91246,157.64978,708.77406,157.46589Z"/><path class="h" d="M680.06967,162.59608a1.59286,1.59286,0,0,1,.04076-1.90668c.08046-.107,1.54546-1.96562,5.23308-2.21428.1523-.01029.30813-.01746.46635-.02216,1.72969-.04944,3.01438.27632,10.71518,2.43758,6.17661,1.73362,6.93323,1.96858,6.87758,2.38619-.17358,1.29553-7.93495,2.68223-13.87519,2.4727C684.19721,165.56162,681.01282,164.11239,680.06967,162.59608Z"/><path class="i" d="M680.06967,162.59608a1.59286,1.59286,0,0,1,.04076-1.90668c.08046-.107,1.54546-1.96562,5.23308-2.21428.40781.28449.86437.635,1.523,1.02923,3.78343,2.264,8.70073,2.6467,7.64861,3.7982-.5563.60817-2.61946,1.25811-5.09283,1.32413a21.92724,21.92724,0,0,1-7.30457-1.26122A18.73354,18.73354,0,0,1,680.06967,162.59608Z"/><path class="h" d="M532.914,173.98079c-2.94162-.37911-5.61777-.8337-7.63243-1.29928-.36912-.08543-6.727-1.57969-4.92664-2.33755a2.29559,2.29559,0,0,1,.265-.08955c1.1145-.30991,3.39919-.29433,17.93247-.05948,11.65727.18844,13.17609.22685,14.81231.51889,5.07529.90614,4.75611,3.08657-.596,3.89372C547.967,175.33194,539.72448,174.85817,532.914,173.98079Z"/><path class="i" d="M532.914,173.98079c-2.94162-.37911-5.61777-.8337-7.63243-1.29928-.36912-.08543-6.727-1.57969-4.92664-2.33755,1.453.12772,3.20863.29245,5.293.45448,11.97191.93045,17.24353.40419,21.07288,1.353,2.022.50125,3.0679,1.27161,1.45539,1.7116-1.993.54365-7.36965.39908-10.615.31209C536.04153,174.13436,534.47618,174.06974,532.914,173.98079Z"/><path class="h" d="M502.88909,177.57489a10.8198,10.8198,0,0,1-3.45528-1.92389c-.11072-.11156-1.961-2.05178,1.50976-2.47028.1433-.0173.2961-.03161.456-.04356,1.75129-.12856,3.71717.14136,15.88388,1.96957,9.75884,1.46648,10.99574,1.6689,11.70278,2.0924,2.19242,1.31387-3.5284,3.065-10.23887,3.12409A45.48893,45.48893,0,0,1,502.88909,177.57489Z"/><path class="i" d="M502.88909,177.57489a10.8198,10.8198,0,0,1-3.45528-1.92389c-.11072-.11156-1.961-2.05178,1.50976-2.47028.95631.26822,2.08578.60082,3.51051.96822,8.18343,2.11,14.12233,2.272,15.11486,3.48069.52354.63839-.481,1.38746-2.99381,1.56658a49.09077,49.09077,0,0,1-10.0932-.939C505.25023,178.05276,504.03791,177.82361,502.88909,177.57489Z"/><path class="h" d="M473.54468,179.58672a1.13289,1.13289,0,0,1,.46218-1.45787,8.80592,8.80592,0,0,1,5.45759-1.16827c.14681.00753.29627.0178.44745.03021,1.65231.13714,2.799.51694,9.62638,2.95352,5.476,1.95441,6.1418,2.21115,5.99624,2.52573-.45247.97583-8.12538,1.25363-13.71563.49179C476.80268,182.27837,474.10285,180.84485,473.54468,179.58672Z"/><path class="i" d="M473.54468,179.58672a1.13289,1.13289,0,0,1,.46218-1.45787,8.80592,8.80592,0,0,1,5.45759-1.16827c.32379.25942.67916.57442,1.21659.94334,3.0873,2.11887,7.66839,2.91,6.41425,3.68646a10.97611,10.97611,0,0,1-5.12679.4999,23.08659,23.08659,0,0,1-6.65128-1.70633A17.49779,17.49779,0,0,1,473.54468,179.58672Z"/><path class="h" d="M437.81469,181.20211a9.83543,9.83543,0,0,1,3.34053-1.83309,32.24056,32.24056,0,0,1,9.47076-1.77237q.273.00084.54113.01072c1.95043.07129,2.77236.47327,7.33859,3.08365,3.66224,2.09384,4.07179,2.37209,3.28975,2.77037-2.4271,1.23551-13.193,2.03722-19.23547,1.42714C437.13767,184.34129,436.20994,182.727,437.81469,181.20211Z"/><path class="i" d="M437.81469,181.20211a9.83543,9.83543,0,0,1,3.34053-1.83309,32.24056,32.24056,0,0,1,9.47076-1.77237,4.253,4.253,0,0,0-.13742,1.09572c.16495,2.44,4.80506,3.14652,1.67975,4.183a26.03768,26.03768,0,0,1-7.78049.9249,9.30355,9.30355,0,0,1-5.69517-1.71651A2.99339,2.99339,0,0,1,437.81469,181.20211Z"/><path class="h" d="M400.74887,179.16426a49.66983,49.66983,0,0,1,5.58742-1.73519c.374-.09392,6.91979-1.72175,10.4887-1.78371.14746-.00258.28852-.00215.42427.00062,1.4782.03215,1.51985.38626,1.16173,2.69888-.28761,1.855-.38868,2.10284-1.6485,2.4808-3.909,1.17251-13.93627,2.08944-17.9075,1.63345C395.291,182.05013,397.05786,180.58774,400.74887,179.16426Z"/><path class="i" d="M400.74887,179.16426a49.66983,49.66983,0,0,1,5.58742-1.73519c.374-.09392,6.91979-1.72175,10.4887-1.78371-.51444.27737-1.1838.61711-1.82445,1.00562-3.67891,2.23136-1.00139,2.79948-5.16833,3.80157a36.60572,36.60572,0,0,1-7.78665.979c-2.59491-.06217-2.19756-.94327-1.959-1.475A2.36378,2.36378,0,0,1,400.74887,179.16426Z"/><path class="h" d="M367.86572,173.93221c2.87263-.39746,6.03529-.72272,9.03391-.92673.55-.03734,10.13822-.67288,13.33709-.10181.13222.02357.25158.04934.36065.07677,1.18285.30079.34819.70183-5.64076,3.208-4.80417,2.0102-5.49947,2.26752-7.50376,2.46172-6.21837.60228-17.03143-.17656-19.30087-1.39545C356.11468,176.16109,361.21674,174.85252,367.86572,173.93221Z"/><path class="i" d="M367.86572,173.93221c2.87263-.39746,6.03529-.72272,9.03391-.92673.55-.03734,10.13822-.67288,13.33709-.10181-1.12079.216-2.52708.47363-4.02873.79057-8.624,1.82041-7.73453,2.932-13.75423,3.29856a39.922,39.922,0,0,1-9.053-.30806c-2.06235-.53439.44214-1.44245,1.95248-1.99065C366.061,174.43741,366.903,174.1805,367.86572,173.93221Z"/><path class="h" d="M351.28192,168.74363c3.5224-.10215,7.12482-.115,10.28428-.03469.57934.01482,10.64059.28661,12.07575,1.07166a.46975.46975,0,0,1,.13142.09949c.31077.36976-1.41339.65265-12.87329,2.3531-9.19236,1.36389-10.44028,1.53148-12.694,1.52906-6.99164-.00771-14.66845-1.64034-13.6899-2.91884C335.39319,169.69622,343.1281,168.9804,351.28192,168.74363Z"/><path class="i" d="M351.28192,168.74363c3.5224-.10215,7.12482-.115,10.28428-.03469.57934.01482,10.64059.28661,12.07575,1.07166-1.52392.09392-3.40292.19981-5.51211.35-12.11373.86282-14.05247,1.92592-20.28967,1.72655-3.29423-.10544-6.8522-.533-7.27133-1.06187-.5174-.65351,3.93146-1.24049,6.61581-1.595C348.442,169.03436,349.819,168.87991,351.28192,168.74363Z"/><path class="b" d="M29.09649,71.96915v8.78127A17.63725,17.63725,0,0,1,29.09649,71.96915Z"/><path class="c" d="M894.24764,67.38527V73.371c-2.10442,9.1965-13.60761,18.49989-30.34735,27.15784-25.8816,13.38159-64.2439,25.21743-99.69456,32.69961-50.62433,10.68471-126.04041,25.48875-352.42367,19.32211-105.64153-2.87776-166.91164-8.88817-215.37-15.211-32.04846-4.18511-107.14666-13.98593-145.10565-34.33582C41.94527,97.9841,34.84808,92.32724,31.21345,85.951a20.29967,20.29967,0,0,1-2.117-5.20054V71.96915A22.46836,22.46836,0,0,1,31.03,66.93306c8.199-15.84415,35.82947-30.26171,67.48656-39.35955C166.84742,7.94307,262.96889,10.48783,349.37371,12.7736c62.79972,1.66087,79.23414,5.48829,155.409,6.16663,78.14489.69477,91.36114-3.06277,139.501-2.46665,86.17238,1.06064,224.86619,15.32612,247.186,45.222a15.77784,15.77784,0,0,1,2.65532,5.23752C894.17415,67.08106,894.21059,67.23316,894.24764,67.38527Z"/><path class="b" d="M894.24764,128.8707V122.885A12.85136,12.85136,0,0,1,894.24764,128.8707Z"/><path class="d" d="M894.24764,73.371V128.8707c-5.35963,23.40854-71.65955,47.53242-130.04191,59.85746-50.62433,10.68471-126.04041,25.48874-352.42367,19.32211-105.64153-2.87776-166.91164-8.88817-215.37-15.211-39.95347-5.21694-146.80675-19.16182-165.1986-51.38859a20.29982,20.29982,0,0,1-2.117-5.20054V80.75042a20.29967,20.29967,0,0,0,2.117,5.20054c3.63463,6.37628,10.73182,12.03314,20.09295,17.05278,37.959,20.34989,113.05719,30.15071,145.10565,34.33582,48.45837,6.32285,109.72848,12.33326,215.37,15.211,226.38326,6.16664,301.79934-8.6374,352.42367-19.32211,35.45066-7.48218,73.813-19.318,99.69456-32.69961C880.64,91.87091,892.14322,82.56752,894.24764,73.371Z"/><path class="b" d="M894.24764,66.93306v.45221c-.03705-.15211-.07349-.30421-.12249-.45221Z"/><path class="e" d="M108.026,47.82429c7.92089-3.14257,15.85058-6.2771,23.86669-9.19409,8.00782-2.93994,16.13233-5.5664,24.33057-7.9458A326.57713,326.57713,0,0,1,206.40687,20.523a251.12154,251.12154,0,0,1,25.61475-1.78418c8.56348-.17627,17.12207.03247,25.65088.36744,17.05811.70044,34.064,1.58813,51.08154,2.22656,68.05664,2.59424,136.15528,3.17114,204.28125,3.13891,17.03418-.01587,34.07471-.00805,51.10254-.11377,17.03272-.05835,34.06543-.33276,51.145-.34106,17.08008-.02368,34.16846.55615,51.19336,1.31152,17.03613.6897,34.08691,1.42945,51.11035,2.74976,8.51172.64477,17.01953,1.39722,25.50244,2.405q12.72364,1.5044,25.37354,3.59863c8.43457,1.406,16.7998,3.15772,25.13965,4.92139,8.34179,1.803,16.68213,3.679,24.93994,5.96338,8.24219,2.31469,16.46777,4.89477,24.26318,8.81421a47.41466,47.41466,0,0,1,5.6836,3.34668A24.44209,24.44209,0,0,1,853.57,61.66243a11.97172,11.97172,0,0,1,2.854,6.69824,11.80456,11.80456,0,0,1-2.02294,7.04761,24.55266,24.55266,0,0,1-4.56934,5.124,47.34842,47.34842,0,0,1-5.30859,3.9812,99.46036,99.46036,0,0,1-11.40235,6.301,244.54153,244.54153,0,0,1-23.90429,9.64282c-8.08106,2.852-16.23584,5.44556-24.41065,7.93018-8.18457,2.47168-16.34082,4.88427-24.60791,7.18237-16.51416,4.54614-33.231,8.31323-50.04541,11.499-16.812,3.20508-33.731,5.781-50.67969,8.00488-8.47021,1.15137-16.97314,1.99-25.46338,2.96216l-12.74121,1.39991-12.76562,1.13769q-51.05714,4.61243-102.33838,5.76538l-25.62354.40186-25.626-.052-25.62061-.42261-12.80615-.36524c-4.269-.123-8.53857-.22241-12.80371-.43872-34.1294-1.437-68.24072-3.61938-102.22168-7.01367l-25.458-2.59058c-8.478-.95-16.957-1.86718-25.43017-2.87817q-25.42677-2.922-50.7754-6.634c-16.89355-2.48267-33.76709-5.22388-50.50781-8.75611-8.36914-1.758-16.70849-3.71045-24.94385-6.0791-8.25927-2.31567-16.3496-5.14111-24.34277-8.13672-4.001-1.50854-7.97607-3.10107-11.88965-4.84838a113.20138,113.20138,0,0,1-11.49609-5.80054,42.09264,42.09264,0,0,1-10.2334-7.96363,15.05771,15.05771,0,0,1-3.29248-5.76171,9.81779,9.81779,0,0,1,.54688-6.6521,15.869,15.869,0,0,1,4.03271-5.20118,35.84759,35.84759,0,0,1,5.229-3.82446,100.4145,100.4145,0,0,1,11.42383-5.8623C92.12953,53.98225,100.09389,50.9366,108.026,47.82429Zm.29345.74439c-7.91064,3.16333-15.85254,6.261-23.5957,9.77221a99.513,99.513,0,0,0-11.2666,5.873,34.82884,34.82884,0,0,0-5.05078,3.74194,14.34948,14.34948,0,0,0-3.68067,4.86719,8.39048,8.39048,0,0,0-.70068,2.89087,8.94705,8.94705,0,0,0,.01758,1.48242A12.90943,12.90943,0,0,0,64.34,78.65364a13.75257,13.75257,0,0,0,3.09668,5.178A40.69421,40.69421,0,0,0,77.4308,91.3221a144.6282,144.6282,0,0,0,23.31787,9.99975c8.04,2.77442,16.12256,5.375,24.33838,7.43506,8.21729,2.08569,16.543,3.76025,24.90332,5.24292,16.7207,2.98047,33.59131,5.18237,50.49121,7.12524,33.811,3.82813,67.75586,6.69434,101.6792,9.65137q25.437,2.10315,50.88721,3.7273l12.73242.74829,12.73828.63257c8.49024.45507,16.98926.719,25.48486,1.051l25.49317.77905,25.50049.44507,25.50293.07642,25.50048-.23316q50.99562-.82068,101.85645-4.92675l12.707-1.03028,12.68067-1.29175c8.44873-.90185,16.91552-1.67211,25.34814-2.709q25.311-2.99891,50.41357-7.29394,12.54786-2.1482,25-4.77613c8.30225-1.73852,16.58155-3.59155,24.79932-5.68432,8.2002-2.09375,16.43848-4.3418,24.61963-6.62549,8.18213-2.29907,16.32617-4.70191,24.37549-7.353a240.526,240.526,0,0,0,23.6626-9.04077,95.66552,95.66552,0,0,0,11.06835-5.84937,43.80264,43.80264,0,0,0,4.978-3.58813,21.15741,21.15741,0,0,0,4.00244-4.29859,8.44477,8.44477,0,0,0,1.5918-4.98461,8.73024,8.73024,0,0,0-2.041-4.88623,21.38464,21.38464,0,0,0-4.36181-4.01563,42.55968,42.55968,0,0,0-5.26807-3.22046c-7.40967-3.82788-15.50781-6.48047-23.62939-8.84741-8.14551-2.35059-16.4209-4.30762-24.73389-6.1106-8.32666-1.791-16.6416-3.56225-25.01562-4.98755A508.50271,508.50271,0,0,0,717.4,30.66536c-8.48535-.60645-16.98731-.98267-25.49268-1.30469-8.50683-.30859-17.01709-.5752-25.53418-.74561-17.04052-.36694-34.03857-.55566-51.04394-.14477-17.00488.3855-34.0459,1.07812-51.09473,1.55322q-25.5791.72034-51.147,1.10669c-68.20313,1.03565-136.50537-.03857-204.60742-4.708-17.02246-1.14209-34.02344-2.60278-50.99658-3.81811-8.48682-.59741-16.9668-1.06665-25.44629-1.15528a245.52691,245.52691,0,0,0-25.40723,1.114,302.91138,302.91138,0,0,0-50.11084,9.17505C140.08949,36.1988,124.18031,42.35383,108.31947,48.56868Z"/><path class="f" d="M322.171,60.56088c8.56227-.44965,19.69979-1.86808,19.57909-3.28887-.19718-2.32032-30.13882-1.31613-36.7108-6.16663-5.41878-3.99936,5.99658-11.2803,22.02648-13.56659,8.42365-1.20141,12.59723-.23572,50.17143,1.23332,16.15119.63147,24.22709.9472,29.36864.82222,23.19639-.56385,25.31993-3.76193,46.50034-4.11109,6.59109-.10865,16.631.47572,36.7108,1.64444,19.74878,1.14944,17.82421,1.39208,25.69756,1.64443,22.27265.7139,26.4552-1.58722,48.94773-1.23332,13.62852.21443,29.37581.46219,36.7108,4.11108,7.4987,3.73047,1.89051,8.8694,1.22369,9.45551-9.67184,8.49921-43.06349,10.0288-41.60557,12.33326,1.115,1.76252,21.812,2.70761,42.82926,1.23333,28.72274-2.01477,30.93292-6.64632,61.18467-9.0444,4.80395-.3808,39.08887-3.09862,51.39512,2.05555,3.57368,1.49676,1.7967,2.19267,6.11846,4.11108,10.56392,4.68936,27.29888,3.24634,30.59234,6.16664,3.389,3.00475-13.13081,5.5935-11.01324,9.86661,1.87676,3.78672,15.90263,3.87818,19.57909,7.4,5.18157,4.96357-13.58909,13.48863-36.7108,17.26657-13.78447,2.25229-28.96174,2.79243-93.00069-1.64443-32.17333-2.22908-86.694-6.40825-86.88222-6.16663-.18822.24131,56.14649,1.90782,64.85574,11.09993,5.09912,5.3817-6.14774,13.321-22.02648,15.211-21.03581,2.50381-39.57763-6.87368-62.40836-3.7-9.03131,1.25543-7.41087,2.90087-22.02648,5.75552a167.20537,167.20537,0,0,1-35.4871,3.7,191.3835,191.3835,0,0,1-41.60557-5.75552c0,.00033-30.31091,3.21058-57.51359.82222-8.34955-.73309-26.42651-2.32022-30.59233-6.57774-5.30227-5.41914,17.39162-9.58466,12.23693-14.79992-4.24468-4.29441-24.43024-6.32441-39.15818-6.16663-16.73377.17928-22.28938,3.13859-37.93449,5.34441-35.8247,5.05089-88.11309,1.0135-101.56655-8.22217-5.41938-3.72046-3.8563-7.81732-2.44738-11.511,2.15281-5.64256,8.91659-9.94352,15.908-14.38881a63.79175,63.79175,0,0,1,12.23693-6.57774,96.76826,96.76826,0,0,1,29.36864-7.4c16.95126-1.33211,26.34048,3.10535,70.97421,8.22218A146.96928,146.96928,0,0,0,322.171,60.56088Z"/><path class="e" d="M380.67656,70.42749c8.79058-2.72982,5.38346-10.00766-5.143-13.56659-16.20689-5.47959-46.773-1.29222-55.28736-6.16663-4.266-2.44222-1.77293-6.45893,5.143-8.63329,15.95576-5.01643,42.352,3.89319,86.14542.82222,23.91952-1.67736,31.61709-5.42729,54.00161-4.5222,14.97952.6057,17.4556,2.52459,32.14382,4.11109,42.53531,4.59429,77.43081-5.48613,87.43118-1.64443,8.62107,3.31185-10.51894,13.41287-24.4293,18.911-19.64352,7.76429-37.98621,9.95742-36.00108,11.511,3.2012,2.50557,56.28433,1.01068,108.00322-5.75553,24.74258-3.237,52.04913-8.05669,65.57339-4.52219,5.29745,1.38453,4.05062,2.89329,11.57177,4.9333,14.02274,3.80351,30.45187,1.8391,33.42957,4.11109,3.45043,2.63276-18.04449,5.70245-16.71479,10.27772,1.34854,4.64143,24.62392,5.45336,25.71506,9.04439,1.34351,4.42216-31.22408,12.16871-68.14489,12.74437-25.53425.39812-44.42313-2.76974-140.147-15.211-8.48484-1.1028-24.58688-3.12509-33.42957-.82222-6.04705,1.57473-8.32223,5.07377-5.143,7.81107,5.82921,5.01869,26.491,4.45992,61.71613,11.09994,14.54633,2.742,28.21059,5.31774,27.0008,7.81106-1.378,2.84-21.89483,5.245-39.85833,4.5222-20.01517-.80531-28.14844-5.14295-38.57258-3.7-8.186,1.13316-5.13359,4.07987-14.14327,6.98885-14.47288,4.67272-46.51248,4.8708-60.43038.41111-9.19489-2.94616-6.21091-6.55681-14.14328-7.4-8.64367-.91875-14.0083,3.17485-30.85806,4.5222-14.07861,1.12578-34.27962.18262-42.42983-4.11109-5.10221-2.688-3.53457-5.75924-2.57151-7.4,7.7007-13.11982,65.97581-18.23515,63.00188-20.96655-2.57025-2.36023-46.53069.43211-59.14462,1.23333-58.48166,3.71471-68.55673,7.06859-101.57446,6.98885-36.60251-.0884-69.93916-4.32048-70.71639-8.22218-.38987-1.95793,7.62223-2.813,9.00027-6.57774,1.36736-3.73531-5.87818-4.64532-3.85726-7.4,2.57841-3.51379,15.28589-3.2836,25.715-8.22217,6.54554-3.09953,4.16677-4.43407,7.71452-5.75552C241.25213,50.23064,356.41614,77.96146,380.67656,70.42749Z"/><path class="g" d="M387.63862,51.722c-4.90015,5.88505,49.01824,10.15,44.053,16.03324-5.13916,6.08945-77.29464,11.271-132.15888,4.93331-9.16814-1.05907-26.34406-3.42058-35.4871-.82222-6.92451,1.96787-9.54935,6.86818-3.67108,9.86661,16.13267,8.229,103.03163,5.561,154.18535-3.7,5.45046-.98675,15.75386-3.00041,22.02648-1.64443,9.90068,2.14033,8.11354,12.32-7.34216,18.49989-14.09518,5.636-35.02941,6.13429-34.26341,8.22218.50907,1.38714,10.08471,2.08141,24.47386,2.87776,43.66638,2.41669,65.49986,3.625,72.19791,1.23332,13.28257-4.74278-28.89482-17.14675-15.908-24.25541,5.91113-3.2356,19.57192-3.67645,33.03971-4.11109,32.33706-1.04358,62.10722,3.33082,91.777,7.81107,22.85343,3.451,30.96458,5.471,44.053,4.52219,14.36406-1.04127,29.4977-5.27947,29.36864-9.86661-.15476-5.5042-22.23143-9.63436-39.15819-10.68883-22.58574-1.407-30.90662,2.97959-63.63205,5.34442-27.223,1.96722-71.45819,2.54433-79.54006-3.28887-6.11668-4.41491,29.03583-9.86205,24.47386-16.44436-.52939-.7641-1.4552-7.618-29.36863-7.4C434.139,49.25539,392.25436,46.178,387.63862,51.722Z"/><path class="h" d="M362.50584,43.95839a80.51424,80.51424,0,0,1,8.25476,1.57444c.39827.1033,7.2573,1.91005,5.26579,2.81818a2.41812,2.41812,0,0,1-.29222.10721c-1.22623.37075-3.71277.34827-19.52448.04218-12.68271-.24562-14.33455-.29427-16.10362-.648-5.48735-1.09763-5.0489-3.71835.81134-4.67992C346.175,42.30947,355.12831,42.8925,362.50584,43.95839Z"/><path class="i" d="M362.50584,43.95839a80.51424,80.51424,0,0,1,8.25476,1.57444c.39827.1033,7.2573,1.91005,5.26579,2.81818-1.5765-.15593-3.48085-.35683-5.74324-.555-12.99428-1.13814-18.75513-.51412-22.88432-1.66107-2.18034-.60589-3.28678-1.5337-1.513-2.06,2.19239-.65029,8.03955-.46771,11.56889-.35782C359.10752,43.76866,360.80893,43.84891,362.50584,43.95839Z"/><path class="h" d="M416.04638,41.70667a15.52419,15.52419,0,0,1,4.37538,2.14481c.15662.12836,2.799,2.3642-.82252,3.01884-.14952.02706-.31031.051-.47953.07236-1.85453.23162-4.07258-.00332-17.85188-1.64574-11.05231-1.31749-12.4586-1.50425-13.36373-1.97877-2.80688-1.4722,2.81328-3.81931,10.062-4.18888A50.9826,50.9826,0,0,1,416.04638,41.70667Z"/><path class="i" d="M416.04638,41.70667a15.52419,15.52419,0,0,1,4.37538,2.14481c.15662.12836,2.799,2.3642-.82252,3.01884-1.124-.27788-2.45679-.625-4.12079-1.00048-9.5577-2.15659-16.04346-2.08562-17.51611-3.48556-.77708-.73944.06447-1.67921,2.72721-2.00516,3.2907-.40268,8.248.26784,11.24091.67227C413.33181,41.24087,414.72026,41.46066,416.04638,41.70667Z"/><path class="h" d="M471.40742,42.85408a10.94312,10.94312,0,0,1-3.71313,2.19821,32.91947,32.91947,0,0,1-10.3842,2.11518q-.29718-.00145-.58865-.01377c-2.12034-.08889-2.99835-.57348-7.86041-3.71905-3.89949-2.52313-4.33373-2.8583-3.46575-3.33582,2.69379-1.48132,14.44741-2.42749,21-1.68419C472.27544,39.08138,473.21805,41.02359,471.40742,42.85408Z"/><path class="i" d="M471.40742,42.85408a10.94312,10.94312,0,0,1-3.71313,2.19821,32.91947,32.91947,0,0,1-10.3842,2.11518,5.69089,5.69089,0,0,0,.19532-1.317c-.07776-2.93354-5.09968-3.7905-1.6541-5.03135A26.17012,26.17012,0,0,1,464.36006,39.72c3.73543.16387,5.22676,1.35438,6.12836,2.07284A3.293,3.293,0,0,1,471.40742,42.85408Z"/><path class="h" d="M516.81944,45.73145c-3.14385.4731-6.60041.859-9.87334,1.0993-.60037.044-11.065.79232-14.52354.10057-.14295-.02856-.27183-.05973-.38941-.09288-1.27515-.36353-.34977-.84428,6.27462-3.84731,5.31389-2.40873,6.08156-2.71693,8.27161-2.94711,6.7947-.71386,18.53373.24012,20.95346,1.70913C529.7051,43.07119,524.09619,44.636,516.81944,45.73145Z"/><path class="i" d="M516.81944,45.73145c-3.14385.4731-6.60041.859-9.87334,1.0993-.60037.044-11.065.79232-14.52354.10057,1.22915-.25789,2.77084-.56524,4.41882-.9438,9.46444-2.17432,8.54247-3.512,15.111-3.94291,3.4696-.22743,8.04338-.1374,9.84259.38516,2.22285.6458-.54152,1.73333-2.20862,2.38988A29.12488,29.12488,0,0,1,516.81944,45.73145Z"/><path class="h" d="M552.06058,49.551c-3.83889.117-7.76116.12663-11.19732.02488-.63008-.01876-11.57181-.362-13.10143-1.30807a.4963.4963,0,0,1-.13891-.11981c-.32288-.445,1.5659-.78228,14.11256-2.80775,10.06409-1.62458,11.42962-1.824,13.883-1.81741,7.611.02071,15.90021,1.996,14.78157,3.53131C569.39743,48.43186,560.947,49.27973,552.06058,49.551Z"/><path class="i" d="M552.06058,49.551c-3.83889.117-7.76116.12663-11.19732.02488-.63008-.01876-11.57181-.362-13.10143-1.30807,1.66292-.11041,3.71289-.23463,6.01531-.41174,13.2235-1.01743,15.37845-2.29228,22.1602-2.0424,3.58182.13214,7.43732.652,7.87154,1.28843.536.78647-4.33171,1.48484-7.26878,1.90661C555.16434,49.20617,553.65884,49.38959,552.06058,49.551Z"/><path class="h" d="M202.47377,91.533c2.36466-.55852,5.00923-1.04623,7.55491-1.39043.467-.063,8.613-1.14462,11.61788-.61861.12418.02171.238.04639.34331.07333,1.144.296.5616.78169-3.75327,3.84594-3.46134,2.45784-3.97462,2.7755-5.655,3.07106-5.21338.91674-14.94839.44276-17.37852-.852C193.02179,94.50064,197.00068,92.82613,202.47377,91.533Z"/><path class="i" d="M202.47377,91.533c2.36466-.55852,5.00923-1.04623,7.55491-1.39043.467-.063,8.613-1.14462,11.61788-.61861-.90025.287-2.03476.63175-3.23084,1.04735-6.86908,2.38707-5.68421,3.61233-10.81038,4.25468a27.846,27.846,0,0,1-8.0243-.00725c-1.99819-.52738-.14246-1.65027.97643-2.32809A15.104,15.104,0,0,1,202.47377,91.533Z"/><path class="h" d="M188.85176,81.49273c2.99831-.28715,6.12086-.47821,8.91561-.54313.51251-.0118,9.42211-.20066,11.15029.60842a.89221.89221,0,0,1,.17517.105c.49662.399-.82829.80043-9.74478,3.26726-7.15226,1.97862-8.134,2.22755-10.0939,2.33534-6.08034.33418-13.75178-1.11835-13.68485-2.59856C175.62844,83.33893,181.91131,82.15777,188.85176,81.49273Z"/><path class="i" d="M188.85176,81.49273c2.99831-.28715,6.12086-.47821,8.91561-.54313.51251-.0118,9.42211-.20066,11.15029.60842-1.2667.17994-2.83464.39068-4.57545.66237-9.99793,1.56054-11.03123,2.84653-16.57342,2.929-2.92723.04342-6.281-.26113-6.96933-.833-.85006-.70673,2.65625-1.58243,4.77167-2.11117C186.56208,81.95766,187.664,81.71713,188.85176,81.49273Z"/><path class="h" d="M200.57187,70.36406c2.80687.27095,5.43431.63994,7.49539,1.05547.37771.07628,6.89886,1.41552,5.84776,2.35512a.89073.89073,0,0,1-.16954.11372c-.758.40384-2.75015.50481-15.51427.99557-10.23826.39357-11.58153.42937-13.19746.188-5.01256-.74894-6.20435-3.2004-2.10565-4.37907C186.60512,69.63516,194.07362,69.73715,200.57187,70.36406Z"/><path class="i" d="M200.57187,70.36406c2.80687.27095,5.43431.63994,7.49539,1.05547.37771.07628,6.89886,1.41552,5.84776,2.35512-1.34637-.06735-2.9801-.16034-4.89721-.23327-11.011-.41875-15.229.44207-19.18964-.41913-2.09149-.455-3.51754-1.26107-2.41523-1.836,1.36255-.71037,6.12351-.82751,8.997-.89852C197.75569,70.35462,199.157,70.34568,200.57187,70.36406Z"/><path class="h" d="M224.1252,62.27015a4.82208,4.82208,0,0,1,2.14241,2.10435c.04459.12457.75309,2.29327-2.53254,2.87108-.13567.02389-.27834.04462-.42614.06284-1.618.197-3.23458-.05613-13.16334-1.8032-7.96375-1.40142-8.96515-1.598-9.38915-2.06274-1.31448-1.44187,4.61287-3.60933,10.60371-3.86784C216.73554,59.34245,221.47693,60.677,224.1252,62.27015Z"/><path class="i" d="M224.1252,62.27015a4.82208,4.82208,0,0,1,2.14241,2.10435c.04459.12457.75309,2.29327-2.53254,2.87108-.72037-.27988-1.56354-.62854-2.65229-1.00865-6.25367-2.183-11.45234-2.19959-11.75143-3.55512-.15736-.716,1.09634-1.60214,3.41539-1.87866a29.37585,29.37585,0,0,1,8.5152.78795C222.25772,61.7902,223.22439,62.01807,224.1252,62.27015Z"/><path class="h" d="M252.84361,57.96029a5.26447,5.26447,0,0,1-2.14994,2.20575,17.59747,17.59747,0,0,1-7.52744,2.383c-.15914.00667-.31823.00959-.47693.00959-1.73268-.00235-2.61839-.42369-7.69668-3.19081-4.073-2.21957-4.547-2.51762-4.03075-2.99913,1.60235-1.49373,10.66645-2.83163,16.19711-2.38447C252.1219,54.38523,253.607,56.17254,252.84361,57.96029Z"/><path class="i" d="M252.84361,57.96029a5.26447,5.26447,0,0,1-2.14994,2.20575,17.59747,17.59747,0,0,1-7.52744,2.383,6.70738,6.70738,0,0,0-.33825-1.24389c-1.16441-2.75108-5.511-3.36349-3.21584-4.66022a15.15642,15.15642,0,0,1,6.40613-1.35739,9.57928,9.57928,0,0,1,5.69013,1.71158A5.08587,5.08587,0,0,1,252.84361,57.96029Z"/><path class="h" d="M712.6461,64.84748a53.16909,53.16909,0,0,1-6.20665,1.38582c-.40549.06653-7.49591,1.21184-10.99312.8615-.14451-.01446-.28145-.0317-.41218-.05109-1.42269-.21337-1.30507-.63643.07571-3.3246,1.10789-2.1562,1.31681-2.43683,2.71032-2.73362,4.32375-.92059,14.48122-.81338,18.13826.19629C719.24057,62.08762,716.86994,63.60469,712.6461,64.84748Z"/><path class="i" d="M712.6461,64.84748a53.16909,53.16909,0,0,1-6.20665,1.38582c-.40549.06653-7.49591,1.21184-10.99312.8615.624-.26647,1.42638-.58819,2.22267-.97091,4.57283-2.19815,2.22353-3.1867,6.7219-3.87545a32.41349,32.41349,0,0,1,8.007-.232c2.49489.38134,1.71519,1.37456,1.24581,1.97407A4.059,4.059,0,0,1,712.6461,64.84748Z"/><path class="h" d="M735.40623,72.3464c-2.71553.32886-5.64653.58113-8.371.71827-.49972.02507-9.20241.44716-11.69665-.17755-.10311-.0258-.19385-.05347-.27473-.08254-.87547-.31862.06276-.69333,6.60077-3.01887,5.24452-1.8653,5.986-2.1024,7.83723-2.25061,5.74343-.45958,14.77638.52643,16.12071,1.76513C746.82972,70.41164,741.69177,71.58487,735.40623,72.3464Z"/><path class="i" d="M735.40623,72.3464c-2.71553.32886-5.64653.58113-8.371.71827-.49972.02507-9.20241.44716-11.69665-.17755,1.09136-.18792,2.45367-.41051,3.93024-.68914,8.48014-1.60042,8.28442-2.70551,13.73126-2.93884,2.877-.12311,6.511.03184,7.74239.48923,1.5212.56525-1.13974,1.40092-2.74475,1.90543C737.24579,71.89,736.37646,72.12369,735.40623,72.3464Z"/><path class="h" d="M741.74721,81.35334c-2.57162-.142-5.07107-.37115-7.13252-.65625-.37788-.05235-6.91982-.97486-6.789-1.79112a.209.209,0,0,1,.05134-.10007c.31315-.36,1.904-.50421,12.22116-1.29756,8.27563-.63628,9.37405-.70654,10.92279-.55354,4.80434.47485,7.76381,2.48632,5.267,3.59381C754.04838,81.54243,747.70056,81.68165,741.74721,81.35334Z"/><path class="i" d="M741.74721,81.35334c-2.57162-.142-5.07107-.37115-7.13252-.65625-.37788-.05235-6.91982-.97486-6.789-1.79112,1.18347.01579,2.62856.04436,4.29537.04767,9.57324.01888,12.42424-.82674,16.43572-.22653,2.1185.31713,3.95933.94746,3.494,1.46069-.57541.63418-4.47637.87506-6.83058,1.02069C744.11764,81.27661,742.94906,81.32618,741.74721,81.35334Z"/><path class="h" d="M739.35284,90.05519a46.25954,46.25954,0,0,1-5.42664-1.48069c-.26713-.09465-4.873-1.74806-3.81376-2.48387a.92634.92634,0,0,1,.16047-.08587c.68877-.29316,2.23573-.23054,12.10435.30611,7.91573.43052,8.94994.50074,10.11609.83193,3.61727,1.0276,3.85392,3.244.405,3.95741C749.80417,91.74052,744.13657,91.089,739.35284,90.05519Z"/><path class="i" d="M739.35284,90.05519a46.25954,46.25954,0,0,1-5.42664-1.48069c-.26713-.09465-4.873-1.74806-3.81376-2.48387,1.00829.15993,2.22869.36378,3.6707.57159,8.28225,1.19343,11.735.76473,14.5193,1.8104,1.47022.55237,2.33671,1.35913,1.33844,1.77471-1.23389.51348-4.89677.25614-7.10762.10109C741.49791,90.27572,740.42682,90.17782,739.35284,90.05519Z"/><path class="h" d="M722.23469,95.61982a18.25387,18.25387,0,0,1-4.142-1.69462c-.1632-.10276-2.93692-1.89367-.212-2.47391.11248-.024.235-.04553.36494-.06514,1.42536-.21258,3.27834-.04906,14.84258,1.11608,9.27566.93463,10.46142,1.06916,11.32719,1.44488,2.685,1.16568-1.15828,3.15241-6.88461,3.54612A46.46689,46.46689,0,0,1,722.23469,95.61982Z"/><path class="i" d="M722.23469,95.61982a18.25387,18.25387,0,0,1-4.142-1.69462c-.1632-.10276-2.93692-1.89367-.212-2.47391.985.21248,2.158.47877,3.6058.764,8.31579,1.63835,13.51461,1.498,15.105,2.62168.83941.59353.43425,1.3711-1.61421,1.67093-2.53158.37042-6.71506-.11373-9.24064-.40572C724.55406,95.96542,723.37309,95.80371,722.23469,95.61982Z"/><path class="h" d="M693.53029,100.75a1.59288,1.59288,0,0,1,.04076-1.90668c.08047-.107,1.54547-1.96562,5.23309-2.21429.1523-.01029.30812-.01745.46635-.02216,1.72968-.04944,3.01438.27632,10.71517,2.43758,6.17662,1.73362,6.93324,1.96858,6.87759,2.38619-.17358,1.29554-7.93495,2.68224-13.8752,2.47271C697.65784,103.71554,694.47344,102.26631,693.53029,100.75Z"/><path class="i" d="M693.53029,100.75a1.59288,1.59288,0,0,1,.04076-1.90668c.08047-.107,1.54547-1.96562,5.23309-2.21429.40781.28449.86437.635,1.523,1.02924,3.78343,2.264,8.70073,2.64669,7.64861,3.79819-.55631.60817-2.61947,1.25812-5.09284,1.32414a21.92748,21.92748,0,0,1-7.30456-1.26122A18.73374,18.73374,0,0,1,693.53029,100.75Z"/><path class="h" d="M546.37464,112.13472c-2.94161-.37912-5.61776-.8337-7.63243-1.29928-.36911-.08543-6.72695-1.57969-4.92664-2.33755a2.29433,2.29433,0,0,1,.265-.08955c1.11451-.30992,3.39919-.29433,17.93248-.05949,11.65727.18845,13.17609.22685,14.8123.51889,5.0753.90614,4.75612,3.08658-.596,3.89373C561.42759,113.48586,553.18511,113.0121,546.37464,112.13472Z"/><path class="i" d="M546.37464,112.13472c-2.94161-.37912-5.61776-.8337-7.63243-1.29928-.36911-.08543-6.72695-1.57969-4.92664-2.33755,1.453.12772,3.20864.29245,5.293.45447,11.97191.93045,17.24352.4042,21.07288,1.35306,2.022.50125,3.0679,1.27161,1.45539,1.7116-1.99305.54365-7.36966.39908-10.615.31209C549.50215,112.28829,547.9368,112.22367,546.37464,112.13472Z"/><path class="h" d="M516.34972,115.72882a10.82007,10.82007,0,0,1-3.45528-1.92389c-.11072-.11156-1.961-2.05179,1.50976-2.47028.1433-.0173.2961-.03162.456-.04356,1.75128-.12856,3.71716.14136,15.88387,1.96956,9.75884,1.46648,10.99575,1.6689,11.70278,2.09241,2.19243,1.31387-3.5284,3.065-10.23886,3.12408A45.48918,45.48918,0,0,1,516.34972,115.72882Z"/><path class="i" d="M516.34972,115.72882a10.82007,10.82007,0,0,1-3.45528-1.92389c-.11072-.11156-1.961-2.05179,1.50976-2.47028.95631.26822,2.08578.60082,3.51051.96821,8.18342,2.11,14.12233,2.272,15.11486,3.4807.52354.63838-.481,1.38746-2.99381,1.56657a49.09,49.09,0,0,1-10.0932-.93894C518.71085,116.20668,517.49854,115.97754,516.34972,115.72882Z"/><path class="h" d="M487.00531,117.74065a1.1329,1.1329,0,0,1,.46218-1.45788,8.806,8.806,0,0,1,5.45759-1.16826c.14681.00752.29626.0178.44745.0302,1.65231.13715,2.799.51695,9.62637,2.95352,5.476,1.95441,6.14181,2.21115,5.99625,2.52574-.45248.97582-8.12538,1.25363-13.71563.49179C490.26331,120.4323,487.56348,118.99878,487.00531,117.74065Z"/><path class="i" d="M487.00531,117.74065a1.1329,1.1329,0,0,1,.46218-1.45788,8.806,8.806,0,0,1,5.45759-1.16826c.32378.25941.67916.57442,1.21659.94333,3.08729,2.11887,7.66839,2.91,6.41425,3.68647a10.97627,10.97627,0,0,1-5.12679.4999,23.0862,23.0862,0,0,1-6.65129-1.70634A17.49642,17.49642,0,0,1,487.00531,117.74065Z"/><path class="h" d="M451.27531,119.356a9.83549,9.83549,0,0,1,3.34054-1.83309,32.24,32.24,0,0,1,9.47075-1.77237q.273.00084.54113.01072c1.95043.07129,2.77236.47326,7.33859,3.08364,3.66225,2.09384,4.0718,2.37209,3.28976,2.77037-2.4271,1.23552-13.193,2.03723-19.23547,1.42715C450.5983,122.49522,449.67056,120.88089,451.27531,119.356Z"/><path class="i" d="M451.27531,119.356a9.83549,9.83549,0,0,1,3.34054-1.83309,32.24,32.24,0,0,1,9.47075-1.77237,4.25383,4.25383,0,0,0-.13742,1.09571c.165,2.44,4.80506,3.14653,1.67976,4.183a26.03736,26.03736,0,0,1-7.78049.92491,9.30361,9.30361,0,0,1-5.69517-1.71651A2.99355,2.99355,0,0,1,451.27531,119.356Z"/><path class="h" d="M414.20949,117.31819a49.67245,49.67245,0,0,1,5.58742-1.7352c.374-.09392,6.91979-1.72174,10.4887-1.78371.14746-.00257.28853-.00215.42428.00063,1.4782.03215,1.51985.38626,1.16172,2.69888-.2876,1.855-.38868,2.10283-1.6485,2.4808-3.909,1.17251-13.93627,2.08944-17.90749,1.63345C408.75165,120.20405,410.51849,118.74166,414.20949,117.31819Z"/><path class="i" d="M414.20949,117.31819a49.67245,49.67245,0,0,1,5.58742-1.7352c.374-.09392,6.91979-1.72174,10.4887-1.78371-.51444.27738-1.18379.61711-1.82444,1.00562-3.67892,2.23137-1.00139,2.79949-5.16834,3.80157a36.60493,36.60493,0,0,1-7.78664.979c-2.59491-.06218-2.19756-.94328-1.959-1.475A2.3641,2.3641,0,0,1,414.20949,117.31819Z"/><path class="h" d="M381.32635,112.08614c2.87263-.39746,6.03528-.72272,9.0339-.92673.55-.03734,10.13823-.67288,13.33709-.10182.13222.02358.25159.04935.36065.07677,1.18285.30079.34819.70184-5.64075,3.208-4.80417,2.0102-5.49948,2.26752-7.50376,2.46171-6.21837.60228-17.03143-.17655-19.30087-1.39544C369.5753,114.315,374.67737,113.00644,381.32635,112.08614Z"/><path class="i" d="M381.32635,112.08614c2.87263-.39746,6.03528-.72272,9.0339-.92673.55-.03734,10.13823-.67288,13.33709-.10182-1.12079.216-2.52708.47363-4.02872.79057-8.624,1.82041-7.73454,2.932-13.75424,3.29857a39.92135,39.92135,0,0,1-9.053-.30807c-2.06234-.53439.44214-1.44245,1.95249-1.99064C379.52159,112.59133,380.3636,112.33442,381.32635,112.08614Z"/><path class="h" d="M364.74255,106.89756c3.5224-.10216,7.12482-.115,10.28428-.03469.57934.01482,10.64058.28661,12.07575,1.07166a.46983.46983,0,0,1,.13141.09949c.31077.36976-1.41338.65264-12.87328,2.3531-9.19237,1.36389-10.44029,1.53148-12.694,1.529-6.99164-.00771-14.66845-1.64034-13.6899-2.91883C348.85382,107.85014,356.58872,107.13433,364.74255,106.89756Z"/><path class="i" d="M364.74255,106.89756c3.5224-.10216,7.12482-.115,10.28428-.03469.57934.01482,10.64058.28661,12.07575,1.07166-1.52392.09392-3.40292.1998-5.51211.35-12.11374.86281-14.05247,1.92591-20.28968,1.72654-3.29423-.10543-6.85219-.533-7.27132-1.06186-.51741-.65351,3.93146-1.24049,6.6158-1.595C361.90265,107.18828,363.27965,107.03384,364.74255,106.89756Z"/></svg>