<svg id="Layer_1" data-name="Layer 1" xmlns="http://www.w3.org/2000/svg" viewBox="0 0 879.52 260.12"><defs><style>.cls-1{fill:#0e49a8;}.cls-2{fill:#aa0c0c;}.cls-3{fill:#7c0808;}.cls-4{fill:#cf4431;}.cls-5{fill:#931a11;}.cls-6{fill:#ce6c65;}.cls-7{fill:#fbb03b;}.cls-8{fill:#f4b867;}</style></defs><path class="cls-1" d="M.56,122.58v8.78A17.52,17.52,0,0,1,.56,122.58Z"/><path class="cls-2" d="M865.71,118v6c-2.11,9.2-13.61,18.5-30.35,27.16-25.88,13.38-64.24,25.22-99.7,32.7-50.62,10.69-126,25.49-352.42,19.32C277.6,200.29,216.33,194.28,167.87,188c-32.05-4.18-107.15-14-145.1-34.33-9.37-5-16.46-10.68-20.1-17.06a19.82,19.82,0,0,1-2.11-5.2v-8.78a22.05,22.05,0,0,1,1.93-5C10.69,101.7,38.32,87.29,70,78.19c68.33-19.63,164.45-17.09,250.85-14.8,62.8,1.66,79.24,5.49,155.41,6.16,78.15.7,91.36-3.06,139.5-2.46,86.18,1.06,224.87,15.32,247.19,45.22a15.72,15.72,0,0,1,2.65,5.24C865.63,117.69,865.67,117.85,865.71,118Z"/><path class="cls-1" d="M865.71,179.48v-6A13,13,0,0,1,865.71,179.48Z"/><path class="cls-3" d="M865.71,124v55.5c-5.36,23.41-71.66,47.54-130.05,59.86C685,250,609.62,264.83,383.24,258.66c-105.64-2.87-166.91-8.88-215.37-15.21-39.95-5.21-146.81-19.16-165.2-51.39a20,20,0,0,1-2.11-5.2v-55.5a19.82,19.82,0,0,0,2.11,5.2c3.64,6.38,10.73,12,20.1,17.06,38,20.35,113.05,30.15,145.1,34.33,48.46,6.33,109.73,12.34,215.37,15.21,226.38,6.17,301.8-8.63,352.42-19.32,35.46-7.48,73.82-19.32,99.7-32.7C852.1,142.48,863.6,133.18,865.71,124Z"/><path class="cls-1" d="M865.71,117.55V118c0-.15-.08-.31-.13-.45Z"/><path class="cls-4" d="M79.39,98.21c15.84-6.27,31.77-12.49,48.2-17.23,8.2-2.4,16.52-4.44,24.89-6.19s16.82-3.14,25.32-4.29c17-2.27,34.32-2.41,51.39-1.87s34.09,1.25,51.11,1.73,34,.87,51,1.16c8.51.16,17,.31,25.52.4l25.52.33q51,.6,102.11.74l51.09.21c17,.07,34-.08,51.16.07S621,74.06,638,74.92s34.09,1.62,51.13,3c8.52.68,17,1.48,25.53,2.47s17,2.2,25.42,3.59,16.83,3.14,25.18,4.9,16.71,3.65,25,5.91,16.55,4.86,24.46,8.81A47.46,47.46,0,0,1,820.5,107a25.6,25.6,0,0,1,5.3,4.7,13,13,0,0,1,3.09,7.26,12.84,12.84,0,0,1-2.16,7.67A25.45,25.45,0,0,1,822,132a48.31,48.31,0,0,1-5.41,4.09,102.83,102.83,0,0,1-11.49,6.46,246.44,246.44,0,0,1-24,9.87c-8.09,2.91-16.25,5.56-24.42,8.11s-16.32,5-24.61,7.35c-16.53,4.68-33.28,8.55-50.12,11.83s-33.79,5.93-50.76,8.22c-8.49,1.19-17,2.06-25.5,3.06L593,192.38l-12.78,1.18c-34.09,3.21-68.28,5.15-102.5,6s-68.44.53-102.63-.83S306.71,195,272.7,191.5c-8.5-.87-17-1.83-25.46-2.75s-17-2-25.43-3.06q-25.42-3.09-50.77-7.06c-16.89-2.65-33.76-5.61-50.51-9.3-8.37-1.85-16.71-3.89-25-6.35-4.12-1.21-8.22-2.49-12.28-3.92s-8.05-2.89-12.06-4.43-8-3.17-11.89-5a113.44,113.44,0,0,1-11.5-5.91,43.31,43.31,0,0,1-10.3-8.12,15.43,15.43,0,0,1-3.36-5.92,10.18,10.18,0,0,1,.59-6.9,16.09,16.09,0,0,1,4.13-5.31,36.44,36.44,0,0,1,5.3-3.84,99.79,99.79,0,0,1,11.48-5.83C63.5,104.37,71.46,101.32,79.39,98.21Zm.48,1.21C72,102.58,64,105.67,56.29,109.19a99.54,99.54,0,0,0-11.21,5.9,34.85,34.85,0,0,0-5,3.73,14,14,0,0,0-3.57,4.76,8,8,0,0,0-.67,2.78,8.3,8.3,0,0,0,0,1.41,11.22,11.22,0,0,0,.29,1.4,13.31,13.31,0,0,0,3,5,39.79,39.79,0,0,0,9.93,7.34,143.61,143.61,0,0,0,23.31,9.77c4,1.35,8.07,2.67,12.12,3.89s8.11,2.33,12.22,3.33c8.21,2,16.53,3.59,24.89,5,16.71,2.82,33.59,4.8,50.49,6.58,33.81,3.52,67.76,6.12,101.68,8.88q25.43,2,50.83,3.57l12.72.7,12.72.62c8.48.45,17,.71,25.45,1q50.91,1.81,101.85,1.11l25.45-.56c8.49-.23,17-.65,25.44-1l6.36-.26,6.35-.37,12.71-.73c8.48-.41,16.93-1.13,25.39-1.78l12.69-1,12.66-1.25c8.44-.87,16.9-1.61,25.32-2.62,16.85-1.93,33.62-4.32,50.33-7.07,8.35-1.38,16.67-2.94,24.95-4.63s16.56-3.47,24.77-5.51,16.44-4.22,24.62-6.45,16.33-4.58,24.37-7.17a239.58,239.58,0,0,0,23.6-8.81,94.07,94.07,0,0,0,11-5.7,41.6,41.6,0,0,0,4.88-3.48,20.12,20.12,0,0,0,3.82-4,7.47,7.47,0,0,0,1.46-4.37,7.77,7.77,0,0,0-1.81-4.33,20.45,20.45,0,0,0-4.14-3.85,41.49,41.49,0,0,0-5.15-3.17c-7.29-3.8-15.34-6.47-23.43-8.86s-16.36-4.35-24.67-6.15-16.62-3.58-25-5a479,479,0,0,0-50.59-5.77c-17-1.13-34-1.55-51-1.83s-34-.39-51,.19-34,1.36-51.08,2c-8.52.33-17.05.54-25.58.79s-17.05.49-25.58.64C416.34,85.22,348,84,279.85,78.63c-17-1.3-34-2.94-51-4.32-8.47-.68-16.93-1.23-25.38-1.4a243.75,243.75,0,0,0-25.34.9,291.87,291.87,0,0,0-50.09,8.86c-8.21,2.2-16.31,4.82-24.33,7.66S87.8,96.31,79.87,99.42Z"/><path class="cls-5" d="M293.63,111.17c8.56-.44,19.7-1.86,19.58-3.28-.2-2.32-30.14-1.32-36.71-6.17-5.42-4,6-11.28,22-13.57,8.43-1.2,12.6-.23,50.18,1.24,16.15.63,24.22.94,29.36.82,23.2-.57,25.32-3.76,46.51-4.11,6.59-.11,16.63.47,36.71,1.64C481,88.89,479.1,89.13,487,89.39c22.28.71,26.46-1.59,48.95-1.24,13.63.22,29.38.46,36.71,4.11,7.5,3.73,1.89,8.87,1.23,9.46-9.68,8.5-43.07,10-41.61,12.33,1.12,1.76,21.81,2.71,42.83,1.24,28.72-2,30.93-6.65,61.18-9.05,4.81-.38,39.09-3.1,51.4,2.06,3.57,1.49,1.8,2.19,6.12,4.11,10.56,4.69,27.3,3.24,30.59,6.16s-13.13,5.6-11,9.87c1.87,3.79,15.9,3.88,19.58,7.4,5.18,5-13.59,13.49-36.72,17.27-13.78,2.25-29,2.79-93-1.65-32.17-2.23-86.69-6.4-86.88-6.16s56.15,1.9,64.86,11.1c5.1,5.38-6.15,13.32-22,15.21-21,2.5-39.58-6.88-62.41-3.7-9,1.25-7.41,2.9-22,5.75a167,167,0,0,1-35.49,3.7,191.45,191.45,0,0,1-41.61-5.75s-30.31,3.21-57.51.82c-8.35-.73-26.43-2.32-30.59-6.58-5.3-5.42,17.39-9.58,12.23-14.8-4.24-4.29-24.43-6.32-39.15-6.16-16.74.17-22.29,3.13-37.94,5.34-35.82,5.05-88.11,1-101.56-8.22-5.42-3.72-3.86-7.82-2.45-11.51,2.15-5.65,8.91-10,15.91-14.39a63.9,63.9,0,0,1,12.23-6.58,96.93,96.93,0,0,1,29.37-7.4c16.95-1.33,26.34,3.11,71,8.22A146,146,0,0,0,293.63,111.17Z"/><path class="cls-4" d="M352.14,121c8.79-2.73,5.38-10-5.15-13.57-16.2-5.47-46.77-1.29-55.28-6.16-4.27-2.44-1.78-6.46,5.14-8.64,15.95-5,42.35,3.9,86.14.83,23.92-1.68,31.62-5.43,54-4.53,15,.61,17.45,2.53,32.14,4.12,42.53,4.59,77.43-5.49,87.43-1.65,8.62,3.31-10.52,13.41-24.43,18.91-19.64,7.77-38,10-36,11.51,3.2,2.51,56.28,1,108-5.75,24.75-3.24,52.05-8.06,65.58-4.52,5.29,1.38,4,2.89,11.57,4.93,14,3.8,30.45,1.84,33.43,4.11,3.45,2.63-18.05,5.7-16.72,10.28s24.63,5.45,25.72,9c1.34,4.42-31.23,12.17-68.15,12.75-25.53.39-44.42-2.77-140.14-15.21-8.49-1.11-24.59-3.13-33.43-.83-6.05,1.58-8.33,5.08-5.15,7.81,5.83,5,26.49,4.46,61.72,11.1,14.55,2.75,28.21,5.32,27,7.82-1.38,2.84-21.89,5.24-39.86,4.52-20-.81-28.15-5.15-38.57-3.7-8.19,1.13-5.13,4.08-14.14,7-14.48,4.67-46.52,4.87-60.43.41-9.2-3-6.22-6.56-14.15-7.4-8.64-.92-14,3.17-30.86,4.52-14.07,1.13-34.28.18-42.43-4.11-5.1-2.69-3.53-5.76-2.57-7.4,7.7-13.12,66-18.24,63-21-2.57-2.36-46.53.43-59.14,1.24-58.48,3.71-68.56,7.06-101.57,7-36.61-.08-69.94-4.32-70.72-8.22-.39-2,7.62-2.81,9-6.58s-5.88-4.64-3.86-7.4c2.58-3.51,15.29-3.28,25.72-8.22,6.54-3.1,4.16-4.43,7.71-5.75C212.71,100.84,327.87,128.58,352.14,121Z"/><path class="cls-6" d="M359.1,102.34c-4.9,5.88,49,10.15,44,16C398,124.46,325.86,129.64,271,123.3c-9.17-1.06-26.34-3.42-35.49-.82-6.92,2-9.54,6.87-3.67,9.87,16.14,8.23,103,5.56,154.19-3.7,5.45-1,15.75-3,22-1.65,9.9,2.14,8.11,12.32-7.35,18.5-14.09,5.64-35,6.14-34.26,8.22.51,1.39,10.08,2.09,24.47,2.88,43.67,2.42,65.5,3.63,72.2,1.24,13.28-4.75-28.89-17.15-15.91-24.26,5.91-3.24,19.58-3.68,33-4.11,32.34-1,62.11,3.33,91.78,7.81,22.85,3.45,31,5.47,44.05,4.52,14.37-1,29.5-5.28,29.37-9.86-.15-5.51-22.23-9.64-39.16-10.69-22.58-1.41-30.9,3-63.63,5.34-27.22,2-71.46,2.55-79.54-3.29-6.12-4.41,29-9.86,24.48-16.44-.53-.77-1.46-7.62-29.37-7.4C405.6,99.87,363.71,96.79,359.1,102.34Z"/><path class="cls-7" d="M334,94.57a78.12,78.12,0,0,1,8.26,1.58c.4.1,7.26,1.91,5.27,2.81a2.09,2.09,0,0,1-.3.11c-1.22.37-3.71.35-19.52,0-12.68-.24-14.34-.29-16.11-.64-5.48-1.1-5-3.72.82-4.68C317.63,92.92,326.59,93.51,334,94.57Z"/><path class="cls-8" d="M334,94.57a78.12,78.12,0,0,1,8.26,1.58c.4.1,7.26,1.91,5.27,2.81-1.58-.15-3.49-.35-5.75-.55-13-1.14-18.75-.51-22.88-1.66-2.18-.61-3.29-1.53-1.52-2.06,2.2-.65,8-.47,11.57-.36C330.57,94.38,332.27,94.46,334,94.57Z"/><path class="cls-7" d="M387.51,92.32a15.43,15.43,0,0,1,4.37,2.15c.16.12,2.8,2.36-.82,3l-.48.08c-1.86.23-4.07,0-17.85-1.65-11.06-1.32-12.46-1.5-13.37-2-2.8-1.47,2.82-3.82,10.06-4.19A51,51,0,0,1,387.51,92.32Z"/><path class="cls-8" d="M387.51,92.32a15.43,15.43,0,0,1,4.37,2.15c.16.12,2.8,2.36-.82,3-1.13-.27-2.46-.62-4.12-1-9.56-2.15-16.05-2.08-17.52-3.48-.78-.74.07-1.68,2.73-2,3.29-.4,8.25.27,11.24.68C384.79,91.85,386.18,92.07,387.51,92.32Z"/><path class="cls-7" d="M442.87,93.47a11,11,0,0,1-3.72,2.2,33,33,0,0,1-10.38,2.11h-.59c-2.12-.09-3-.58-7.86-3.72-3.9-2.52-4.33-2.86-3.47-3.34,2.7-1.48,14.45-2.42,21-1.68C443.73,89.7,444.68,91.64,442.87,93.47Z"/><path class="cls-8" d="M442.87,93.47a11,11,0,0,1-3.72,2.2,33,33,0,0,1-10.38,2.11,5.28,5.28,0,0,0,.19-1.32c-.07-2.93-5.1-3.79-1.65-5a26.4,26.4,0,0,1,8.51-1.1c3.73.17,5.23,1.36,6.13,2.08A3.31,3.31,0,0,1,442.87,93.47Z"/><path class="cls-7" d="M488.28,96.35c-3.15.47-6.6.85-9.88,1.09-.6,0-11.06.8-14.52.11l-.39-.1c-1.27-.36-.35-.84,6.28-3.85,5.31-2.4,6.08-2.71,8.27-2.94,6.79-.72,18.53.24,20.95,1.71C501.16,93.68,495.56,95.25,488.28,96.35Z"/><path class="cls-8" d="M488.28,96.35c-3.15.47-6.6.85-9.88,1.09-.6,0-11.06.8-14.52.11,1.23-.26,2.77-.57,4.42-1,9.46-2.17,8.54-3.51,15.11-3.94,3.47-.23,8-.14,9.84.38,2.23.65-.54,1.74-2.2,2.39C490.26,95.74,489.34,96.05,488.28,96.35Z"/><path class="cls-7" d="M523.52,100.16c-3.84.12-7.76.13-11.2,0-.63,0-11.57-.36-13.1-1.31a.58.58,0,0,1-.14-.12c-.32-.44,1.57-.78,14.11-2.81,10.07-1.62,11.43-1.82,13.89-1.81,7.61,0,15.9,2,14.78,3.53C540.86,99.05,532.41,99.89,523.52,100.16Z"/><path class="cls-8" d="M523.52,100.16c-3.84.12-7.76.13-11.2,0-.63,0-11.57-.36-13.1-1.31,1.66-.11,3.71-.23,6-.41,13.22-1,15.37-2.29,22.16-2,3.58.13,7.43.65,7.87,1.29s-4.33,1.48-7.27,1.9C526.62,99.82,525.12,100,523.52,100.16Z"/><path class="cls-7" d="M173.93,142.15c2.37-.56,5-1.05,7.56-1.39.46-.07,8.61-1.15,11.62-.62l.34.07c1.14.3.56.78-3.75,3.85-3.47,2.45-4,2.77-5.66,3.07-5.21.91-14.95.44-17.38-.85C164.48,145.11,168.46,143.44,173.93,142.15Z"/><path class="cls-8" d="M173.93,142.15c2.37-.56,5-1.05,7.56-1.39.46-.07,8.61-1.15,11.62-.62-.9.28-2,.63-3.24,1.05-6.86,2.38-5.68,3.61-10.81,4.25a27.66,27.66,0,0,1-8,0c-2-.52-.14-1.65,1-2.33A14.75,14.75,0,0,1,173.93,142.15Z"/><path class="cls-7" d="M160.31,132.11c3-.29,6.12-.48,8.92-.55.51,0,9.42-.2,11.15.61a.83.83,0,0,1,.17.11c.5.4-.83.8-9.74,3.26-7.16,2-8.14,2.23-10.1,2.34-6.08.33-13.75-1.12-13.68-2.6S153.37,132.77,160.31,132.11Z"/><path class="cls-8" d="M160.31,132.11c3-.29,6.12-.48,8.92-.55.51,0,9.42-.2,11.15.61-1.27.18-2.84.39-4.58.66-10,1.56-11,2.85-16.57,2.93-2.93.05-6.28-.26-7-.83-.85-.71,2.65-1.58,4.77-2.11C158,132.57,159.12,132.33,160.31,132.11Z"/><path class="cls-7" d="M172,121c2.81.27,5.44.64,7.5,1,.37.08,6.89,1.42,5.84,2.36a.56.56,0,0,1-.17.11c-.75.41-2.75.51-15.51,1-10.24.39-11.58.43-13.2.19-5-.75-6.2-3.2-2.1-4.38C158.06,120.25,165.53,120.35,172,121Z"/><path class="cls-8" d="M172,121c2.81.27,5.44.64,7.5,1,.37.08,6.89,1.42,5.84,2.36-1.34-.07-3-.16-4.89-.23-11-.42-15.23.44-19.19-.42-2.09-.46-3.52-1.27-2.42-1.84,1.36-.71,6.13-.83,9-.9C169.21,121,170.62,121,172,121Z"/><path class="cls-7" d="M195.58,112.88a4.85,4.85,0,0,1,2.15,2.11c0,.12.75,2.29-2.54,2.87l-.42.06c-1.62.2-3.24,0-13.17-1.8-8-1.4-9-1.6-9.38-2.06-1.32-1.45,4.61-3.61,10.6-3.87C188.19,110,192.94,111.29,195.58,112.88Z"/><path class="cls-8" d="M195.58,112.88a4.85,4.85,0,0,1,2.15,2.11c0,.12.75,2.29-2.54,2.87-.72-.28-1.56-.63-2.65-1-6.25-2.18-11.45-2.2-11.75-3.55-.16-.72,1.1-1.61,3.42-1.88a29.62,29.62,0,0,1,8.51.78C193.72,112.4,194.68,112.63,195.58,112.88Z"/><path class="cls-7" d="M224.3,108.57a5.22,5.22,0,0,1-2.15,2.21,17.54,17.54,0,0,1-7.52,2.38h-.48c-1.73,0-2.62-.42-7.7-3.19-4.07-2.22-4.55-2.52-4-3,1.6-1.49,10.67-2.83,16.2-2.38C223.58,105,225.07,106.79,224.3,108.57Z"/><path class="cls-8" d="M224.3,108.57a5.22,5.22,0,0,1-2.15,2.21,17.54,17.54,0,0,1-7.52,2.38,7.92,7.92,0,0,0-.34-1.24c-1.17-2.75-5.51-3.36-3.22-4.66a15,15,0,0,1,6.41-1.36,9.61,9.61,0,0,1,5.69,1.71A5.26,5.26,0,0,1,224.3,108.57Z"/><path class="cls-7" d="M684.1,115.46a53.53,53.53,0,0,1-6.2,1.39c-.41.06-7.5,1.21-11,.86l-.42,0c-1.42-.22-1.3-.64.08-3.33,1.11-2.15,1.32-2.43,2.71-2.73,4.32-.92,14.48-.81,18.14.2C690.7,112.7,688.33,114.22,684.1,115.46Z"/><path class="cls-8" d="M684.1,115.46a53.53,53.53,0,0,1-6.2,1.39c-.41.06-7.5,1.21-11,.86.62-.27,1.42-.59,2.22-1,4.57-2.2,2.22-3.19,6.72-3.88a32.54,32.54,0,0,1,8-.23c2.49.38,1.71,1.37,1.24,2A3.86,3.86,0,0,1,684.1,115.46Z"/><path class="cls-7" d="M706.87,123c-2.72.33-5.65.58-8.38.72-.5,0-9.2.45-11.69-.18a1.58,1.58,0,0,1-.28-.08c-.87-.32.07-.69,6.6-3,5.25-1.87,6-2.1,7.84-2.25,5.74-.46,14.78.53,16.12,1.76S713.15,122.2,706.87,123Z"/><path class="cls-8" d="M706.87,123c-2.72.33-5.65.58-8.38.72-.5,0-9.2.45-11.69-.18,1.09-.19,2.45-.41,3.93-.69,8.48-1.6,8.28-2.7,13.73-2.94,2.88-.12,6.51,0,7.74.49,1.52.57-1.14,1.4-2.74,1.91C708.7,122.5,707.84,122.74,706.87,123Z"/><path class="cls-7" d="M713.21,132c-2.58-.14-5.08-.37-7.14-.66-.37-.05-6.92-1-6.79-1.79a.27.27,0,0,1,.06-.1c.31-.36,1.9-.5,12.22-1.3,8.27-.63,9.37-.7,10.92-.55,4.8.47,7.76,2.48,5.27,3.59C725.51,132.16,719.16,132.3,713.21,132Z"/><path class="cls-8" d="M713.21,132c-2.58-.14-5.08-.37-7.14-.66-.37-.05-6.92-1-6.79-1.79l4.3,0c9.57,0,12.42-.83,16.44-.23,2.11.32,4,.95,3.49,1.46s-4.48.88-6.83,1C715.58,131.89,714.41,131.94,713.21,132Z"/><path class="cls-7" d="M710.81,140.67a47.9,47.9,0,0,1-5.42-1.48c-.27-.1-4.88-1.75-3.82-2.49a1.19,1.19,0,0,1,.16-.08c.69-.29,2.24-.23,12.11.3,7.91.44,8.95.51,10.11.84,3.62,1,3.86,3.24.41,4C721.26,142.35,715.6,141.7,710.81,140.67Z"/><path class="cls-8" d="M710.81,140.67a47.9,47.9,0,0,1-5.42-1.48c-.27-.1-4.88-1.75-3.82-2.49,1,.16,2.23.37,3.67.58,8.28,1.19,11.74.76,14.52,1.81,1.47.55,2.34,1.36,1.34,1.77-1.23.51-4.9.26-7.11.1C713,140.89,711.89,140.79,710.81,140.67Z"/><path class="cls-7" d="M693.69,146.23a18.3,18.3,0,0,1-4.14-1.69c-.16-.1-2.94-1.89-.21-2.47l.36-.07c1.43-.21,3.28-.05,14.85,1.12,9.27.93,10.46,1.07,11.32,1.44,2.69,1.17-1.15,3.15-6.88,3.55A46.38,46.38,0,0,1,693.69,146.23Z"/><path class="cls-8" d="M693.69,146.23a18.3,18.3,0,0,1-4.14-1.69c-.16-.1-2.94-1.89-.21-2.47,1,.21,2.16.47,3.61.76,8.31,1.64,13.51,1.5,15.1,2.62.84.59.43,1.37-1.61,1.67-2.54.37-6.72-.11-9.24-.4C696,146.58,694.83,146.42,693.69,146.23Z"/><path class="cls-7" d="M665,151.36a1.57,1.57,0,0,1,0-1.9c.08-.11,1.55-2,5.23-2.22l.47,0c1.73-.05,3,.28,10.71,2.44,6.18,1.73,6.94,2,6.88,2.38-.17,1.3-7.93,2.69-13.87,2.48C669.12,154.33,665.93,152.88,665,151.36Z"/><path class="cls-8" d="M665,151.36a1.57,1.57,0,0,1,0-1.9c.08-.11,1.55-2,5.23-2.22.41.29.87.64,1.53,1,3.78,2.27,8.7,2.65,7.64,3.8-.55.61-2.61,1.26-5.09,1.32a21.6,21.6,0,0,1-7.3-1.26A16.64,16.64,0,0,1,665,151.36Z"/><path class="cls-7" d="M517.83,162.75c-2.94-.38-5.61-.84-7.63-1.3-.37-.09-6.73-1.58-4.93-2.34l.27-.09c1.11-.31,3.4-.29,17.93-.06,11.66.19,13.18.23,14.81.52,5.08.91,4.76,3.09-.59,3.9C532.89,164.1,524.64,163.63,517.83,162.75Z"/><path class="cls-8" d="M517.83,162.75c-2.94-.38-5.61-.84-7.63-1.3-.37-.09-6.73-1.58-4.93-2.34,1.46.13,3.21.29,5.3.46,12,.93,17.24.4,21.07,1.35,2,.5,3.07,1.27,1.46,1.71-2,.54-7.37.4-10.62.31C521,162.9,519.4,162.84,517.83,162.75Z"/><path class="cls-7" d="M487.81,166.34a10.78,10.78,0,0,1-3.46-1.92c-.11-.11-2-2,1.51-2.47l.46,0c1.75-.12,3.72.15,15.88,2,9.76,1.47,11,1.67,11.71,2.1,2.19,1.31-3.53,3.06-10.24,3.12A45.49,45.49,0,0,1,487.81,166.34Z"/><path class="cls-8" d="M487.81,166.34a10.78,10.78,0,0,1-3.46-1.92c-.11-.11-2-2,1.51-2.47,1,.27,2.09.6,3.51,1,8.19,2.11,14.13,2.27,15.12,3.48.52.64-.48,1.38-3,1.56A48.25,48.25,0,0,1,491.4,167C490.17,166.82,489,166.59,487.81,166.34Z"/><path class="cls-7" d="M458.46,168.35a1.12,1.12,0,0,1,.47-1.45,8.75,8.75,0,0,1,5.45-1.17l.45,0c1.65.14,2.8.52,9.63,3,5.47,2,6.14,2.21,6,2.53-.45,1-8.12,1.25-13.71.49C461.72,171.05,459,169.61,458.46,168.35Z"/><path class="cls-8" d="M458.46,168.35a1.12,1.12,0,0,1,.47-1.45,8.75,8.75,0,0,1,5.45-1.17c.33.26.68.57,1.22.94,3.09,2.12,7.67,2.91,6.41,3.69a10.94,10.94,0,0,1-5.12.5,23.07,23.07,0,0,1-6.65-1.71A16.76,16.76,0,0,1,458.46,168.35Z"/><path class="cls-7" d="M422.73,170a9.84,9.84,0,0,1,3.34-1.83,32.32,32.32,0,0,1,9.48-1.78l.54,0c2,.07,2.77.47,7.34,3.08,3.66,2.09,4.07,2.37,3.28,2.77-2.42,1.23-13.19,2-19.23,1.43C422.06,173.11,421.13,171.49,422.73,170Z"/><path class="cls-8" d="M422.73,170a9.84,9.84,0,0,1,3.34-1.83,32.32,32.32,0,0,1,9.48-1.78,4,4,0,0,0-.14,1.1c.16,2.44,4.8,3.15,1.68,4.18a26.14,26.14,0,0,1-7.78.93c-3.44-.13-4.85-1.12-5.7-1.72A2.93,2.93,0,0,1,422.73,170Z"/><path class="cls-7" d="M385.67,167.93a49.85,49.85,0,0,1,5.59-1.73,63.35,63.35,0,0,1,10.48-1.79h.43c1.48,0,1.52.39,1.16,2.7-.29,1.86-.39,2.11-1.65,2.48-3.91,1.18-13.93,2.09-17.91,1.64C380.21,170.82,382,169.36,385.67,167.93Z"/><path class="cls-8" d="M385.67,167.93a49.85,49.85,0,0,1,5.59-1.73,63.35,63.35,0,0,1,10.48-1.79c-.51.28-1.18.62-1.82,1-3.68,2.23-1,2.8-5.17,3.8a36.5,36.5,0,0,1-7.78,1c-2.6-.06-2.2-.94-2-1.48A2.46,2.46,0,0,1,385.67,167.93Z"/><path class="cls-7" d="M352.79,162.7c2.87-.4,6-.72,9-.93.55,0,10.14-.67,13.34-.1l.36.08c1.18.3.35.7-5.64,3.21-4.81,2-5.5,2.26-7.51,2.46-6.22.6-17-.18-19.3-1.4C341,164.93,346.14,163.62,352.79,162.7Z"/><path class="cls-8" d="M352.79,162.7c2.87-.4,6-.72,9-.93.55,0,10.14-.67,13.34-.1-1.12.22-2.53.48-4,.79-8.63,1.82-7.74,2.93-13.76,3.3a40.23,40.23,0,0,1-9.05-.31c-2.06-.53.44-1.44,1.95-2C351,163.21,351.82,163,352.79,162.7Z"/><path class="cls-7" d="M336.2,157.51c3.52-.1,7.13-.11,10.29,0,.57,0,10.64.28,12.07,1.07a.34.34,0,0,1,.13.1c.31.37-1.41.65-12.87,2.35-9.19,1.36-10.44,1.53-12.69,1.53-7,0-14.67-1.64-13.69-2.92S328.05,157.75,336.2,157.51Z"/><path class="cls-8" d="M336.2,157.51c3.52-.1,7.13-.11,10.29,0,.57,0,10.64.28,12.07,1.07-1.52.09-3.4.2-5.51.35-12.11.86-14.05,1.92-20.29,1.72-3.29-.1-6.85-.53-7.27-1.06s3.93-1.24,6.61-1.59C333.36,157.8,334.74,157.65,336.2,157.51Z"/><path class="cls-1" d="M14,60.74v8.78A17.52,17.52,0,0,1,14,60.74Z"/><path class="cls-2" d="M879.17,56.15v6c-2.11,9.2-13.61,18.5-30.35,27.16-25.88,13.38-64.24,25.21-99.69,32.7-50.63,10.68-126,25.48-352.43,19.32-105.64-2.88-166.91-8.89-215.37-15.21-32.05-4.19-107.15-14-145.1-34.34-9.37-5-16.46-10.68-20.1-17A20.1,20.1,0,0,1,14,69.52V60.74a22.12,22.12,0,0,1,1.93-5c8.2-15.84,35.83-30.26,67.49-39.36C151.77-3.29,247.89-.74,334.29,1.54,397.09,3.2,413.53,7,489.7,7.71c78.15.69,91.36-3.06,139.5-2.47C715.38,6.3,854.07,20.57,876.39,50.46A15.53,15.53,0,0,1,879,55.7C879.09,55.85,879.13,56,879.17,56.15Z"/><path class="cls-1" d="M879.17,117.64v-6A13,13,0,0,1,879.17,117.64Z"/><path class="cls-3" d="M879.17,62.14v55.5c-5.36,23.41-71.66,47.53-130,59.86-50.63,10.68-126,25.48-352.43,19.32-105.64-2.88-166.91-8.89-215.37-15.21-40-5.22-146.81-19.16-165.2-51.39A20.1,20.1,0,0,1,14,125V69.52a20.1,20.1,0,0,0,2.11,5.2c3.64,6.37,10.73,12,20.1,17,38,20.35,113.05,30.15,145.1,34.34,48.46,6.32,109.73,12.33,215.37,15.21,226.38,6.16,301.8-8.64,352.43-19.32,35.45-7.49,73.81-19.32,99.69-32.7C865.56,80.64,877.06,71.34,879.17,62.14Z"/><path class="cls-1" d="M879.17,55.7v.45c0-.15-.08-.3-.13-.45Z"/><path class="cls-4" d="M93,36.59c7.92-3.14,15.85-6.28,23.86-9.19s16.13-5.57,24.33-7.95A326.77,326.77,0,0,1,191.33,9.29a249,249,0,0,1,25.61-1.78c8.56-.18,17.12,0,25.65.36,17.06.7,34.07,1.59,51.08,2.23,68.06,2.59,136.16,3.17,204.28,3.14,17,0,34.08,0,51.11-.11s34.06-.34,51.14-.35,34.17.56,51.2,1.32,34.08,1.43,51.11,2.75c8.51.64,17,1.39,25.5,2.4s16.94,2.21,25.37,3.6,16.8,3.16,25.14,4.92,16.68,3.68,24.94,6,16.47,4.9,24.26,8.82a45.56,45.56,0,0,1,5.69,3.35,24.62,24.62,0,0,1,5.08,4.53,11.94,11.94,0,0,1,2.85,6.7,11.77,11.77,0,0,1-2,7.05,24.47,24.47,0,0,1-4.57,5.12,45.93,45.93,0,0,1-5.31,4,99.27,99.27,0,0,1-11.4,6.3,240.58,240.58,0,0,1-23.9,9.64c-8.09,2.86-16.24,5.45-24.41,7.94s-16.35,4.88-24.61,7.18c-16.52,4.54-33.23,8.31-50,11.5s-33.73,5.78-50.68,8c-8.47,1.15-17,2-25.46,3l-12.74,1.4-12.77,1.14q-51.06,4.62-102.34,5.77l-25.62.4-25.63,0L414.21,135l-12.8-.36c-4.27-.12-8.54-.22-12.81-.44-34.13-1.44-68.24-3.62-102.22-7l-25.46-2.59c-8.47-.95-17-1.87-25.43-2.88q-25.43-2.93-50.77-6.64c-16.9-2.48-33.77-5.22-50.51-8.75-8.37-1.76-16.71-3.71-24.94-6.08s-16.35-5.14-24.35-8.14c-4-1.51-8-3.1-11.89-4.85a112.36,112.36,0,0,1-11.49-5.8,42.06,42.06,0,0,1-10.24-8A15.15,15.15,0,0,1,48,67.77a9.82,9.82,0,0,1,.55-6.65,16,16,0,0,1,4-5.21,35.89,35.89,0,0,1,5.23-3.82,100.82,100.82,0,0,1,11.42-5.86C77.05,42.75,85,39.7,93,36.59Zm.29.75c-7.91,3.16-15.85,6.26-23.6,9.77A100.13,100.13,0,0,0,58.38,53a34.73,34.73,0,0,0-5.05,3.74,14.31,14.31,0,0,0-3.68,4.87,8.58,8.58,0,0,0-.71,2.89A10.45,10.45,0,0,0,49,66a14.53,14.53,0,0,0,.3,1.46,13.73,13.73,0,0,0,3.1,5.18,40.46,40.46,0,0,0,10,7.49,144.53,144.53,0,0,0,23.32,10c8,2.77,16.12,5.37,24.34,7.43s16.54,3.76,24.9,5.25c16.72,3,33.59,5.18,50.49,7.12,33.81,3.83,67.76,6.7,101.68,9.65q25.44,2.11,50.89,3.73l12.73.75,12.74.63c8.49.46,17,.72,25.48,1l25.5.78,25.5.45,25.5.07,25.5-.23q51-.83,101.86-4.93l12.7-1,12.68-1.29c8.45-.9,16.92-1.67,25.35-2.71q25.32-3,50.42-7.29c8.36-1.43,16.69-3,25-4.78s16.58-3.59,24.8-5.68,16.43-4.34,24.62-6.63,16.32-4.7,24.37-7.35a238.87,238.87,0,0,0,23.66-9,95.57,95.57,0,0,0,11.07-5.85,42.91,42.91,0,0,0,5-3.59,20.75,20.75,0,0,0,4-4.3,8.36,8.36,0,0,0,1.59-5,8.72,8.72,0,0,0-2-4.89,21.22,21.22,0,0,0-4.36-4,43.1,43.1,0,0,0-5.27-3.22c-7.41-3.83-15.51-6.48-23.63-8.85S786.3,32,778,30.24s-16.64-3.56-25-5c-16.75-2.87-33.68-4.63-50.65-5.82-8.49-.6-17-1-25.49-1.3s-17-.58-25.54-.75c-17-.36-34-.55-51-.14s-34,1.08-51.1,1.55-34.09.84-51.14,1.11c-68.21,1-136.51,0-204.61-4.71-17-1.14-34-2.6-51-3.82-8.48-.6-17-1.07-25.44-1.15a245.07,245.07,0,0,0-25.41,1.11,302.6,302.6,0,0,0-50.11,9.18C125,25,109.1,31.12,93.24,37.34Z"/><path class="cls-5" d="M307.09,49.33c8.56-.45,19.7-1.87,19.58-3.29-.2-2.32-30.14-1.32-36.71-6.17-5.42-4,6-11.28,22-13.56,8.42-1.2,12.59-.24,50.17,1.23,16.15.63,24.22.95,29.37.82,23.19-.56,25.32-3.76,46.5-4.11,6.59-.11,16.63.48,36.71,1.65,19.75,1.14,17.82,1.39,25.69,1.64,22.28.71,26.46-1.59,48.95-1.23,13.63.21,29.38.46,36.71,4.11,7.5,3.73,1.89,8.87,1.23,9.45-9.68,8.5-43.07,10-41.61,12.34,1.12,1.76,21.81,2.7,42.83,1.23,28.72-2,30.93-6.65,61.18-9,4.81-.39,39.09-3.1,51.4,2.05,3.57,1.5,1.8,2.19,6.12,4.11,10.56,4.69,27.3,3.25,30.59,6.17s-13.13,5.59-11,9.87c1.87,3.78,15.9,3.87,19.58,7.4,5.18,5-13.59,13.48-36.71,17.26-13.79,2.25-29,2.79-93-1.64-32.17-2.23-86.69-6.41-86.88-6.17s56.15,1.91,64.86,11.1c5.1,5.38-6.15,13.32-22,15.21-21,2.51-39.58-6.87-62.41-3.7-9,1.26-7.41,2.9-22,5.76a167.7,167.7,0,0,1-35.49,3.7,191.11,191.11,0,0,1-41.61-5.76s-30.31,3.21-57.51.82c-8.35-.73-26.43-2.32-30.59-6.57-5.3-5.42,17.39-9.59,12.24-14.8-4.25-4.3-24.43-6.33-39.16-6.17-16.74.18-22.29,3.14-37.94,5.34-35.82,5.05-88.11,1-101.56-8.22-5.42-3.72-3.86-7.82-2.45-11.51,2.15-5.64,8.92-9.94,15.91-14.39a63.9,63.9,0,0,1,12.23-6.58,96.93,96.93,0,0,1,29.37-7.4c17-1.33,26.34,3.11,71,8.23A147.18,147.18,0,0,0,307.09,49.33Z"/><path class="cls-4" d="M365.6,59.2c8.79-2.73,5.38-10-5.15-13.57-16.2-5.48-46.77-1.29-55.28-6.17-4.27-2.44-1.78-6.46,5.14-8.63,15.95-5,42.35,3.89,86.14.82,23.92-1.68,31.62-5.43,54-4.52,15,.6,17.45,2.52,32.14,4.11C525.13,35.83,560,25.75,570,29.6c8.62,3.31-10.52,13.41-24.43,18.91-19.64,7.76-38,10-36,11.51,3.2,2.5,56.28,1,108-5.76,24.75-3.24,52-8,65.58-4.52,5.29,1.38,4.05,2.89,11.57,4.93,14,3.81,30.45,1.84,33.43,4.11,3.45,2.64-18,5.71-16.72,10.28s24.63,5.46,25.72,9C738.52,82.53,706,90.27,669,90.85c-25.53.4-44.42-2.77-140.14-15.21-8.49-1.1-24.59-3.13-33.43-.82-6,1.57-8.33,5.07-5.15,7.81,5.83,5,26.5,4.46,61.72,11.1,14.55,2.74,28.21,5.32,27,7.81-1.38,2.84-21.89,5.24-39.86,4.52-20-.8-28.15-5.14-38.57-3.7-8.19,1.13-5.13,4.08-14.14,7-14.48,4.67-46.52,4.87-60.43.41-9.2-2.94-6.21-6.56-14.15-7.4-8.64-.92-14,3.18-30.85,4.52-14.08,1.13-34.28.19-42.43-4.11-5.11-2.69-3.54-5.76-2.58-7.4,7.7-13.12,66-18.23,63-21-2.57-2.36-46.54.43-59.15,1.23-58.48,3.71-68.56,7.07-101.57,7-36.61-.09-69.94-4.32-70.72-8.22-.39-2,7.62-2.82,9-6.58s-5.88-4.65-3.86-7.4c2.58-3.52,15.29-3.29,25.72-8.22,6.54-3.1,4.16-4.44,7.71-5.76C226.17,39,341.34,66.73,365.6,59.2Z"/><path class="cls-6" d="M372.56,40.49c-4.9,5.88,49,10.15,44.05,16-5.14,6.09-77.29,11.27-132.16,4.94C275.28,60.4,258.11,58,249,60.63c-6.93,2-9.55,6.87-3.68,9.87,16.14,8.23,103,5.56,154.19-3.7,5.45-1,15.75-3,22-1.64,9.9,2.14,8.11,12.32-7.35,18.5-14.09,5.63-35,6.13-34.26,8.22.51,1.39,10.08,2.08,24.47,2.88,43.67,2.41,65.5,3.62,72.2,1.23,13.28-4.74-28.89-17.15-15.91-24.26,5.92-3.23,19.58-3.67,33-4.11,32.34-1,62.11,3.33,91.78,7.81,22.85,3.45,31,5.48,44,4.53,14.37-1,29.5-5.28,29.37-9.87-.15-5.5-22.23-9.63-39.16-10.69-22.58-1.41-30.9,3-63.63,5.35-27.22,2-71.46,2.54-79.54-3.29-6.11-4.42,29-9.87,24.48-16.45-.53-.76-1.46-7.62-29.37-7.4C419.06,38,377.17,35,372.56,40.49Z"/><path class="cls-7" d="M347.43,32.73a81.33,81.33,0,0,1,8.25,1.57c.4.1,7.26,1.91,5.27,2.82l-.3.11c-1.22.37-3.71.34-19.52,0-12.68-.25-14.34-.3-16.1-.65-5.49-1.1-5-3.72.81-4.68C331.09,31.08,340.05,31.66,347.43,32.73Z"/><path class="cls-8" d="M347.43,32.73a81.33,81.33,0,0,1,8.25,1.57c.4.1,7.26,1.91,5.27,2.82-1.58-.16-3.48-.36-5.75-.56-13-1.13-18.75-.51-22.88-1.66-2.18-.6-3.29-1.53-1.51-2.06,2.19-.65,8-.47,11.56-.36C344,32.54,345.73,32.62,347.43,32.73Z"/><path class="cls-7" d="M401,30.47a15.71,15.71,0,0,1,4.37,2.15c.16.13,2.8,2.36-.82,3l-.48.07c-1.86.23-4.07,0-17.85-1.65-11.06-1.31-12.46-1.5-13.37-2-2.8-1.48,2.82-3.82,10.07-4.19A51.19,51.19,0,0,1,401,30.47Z"/><path class="cls-8" d="M401,30.47a15.71,15.71,0,0,1,4.37,2.15c.16.13,2.8,2.36-.82,3-1.13-.28-2.46-.63-4.12-1-9.56-2.16-16-2.09-17.52-3.49-.78-.74.07-1.68,2.73-2,3.29-.41,8.25.26,11.24.67C398.25,30,399.64,30.23,401,30.47Z"/><path class="cls-7" d="M456.33,31.62a11,11,0,0,1-3.72,2.2,32.82,32.82,0,0,1-10.38,2.12l-.59,0c-2.12-.09-3-.57-7.86-3.72-3.9-2.52-4.33-2.86-3.47-3.33,2.7-1.48,14.45-2.43,21-1.69C457.19,27.85,458.14,29.79,456.33,31.62Z"/><path class="cls-8" d="M456.33,31.62a11,11,0,0,1-3.72,2.2,32.82,32.82,0,0,1-10.38,2.12,5.43,5.43,0,0,0,.19-1.32c-.07-2.94-5.09-3.79-1.65-5a26.13,26.13,0,0,1,8.51-1.1c3.73.16,5.23,1.35,6.13,2.07A3.42,3.42,0,0,1,456.33,31.62Z"/><path class="cls-7" d="M501.74,34.5c-3.14.47-6.6.86-9.87,1.1-.6,0-11.07.79-14.53.1l-.39-.09c-1.27-.37-.35-.85,6.28-3.85,5.31-2.41,6.08-2.72,8.27-3,6.79-.71,18.53.24,21,1.71C514.62,31.84,509,33.4,501.74,34.5Z"/><path class="cls-8" d="M501.74,34.5c-3.14.47-6.6.86-9.87,1.1-.6,0-11.07.79-14.53.1,1.23-.26,2.77-.57,4.42-.94,9.47-2.18,8.54-3.52,15.11-3.95,3.47-.23,8.05-.14,9.84.39,2.23.64-.54,1.73-2.2,2.39C503.72,33.89,502.8,34.2,501.74,34.5Z"/><path class="cls-7" d="M537,38.32c-3.84.12-7.76.13-11.2,0-.63,0-11.57-.36-13.1-1.3a.58.58,0,0,1-.14-.12c-.32-.45,1.57-.79,14.11-2.81,10.07-1.63,11.43-1.83,13.89-1.82,7.61,0,15.9,2,14.78,3.53S545.87,38.05,537,38.32Z"/><path class="cls-8" d="M537,38.32c-3.84.12-7.76.13-11.2,0-.63,0-11.57-.36-13.1-1.3,1.66-.11,3.71-.24,6-.42,13.22-1,15.38-2.29,22.16-2,3.58.13,7.43.65,7.87,1.29s-4.33,1.48-7.27,1.91C540.08,38,538.58,38.16,537,38.32Z"/><path class="cls-7" d="M187.39,80.3c2.37-.56,5-1,7.56-1.39.47-.06,8.61-1.14,11.62-.62l.34.07c1.14.3.56.79-3.75,3.85-3.47,2.46-4,2.78-5.66,3.07-5.21.92-14.95.44-17.38-.85C177.94,83.27,181.92,81.59,187.39,80.3Z"/><path class="cls-8" d="M187.39,80.3c2.37-.56,5-1,7.56-1.39.47-.06,8.61-1.14,11.62-.62-.9.29-2,.63-3.23,1-6.87,2.39-5.69,3.61-10.82,4.25a28.07,28.07,0,0,1-8,0c-2-.53-.14-1.65,1-2.33A14.69,14.69,0,0,1,187.39,80.3Z"/><path class="cls-7" d="M173.77,70.26c3-.29,6.12-.48,8.92-.54.51,0,9.42-.2,11.15.61a.55.55,0,0,1,.17.1c.5.4-.83.8-9.74,3.27-7.15,2-8.14,2.23-10.1,2.33-6.08.34-13.75-1.11-13.68-2.6C160.55,72.11,166.83,70.93,173.77,70.26Z"/><path class="cls-8" d="M173.77,70.26c3-.29,6.12-.48,8.92-.54.51,0,9.42-.2,11.15.61-1.27.18-2.84.39-4.58.66-10,1.56-11,2.84-16.57,2.93-2.93,0-6.28-.26-7-.84-.85-.7,2.66-1.58,4.77-2.11C171.48,70.73,172.58,70.48,173.77,70.26Z"/><path class="cls-7" d="M185.49,59.13a75.11,75.11,0,0,1,7.5,1.06c.37.07,6.9,1.41,5.84,2.35a.83.83,0,0,1-.17.12c-.75.4-2.75.5-15.51,1-10.24.4-11.58.43-13.2.19-5-.75-6.2-3.2-2.1-4.38C171.52,58.4,179,58.5,185.49,59.13Z"/><path class="cls-8" d="M185.49,59.13a75.11,75.11,0,0,1,7.5,1.06c.37.07,6.9,1.41,5.84,2.35-1.34-.06-3-.16-4.89-.23-11-.42-15.23.44-19.19-.42-2.09-.46-3.52-1.26-2.42-1.84,1.36-.71,6.13-.82,9-.89C182.68,59.12,184.08,59.11,185.49,59.13Z"/><path class="cls-7" d="M209,51a4.84,4.84,0,0,1,2.15,2.1c0,.13.75,2.3-2.54,2.87l-.42.07c-1.62.19-3.24-.06-13.16-1.81-8-1.4-9-1.6-9.39-2.06-1.32-1.44,4.61-3.61,10.6-3.87C201.65,48.11,206.4,49.44,209,51Z"/><path class="cls-8" d="M209,51a4.84,4.84,0,0,1,2.15,2.1c0,.13.75,2.3-2.54,2.87-.72-.28-1.56-.63-2.65-1-6.25-2.18-11.45-2.19-11.75-3.55-.16-.72,1.1-1.6,3.42-1.88a29.25,29.25,0,0,1,8.51.79C207.18,50.56,208.14,50.79,209,51Z"/><path class="cls-7" d="M237.76,46.73a5.26,5.26,0,0,1-2.15,2.2,17.49,17.49,0,0,1-7.52,2.39h-.48c-1.73,0-2.62-.43-7.7-3.19-4.07-2.22-4.54-2.52-4-3,1.6-1.5,10.67-2.84,16.2-2.39C237,43.15,238.53,44.94,237.76,46.73Z"/><path class="cls-8" d="M237.76,46.73a5.26,5.26,0,0,1-2.15,2.2,17.49,17.49,0,0,1-7.52,2.39,7.72,7.72,0,0,0-.34-1.25c-1.17-2.75-5.51-3.36-3.22-4.66a15.24,15.24,0,0,1,6.41-1.35,9.58,9.58,0,0,1,5.69,1.71A5,5,0,0,1,237.76,46.73Z"/><path class="cls-7" d="M697.57,53.62A54.27,54.27,0,0,1,691.36,55c-.41.07-7.5,1.21-11,.86l-.42,0c-1.42-.21-1.3-.63.08-3.32,1.11-2.16,1.32-2.44,2.71-2.74,4.32-.92,14.48-.81,18.14.2C704.16,50.86,701.79,52.37,697.57,53.62Z"/><path class="cls-8" d="M697.57,53.62A54.27,54.27,0,0,1,691.36,55c-.41.07-7.5,1.21-11,.86.62-.26,1.42-.59,2.22-1,4.57-2.2,2.22-3.19,6.72-3.87a32.57,32.57,0,0,1,8-.24c2.49.39,1.71,1.38,1.24,2A4.18,4.18,0,0,1,697.57,53.62Z"/><path class="cls-7" d="M720.33,61.11c-2.72.33-5.65.59-8.38.72-.49,0-9.2.45-11.69-.18a1.58,1.58,0,0,1-.28-.08c-.87-.32.07-.69,6.6-3,5.25-1.86,6-2.1,7.84-2.25,5.74-.46,14.78.53,16.12,1.77S726.61,60.35,720.33,61.11Z"/><path class="cls-8" d="M720.33,61.11c-2.72.33-5.65.59-8.38.72-.49,0-9.2.45-11.69-.18,1.09-.18,2.45-.41,3.93-.68,8.48-1.6,8.28-2.71,13.73-2.94,2.88-.13,6.51,0,7.74.49,1.52.56-1.14,1.4-2.74,1.9C722.17,60.66,721.3,60.89,720.33,61.11Z"/><path class="cls-7" d="M726.67,70.12c-2.57-.14-5.07-.37-7.14-.66-.37,0-6.92-1-6.78-1.79a.19.19,0,0,1,0-.1c.31-.36,1.9-.5,12.22-1.29,8.27-.64,9.37-.71,10.92-.56,4.8.48,7.76,2.49,5.27,3.6C739,70.31,732.62,70.45,726.67,70.12Z"/><path class="cls-8" d="M726.67,70.12c-2.57-.14-5.07-.37-7.14-.66-.37,0-6.92-1-6.78-1.79,1.18,0,2.62,0,4.29,0,9.57,0,12.42-.83,16.44-.23,2.11.32,4,1,3.49,1.47s-4.48.87-6.83,1C729,70,727.87,70.09,726.67,70.12Z"/><path class="cls-7" d="M724.27,78.82a44,44,0,0,1-5.42-1.48c-.27-.09-4.88-1.75-3.82-2.48l.16-.09c.69-.29,2.24-.23,12.11.31,7.91.43,9,.5,10.11.83,3.62,1,3.86,3.24.41,4C734.72,80.51,729.06,79.86,724.27,78.82Z"/><path class="cls-8" d="M724.27,78.82a44,44,0,0,1-5.42-1.48c-.27-.09-4.88-1.75-3.82-2.48,1,.16,2.23.36,3.67.57,8.28,1.19,11.74.76,14.52,1.81,1.47.55,2.34,1.36,1.34,1.78-1.23.51-4.9.25-7.11.1C726.42,79,725.35,79,724.27,78.82Z"/><path class="cls-7" d="M707.15,84.39a18.24,18.24,0,0,1-4.14-1.7c-.16-.1-2.93-1.89-.21-2.47l.37-.07c1.42-.21,3.27-.05,14.84,1.12,9.27.93,10.46,1.07,11.32,1.44,2.69,1.17-1.15,3.16-6.88,3.55A46.65,46.65,0,0,1,707.15,84.39Z"/><path class="cls-8" d="M707.15,84.39a18.24,18.24,0,0,1-4.14-1.7c-.16-.1-2.93-1.89-.21-2.47,1,.21,2.16.48,3.61.76,8.31,1.64,13.51,1.5,15.1,2.62.84.6.44,1.38-1.61,1.68-2.53.37-6.72-.12-9.24-.41C709.47,84.73,708.29,84.57,707.15,84.39Z"/><path class="cls-7" d="M678.45,89.52a1.59,1.59,0,0,1,0-1.91c.08-.11,1.55-2,5.23-2.21l.47,0c1.73,0,3,.28,10.72,2.44,6.17,1.74,6.93,2,6.87,2.39-.17,1.29-7.93,2.68-13.87,2.47C682.58,92.48,679.39,91,678.45,89.52Z"/><path class="cls-8" d="M678.45,89.52a1.59,1.59,0,0,1,0-1.91c.08-.11,1.55-2,5.23-2.21.41.28.87.63,1.53,1,3.78,2.26,8.7,2.64,7.65,3.79-.56.61-2.62,1.26-5.1,1.33a22.11,22.11,0,0,1-7.3-1.26A20.65,20.65,0,0,1,678.45,89.52Z"/><path class="cls-7" d="M531.29,100.9c-2.94-.38-5.61-.83-7.63-1.3-.37-.08-6.73-1.58-4.92-2.33a.88.88,0,0,1,.26-.09c1.11-.31,3.4-.3,17.93-.06,11.66.19,13.18.22,14.81.52,5.08.9,4.76,3.08-.59,3.89C546.35,102.25,538.1,101.78,531.29,100.9Z"/><path class="cls-8" d="M531.29,100.9c-2.94-.38-5.61-.83-7.63-1.3-.37-.08-6.73-1.58-4.92-2.33,1.45.12,3.2.29,5.29.45,12,.93,17.24.4,21.07,1.35,2,.5,3.07,1.27,1.46,1.71-2,.55-7.37.4-10.62.32C534.42,101.06,532.86,101,531.29,100.9Z"/><path class="cls-7" d="M501.27,104.5a11,11,0,0,1-3.46-1.93c-.11-.11-2-2,1.51-2.47l.46,0c1.75-.13,3.72.14,15.88,2,9.76,1.46,11,1.67,11.71,2.09,2.19,1.31-3.53,3.07-10.24,3.12A45.51,45.51,0,0,1,501.27,104.5Z"/><path class="cls-8" d="M501.27,104.5a11,11,0,0,1-3.46-1.93c-.11-.11-2-2,1.51-2.47,1,.27,2.09.6,3.51,1,8.19,2.11,14.13,2.27,15.12,3.48.52.64-.48,1.39-3,1.57a49,49,0,0,1-10.1-.94C503.63,105,502.42,104.75,501.27,104.5Z"/><path class="cls-7" d="M471.92,106.51a1.13,1.13,0,0,1,.47-1.46,8.83,8.83,0,0,1,5.45-1.17l.45,0c1.65.14,2.8.52,9.63,3,5.47,1.95,6.14,2.21,6,2.52-.45,1-8.12,1.26-13.71.49C475.18,109.2,472.48,107.77,471.92,106.51Z"/><path class="cls-8" d="M471.92,106.51a1.13,1.13,0,0,1,.47-1.46,8.83,8.83,0,0,1,5.45-1.17c.33.26.68.58,1.22,1,3.09,2.11,7.67,2.91,6.42,3.68a11,11,0,0,1-5.13.5,23.12,23.12,0,0,1-6.65-1.7A19.06,19.06,0,0,1,471.92,106.51Z"/><path class="cls-7" d="M436.19,108.12a10.07,10.07,0,0,1,3.35-1.83,31.92,31.92,0,0,1,9.47-1.77h.54c1.95.07,2.77.47,7.34,3.08,3.66,2.1,4.07,2.37,3.29,2.77-2.43,1.24-13.2,2-19.24,1.43C435.52,111.26,434.59,109.65,436.19,108.12Z"/><path class="cls-8" d="M436.19,108.12a10.07,10.07,0,0,1,3.35-1.83,31.92,31.92,0,0,1,9.47-1.77,3.85,3.85,0,0,0-.14,1.09c.16,2.44,4.8,3.15,1.68,4.19a26.17,26.17,0,0,1-7.78.92,9.35,9.35,0,0,1-5.7-1.71A3,3,0,0,1,436.19,108.12Z"/><path class="cls-7" d="M399.13,106.09a47.77,47.77,0,0,1,5.59-1.74c.37-.09,6.92-1.72,10.49-1.78h.42c1.48,0,1.52.38,1.16,2.7-.29,1.85-.39,2.1-1.65,2.48-3.91,1.17-13.93,2.09-17.9,1.63C393.67,109,395.44,107.51,399.13,106.09Z"/><path class="cls-8" d="M399.13,106.09a47.77,47.77,0,0,1,5.59-1.74c.37-.09,6.92-1.72,10.49-1.78-.52.27-1.19.61-1.83,1-3.68,2.23-1,2.8-5.17,3.8a36.5,36.5,0,0,1-7.78,1c-2.6-.06-2.2-.94-2-1.47A2.26,2.26,0,0,1,399.13,106.09Z"/><path class="cls-7" d="M366.25,100.85c2.87-.39,6-.72,9-.92.55,0,10.14-.68,13.34-.1l.36.07c1.18.3.35.7-5.64,3.21-4.81,2-5.5,2.27-7.51,2.46-6.22.6-17-.17-19.3-1.39C354.49,103.08,359.6,101.77,366.25,100.85Z"/><path class="cls-8" d="M366.25,100.85c2.87-.39,6-.72,9-.92.55,0,10.14-.68,13.34-.1-1.12.21-2.53.47-4,.79-8.63,1.82-7.74,2.93-13.76,3.29a39.73,39.73,0,0,1-9.05-.3c-2.06-.54.44-1.45,2-2C364.44,101.36,365.28,101.1,366.25,100.85Z"/><path class="cls-7" d="M349.66,95.67c3.52-.11,7.13-.12,10.29,0,.58,0,10.64.29,12.07,1.07a.49.49,0,0,1,.13.1c.31.37-1.41.65-12.87,2.35-9.19,1.37-10.44,1.54-12.69,1.53-7,0-14.67-1.64-13.69-2.91S341.51,95.9,349.66,95.67Z"/><path class="cls-8" d="M349.66,95.67c3.52-.11,7.13-.12,10.29,0,.58,0,10.64.29,12.07,1.07-1.52.1-3.4.2-5.51.35-12.11.87-14.05,1.93-20.29,1.73-3.29-.11-6.85-.53-7.27-1.06s3.93-1.24,6.61-1.6C346.82,96,348.2,95.8,349.66,95.67Z"/></svg>