<?xml version="1.0" encoding="utf-8"?>
<!-- Generator: Adobe Illustrator 25.2.1, SVG Export Plug-In . SVG Version: 6.00 Build 0)  -->
<svg version="1.1" id="Layer_1" xmlns="http://www.w3.org/2000/svg" xmlns:xlink="http://www.w3.org/1999/xlink" x="0px" y="0px"
	 viewBox="0 0 1242 2208" style="enable-background:new 0 0 1242 2208;" xml:space="preserve">
<style type="text/css">
	.st0{fill:url(#SVGID_1_);}
	.st1{clip-path:url(#SVGID_3_);}
	.st2{opacity:0.6;fill:#107187;}
</style>
<radialGradient id="SVGID_1_" cx="620.04" cy="838.2947" r="896.01" gradientTransform="matrix(1 0 0 -1.63 0 2467.1704)" gradientUnits="userSpaceOnUse">
	<stop  offset="0" style="stop-color:#FFFFFF"/>
	<stop  offset="1.000000e-02" style="stop-color:#FDFEFE"/>
	<stop  offset="0.29" style="stop-color:#AACDDA"/>
	<stop  offset="0.54" style="stop-color:#68A7BD"/>
	<stop  offset="0.75" style="stop-color:#398BA8"/>
	<stop  offset="0.91" style="stop-color:#1C7A9B"/>
	<stop  offset="1" style="stop-color:#117496"/>
</radialGradient>
<rect x="-1.9" y="0" class="st0" width="1243.9" height="2208"/>
<g>
	<defs>
		<rect id="SVGID_2_" x="-1.9" width="1243.9" height="2208"/>
	</defs>
	<clipPath id="SVGID_3_">
		<use xlink:href="#SVGID_2_"  style="overflow:visible;"/>
	</clipPath>
	<g class="st1">
		<polygon class="st2" points="621,1104 573.3,2557.6 668.7,2557.6 		"/>
		<polygon class="st2" points="621,1104 826.4,2543.9 920.4,2527.3 		"/>
		<polygon class="st2" points="621,1104 1073.3,2486.3 1163,2453.6 		"/>
		<polygon class="st2" points="621,1104 1306.5,2386.8 1389.2,2339 		"/>
		<polygon class="st2" points="621,1104 1518.8,2248.2 1591.9,2186.9 		"/>
		<polygon class="st2" points="621,1104 1703.9,2074.9 1765.2,2001.8 		"/>
		<polygon class="st2" points="621,1104 1856,1872.2 1903.8,1789.5 		"/>
		<polygon class="st2" points="621,1104 1970.7,1646 2003.3,1556.3 		"/>
		<polygon class="st2" points="621,1104 2044.3,1403.4 2060.9,1309.4 		"/>
		<polygon class="st2" points="621,1104 2074.6,1151.7 2074.6,1056.3 		"/>
		<polygon class="st2" points="621,1104 2060.9,898.6 2044.3,804.6 		"/>
		<polygon class="st2" points="621,1104 2003.3,651.7 1970.7,562 		"/>
		<polygon class="st2" points="621,1104 1903.8,418.5 1856,335.8 		"/>
		<polygon class="st2" points="621,1104 1765.2,206.2 1703.9,133.1 		"/>
		<polygon class="st2" points="621,1104 1591.9,21.1 1518.8,-40.2 		"/>
		<polygon class="st2" points="621,1104 1389.2,-131 1306.5,-178.8 		"/>
		<polygon class="st2" points="621,1104 1163,-245.6 1073.3,-278.3 		"/>
		<polygon class="st2" points="621,1104 920.4,-319.3 826.4,-335.9 		"/>
		<polygon class="st2" points="621,1104 415.6,2543.9 321.6,2527.3 		"/>
		<polygon class="st2" points="621,1104 168.7,2486.3 79,2453.6 		"/>
		<polygon class="st2" points="621,1104 -64.5,2386.8 -147.2,2339 		"/>
		<polygon class="st2" points="621,1104 -276.8,2248.2 -350,2186.9 		"/>
		<polygon class="st2" points="621,1104 -461.9,2074.9 -523.2,2001.8 		"/>
		<polygon class="st2" points="621,1104 -614,1872.2 -661.8,1789.5 		"/>
		<polygon class="st2" points="621,1104 -728.7,1646 -761.3,1556.3 		"/>
		<polygon class="st2" points="621,1104 -802.3,1403.4 -818.8,1309.4 		"/>
		<polygon class="st2" points="621,1104 -832.6,1151.7 -832.6,1056.3 		"/>
		<polygon class="st2" points="621,1104 -818.8,898.6 -802.3,804.6 		"/>
		<polygon class="st2" points="621,1104 -761.3,651.7 -728.7,562 		"/>
		<polygon class="st2" points="621,1104 -661.8,418.5 -614,335.8 		"/>
		<polygon class="st2" points="621,1104 -523.2,206.2 -461.9,133.1 		"/>
		<polygon class="st2" points="621,1104 -350,21.1 -276.8,-40.2 		"/>
		<polygon class="st2" points="621,1104 -147.2,-131 -64.5,-178.8 		"/>
		<polygon class="st2" points="621,1104 79,-245.6 168.7,-278.3 		"/>
		<polygon class="st2" points="621,1104 321.6,-319.3 415.6,-335.9 		"/>
		<polygon class="st2" points="621,1104 668.7,-349.6 573.3,-349.6 		"/>
	</g>
</g>
</svg>
