<svg id="Layer_1" data-name="Layer 1" xmlns="http://www.w3.org/2000/svg" xmlns:xlink="http://www.w3.org/1999/xlink" viewBox="0 0 1242 2208"><defs><style>.cls-1,.cls-22,.cls-23{fill:none;}.cls-2{fill:#d6d880;}.cls-3{fill:#9bddac;}.cls-4{fill:#c4eabb;}.cls-5{fill:#bab75b;}.cls-5,.cls-6,.cls-8{opacity:0.7;}.cls-6{fill:#76a581;}.cls-7{fill:#826b54;}.cls-8{fill:#a3bf99;}.cls-9{clip-path:url(#clip-path);}.cls-10{fill:url(#linear-gradient);}.cls-11{fill:url(#linear-gradient-2);}.cls-12{fill:url(#linear-gradient-3);}.cls-13{fill:#034442;}.cls-14{clip-path:url(#clip-path-2);}.cls-15{fill:#067267;}.cls-15,.cls-16{opacity:0.2;}.cls-16{fill:#076d68;}.cls-17{clip-path:url(#clip-path-3);}.cls-18{fill:#f2eada;}.cls-18,.cls-22,.cls-23{stroke:#000f2d;stroke-miterlimit:10;}.cls-18,.cls-23{stroke-width:20.9px;}.cls-19{opacity:0.8;}.cls-20{clip-path:url(#clip-path-4);}.cls-21{fill:#bcb19b;}.cls-22{stroke-linecap:round;stroke-width:3.48px;}.cls-24{clip-path:url(#clip-path-5);}.cls-25{fill:url(#linear-gradient-4);}.cls-26{fill:url(#linear-gradient-5);}.cls-27{fill:url(#linear-gradient-6);}</style><clipPath id="clip-path"><rect class="cls-1" y="-248.44" width="1242" height="2208"/></clipPath><linearGradient id="linear-gradient" x1="-235.11" y1="744.37" x2="1472.4" y2="744.37" gradientUnits="userSpaceOnUse"><stop offset="0" stop-color="#b7713d"/><stop offset="1" stop-color="#c17e40"/></linearGradient><linearGradient id="linear-gradient-2" x1="621" y1="1369.12" x2="621" y2="1247.92" gradientUnits="userSpaceOnUse"><stop offset="0" stop-color="#56381d"/><stop offset="1" stop-color="#774c28"/></linearGradient><linearGradient id="linear-gradient-3" x1="618.64" y1="1162.03" x2="618.64" y2="1301.16" gradientUnits="userSpaceOnUse"><stop offset="0" stop-color="#af6b38"/><stop offset="1" stop-color="#a36634"/></linearGradient><clipPath id="clip-path-2"><rect class="cls-1" x="-202.05" y="355.89" width="1641.4" height="801.34"/></clipPath><clipPath id="clip-path-3"><rect class="cls-1" x="1155.81" width="87.24" height="216.63"/></clipPath><clipPath id="clip-path-4"><path class="cls-1" d="M1305-96.67S1194.18-58.56,1161.33,27.72c-6.76,17.76-33.57,88.19,5.94,148.35,49.79,75.84,156.45,61.49,162.15,60.63,78.31-11.79,135.13-102.51,135.13-102.51-11.64,6.71-54.89,29.78-109.39,18.61-13.49-2.77-58.84-12.07-86.65-53.69-28.21-42.23-18.82-88.47-15.33-105.67C1263.13-55.54,1293.13-85.86,1305-96.67Z"/></clipPath><clipPath id="clip-path-5"><rect class="cls-1" x="1403.23" y="-248.44" width="1242" height="2208"/></clipPath><linearGradient id="linear-gradient-4" x1="1168.12" y1="744.37" x2="2875.64" y2="744.37" xlink:href="#linear-gradient"/><linearGradient id="linear-gradient-5" x1="2024.23" y1="1369.12" x2="2024.23" y2="1247.92" xlink:href="#linear-gradient-2"/><linearGradient id="linear-gradient-6" x1="2021.88" y1="1162.03" x2="2021.88" y2="1301.16" xlink:href="#linear-gradient-3"/></defs><rect class="cls-2" x="-1.06" y="1963.89" width="1242" height="244.11"/><rect class="cls-3" x="-0.06" y="1348.29" width="1242" height="627.82"/><rect class="cls-4" x="-1.06" width="1242" height="1348.29"/><path class="cls-5" d="M0,2152.38c190.35-1.59,391.36-7.5,601.89-19.15,225.62-12.48,439.31-30.29,640-51.56L1242,2208H0Z"/><path class="cls-6" d="M-1.06,1751a2039.86,2039.86,0,0,0,348.67,78.81c240.4,32.46,438.55,15.59,622.11-1.06,113.68-10.32,207.12-23.8,271.22-34.18l2.12,165.6L.83,1963.89Z"/><rect class="cls-7" x="-1.06" y="1932.78" width="1242" height="65.78"/><path class="cls-8" d="M-1.06,162.94q218.4-18.56,437.56-32.44,400.93-25.41,804.44-35.16V0H-1.06Z"/><g class="cls-9"><rect class="cls-10" x="-235.11" y="322.83" width="1707.51" height="843.07"/><rect class="cls-11" x="-231.84" y="1286.46" width="1705.68" height="61.83"/><rect class="cls-12" x="-268.17" y="1166.31" width="1773.63" height="123.66"/><rect class="cls-13" x="-202.05" y="355.89" width="1641.4" height="810.42"/><g class="cls-14"><path class="cls-15" d="M151.52,234.69c-26.81,28.79-96,103-100.61,207C43.56,605.81,202.15,730.88,283.75,795.24c221.75,174.87,471.31,208.43,592.17,215.59,133.74,7.93,596.86,35.36,809-281.78,22.91-34.25,161.47-249.78,82.13-439.74C1590.4-133.66,468.8-106,151.52,234.69Z"/><path class="cls-16" d="M413.58,76c-15.4,18.78-55.14,67.22-57.82,135-4.22,107.1,86.92,188.7,133.82,230.69C617,555.8,760.44,577.7,829.9,582.37c76.86,5.17,343,23.07,464.93-183.85,13.16-22.35,92.79-163,47.2-286.92C1240.51-164.37,595.92-146.32,413.58,76Z"/></g></g><g class="cls-17"><circle class="cls-18" cx="1337.47" cy="54.67" r="151.59"/><g class="cls-19"><g class="cls-20"><ellipse class="cls-21" cx="1336.7" cy="55.29" rx="141.31" ry="140.32" transform="matrix(0.82, -0.57, 0.57, 0.82, 205.7, 769.9)"/></g></g><line class="cls-22" x1="1238.2" y1="15.75" x2="1216.94" y2="3.48"/><line class="cls-22" x1="1235.09" y1="93.58" x2="1213.83" y2="105.86"/><line class="cls-22" x1="1205.98" y1="54.67" x2="1230.53" y2="54.67"/><circle class="cls-23" cx="1336.63" cy="55.24" r="151.59"/></g><g class="cls-24"><rect class="cls-25" x="1168.12" y="322.83" width="1707.51" height="843.07"/><rect class="cls-26" x="1171.4" y="1286.46" width="1705.68" height="61.83"/><rect class="cls-27" x="1135.06" y="1166.31" width="1773.63" height="123.66"/><rect class="cls-13" x="1201.18" y="355.89" width="1641.4" height="810.42"/></g></svg>