<svg id="Layer_1" data-name="Layer 1" xmlns="http://www.w3.org/2000/svg" viewBox="0 0 279.72 103.91"><defs><style>.cls-1{fill:#ede3d3;}.cls-2,.cls-3{fill:none;stroke-miterlimit:10;}.cls-2{stroke:#003960;stroke-linecap:round;stroke-width:11.33px;}.cls-3{stroke:#685a4d;stroke-width:0.45px;}</style></defs><path class="cls-1" d="M265.26,95.07H13.46a141.39,141.39,0,0,1,0-92.58h251.8a152.66,152.66,0,0,0,0,92.58Z"/><path class="cls-2" d="M274.05,5.67H13.21a145.8,145.8,0,0,0,0,92.57H274.05"/><line class="cls-3" x1="14.84" y1="24.31" x2="83.86" y2="24.31"/><line class="cls-3" x1="26.41" y1="39.05" x2="109.38" y2="39.05"/><line class="cls-3" x1="258.07" y1="48.78" x2="182.92" y2="48.78"/><line class="cls-3" x1="258.48" y1="28.43" x2="152.53" y2="28.43"/><line class="cls-3" x1="258.48" y1="64.85" x2="233.61" y2="64.85"/><line class="cls-3" x1="258.48" y1="39.05" x2="246.05" y2="39.05"/><line class="cls-3" x1="34.09" y1="51.95" x2="9.22" y2="51.95"/><line class="cls-3" x1="263.2" y1="83.83" x2="157.61" y2="83.83"/><line class="cls-3" x1="86.75" y1="73.2" x2="11.95" y2="73.2"/><path d="M103.61,48.59q0,6.12-4.86,12.89-5,7.2-10.93,7.94a6.59,6.59,0,0,1-3.6-6.07l2.46-2.16q2.58,0,4.86-2.7a29.18,29.18,0,0,0,3.14-4.86,10.13,10.13,0,0,0,1.43-4.69c0-1.56-.33-2.6-1-3.12A5.6,5.6,0,0,0,91.72,45q-4.2,0-15.82,4.87a5.9,5.9,0,0,1-3.55-5.45l1-2.46a50.43,50.43,0,0,1,20.86-4.75A8.29,8.29,0,0,1,101.56,41,13.32,13.32,0,0,1,103.61,48.59Z"/><path d="M126.67,29.19q-4.52,27.37-12.42,40.29a7.29,7.29,0,0,1-5.72-2.35L108.18,65q9-12.72,9-33.32a22.47,22.47,0,0,1,6.94-4.3Z"/><path d="M153.47,55.12q0,6.06-4.19,12.66a24.26,24.26,0,0,1-5.72,6.09c-2.38,1.82-4.4,2.73-6.08,2.73a11.2,11.2,0,0,1-5.42-1.09l-.71-2.81c1.92-2.52,3.77-4.14,5.57-4.86.68,1.32,1.47,2,2.34,2s2.12-1,3.37-2.93a19.41,19.41,0,0,0,2.13-4.43,13.84,13.84,0,0,0,.63-4.16c0-2.88-1.09-4.33-3.25-4.33q-2.82,0-7.8,2.9a9.64,9.64,0,0,1-1.73-4.34q3.55-5.94,5.16-17.46A25,25,0,0,1,145,31l1.78,2.46q-1.2,4.37-5,14.27a13.79,13.79,0,0,1,5.6-.91A5.26,5.26,0,0,1,152,49.67,10.21,10.21,0,0,1,153.47,55.12Z"/><path d="M193.55,47q0,4.47-2.91,11.92c-1.95,5-3.91,8.58-5.91,10.87q-4.92-1.08-6.47-2.87l.12-2.9a26.64,26.64,0,0,0,5.33-7.91A21.8,21.8,0,0,0,186.29,47c0-2.17-1.54-3.26-4.6-3.26q-2.91,0-9.26,3.26-3.54,17.07-7.5,22.79a11.78,11.78,0,0,1-6.83-3.19v-3.4q3-2.3,6.18-13.86a37.46,37.46,0,0,0,1.56-9.73,23.35,23.35,0,0,0-.24-3.31L170,32.27l2.69.82a20.22,20.22,0,0,1,.91,5.13q6.3-2.17,8.29-2.17a28.87,28.87,0,0,1,4.19.23q3.07.61,5.33,4.13A12,12,0,0,1,193.55,47Z"/></svg>