<svg id="Layer_1" data-name="Layer 1" xmlns="http://www.w3.org/2000/svg" xmlns:xlink="http://www.w3.org/1999/xlink" viewBox="0 0 1242 2208"><defs><style>.cls-1,.cls-21,.cls-23,.cls-24,.cls-26,.cls-27,.cls-28,.cls-29,.cls-37,.cls-38{fill:none;}.cls-2{fill:#d6d880;}.cls-3{fill:#9bddac;}.cls-4{fill:#c4eabb;}.cls-5{fill:#bab75b;}.cls-11,.cls-5,.cls-7,.cls-8{opacity:0.7;}.cls-6{fill:#826b54;}.cls-7{fill:#76a581;}.cls-8{fill:#a3bf99;}.cls-9{fill:#562113;}.cls-10{fill:#c16157;}.cls-11,.cls-15{fill:#ce8d89;}.cls-12{fill:#ad5145;}.cls-13{fill:#c46e62;}.cls-14{fill:#a54b42;}.cls-16{fill:#c65f4e;}.cls-17{fill:#f2eada;}.cls-17,.cls-21,.cls-23,.cls-24{stroke:#000f2d;}.cls-17,.cls-21,.cls-23,.cls-24,.cls-26,.cls-27,.cls-28,.cls-29,.cls-37,.cls-38{stroke-miterlimit:10;}.cls-17,.cls-24{stroke-width:15.78px;}.cls-18{opacity:0.8;}.cls-19{clip-path:url(#clip-path);}.cls-20{fill:#bcb19b;}.cls-21,.cls-23,.cls-26,.cls-28,.cls-37{stroke-linecap:round;}.cls-21{stroke-width:2.63px;}.cls-22{fill:#000f2d;}.cls-23{stroke-width:7.89px;}.cls-25{fill:#ede3d3;}.cls-26{stroke:#7d29ce;}.cls-26,.cls-28,.cls-37{stroke-width:8px;}.cls-27,.cls-29,.cls-38{stroke:#685a4d;}.cls-27{stroke-width:0.32px;}.cls-28{stroke:#f49b19;}.cls-29{stroke-width:0.32px;}.cls-30{fill:url(#linear-gradient);}.cls-31{fill:url(#linear-gradient-2);}.cls-32{fill:url(#linear-gradient-3);}.cls-33{fill:#034442;}.cls-34{clip-path:url(#clip-path-2);}.cls-35{fill:#067267;}.cls-35,.cls-36{opacity:0.2;}.cls-36{fill:#076d68;}.cls-37{stroke:#006856;}.cls-38{stroke-width:0.32px;}</style><clipPath id="clip-path"><path class="cls-1" d="M1060.73,32.49s-83.62,28.77-108.41,93.89c-5.1,13.4-25.34,66.57,4.48,112,37.59,57.24,118.09,46.41,122.39,45.76,59.11-8.9,102-77.38,102-77.38-8.78,5.07-41.43,22.49-82.56,14-10.19-2.09-44.42-9.11-65.41-40.52-21.29-31.88-14.2-66.79-11.57-79.77C1029.16,63.53,1051.8,40.64,1060.73,32.49Z"/></clipPath><linearGradient id="linear-gradient" x1="28.7" y1="628.43" x2="1213.16" y2="628.43" gradientUnits="userSpaceOnUse"><stop offset="0" stop-color="#b7713d"/><stop offset="1" stop-color="#c17e40"/></linearGradient><linearGradient id="linear-gradient-2" x1="622.56" y1="1100.03" x2="622.56" y2="1015.95" gradientUnits="userSpaceOnUse"><stop offset="0" stop-color="#56381d"/><stop offset="1" stop-color="#774c28"/></linearGradient><linearGradient id="linear-gradient-3" x1="620.93" y1="956.37" x2="620.93" y2="1052.88" gradientUnits="userSpaceOnUse"><stop offset="0" stop-color="#af6b38"/><stop offset="1" stop-color="#a36634"/></linearGradient><clipPath id="clip-path-2"><rect class="cls-1" x="51.63" y="323.73" width="1138.6" height="628.53"/></clipPath></defs><rect class="cls-2" x="-1.06" y="1629.11" width="1242" height="578.89"/><rect class="cls-3" x="-1.06" y="1242.44" width="1242" height="398.89"/><rect class="cls-4" x="-1.06" width="1242" height="1244.67"/><path class="cls-5" d="M-1.06,2136.08c190.35-2,391.36-9.69,601.89-24.75,225.62-16.14,439.31-39.16,640-66.66l.11,163.33H-1.06Z"/><rect class="cls-6" x="-1.06" y="1233.56" width="1242" height="22.22"/><path class="cls-7" d="M-1.06,1373.56c141.64,54.38,262.92,80.7,348.67,94.6,240.4,39,438.55,18.72,622.11-1.27,113.68-12.38,207.12-28.56,271.22-41l2.12,198.81L.83,1629.11Z"/><rect class="cls-6" x="-1.06" y="1598" width="1242" height="43.33"/><path class="cls-8" d="M-1.06,262.44q218.4-29.88,437.56-52.25,400.93-40.92,804.44-56.63V0H-1.06Z"/><rect class="cls-9" x="569.96" y="1711.8" width="27.86" height="78.43"/><rect class="cls-9" x="780.67" y="1711.61" width="27.86" height="78.43"/><rect class="cls-9" x="605.43" y="1712" width="23" height="56.48"/><rect class="cls-9" x="816.02" y="1712" width="23" height="56.48"/><rect class="cls-10" x="547.72" y="1186.66" width="302.75" height="127.15" rx="35.72"/><path class="cls-11" d="M592.24,1223.43c11.53,25.19,47.14,31.52,76.6,36.76,65.73,11.7,147,.27,159.32-1.53,7.72-1.12,14.65-2.27,20.87-2.69v-33.59a35.82,35.82,0,0,0-35.71-35.72H590.88C588.34,1198.16,586.66,1211.24,592.24,1223.43Z"/><rect class="cls-12" x="1093.38" y="1305.37" width="31.11" height="495.56"/><rect class="cls-13" x="46.38" y="1305.37" width="824.44" height="406.67"/><path class="cls-14" d="M46.38,1305.37H870.83v62.23L77.49,1529.82v346.66H46.38Z"/><path class="cls-15" d="M46.14,1305.37H21.94V1287.6H913.05v17.77Z"/><rect class="cls-15" x="870.82" y="1305.37" width="31.11" height="571.11"/><rect class="cls-16" x="913.05" y="1287.6" width="225.99" height="17.78"/><polygon class="cls-10" points="901.94 1712.04 1101.94 1663.15 1101.94 1305.37 901.94 1305.37 901.94 1712.04"/><path class="cls-14" d="M901.94,1305.37h200v93.5l-200,75.39Z"/><rect class="cls-14" x="247.06" y="1712.04" width="31.11" height="88.89"/><circle class="cls-17" cx="1085.27" cy="146.72" r="114.42"/><g class="cls-18"><g class="cls-19"><ellipse class="cls-20" cx="1084.69" cy="147.19" rx="106.66" ry="105.92" transform="translate(108.74 642.91) rotate(-34.66)"/></g></g><line class="cls-21" x1="1085.27" y1="47.47" x2="1085.27" y2="66"/><line class="cls-21" x1="1085.27" y1="227.44" x2="1085.27" y2="245.97"/><line class="cls-21" x1="1165.99" y1="146.72" x2="1184.52" y2="146.72"/><line class="cls-21" x1="1116.17" y1="71.78" x2="1125.44" y2="55.73"/><line class="cls-21" x1="1143.9" y1="91.76" x2="1157" y2="78.66"/><line class="cls-21" x1="1160.73" y1="117.43" x2="1176.78" y2="108.16"/><line class="cls-21" x1="1054.91" y1="71.7" x2="1045.64" y2="55.65"/><line class="cls-21" x1="1027.18" y1="91.68" x2="1014.08" y2="78.57"/><line class="cls-21" x1="1010.34" y1="117.34" x2="994.3" y2="108.08"/><line class="cls-21" x1="1163.27" y1="174.85" x2="1179.31" y2="184.12"/><line class="cls-21" x1="1143.28" y1="202.58" x2="1156.39" y2="215.68"/><line class="cls-21" x1="1117.62" y1="219.41" x2="1126.88" y2="235.46"/><line class="cls-21" x1="1007.99" y1="176.09" x2="991.94" y2="185.36"/><line class="cls-21" x1="1027.97" y1="203.82" x2="1014.87" y2="216.92"/><line class="cls-21" x1="1053.64" y1="220.66" x2="1044.37" y2="236.7"/><line class="cls-21" x1="986.02" y1="146.72" x2="1004.55" y2="146.72"/><circle class="cls-22" cx="1085.27" cy="146.72" r="6.05"/><line class="cls-23" x1="1065.62" y1="199.63" x2="1085.27" y2="145.41"/><line class="cls-23" x1="1122.45" y1="124.09" x2="1083.27" y2="146.72"/><circle class="cls-24" cx="1084.64" cy="147.15" r="114.42"/><path class="cls-25" d="M355.69,1218.16H103.86c-3.33-4.82-7.9-13.15-7.78-23.8.1-10.24,4.5-18.27,7.78-23H355.69a44.33,44.33,0,0,0-7.14,21.49C348,1204,352.32,1212.83,355.69,1218.16Z"/><path class="cls-26" d="M364.49,1172.94H103.62a42.31,42.31,0,0,0-7.54,23c-.11,10.64,4.31,19,7.54,23.79H364.49"/><line class="cls-27" x1="105.25" y1="1182.37" x2="174.28" y2="1182.37"/><line class="cls-27" x1="116.82" y1="1189.83" x2="199.8" y2="1189.83"/><line class="cls-27" x1="348.51" y1="1194.75" x2="273.34" y2="1194.75"/><line class="cls-27" x1="348.92" y1="1184.46" x2="242.95" y2="1184.46"/><line class="cls-27" x1="348.92" y1="1202.88" x2="324.04" y2="1202.88"/><line class="cls-27" x1="348.92" y1="1189.83" x2="336.48" y2="1189.83"/><line class="cls-27" x1="124.5" y1="1196.35" x2="99.63" y2="1196.35"/><line class="cls-27" x1="353.64" y1="1212.47" x2="248.03" y2="1212.47"/><line class="cls-27" x1="177.17" y1="1207.1" x2="102.36" y2="1207.1"/><path class="cls-25" d="M332.84,1281.41H126.9a63.35,63.35,0,0,1,0-55.38H332.84a68.16,68.16,0,0,0,0,55.38Z"/><path class="cls-28" d="M340,1227.93H126.7a65.2,65.2,0,0,0,0,55.38H340"/><line class="cls-29" x1="128.03" y1="1239.08" x2="184.49" y2="1239.08"/><line class="cls-29" x1="137.5" y1="1247.9" x2="205.35" y2="1247.9"/><line class="cls-29" x1="326.96" y1="1253.72" x2="265.5" y2="1253.72"/><line class="cls-29" x1="327.3" y1="1241.55" x2="240.64" y2="1241.55"/><line class="cls-29" x1="327.3" y1="1263.34" x2="306.96" y2="1263.34"/><line class="cls-29" x1="327.3" y1="1247.9" x2="317.13" y2="1247.9"/><line class="cls-29" x1="143.78" y1="1255.62" x2="123.44" y2="1255.62"/><line class="cls-29" x1="331.16" y1="1274.69" x2="244.8" y2="1274.69"/><line class="cls-29" x1="186.85" y1="1268.33" x2="125.67" y2="1268.33"/><rect class="cls-30" x="28.7" y="297.8" width="1184.47" height="661.26"/><rect class="cls-31" x="30.97" y="1042.69" width="1183.19" height="42.89"/><rect class="cls-32" x="5.76" y="959.34" width="1230.33" height="85.78"/><rect class="cls-33" x="51.63" y="323.73" width="1138.6" height="635.62"/><g class="cls-34"><path class="cls-35" d="M296.9,313.1c-18.6,20-66.57,71.47-69.8,143.57C222,570.54,332,657.29,388.62,701.94,542.44,823.24,715.56,846.52,799.4,851.49c92.77,5.5,414,24.53,561.18-195.47,15.89-23.75,112-173.26,57-305C1295,57.58,517,76.76,296.9,313.1Z"/><path class="cls-36" d="M478.68,203c-10.69,13-38.25,46.64-40.11,93.68-2.93,74.29,60.29,130.9,92.83,160,88.4,79.15,187.89,94.34,236.07,97.58,53.32,3.59,237.94,16,322.51-127.53,9.14-15.5,64.37-113,32.74-199C1052.3,36.28,605.17,48.79,478.68,203Z"/></g><path class="cls-25" d="M343.23,1162.48H165.46a99.81,99.81,0,0,1,0-65.36H343.23a106.5,106.5,0,0,0-5,30A107.68,107.68,0,0,0,343.23,1162.48Z"/><path class="cls-37" d="M349.44,1099.36H165.28a103,103,0,0,0,0,65.36H349.44"/><line class="cls-38" x1="166.43" y1="1112.52" x2="215.17" y2="1112.52"/><line class="cls-38" x1="174.6" y1="1122.93" x2="233.18" y2="1122.93"/><line class="cls-38" x1="338.16" y1="1129.8" x2="285.1" y2="1129.8"/><line class="cls-38" x1="338.45" y1="1115.43" x2="263.64" y2="1115.43"/><line class="cls-38" x1="338.45" y1="1141.14" x2="320.89" y2="1141.14"/><line class="cls-38" x1="338.45" y1="1122.93" x2="329.67" y2="1122.93"/><line class="cls-38" x1="180.03" y1="1132.04" x2="162.47" y2="1132.04"/><line class="cls-38" x1="341.78" y1="1154.54" x2="267.23" y2="1154.54"/><line class="cls-38" x1="217.2" y1="1147.04" x2="164.4" y2="1147.04"/></svg>