<svg id="Layer_1" data-name="Layer 1" xmlns="http://www.w3.org/2000/svg" viewBox="0 0 279.72 103.91">
    <defs>
        <style>.cls-1{fill:#ede3d3;}.cls-2,.cls-3{fill:none;stroke-miterlimit:10;}.cls-2{stroke:#003960;stroke-linecap:round;stroke-width:11.33px;}.cls-3{stroke:#685a4d;stroke-width:0.45px;}</style>
    </defs>
    <path class="cls-1" d="M265.26,95.07H13.46a141.39,141.39,0,0,1,0-92.58h251.8a152.66,152.66,0,0,0,0,92.58Z" />
    <path class="cls-2" d="M274.05,5.67H13.21a145.8,145.8,0,0,0,0,92.57H274.05" />
    <line class="cls-3" x1="14.84" y1="24.31" x2="83.86" y2="24.31" />
    <line class="cls-3" x1="26.41" y1="39.05" x2="109.38" y2="39.05" />
    <line class="cls-3" x1="258.07" y1="48.78" x2="182.92" y2="48.78" />
    <line class="cls-3" x1="258.48" y1="28.43" x2="152.53" y2="28.43" />
    <line class="cls-3" x1="258.48" y1="64.85" x2="233.61" y2="64.85" />
    <line class="cls-3" x1="258.48" y1="39.05" x2="246.05" y2="39.05" />
    <line class="cls-3" x1="34.09" y1="51.95" x2="9.22" y2="51.95" />
    <line class="cls-3" x1="263.2" y1="83.83" x2="157.61" y2="83.83" />
    <line class="cls-3" x1="86.75" y1="73.2" x2="11.95" y2="73.2" />
</svg>