<svg id="Layer_1" data-name="Layer 1" xmlns="http://www.w3.org/2000/svg" viewBox="0 0 427.14 606.42"><defs><style>.cls-1{fill:#fff;}</style></defs><path class="cls-1" d="M80.17,5.18v.09S80.21,5.24,80.17,5.18Z"/><path class="cls-1" d="M85.81,35.88a.27.27,0,0,0,.12.09A.16.16,0,0,0,85.81,35.88Z"/><path class="cls-1" d="M79,30.21h.1A.17.17,0,0,0,79,30.21Z"/><path class="cls-1" d="M80.32,6.3h0S80.27,6.29,80.32,6.3Z"/><path class="cls-1" d="M78.72,9.78Z"/><path class="cls-1" d="M86,29.06h-.11A.11.11,0,0,0,86,29.06Z"/><path class="cls-1" d="M85.07,29.05c.27.28.55-.07.84,0-.08-.08,0-.25-.25-.17.58-.15-.32-.46.14-.62-.06,0-.25.09-.39,0s.22-.15.33-.22c-.16,0-.28-.31-.2-.28-.14-.12-.57.12-.82,0s-.06-.25-.16-.38c.27-.15.19.15.32.21l-.18-.42c.2-.13.38,0,.33.18.25-.17,0-.39-.3-.44.07-.11,0-.16.13-.26.18.1.74.09.83.25s-.42-.1-.51.12h.34c-.19.1.06.17.08.27s-.12,0-.17,0c0,.18-.15.33.23.47.31-.25-.11-.62.27-.73l-.46-.49c-.16,0-.41.17-.63,0,.39-.06.57-.21.64-.4-.43.07-.38-.3-.73-.2.22.09-.14.13-.17.14,0-.18-.4,0-.42-.12.09-.34.27,0,.43-.32a2.64,2.64,0,0,1,.79.43c.19,0,0-.18.19-.26-.22.11-.4-.07-.5,0-.17-.26-.62-.57-.71-.89.63,0,.48.54,1.22.44-.09-.16-.4-.16-.35-.28.37-.11,0-.37,0-.59l-.19.1c-.15-.08,0-.23,0-.33h.08l-.12-.1h.06c-.19-.11,0-.37-.12-.57-.3,0,0,.2,0,.29s-.2.21-.42.12c0-.24-.37-.41-.36-.69l-.09.09c-.21-.09-.11-.21-.12-.34.21-.24.43.18.61,0,.27.1,0,.26.35.28l.43-.15c-.26-.12.13-.26.07-.35l-.19.1c-.33,0-.08-.11,0-.16l-.48.07c-.09.14.34.23.06.33-.16-.24-.55-.19-.56-.48.19,0,.07.05.21.08s-.26-.2-.11-.37a.51.51,0,0,0,.57.13l-.36-.09c.06-.07.2,0,.21-.07s-.38,0-.29-.15.16-.08.24-.05c0-.2-.12-.1-.3-.28,0,.16-.55.17-.61,0s-.25-.4.21-.57l-.24-.1c.35.07.12-.15.18-.23.38,0,0,.36.6.36.06-.16.25-.09.42,0-.06-.17-.44-.06-.69-.14.16,0,0-.29.38-.19,0-.14-.37-.17-.3-.27h.54c-.12,0,0-.15,0-.17s-.33-.05-.22.07c-.3,0,0-.29-.26-.29.34,0,.07-.27.21-.4-.8,0,.31.24-.35.29-.28-.18,0-.59-.39-.87.16-.25.31,0,.61-.05.13.22-.11.28,0,.47a.56.56,0,0,0-.19-.72c0-.23.8-.26.6-.54-.26,0-.32,0-.42.12-.09-.08,0-.17,0-.25-.16-.05-.2.13-.34,0a.25.25,0,0,1,.26-.12h0c-.23-.27.63-.2.13-.43-.13,0,0,.07,0,.12a.71.71,0,0,1-.57-.2c.17,0,0-.1.09-.17.3-.05.08.19.29.22v-.2h0l-.29-.23c.1.16-.37.08-.4,0s.11-.31.45-.3c-.34,0-.32-.21-.4-.35-.11.15-.28,0-.39,0l.33-.23c.1.24.3,0,.53,0s.16.21.12.34c.61-.25-.34-.35,0-.56.15,0,.33,0,.3.11s-.3-.2-.12-.34c-.11,0-.42.12-.55,0l.38-.19c.08-.22-.4-.08-.58-.26l-.26.12c-.34,0,0-.25-.37-.25,0,.11.27.17.17.29-.36,0-.19-.15-.39-.22.16-.24.17-.19.46-.37.55,0,.68.3,1.41.26-.1-.24-.28-.59-.06-.74-.17-.22-.61-.2-.93-.17-.06-.08,0-.13.07-.18l.18.1c-.18-.27-.37-.42-.36-.7s-.43-.09-.69,0L83,13.6h-.07c-.35,0-.24-.18-.22-.3s.19.07.28.07.1-.26-.06-.34c.16,0,.5.07.39.19h-.13l.2.2c-.19-.23.21-.37.57-.36-.19-.24-.38.18-.52-.09.72-.37-.2-.69.83-.9-.21-.17-.57-.37-.59-.63-.31,0-.12-.18-.5-.15-.41.25.59.47,0,.67.14.11.4.08.57.13s0,.19-.2.21c-.19-.24-.75-.07-.76-.36-.26,0-.17.27-.24.38a.62.62,0,0,0-.42.07c-.23-.1-.46-.21-.68-.33h.31l-.44-.31a.78.78,0,0,1,.58-.07c.09-.17-.32-.46.14-.46-.07-.22-.27.07-.4.09h0v.23c-.53,0,.13-.26-.38-.3-1,0,.31-.33.15-.49l.7.19-.15-.16a8.52,8.52,0,0,1,1,.23c0-.22.23-.54.1-.69a2.07,2.07,0,0,1,.7-.05c-.44-.23.23-.36.24-.55-.26-.21-.36.21-.7.06.18-.07,0-.18,0-.24s-.1.29-.22.44c0-.12-.33-.1-.47-.14l-.08.19c-.42,0,0-.23-.25-.32.38.06.4,0,.78.08a.32.32,0,0,1-.12-.44A.38.38,0,0,1,83,9.24c.15-.08.19.07.29.11.27,0-.15-.16.17-.19s0,.1.1.15l.11-.48c.16,0,.21.12.15.2.17-.15.09-.25-.43-.42a.69.69,0,0,1,.6-.3c-.09-.07-.24,0-.39,0,.08-.22-.46-.25-.48-.38l-.28.1c.3-.21-.47,0-.25-.24a5.57,5.57,0,0,0,1,0c-.29,0,0-.15,0-.23-.3,0-.28-.18-.57,0-.24-.19.16-.27-.22-.41-.09.09-.31-.16-.52-.09,0-.18.33-.31.65-.26,0,.07-.15.17.1.16L83,6.63a.88.88,0,0,1,.56-.21c-.39-.1.28-.31-.19-.39.3.11-.1.2-.15.24l-.07,0h0L82.47,6c-.23.13.39,0,.38.22-.55.16-.84-.39-1.18-.21-.18.14.35.12.56.24h0l.23.27a.8.8,0,0,1-.34-.07c0,.32-.3.37-.37.73.08,0,.66-.1.75.06s-.2.12-.24.22c-.07-.06-.39-.11-.17-.18h-.41c-.48-.26-.87-.12-1-.48a.36.36,0,0,1-.38-.34.51.51,0,0,1,0-.13L80,6.42c-.51-.2.42,0,0-.29A3.47,3.47,0,0,1,81.63,6c.13-.18-.15-.25-.15-.41.43-.1.47,0,.91,0a.38.38,0,0,0-.49-.18l.18-.23a.1.1,0,0,1,.09.07s0,0,0,0S82,5,81.88,5s.09.08,0,.1a1.29,1.29,0,0,0-.45-.27c.23.13-.27.15,0,.29-.12,0-.35,0-.29-.11-.27.12-.22.24-.51.29.22-.1-.1-.17-.15-.19s0,.27.12.33c-.49,0,.09.35-.42.24.17,0,.19.15.07.22s-.33-.19-.58-.26c-.24-.35.36,0,.52-.08V5.29c-.07,0-.35-.1-.32.07-.31-.08-.52-.25-.28-.39-.15,0-.12.07-.13.1s-.67-.2-.75,0c0-.06.24.11.4,0,.06.08-.15.32-.43.23.09.11.29.31.35.39-.23,0-.09-.07-.2-.12l.13.31.25-.08c-.18.22.41.37.59.55-.39,0-.42-.18-.63-.3-.47.12.25.08.18.27a.66.66,0,0,1-.28,0l.34.15a.14.14,0,0,1-.15,0c.43.25.56,0,.73.34.2-.21-.27-.18-.23-.36.28-.1.51.2.67.25-.09.17-.68.19-.36.41-.19-.15-.37,0-.38-.22-.21-.12-.18.06-.41.09.07,0,.42,0,.36.11h-.06l.43.26c-.22.24.47.54,0,.7h.42a1.14,1.14,0,0,0,.13.47c-.24,0-.26-.12-.35-.23-.07.27.18.51.52.69a2.2,2.2,0,0,0,.47-.27c.58.17-.36.2-.07.43a4.57,4.57,0,0,0-.74,0c.28.09.22.25.46.36-.4,0-.73-.05-.77-.28.35-.18-.26-.37.08-.52l-.26.09c-.11-.17,0-.28-.23-.43h.06l-.41-.07v.08a1.65,1.65,0,0,1-.6-.28c.06.26.7.27,1.06.39,0,.23-.74.32-.4.47-.19,0-.39.14-.56,0s.14-.22-.14-.23c0,.13-.15.08-.1.28a3,3,0,0,1,1,.34.31.31,0,0,1,.11.41l0,.05c0-.15-.38-.3-.64-.26.37.09-.29.29.22.25,0,.18,0,.47-.46.49-.17-.17.1-.33,0-.47a.37.37,0,0,1-.23.06V9.66c-.21.15-.36.12-.31.33h.13s0,.11,0,.16H78c.19.15-.32.44,0,.71h-.09c-.08.22.72.24.81.48a1.23,1.23,0,0,0-.54,0c.2.12-.13.18-.24.3.24-.14.43.1.56,0,.4,0,.4.23.35.36-.52.08-.28-.39-.81-.2,0,.12.24.16.34.07a.73.73,0,0,1-.44.51c.39.19.18.26.69.38,0-.1-.39-.11-.19-.23l.38.14c0,.18-.31.32-.35.45L78.3,13h.06c-.17,0-.07-.22-.36-.2.36.12,0,.22.26.37H78.2c.3.27-.58.48.16.65a.86.86,0,0,1,.41-.12c-.17.06-.11.23-.33.23l-.07-.06c-.06.16-.09.25,0,.31a1,1,0,0,1,.61.11c-.17.28-.61-.11-.84.08l.28.26h-.24c-.24.39.55.68.55,1.09a.59.59,0,0,1-.6-.39c-.35.13.14.31-.11.48-.06.16.29.27.52.25.14.19-.24.14-.31.16.44.07.29.31.38.47h-.24l.3.25c0-.06.25,0,.41,0L79,17c.68-.24-.47-.54.3-.79.09.07.22,0,.32.05s-.06.07-.16.08c.21,0,.38.14.37,0,.52,0,.39.27.57.45-.33.14-.5-.15-.75-.23,0,.07.27.13.14.23h-.4c.22.25.35.06.73.12s0,.23,0,.3L80,17.13c-.17.2.25.24.21.41l-.31.09c.39-.22-.54-.27-.34-.4-.37.32-.81-.07-1.14-.17.07.14,0,.27-.19.34.51.2-.19.42.42.62-.07.1-.28-.1-.29,0a.68.68,0,0,0,.25.64c0,.12-.19.1-.35.13-.24.55.7.76.47,1.36l-.21-.09c0,.13-.12.23.17.29-.68.16.41.54-.31.74-.13.26.45.28.56.48-.16,0-.44-.06-.51.05a10.44,10.44,0,0,1,.41,2,.24.24,0,0,1-.13-.07c-.06.49.59,1,.38,1.37.09.07.23.3.5.23,0-.1.38-.11.59-.1.3.36-.5.17-.4.41-.52.08-.34-.15-.81-.15l.33.35c-.16.19.14.39-.11.56.06-.08-.39,0-.19-.15h.08c0-.29-.25-.16-.37-.41.13.22.26.53.16.73.35,0,.15.17.38.22h0a.47.47,0,0,1,.31.16h-.45c.06.09.23,0,.29.06a.39.39,0,0,1-.1.54.36.36,0,0,1-.22.07c0,.15.29.19.23.35l-.22-.06c-.09.33.06.74-.21,1.06a1.11,1.11,0,0,0,.5.64c0-.07.07-.27.33-.15s.12.18.2.29c-.23,0-.22.27-.39.05-.51.06.1.46-.41.46.16.05.07.35.34.47-.22,0-.15-.17-.31-.17l.08.14h-.16c-.13.27.5.32.6.47h-.06l.08.1L79.29,31c.06.17.43.26.52.44h-.14l.15.12a.24.24,0,0,0-.12,0c.39.11.24.36.57.46-.06.07-.55.14-.21.24h-.49c-.06-.25.34-.1.16-.36-.62.19-.55.74-.5,1.11.32.29-.2.77.52.9h-.29l-.25.5c.12.42-.11.85.3,1.17l-.25.09c.83.33.34,1.13,1.34,1.35-.22.19-.38-.06-.56-.08-.08.14.57.38.12.51-.15,0-.14-.2-.23-.11-.29.1.28.15,0,.26a.73.73,0,0,1,.7.35h.05c.23,0,.18.1.21.17h-.08a4.09,4.09,0,0,1,.19,2.8l-.21-.17c.16.13,0,.37,0,.44h0c-.46.25.45.28-.08.47h0c0,.3-.48.47-.22.76-.18.23-.42.2-.63.36,0,.13.3.19.36.2v-.06c.27-.07.23.14.35.23a4.25,4.25,0,0,0,1.53-.3c-.15-.19.68-.18.61-.4-.57-.13.43-.32-.08-.52.39.11.21-.24.64-.06.31-.09-.34-.43,0-.59.09,0,.18,0,.23.06-.23-.22.27-.15.27-.32h-.4c-.13-.06.15-.08.08-.14a.48.48,0,0,1-.4.09c-.1-.07-.23-.14-.23-.22a.38.38,0,0,1,.27.1.26.26,0,0,1,.23-.19c.13.06.13.14.35.2.12-.24.13,0,.45-.14-.47,0-.2-.2-.31-.32.2,0,.06.09.21.12.83-.24-.15-.36,0-.67a.31.31,0,0,1,.13.06c-.13-.14.31-.24,0-.34.08-.13.53,0,.52-.24-.49.07.09-.25-.43-.25l.31-.17c-.29-.14-.88,0-.93-.24.19-.26.86,0,1.13-.13l-.29-.06.21-.13h0c-.1-.07,0-.21.14-.21s.12.09.24.11c-.26-.13.71-.5-.07-.63.13-.08.13-.23.38-.21-.35-.07.11-.33-.11-.43.12,0,.3-.09.21-.16-.13.1-.26,0-.45,0,.25-.09,0-.34.45-.38a1.9,1.9,0,0,0-.82-.12c.25-.09.2-.37.68-.32-.06.08-.16.25.16.21s-.13-.06-.18-.18.3-.08.43-.06a.22.22,0,0,1,0-.27c-.22.16-.34-.1-.53,0l.35.15c0,.18-.26,0-.38.11-.1-.32-.58-.26-.81-.56a2.11,2.11,0,0,0,.23-.19c0,.1.46.08.54,0-.37-.17.24-.3.32-.44-.11.12-.39.06-.5,0-.26-.29.17-.12.37-.24,0-.45.52-.73.22-1.09l-.4.17.38.06a2,2,0,0,1-1.1-.1c.13,0,0-.24.27-.16l-.17-.21c-.16,0-.09.17-.27.07.12-.07.2-.29.43-.15a.28.28,0,0,0-.35-.23c0-.19.49,0,.64.1,0-.15.36-.13.46-.09v-.2c.1,0,.26,0,.36.09.15-.13-.28-.23,0-.34h-.32c.26-.36.31-.33.34-.67l-.24.06c-.42-.26.38-.19.21-.53a.6.6,0,0,0-.64-.3c-.14-.11.09-.14.23-.19-.21-.08-.61-.27-.37-.41a1.37,1.37,0,0,1,.28.26c.37,0,.08-.31.25-.45-.17-.1-.64-.43-1-.61a1.71,1.71,0,0,1-1.07-.11c.24,0,.24-.22.41-.33.22.05.55-.26.65,0-.12.07-.44.1-.32.2a2.24,2.24,0,0,0,.72-.37c.12,0,.27.1.27.18A.4.4,0,0,0,85.07,29.05Z"/><path class="cls-1" d="M85.21,24.14a.24.24,0,0,0-.12,0Z"/><path class="cls-1" d="M83,6.08l.07.06S83,6.11,83,6.08Z"/><path class="cls-1" d="M349,3h-.76A2.42,2.42,0,0,0,349,3Z"/><path class="cls-1" d="M106.58,8.66a3.82,3.82,0,0,0-.66.12A1.49,1.49,0,0,0,106.58,8.66Z"/><path class="cls-1" d="M151.4,1.87a.17.17,0,0,0,0,.1S151.46,1.91,151.4,1.87Z"/><path class="cls-1" d="M340.14,3.17h.34C340.55,3.12,340.22,3.12,340.14,3.17Z"/><path class="cls-1" d="M95,8.29a.2.2,0,0,0-.09.09A.2.2,0,0,0,95,8.29Z"/><path class="cls-1" d="M312.68,1.57h-.33A.91.91,0,0,0,312.68,1.57Z"/><path class="cls-1" d="M160.43,8.87a1,1,0,0,0,.29-.11C160.54,8.78,160.41,8.81,160.43,8.87Z"/><path class="cls-1" d="M160.57,7.92c-2.28.27.49.55.15.84.61-.08,1.91,0,1.29-.25,1.2.58,3.62-.32,4.91.14.06-.06-.69-.25.21-.39a3.23,3.23,0,0,1,1.78.33,8.86,8.86,0,0,1,2.24-.2c.89-.14-1-.57.29-.82.84-.39,2-.06,3-.16,1.19.27-1.19.19-1.69.32l3.38-.18c1,.2-.45.38-1.44.33a6.14,6.14,0,0,0,3.47-.3c.85.07,1.29,0,2.09.13-.79.18-.75.74-2,.83-2,0,.74-.42-1-.51l-.15.34a7.24,7.24,0,0,0-2.13.08c-.45-.08.1-.12.4-.17a12.3,12.3,0,0,0-3.68.23c1.94.31,4.87-.11,5.72.27l3.86-.46c0-.16-1.34-.41-.25-.63a6.07,6.07,0,0,0,3.08.64c-.55-.43,2.38-.38,1.64-.73a1.24,1.24,0,0,1-1.15-.17c1.45,0,.2-.4,1-.42,2.63.09-.1.27,2.49.43a18.54,18.54,0,0,1-3.37.79c.1.19,1.43,0,2,.19-.84-.22.6-.4-.1-.5,2.09-.17,4.52-.62,7-.71-.4.63-4.27.48-3.47,1.22,1.24-.09,1.23-.4,2.23-.35.84.37,2.93,0,4.62,0l-.75-.19a11.13,11.13,0,0,1,2.58,0L198.7,8l.73-.12c.12,0,.14,0,.14.06.81-.19,2.88,0,4.43-.12,0-.3-1.54,0-2.28,0-.2-.07-1.64-.2-.94-.42,1.93,0,3.27-.37,5.45-.36L205.54,7a10.85,10.85,0,0,1,2.67-.12c1.89.21-1.38.43-.24.61-.74.27-2,0-2.23.35l1.19.43a12.39,12.39,0,0,1,2.79.07L209,8.06c.15-.33.84-.08,1.19,0l-.5-.48c-1.09-.09-1.84.34-2.63.06,1.93-.16,1.49-.55,3.82-.56.1.19-.45.07-.69.21.79.13,1.63-.26,2.92-.11-.74.12-1.93.31-1,.57l.7-.36c.59.06.35.2.59.21.85.07-.19-.38,1.14-.29.2.08.65.16.45.24,1.54,0,.74-.12,2.18-.3-1.29,0-1.34-.55,0-.61,1.89.06,3.17-.25,4.47.21l.84-.24c-.54.35,1.19.12,1.79.18.2.38-2.83,0-2.83.6,1.24.06.7.25.3.42,1.34-.06.5-.44,1.09-.69,0,.16,2.29,0,1.5.38,1.14,0,1.33-.37,2.18-.3-.13.16-.28.35-.2.54a4.63,4.63,0,0,1,1.39,0c-.2-.08.39-.33-.6-.22.25-.3,2.34,0,2.28-.26.11.34,2.14.07,3.18.21-.1-.8-1.93.31-2.28-.35,1.38-.28,4.66,0,6.9-.39,1.93.16,0,.31.39.61-1.78.13-2.23-.11-3.77,0a28,28,0,0,0,5.71-.19c1.84,0,2,.8,4.27.6-.29-.26-.25-.32-.94-.42a12.44,12.44,0,0,1,1.93,0c.4-.16-1-.2-.1-.34.35,0,1.09.08,1,.26h-.15c2.13-.23,1.54.63,3.37.13-.14-.13-.54,0-1,0s.79-.49,1.64-.57c-.15.17.74,0,1.34.09.39.3-1.49.08-1.79.29h1.29l1.79-.29c-1.25.1-.6-.37,0-.4,1.23.06,2.48.11,2.33.45.15-.34,1.69-.32,2.78-.4-1.19-.11-.15-.28.19-.39l1.79.33c-1.88.1.4.3,0,.53a8,8,0,0,1-2.69.12c1.95.61,2.73-.34,4.42,0,0,.15-.15.33-.89.3a20,20,0,0,1,2.68-.12c-.3-.11-.94-.42.2-.55l1.49.38c1.74.08.59-.4,2-.58l-.94-.26c.14-.34,1.93,0,2-.37a20.12,20.12,0,0,1-2.33.17c-.35-.36,1.19-.19,1.73-.39a14.52,14.52,0,0,1,3,.46c.06.55-2.38.68-2.07,1.41a35.71,35.71,0,0,1,5.85-.06c1.69-.17,1.54-.61,1.29-.93a5,5,0,0,1,1.49.07l-.79.18A50.62,50.62,0,0,1,281,6.48c1.23-.09.73-.43.44-.69l1.34-.06-.21-.07c.3-.35,1.49-.24,2.39-.22,0,.15-.55.19-.5.28a7.75,7.75,0,0,0,2.63-.06c0,.16-.54.5-1.48.39-.1,0-.05-.09-.15-.13l-1.59.2c1.83-.19,2.93.21,2.88.57,1.84-.19-1.49-.38.69-.52,2.88.72,5.46-.2,7.06.83a30.06,30.06,0,0,1,5-.59c0-.31,1.39-.12,1.19-.5-2-.41-3.72.59-5.32,0-.89.14-.59.4-1,.57-.79,0-1.53,0-1.64-.2,1.84-.19.5-.75,2.83-.76-.3-.26-2.19-.17-3-.24.25-.14,0-.3-.55-.42.6-.25,1.93-.47,2.63-.68-.25.14.2.23,0,.31l2.43-.44c.75.19.95.41.55.58,1.34.09,3.62-.32,3.63.14,1.73-.07-.55-.27-.7-.4h-1.69c-.2-.53,2.09.13,2.38-.38.29-1,2.59.31,3.87.15l-1.48.7,1.29-.15c-.74.27-.74.73-1.88,1,1.78,0,4.32.23,5.46.1.45.24.65.47.45.7,1.78-.44,2.78.23,4.32.24,1.63-.26-1.64-.36-.45-.7a4.34,4.34,0,0,0,1.83,0,18.66,18.66,0,0,1-3.42-.22c.89,0,.79-.33,1-.47l-1.49-.08c.1-.42,1.83,0,2.53-.25-.44.38-.2.4-.64.78a15.25,15.25,0,0,1,4.32.08c.64.15-.55.19-.89.29.29.27,1.28-.15,1.53.17-.19.24-.79,0-1.24.1l3.78.11c0,.16-.94.21-1.54.15a5.74,5.74,0,0,0,3.32-.43c1.29.15,2.78.38,2.34.6.6-.09.2-.24.19-.39,1.74.08,1.94-.46,3-.48l-.79-.28c1.68.3.39-.47,1.88-.25a.73.73,0,0,0,.1,1c.25-.29,1.2,0,1.84,0-.4-.3,1.39-.28.34-.57,1.5-.24,2.19.16,3.28-.22-.69-.09,1.29-.31.69-.52,1.44,0,2.43.33,2,.65-.5,0-1.29-.15-1.24.1l2.63-.06c.65.15,1.49.22,1.59.56.84-.39,2.48.28,3.13-.19A3.14,3.14,0,0,1,341,6l.4-.07h-.21l1.14-.6c-1.1-.23-.2.39-1.74.38-1.34-.55,3-.84,1.63-1.18-1.14-.18-.94.35-1.88.56h.25l-2.13.23c-.1-.18.54-.34.54-.34-2.58,0-3-.3-5.76-.37.2.08.75.66-.49.75-.89.14-1-.2-1.74-.24.44-.07.84-.39,1.44-.17l-.05-.41c2.08-.48,1-.87,3.82-1,.12-.29,2.17-.45,3.71-.36l-.74-.27c1.58-.51.3.42,2.33,0,.85.53,2.39,1.16,1.25,1.6A24.88,24.88,0,0,0,346,4.33c.79.43-.4.47-.25.91.95,0,2.14-.24,1.44-.49l1.79.18c0,.09-.6.09-.85.08a6.9,6.9,0,0,0,2.43-.28,2.1,2.1,0,0,1-.79,0A12,12,0,0,0,352,4.3c-1.09.23-1.19-.27-2.33,0,.1-.12.29-.35.89-.29a12.74,12.74,0,0,1-2.28-.51,2.08,2.08,0,0,0,1.47-.15,10.45,10.45,0,0,0-2.62.12c-.1-.49-2.77.09-1.84-.42a3.31,3.31,0,0,1-1.74.07c.05-.22,1.44-.33,2-.58,2.78-.24-.05.36.6.52h2.12c-.22-.07.85-.35-.54-.32a5.5,5.5,0,0,1,3.08-.28c.25-.15-.55-.12-.8-.13.25-.15,1.59-.67-.15-.75.5,0-.84.24,0,.4-.69.06-2.58-.15-1.83-.43-.85.09-2.44.29-3.13.35-.2-.23.59-.09.94-.2l-2.43.13.69.25c-1.78-.18-2.92.41-4.36.59.2-.39,1.39-.42,2.33-.63-.9-.47-.59.25-2.08.18-.2-.07-.25-.16-.16-.28l-1.18.34c-.35,0-.15-.13,0-.15-2,.43.05.56-2.68.73,1.64.2,1.39-.27,2.78-.23.8.28-1.59.51-2,.67-1.33-.09-1.49-.68-3.17-.36,1.19-.19.05-.37,1.73-.38.95-.21-.5-.18-.69-.41-.45.07.29.42-.95.36V2.45l-2,.43c-1.89-.22-4.26.47-5.56,0l.3.42c-1.19,0-2.88.05-3.72.13.2-.24,1-.26,1.83-.35a20.83,20.83,0,0,0-5.45.52,20.31,20.31,0,0,0,2.19.47c-1.39.58-1.65-.36-3.43-.07,0-.4.54-.35.1-.74-.75.28-2,.22-2.83.46-.45-.4.34-.73,2.18-.77,1.39.35,2.92-.26,4.07.08l-.7-.26a29.39,29.39,0,0,0,3.42-.23V2.6l.59-.41H324a9.16,9.16,0,0,1,2.18-.6c-2,.06-2.13.7-3.08,1.06-1.78,0-2.48-.74-3.67-.4-.1-.19-1.1-.39-.3-.56,1-.11,1.69.14,1.78-.14a20.92,20.92,0,0,0-2.23-.1,7.27,7.27,0,0,1-2.62,1,15.62,15.62,0,0,1-3.68.07c1.19,0,2.38-.38,2.08-.64-.69.37-2.33-.29-2,.22-1.39,0-3.73,0-3.88-.46,1.32-.17,2.59.1,3.7,0-.3,0-.6-.12-.42-.23l1.64.05A7.67,7.67,0,0,0,311,1.12c.1,0,.3.11.15.13h-1.29V.85c-1.19.19-3.48-.32-5.66,0l.2-.09c-1.74-.08-1.88.72-3.77.81.55-.19.3-.35.2-.54a6.44,6.44,0,0,1-2.39-.24c1.1.24-.74.43.06.56.05.4-1.89.4-2.88.35-.6-.52,3.07-.28,1.58-.81-1-.05-1.24.24-.54.34a18.5,18.5,0,0,1-4-.44c-1.48.39-2.08.18-3,.69.8,0,.84-.39,1.84-.19l-1.09.38c-1.44,0-2.59-.31-3.58-.35l1-.17-.05.06c.4-.17,1.74-.07,1.59-.36-.94.36-1.69,0-2.93.26l.05-.06c-2.18.3-3.77-.58-5.16.16.4,0,1.2.27.95.41-.5-.17-1.84-.11-1.79-.33l.44-.07a14.09,14.09,0,0,0-2.43,0c-.34.26,0,.46-.89.61-2.18-.17.89-.61-.6-.84l-2,.28L274.45,1c-3-.24-5.36.55-8.58.55-.06-.4,2.28-.57,3.07-.6-1-.35-2.43.14-3.77-.11-1.25-.06-2.18.29-2,.52-1.53.14-1.09-.24-1.29-.31-.49.44-2.43.29-3.67.38l0-.24-1.94.3c.5,0,.06.25.06.41h-.5c1.89.68,4.27-.47,6.21.3-.6.09.2.22-.4.32s-.59-.06-.64-.16c-.3.21-1.09.38,0,.37-.05.52-2.14.39-3.57.57-1.15-.33,1.19-.5,1.78-.75a5.69,5.69,0,0,1-1.79.14l.2-.4c-2,.22-.54.35-1,.73s-1.79,0-2.33,0l.59-.09c-1.53-.17-1.88.25-3.27.21l-.65-.31c1.74.39,2.13-.54,3.13-.34-2.54-.37.54-.81,1.33-1.14a7.55,7.55,0,0,1-2.68-.19c-1.59.51-3.33-.19-4.86.42-.84-.07.74-.28-.15-.29a32.29,32.29,0,0,0-5.11.25c-.9,0-.75-.19-1-.35-4.32-.24-6,.7-10.72.47l.69-.21a4.68,4.68,0,0,0-2.32.17C228,.94,225,2,223.41,1.31c-2.09-.13-2.19.45-3.83.56,0-.16.5-.44-.35-.51-5.35.24-10.17.29-16.08.41a1.48,1.48,0,0,1,.5-.13c-3.82-.06-7.59.59-10.77.38-.59.09-2.38.23-1.83.5.74,0,.84.38.79.59-2.82.3-1.39-.5-3.27-.4-.6-.52,1.19-.34,1.19-.81L187,2.2c-1.54-.16-3.08.14-4.42-.11.6.06.19-.39,1.19-.19-.15,0-.05.06-.2.08,2.28,0,1.24-.25,3.28-.37a49,49,0,0,1-5.81.16c.35.35-1.29.15-1.74.38h-.1c0,.16-1,.26-1.29.31L177.52,2c-.7.06.19.23-.5.29-1,.1-4.52.15-4.77-.32-1.19,0-1.54.29-2.77.24.09-.12.39-.17.44-.23-2.63-.09-5.86.06-8.34-.21a31.78,31.78,0,0,0-5.06.5c.55,0,2.14.07,1.14.33a11.93,11.93,0,0,1-2.23.2c.2-.23-2.14-.22-.45-.39-.43-.51-3.64.1-3.61-.41-.4.16-2.79.07-3.69.34-.2-.22,1.3-.15,1.29-.31l-1.09.08V1.92c-2.09-.13-2.48.5-3.72.6l.05-.06-.84.08,1-.42c-1.34.06-2,.43-3.52.52l-.15-.14-.9.15c.15,0,.2-.09.11-.12-.85.39-2.79.24-3.58.57-.59-.06-1.1-.55-1.89-.21l.15-.49c2-.06.74.34,2.83.16-1.54-.62-5.86-.55-8.74-.5-2.33.32-6.15-.2-7.14.52l.24-.29L117.85,2c-3.33.12-6.75-.11-9.28.3l-.7-.25c-2.62.83-8.93.34-10.66,1.34-1.49-.22.44-.38.59-.56-1.09-.08-2.93.58-4,.12,0-.15,1.54-.14.84-.23-.79-.29-1.13.28-2,0,.4.3-1.44.64-2.78.7a.87.87,0,0,1,.36.05c.19.23-.8.18-1.35.21a.5.5,0,0,1,.2-.08c-6.9.38-14.79.56-22,.28l1.34-.21a18.29,18.29,0,0,1-3.47,0h.15c-1.94-.46-2.19.45-3.68-.08h.3c-2.34,0-3.72-.48-6-.22a18.47,18.47,0,0,1-2.84-.63A2.77,2.77,0,0,0,51.24,3h.5c.55.27-1.09.23-1.83.35.54.42.25,1.09,2.34,1.53,1.54-.15,1.49.68,3.23.61,1-.57,2.48.43,4.07-.08-.85.39,1.88.21.5.64.64.31,3.37-.34,4.62,0-.21.09-.16.18-.45.23,1.73-.23,1.19.27,2.48.27v-.4c.5-.13.65.15,1.09.08-.35,0-1.09-.24-.7-.4a9.22,9.22,0,0,1,1.74-.23c0,.15-.44.22-.75.27,0,0,1.4,0,1.5.23A8.68,8.68,0,0,0,68,6.45c1.84.12.15.13,1,.45-.25-.47,1.59-.2,2.58-.31.11.2-.69.06-.94.21,1.89.83,2.83-.15,5.26,0a1.37,1.37,0,0,1-.49.13c1.14-.13,1.94.31,2.68,0,1.09.08.2.53,1.89.52-.5-.49,2,.09,2-.43l1.29.31c1.15-.29-.3-.88,1.93-.93,2,.19-.19.86,1,1.13l.5-.29,1,.21h-.15c.6-.1,1.69,0,1.69.14s-.74.12-.84.24c1-.26,3.92.71,5-.07C94,8,95.15,8,95,8.29c.53-.35,2.64.11,3.43-.11-.1.12.64.3,1.24.21-.8-.13-.3-.26.24-.45.7.25,2.69,0,3,.45,1.09-.23.69-.52.93-.82.7.25,2.94.2,2.54.68-.6-.06-1.94-.16-1.69.16,1.14.18.5-.13,1.44-.18-.07.09.64.3.46.43a12.51,12.51,0,0,1,2.12,0c-1.23-.22.8-.34,0-.53l-1.19.35c-1.44,0-.3-.26-.85-.38,2.54-.1,2-.58,4.42-.81.44.08,1.24.21,1.49.23-.8,0-.64.46-.19.54,1.33-.37,2.38.24,3.47.32-.94-.11-.45-.39-.1-.5,2.28-.26.89.17,1.89.37,3.52,0,5.76.52,8.58.22l-1.34-.4-.44.38c-1-.3.19-.86.78-1.1.16.13,1.89.05,1.2.27l1.69-.17c-.25-.16-1.34-.09-.56-.27.56.12,2.29.2,1.2.43.89,0,2-.12,1.84-.35,1.44,0-.15.49-.79.64,1.14,0,1,.36.65.46H132c-.35.1-.35.26-.69.36,1,.15,1.79-.28,2.68,0l.4-.32a42,42,0,0,0,5.26.34l-.45-.24c2-.42,1.49.38,4.22.21,1.54-.15,2.53-.26,2.33-.64a2.09,2.09,0,0,1,1.49.23,7.44,7.44,0,0,1,3.31-.3c-.74.12-1.33.21-2,.28.2.37,2.38.08,3.52.25.8-.17,3.38-.64,4.82-1-.65-.31-.41-.76.88-1.07-.19.24,1.74.24,2.63.41-.44.22,2,.55.11.65-.55-.12-.8-.44-1.54-.32a13.07,13.07,0,0,0,2.88.72,2.77,2.77,0,0,1-1.39.27C160.82,8.09,160.62,8,160.57,7.92Z"/><path class="cls-1" d="M340.14,3.17h-.21l.25.09C340.1,3.22,340.1,3.19,340.14,3.17Z"/><path class="cls-1" d="M199.29,8.06c.1,0,.28-.07.28-.12A.7.7,0,0,0,199.29,8.06Z"/><path class="cls-1" d="M226.34,7.8a.19.19,0,0,1-.05-.1A.11.11,0,0,0,226.34,7.8Z"/><path class="cls-1" d="M341.89,5.86l-.49.07A2.63,2.63,0,0,0,341.89,5.86Z"/><path class="cls-1" d="M353.74,597.28v-1.51A12.68,12.68,0,0,0,353.74,597.28Z"/><path class="cls-1" d="M353.4,598.63v.12A.3.3,0,0,0,353.4,598.63Z"/><path class="cls-1" d="M348.09,117.06a11.21,11.21,0,0,0-.11-1.3A5.67,5.67,0,0,0,348.09,117.06Z"/><path class="cls-1" d="M354.88,205.84a.11.11,0,0,0-.09-.06C354.81,205.91,354.84,206,354.88,205.84Z"/><path class="cls-1" d="M353.58,579.68v.69A2.62,2.62,0,0,0,353.58,579.68Z"/><path class="cls-1" d="M348.47,94.12a.76.76,0,0,0-.09-.18A.31.31,0,0,0,348.47,94.12Z"/><path class="cls-1" d="M355.19,525.29v-.64A3.42,3.42,0,0,0,355.19,525.29Z"/><path class="cls-1" d="M347.89,223.72a2.29,2.29,0,0,0,.11.58C348,224,347.94,223.69,347.89,223.72Z"/><path class="cls-1" d="M348.84,224c-.28-4.52-.55,1-.84.29.08,1.21,0,3.78.24,2.56-.58,2.37.33,7.17-.14,9.73.06.11.25-1.37.4.4a11.74,11.74,0,0,1-.34,3.54,32.63,32.63,0,0,1,.21,4.42c.14,1.76.57-1.87.82.59.39,1.66.05,3.93.16,5.89-.27,2.36-.19-2.36-.32-3.33l.18,6.68c-.2,2-.38-.89-.33-2.86a23.76,23.76,0,0,0,.29,6.89c-.07,1.67,0,2.55-.13,4.13-.17-1.57-.73-1.47-.83-3.92,0-4,.43,1.46.51-2l-.33-.3a28.3,28.3,0,0,0-.08-4.22c.08-.89.12.19.16.78a46.59,46.59,0,0,0-.22-7.28c-.31,3.85.11,9.64-.27,11.32l.46,7.66c.15,0,.4-2.66.63-.5a22.44,22.44,0,0,0-.64,6.11c.43-1.1.38,4.71.72,3.23a4.45,4.45,0,0,1,.18-2.26c0,2.85.39.39.42,2-.1,5.21-.28-.2-.43,4.92a65.09,65.09,0,0,1-.8-6.68c-.19.2,0,2.84-.19,4,.23-1.68.41,1.17.5-.21.18,4.14.62,8.95.72,14-.63-.78-.48-8.45-1.23-6.87.1,2.46.41,2.45.36,4.42-.38,1.67-.05,5.8,0,9.15l.19-1.48a48.39,48.39,0,0,1,0,5.11l-.09-.39.12,1.46c0,.23,0,.28-.06.28.2,1.6,0,5.7.12,8.77.31,0,0-3,.05-4.52.07-.4.2-3.24.41-1.86,0,3.82.37,6.48.36,10.8l.1-1.37a46.84,46.84,0,0,1,.12,5.3c-.21,3.74-.43-2.75-.61-.48-.27-1.47,0-4-.35-4.42l-.43,2.35a48.42,48.42,0,0,1-.07,5.52l.19-1.48c.33.29.08,1.67,0,2.36l.49-1c.08-2.15-.34-3.63-.06-5.2.15,3.83.55,3,.56,7.56-.19.21-.07-.89-.21-1.37-.13,1.58.26,3.24.1,5.8-.12-1.47-.31-3.83-.57-2l.37,1.37c-.06,1.18-.2.7-.21,1.18-.07,1.68.38-.39.28,2.26-.07.4-.15,1.28-.23.89a29.63,29.63,0,0,0,.29,4.31c0-2.54.56-2.64.62,0-.06,3.74.25,6.29-.21,8.85l.24,1.67c-.35-1.07-.12,2.37-.18,3.55-.38.4,0-5.6-.61-5.6-.06,2.45-.25,1.38-.41.59.06,2.66.44,1,.69,2.16-.16,0-.05,4.53-.38,3,0,2.26.36,2.65.29,4.32-.15-.26-.34-.54-.54-.38a17.9,17.9,0,0,1,0,2.74c.07-.39.32.78.22-1.18.29.49,0,4.63.26,4.52-.35.2-.07,4.23-.22,6.29.81-.2-.3-3.83.36-4.52.27,2.75,0,9.24.38,13.67-.15,3.82-.31,0-.6.78-.13-3.53.1-4.42,0-7.47a103.89,103.89,0,0,0,.19,11.3c0,3.65-.8,4.05-.6,8.47a3.47,3.47,0,0,0,.41-1.87c.1,1.18,0,2.56,0,3.83.17.78.2-2,.35-.2-.05.69-.09,2.16-.26,1.87v-.29c.24,4.22-.63,3.05-.13,6.68a19.08,19.08,0,0,0,0-2c.2-.68.49,1.57.57,3.25-.18-.3,0,1.47-.09,2.65-.3.79-.09-2.95-.29-3.54l0,3.25,0-.69.29,3.54c-.1-2.46.36-1.18.4-.1-.06,2.45-.12,4.91-.45,4.62.33.29.32,3.34.39,5.5.12-2.36.29-.3.39.39l-.33,3.54c-.09-3.73-.29.79-.52-.09-.34-1.08-.17-3.34-.12-5.31-.62,3.84.33,5.41,0,8.75-.16,0-.33-.29-.3-1.76-.1.59.3,3,.12,5.31.11-.6.42-1.88.55.38l-.38,3c-.09,3.45.4,1.18.58,4l.26-1.87c.33.29,0,3.83.37,3.93,0-1.77-.27-2.76-.17-4.61.36-.7.19,2.35.38,3.42a53.06,53.06,0,0,1-.45,5.91c-.56.11-.69-4.72-1.41-4.11.09,3.73.27,9.14.06,11.6.17,3.34.61,3,.93,2.54a19.38,19.38,0,0,1-.07,2.95L350,451.7c.18,4.12.37,6.48.35,10.81.1,2.45.43,1.46.69.87l.06,2.66.07-.4c.36.59.24,3,.23,4.72-.15,0-.19-1.08-.28-1a30.21,30.21,0,0,0,.06,5.21c-.16,0-.5-1.08-.4-3,0-.19.1-.1.13-.29l-.2-3.15c.19,3.64-.2,5.81-.57,5.71.19,3.64.38-2.95.53,1.37-.73,5.71.2,10.82-.83,14,.21,2.64.57,5.79.59,9.92.31,0,.12,2.75.5,2.35.4-3.94-.59-7.36,0-10.52-.15-1.76-.41-1.17-.57-2a10.75,10.75,0,0,1,.2-3.25c.19,3.64.74,1,.76,5.6.26-.59.16-4.33.23-6,.15.49.31,0,.43-1.09.25,1.18.46,3.83.68,5.2-.14-.48-.23.41-.31,0l.44,4.81c-.19,1.48-.42,1.88-.58,1.09-.1,2.66.32,7.17-.14,7.19.07,3.43.27-1.1.4-1.39v-3.34c.53-.4-.13,4.13.38,4.71,1,.58-.31,5.12-.16,7.67l-.7-2.94.16,2.56c-.28-1.48-.74-1.47-1-3.73,0,3.54-.24,8.56-.11,10.82-.23.89-.46,1.28-.7.89.44,3.54-.22,5.51-.23,8.56.26,3.23.35-3.25.7-.89a16.94,16.94,0,0,0,0,3.63c-.13-1,.11-4.42.23-6.79a3,3,0,0,0,.47,2.07l.07-3c.43.2,0,3.64.25,5-.38-.87-.39-.39-.77-1.26a59.5,59.5,0,0,1-.08,8.55c-.15,1.28-.19-1.07-.3-1.76-.26.58.16,2.55-.16,3a10.66,10.66,0,0,1-.1-2.46l-.12,7.48a10.78,10.78,0,0,1-.14-3,21.72,21.72,0,0,0,.43,6.58c-.15,2.55-.38,5.5-.6,4.63.09,1.18.23.39.39.38-.09,3.45.46,3.83.47,5.89L351,553c-.3,3.34.47.77.25,3.72-.3-.48-.64-.29-1,.21.29.49,0,2.36,0,3.64.3-.79.27,2.74.57.68.24,3-.16,4.32.22,6.49.09-1.37.31,2.55.52,1.36,0,2.86-.33,4.83-.65,4,0-1,.15-2.57-.1-2.46l.06,5.21c-.15,1.29-.22,3-.57,3.15.39,1.67-.27,4.92.19,6.19a12.25,12.25,0,0,1,.16-3.82l.06.8v-.42l.59,2.25c.24-2.16-.39-.38-.38-3.44.56-2.65.85,6,1.19,3.24.18-2.26-.36-1.86-.56-3.73v.49l-.24-4.23c.19-.19.35,1.09.35,1.09,0-5.12.29-5.91.36-11.42-.07.4-.65,1.48-.75-1-.14-1.76.21-2,.24-3.43a9,9,0,0,1,.18,2.84l.4-.09c.49,4.12.88,2,1,7.56.3.25.45,4.31.37,7.36l.26-1.48c.51,3.14-.41.6,0,4.62-.54,1.68-1.16,4.74-1.6,2.48-.13,2.85.15,3.83.15,6.39-.44,1.58-.47-.78-.91-.48.05,1.87.23,4.23.48,2.84l-.17,3.55a5.92,5.92,0,0,1-.09-1.68,25.91,25.91,0,0,0,.29,4.82,8.24,8.24,0,0,1,0-1.57q.12,2.17.45,4.32c-.23-2.16.27-2.36,0-4.62a2.7,2.7,0,0,1,.3,1.76,43.1,43.1,0,0,1,.51-4.52,7.76,7.76,0,0,0,.15,2.92,40.69,40.69,0,0,0-.13-5.18c.5-.21-.08-5.51.43-3.65a12,12,0,0,1-.07-3.44c.21.1.33,2.84.58,4,.24,5.51-.37-.1-.52,1.19v4.2c.08-.42.35,1.68.32-1.06a21.09,21.09,0,0,1,.29,6.09c.14.5.12-1.08.13-1.57.14.49.67,3.14.75-.3,0,1-.24-1.67-.4.1-.06-1.38.15-5.11.42-3.64-.08-1.67-.28-4.81-.34-6.19.22-.4.09,1.18.2,1.87l-.13-4.83-.25,1.38c.18-3.53-.42-5.79-.6-8.64.4.39.43,2.75.63,4.62.48-1.78-.25-1.18-.17-4.13.07-.4.16-.5.28-.31l-.34-2.35c0-.68.13-.3.15,0-.43-4-.56.1-.74-5.3-.2,3.25.28,2.76.24,5.5-.28,1.59-.51-3.13-.67-3.93.09-2.64.68-3,.36-6.29.19,2.36.37.1.38,3.44.2,1.87.18-1,.4-1.38-.07-.88-.41.59-.35-1.87l.06.1-.43-4c.21-3.75-.48-8.45,0-11l-.42.6c0-2.36,0-5.7-.13-7.37a14.75,14.75,0,0,1,.34,3.63,84.87,84.87,0,0,0-.51-10.81c-.3,2.07-.27,2.37-.47,4.34-.58-2.75.35-3.26.07-6.8.4-.1.34,1.08.73.2-.27-1.47-.21-3.93-.45-5.61.39-.88.73.68.76,4.32-.34,2.76.26,5.8-.07,8.07l.25-1.38c.12,2.76.05,4.42.24,6.78l-.06-.1.4,1.18v-1.28a31.41,31.41,0,0,1,.61,4.32c-.06-3.94-.7-4.22-1.06-6.08,0-3.55.74-4.93.39-7.29.19-.19.39-2.17.57-.59.11,2-.14,3.34.13,3.54,0-2.07.16-1.28.11-4.43a23.58,23.58,0,0,1-1-5.19,61.15,61.15,0,0,1-.07-7.29c0,2.36.38,4.72.64,4.12-.37-1.37.3-4.62-.21-3.92,0-2.75,0-7.38.46-7.68.16,2.6-.1,5.13,0,7.33,0-.61.12-1.2.22-.84V527a29.22,29.22,0,0,0,.3-5.12c0,.2-.1.59-.12.29v-2.56l.41-.09c-.19-2.36.32-6.89,0-11.21l.08.39c.09-3.44-.71-3.73-.81-7.47.19,1.08.36.59.55.39A24.28,24.28,0,0,1,356,497c-.24,2.17-.43-1.47-.56.11-.4.1-.4-3.74-.36-5.71.52-1.17.29,6.1.82,3.14.05-2-.25-2.45-.34-1.07a69.07,69.07,0,0,1,.44-8c-.4-2.93-.18-4.11-.69-6,0,1.57.39,1.66.19,3.64l-.38-2.16c0-2.85.3-5.12.35-7.09l.17,2.07-.06-.1c.16.78.07,3.44.35,3.14-.35-1.86,0-3.34-.26-5.8l.06.1c-.29-4.32.58-7.48-.15-10.22,0,.78-.28,2.36-.42,1.87.18-1,.12-3.64.33-3.55l.08.89c.05-2.46.09-3.94,0-4.82-.26-.68-.47,0-.61-1.76.17-4.33.61,1.76.83-1.19l-.27-4,.24-.89c.23-6-.55-10.61-.55-17,.4-.1.57,4.52.59,6.09.36-2-.13-4.82.12-7.47.06-2.46-.3-4.32-.52-3.93-.15-3,.23-2.17.3-2.56-.43-1-.28-4.82-.38-7.27l.25-.11-.31-3.83c0,1-.24.1-.4.11v-1c-.67,3.75.48,8.45-.29,12.3-.1-1.18-.23.4-.32-.79,0-1,.06-1.17.15-1.27-.2-.59-.38-2.16-.36-.1-.53-.09-.4-4.23-.58-7.07.34-2.27.5,2.36.75,3.53a23.24,23.24,0,0,1-.13-3.54l.39.39c-.21-3.93-.34-1.08-.72-2s0-3.54,0-4.62l.09,1.18c.17-3.05-.25-3.73-.21-6.48l.31-1.29c-.4,3.45.54,4.22.34,6.19.37-5,.81,1.08,1.14,2.65a28.57,28.57,0,0,1,.19-5.31c-.51-3.15.19-6.6-.42-9.63.07-1.67.27,1.46.29-.3,0-3.25,0-6.69-.25-10.13,0-1.77.19-1.47.35-2,.24-8.55-.7-11.89-.48-21.23l.22,1.37a19.22,19.22,0,0,0-.17-4.61c.68-2.47-.42-8.36.31-11.51.13-4.13-.45-4.33-.56-7.57.15,0,.44,1,.51-.7-.24-10.61-.29-20.15-.41-31.84a4.81,4.81,0,0,1,.13,1c.06-7.58-.59-15-.38-21.33-.1-1.18-.23-4.72-.5-3.63,0,1.47-.38,1.67-.59,1.57-.3-5.6.49-2.75.4-6.49.52-1.18.34,2.35.8,2.35l-.33-5.4c.17-3.05-.13-6.1.12-8.75-.06,1.18.39.38.19,2.35,0-.3-.06-.1-.08-.39,0,4.52.25,2.46.36,6.49-.13-3.54-.26-8.36-.15-11.5-.36.69-.16-2.56-.38-3.44v-.2a12.17,12.17,0,0,1-.3-2.55l.45-.79c-.06-1.38-.23.39-.29-1-.11-2-.16-8.94.32-9.44,0-2.36-.3-3-.24-5.5a8.75,8.75,0,0,1,.23.88c.09-5.21-.06-11.6.21-16.52-.12-4-.19-7.47-.5-10,0,1.08-.07,4.23-.33,2.26-.19-1.08-.12-2.75-.2-4.42.23.39.22-4.23.38-.89.52-.84-.1-7.2.42-7.15-.16-.78-.07-5.53-.35-7.31.23-.39.16,2.57.31,2.56l-.07-2.16h.16c.13-4.14-.5-4.91-.6-7.37l.06.1-.08-1.67.41,2c-.06-2.65-.43-4-.51-7l.13-.3-.14-1.78c0,.3.08.4.12.21-.39-1.67-.24-5.51-.57-7.08.06-1.17.54-2.17.21-3.74l.49.3c.06,3.93-.35,1.46-.17,5.6.63-3,.56-11.61.51-17.31-.32-4.61.2-12.19-.52-14.16l.29.49.25-7.76c-.12-6.59.1-13.38-.3-18.39l.25-1.38c-.83-5.19-.35-17.69-1.34-21.12.22-3,.38.88.55,1.18.08-2.17-.57-5.8-.12-7.87.16,0,.15,3,.24,1.67.28-1.57-.28-2.25,0-4-.3.78-.65-2.85-.71-5.5a4.09,4.09,0,0,1,0,.7c-.23.38-.18-1.59-.22-2.67a.93.93,0,0,1,.09.4c-.39-13.66-.57-29.29-.28-43.65L353,41.4a65.79,65.79,0,0,1,0-6.88v.3c.47-3.84-.45-4.33.09-7.28v.58c0-4.62.49-7.37.23-11.89.18-3.55.41-3.16.63-5.62a10.08,10.08,0,0,0-.36-3.14v1c-.28,1.08-.23-2.16-.35-3.63-.43,1.08-1.09.49-1.53,4.63.14,3-.69,3-.61,6.4.56,2-.43,4.92.08,8.06-.39-1.67-.21,3.74-.64,1-.31,1.28.33,6.68,0,9.15a3.33,3.33,0,0,1-.23-.89c.23,3.44-.27,2.36-.27,4.92l.4-.1c.13,1-.15,1.28-.08,2.16,0-.69.24-2.16.4-1.39.1,1.18.23,2.17.23,3.44-.16,0-.23-.87-.28-1.47a16.77,16.77,0,0,1-.22,3,27.69,27.69,0,0,0-.36-3.14c-.12,3.63-.13.29-.45,2.06.48-.49.21,3.15.31,5.11-.19.21-.06-1.37-.2-1.86-.83,3.75.14,5.6,0,10.42a4.81,4.81,0,0,1-.13-1c.13,2.27-.31,3.85,0,5.32-.08,2.17-.53.4-.52,3.74.48-1-.09,3.94.43,4L349.3,71c.28,2.26.88-.61.93,3.82-.19,4-.86-.38-1.13,2l.28,1-.2,2v-.3a12.12,12.12,0,0,1-.14,3.35c-.12-.2-.12-1.48-.24-1.66.26,2-.71,7.76.07,9.82-.14,1.16-.13,3.55-.38,3.24.34,1.06-.11,5.24.11,6.8-.12-.21-.31,1.27-.21,2.45.13-1.58.26-.59.45.49-.25,1.38,0,5.31-.45,5.91.22,2.16.52,1.37.82,1.85-.25,1.38-.2,5.81-.68,5,.06-1.19.15-3.85-.17-3.34-.17,2.26.14,1,.18,2.84-.08-.14-.29,1.27-.43.91.05,1.1.05,2.64,0,4.21.21-2.46.33,1.57.52.09l-.34-2.35c0-2.86.26-.6.38-1.68.09,5,.58,4,.81,8.74-.09.88-.22,2.46-.23,3,0-1.57-.46-1.27-.54-.38.36,2.64-.24,4.72-.32,6.89.1-1.88.39-.89.49-.21.27,4.52-.16,1.78-.36,3.75,0,7-.52,11.4-.23,17l.41-2.66-.38-.88c.29-2.07.85.38,1.1,1.56-.13.3-.06,3.74-.27,2.37l.16,3.34c.17-.49.1-2.66.28-1.1-.12,1.1-.2,4.54-.43,2.38,0,1.77.12,4,.35,3.63,0,2.85-.49-.29-.65-1.56,0,2.25-.35,2-.46,1.28v3.14c-.11-.68-.26-.68-.37-1.36-.14,2.06.29,3.53,0,5.3l.32.79c-.26,5.7-.31,5.11-.34,10.43l.23-.89c.43,4-.38,3-.2,8.35.15,3,.25,5,.63,4.62a7.93,7.93,0,0,1-.22,3,28.7,28.7,0,0,1,.37,6.48c-.12-1.47-.22-2.65-.28-4-.38.4-.08,4.71-.26,7,.18,1.58.64,6.69,1,9.54.31-1.29.76-.8,1.07,1.75-.24-.39-.24,3.45-.41,5.21-.22-.87-.55,3.94-.65.21a11.19,11.19,0,0,0,.32-3.05,45.69,45.69,0,0,0-.72,5.71,10.16,10.16,0,0,1-.28-2.75C348.67,224.51,348.74,224.1,348.84,224Z"/><path class="cls-1" d="M353.58,579.68v-.4l-.09.49C353.54,579.61,353.56,579.61,353.58,579.68Z"/><path class="cls-1" d="M348.69,300.7a1.22,1.22,0,0,0,.12.56A1.81,1.81,0,0,0,348.69,300.7Z"/><path class="cls-1" d="M349,354.28a.22.22,0,0,1,.1-.09C349,354.14,349,354.15,349,354.28Z"/><path class="cls-1" d="M350.9,583.15l-.08-1A9.55,9.55,0,0,0,350.9,583.15Z"/><path class="cls-1" d="M425.84,601.3h-.37A.88.88,0,0,0,425.84,601.3Z"/><path class="cls-1" d="M330,600.15v.1a.07.07,0,0,0,0-.1Z"/><path class="cls-1" d="M421.53,601.45h.17C421.73,601.4,421.57,601.4,421.53,601.45Z"/><path class="cls-1" d="M408.22,599.85h0Z"/><path class="cls-1" d="M334.48,606.2c-1.11.27.23.55.07.84.29-.08.92,0,.63-.25.58.58,1.75-.32,2.38.14,0-.06-.34-.25.09-.39.65-.06.61.22.87.33.19-.16,1.18-.28,1.08-.2.43-.14-.46-.57.15-.82.4-.39,1-.06,1.44-.17.58.28-.58.19-.82.33l1.64-.18c.48.2-.22.38-.7.33a1.6,1.6,0,0,0,1.68-.3,5.59,5.59,0,0,1,1,.13c-.39.18-.36.74-1,.83-1,0,.35-.43-.49-.51l-.07.34c-.36-.19-.65.05-1,.08s0-.12.19-.17c-.7,0-1.25-.15-1.78.23.94.31,2.36-.11,2.77.27l1.87-.46c0-.16-.65-.41-.12-.63.22.39.77.57,1.49.64-.26-.43,1.16-.38.8-.73-.34.22-.51-.14-.56-.17.7,0,.1-.4.48-.42,1.28.09-.05.27,1.21.43a5.53,5.53,0,0,1-1.64.79c.05.19.7,0,1,.19-.41-.22.29-.4-.05-.5a31,31,0,0,1,3.42-.71c-.19.63-2.07.47-1.68,1.22.6-.09.59-.4,1.08-.35.41.37,1.42,0,2.24,0l-.37-.19a2.64,2.64,0,0,1,1.25,0l-.09.08.36-.12q.07,0,.06.06a15.41,15.41,0,0,1,2.15-.12c0-.31-.74,0-1.1,0-.1-.08-.8-.21-.46-.42.93,0,1.59-.37,2.64-.36l-.33-.09c.33-.22.79-.11,1.29-.12.92.21-.67.43-.11.6-.36.28-1,0-1.08.36l.57.43c.48-.26,1,.13,1.35.07l-.36-.19c.07-.33.41-.08.58,0l-.25-.48c-.52-.09-.89.34-1.27.06.94-.16.72-.55,1.85-.56,0,.19-.22.07-.33.21.38.13.79-.26,1.41-.11-.35.12-.93.31-.47.57l.33-.36c.29,0,.17.2.29.21.41.07-.1-.38.55-.29.1.07.32.16.22.24.75,0,.36-.12,1.06-.3-.63,0-.65-.55,0-.61.91.06,1.53-.25,2.16.21l.41-.24c-.26.34.58.12.87.18.1.38-1.37,0-1.37.6.6.06.34.25.14.42.65-.06.24-.44.53-.69,0,.16,1.11,0,.73.38.55,0,.64-.37,1.05-.3a1,1,0,0,0-.09.54c.05-.12.57,0,.67,0-.09-.07.19-.32-.29-.21.12-.3,1.13,0,1.11-.26.05.34,1,.07,1.54.21-.05-.81-.94.31-1.11-.35.67-.28,2.26,0,3.35-.39.93.16,0,.31.19.61-.87.13-1.08-.11-1.83,0a6.33,6.33,0,0,0,2.77-.2c.89,0,1,.81,2.07.61-.15-.26-.12-.32-.46-.42a3.7,3.7,0,0,1,.94,0c.19-.16-.48-.2,0-.34.17,0,.53.08.46.26h-.07c1-.24.74.63,1.63.13-.07-.13-.26,0-.48,0s.38-.48.79-.56c-.07.17.36,0,.65.09.2.3-.72.08-.86.28H378l.87-.28c-.6.09-.29-.37,0-.4.6,0,1.21.11,1.14.45.07-.34.81-.32,1.34-.4-.58-.12-.07-.28.1-.39l.86.33c-.91.1.2.3,0,.53s-.82.16-1.3.12c.94.61,1.33-.34,2.14,0,0,.15-.07.33-.43.3.15.1.75-.3,1.3-.12-.14-.11-.46-.42.1-.55l.72.38c.84.08.29-.41,1-.58l-.45-.26c.07-.34.93,0,1-.37-.43,0-.68.27-1.13.17-.17-.36.58-.2.84-.39a4.1,4.1,0,0,1,1.44.45c0,.56-1.15.69-1,1.42a8.47,8.47,0,0,1,2.84-.06c.81-.17.74-.61.62-.93a1.19,1.19,0,0,1,.72.07l-.38.18a11.74,11.74,0,0,1,2.64-.36c.6-.09.36-.43.22-.69l.65-.06-.1-.07c.14-.35.72-.24,1.15-.22,0,.15-.26.19-.23.28a2,2,0,0,0,1.27-.06.55.55,0,0,1-.68.4h0a.16.16,0,0,0-.07-.13l-.77.2c.89-.19,1.42.2,1.4.57.89-.19-.73-.38.33-.52,1.4.72,2.65-.2,3.42.83a7.81,7.81,0,0,1,2.43-.6c0-.3.67-.11.58-.5-1-.4-1.81.6-2.58,0-.43.14-.29.4-.48.57-.38,0-.75,0-.79-.2.88-.19.23-.75,1.36-.76-.14-.26-1.06-.17-1.46-.24.12-.14,0-.31-.27-.42a11.89,11.89,0,0,1,1.27-.68c-.12.14.1.22,0,.31l1.18-.44c.37.19.46.41.27.58.65.09,1.75-.32,1.76.14.84-.07-.27-.27-.34-.4h-.82c-.1-.53,1,.13,1.15-.38.14-1,1.26.31,1.88.15l-.72.7.63-.15c-.36.27-.36.73-.91,1a16.66,16.66,0,0,0,2.64.1c.22.24.32.47.22.7.87-.44,1.35.23,2.1.24.79-.26-.8-.36-.22-.7.24.18.67,0,.89,0a4.45,4.45,0,0,1-1.66-.22c.43,0,.38-.33.5-.48l-.72-.07c0-.42.89,0,1.22-.25-.21.38-.09.4-.31.77a3.76,3.76,0,0,1,2.1.09c.31.15-.26.19-.43.29.14.26.62-.15.74.17-.09.24-.38,0-.6.09l1.83.12c0,.16-.46.2-.74.14a1.52,1.52,0,0,0,1.61-.42c.62.15,1.34.37,1.13.6.29-.09.09-.24.09-.39.85.08.94-.46,1.44-.48L415,604c.82.3.19-.48.91-.25a1.38,1.38,0,0,0,0,1c.12-.3.58,0,.89,0-.19-.29.68-.27.17-.56.72-.24,1.06.16,1.59-.22-.34-.09.62-.31.33-.52.7,0,1.18.33,1,.65-.24,0-.62-.15-.6.1l1.28-.06c.31.15.72.22.77.56.41-.39,1.2.28,1.51-.19-.43.3-.77-.1-.93-.15l.19-.07H422l.55-.6c-.53-.23-.09.39-.84.38-.65-.55,1.47-.84.79-1.18-.55-.18-.45.35-.91.55h.12l-1,.23c0-.19.26-.34.26-.34-1.25,0-1.45-.3-2.79-.37.09.08.36.66-.24.75-.43.14-.48-.2-.84-.24.21-.07.4-.39.69-.17v-.41c1-.48.48-.88,1.85-1,.06-.29,1.06-.45,1.8-.36l-.36-.27c.77-.51.15.42,1.13,0,.41.53,1.16,1.16.61,1.6.7.13.93-.15,1.56-.15.39.43-.19.47-.12.91.46,0,1-.24.7-.49l.87.18c0,.09-.29.09-.41.08a1.77,1.77,0,0,0,1.18-.28c-.08,0-.29.09-.39,0a3.42,3.42,0,0,0,1.06-.45c-.53.22-.58-.27-1.13,0,.05-.12.14-.35.43-.3-.46-.26-.91-.21-1.11-.5a.57.57,0,0,0,.72-.15,2.5,2.5,0,0,0-1.27.12c0-.5-1.35.09-.89-.42-.08.17-.58.19-.85.07,0-.22.7-.33,1-.58,1.35-.24,0,.36.29.52h1c-.11-.07.41-.35-.26-.32a1.43,1.43,0,0,1,1.49-.28c.12-.15-.27-.12-.39-.13.12-.15.77-.67-.07-.75.24,0-.41.23,0,.4-.34.06-1.26-.15-.89-.43-.41.09-1.18.29-1.52.35-.1-.23.29-.1.46-.2l-1.18.13.33.25c-.86-.18-1.41.41-2.11.59.09-.39.67-.43,1.13-.63-.44-.47-.29.25-1,.18a.22.22,0,0,1-.08-.28l-.57.34c-.17,0-.08-.13,0-.15-1,.42,0,.55-1.3.73.8.2.68-.27,1.35-.23.38.28-.77.51-1,.67-.65-.09-.73-.68-1.55-.36.58-.19,0-.37.85-.39.45-.2-.25-.17-.34-.4-.22.07.14.42-.46.36v-.06l-1,.43c-.92-.22-2.07.47-2.69,0l.14.42a15.56,15.56,0,0,0-1.8.13c.09-.24.48-.26.89-.35a5.4,5.4,0,0,0-2.65.51,5.31,5.31,0,0,0,1.06.48c-.67.58-.79-.36-1.66-.07,0-.41.26-.35.05-.74-.36.28-1,.22-1.37.45-.22-.39.16-.72,1.05-.76.68.35,1.42-.26,2,.07l-.34-.25a10.36,10.36,0,0,0,1.66-.23V601l.29-.41h-.31a2.94,2.94,0,0,1,1.06-.6c-1,.06-1,.7-1.49,1-.87,0-1.21-.73-1.79-.39,0-.19-.53-.39-.14-.57s.82.15.87-.13c-.51,0-.32-.15-1.09-.1a2.83,2.83,0,0,1-1.27,1,3.7,3.7,0,0,1-1.78.07c.58,0,1.15-.38,1-.64-.34.37-1.13-.29-1,.22-.68,0-1.81,0-1.88-.46.63-.17,1.25.1,1.79,0-.15,0-.29-.12-.21-.23l.8,0c-.6-.21-.48-.36-1.25-.31,0,0,.14.11.07.13h-.63v-.4c-.58.19-1.69-.32-2.74,0l.09-.09c-.84-.08-.91.72-1.83.81.27-.19.15-.36.1-.54-.46.2-.7-.13-1.16-.24.53.24-.36.43,0,.56,0,.4-.91.4-1.4.35-.28-.52,1.5-.28.77-.82-.48,0-.6.25-.26.35a4.55,4.55,0,0,1-1.95-.44c-.72.39-1,.18-1.47.69.39,0,.41-.39.89-.19l-.53.38a10.2,10.2,0,0,1-1.73-.35l.51-.17v.06c.19-.17.84-.07.77-.36-.46.36-.82,0-1.42.26v-.06c-1.06.3-1.84-.58-2.51.16.2,0,.58.27.46.41-.24-.17-.89-.11-.87-.33l.22-.07a3.34,3.34,0,0,0-1.18,0c-.17.26,0,.46-.43.6-1.06-.16.43-.6-.29-.83l-1,.28-.22-.24c-1.46-.24-2.59.55-4.16.55,0-.4,1.11-.57,1.49-.6-.48-.35-1.17.14-1.82-.11-.61-.06-1.06.29-1,.52-.74.14-.53-.24-.62-.31-.24.44-1.18.29-1.78.38v-.25l-.94.31c.25,0,0,.25,0,.4h-.24c.92.68,2.07-.47,3,.3-.29.09.1.22-.19.32s-.29-.06-.32-.16c-.14.2-.52.38,0,.37,0,.52-1,.39-1.73.57-.55-.33.58-.5.86-.75-.26,0-.48.27-.86.13l.09-.39c-1,.22-.26.35-.48.73s-.86,0-1.13,0l.29-.1c-.74-.16-.91.25-1.59.22l-.31-.31c.84.39,1-.55,1.51-.34-1.22-.37.27-.81.65-1.14a1.9,1.9,0,0,1-1.3-.19c-.77.51-1.61-.19-2.35.41-.41-.07.35-.27-.08-.28a7.7,7.7,0,0,0-2.48.25c-.43,0-.36-.19-.48-.35-2.09-.24-2.91.7-5.2.47l.34-.21c-.48,0-.89-.12-1.13.17-.6-.68-2,.41-2.81-.31-1-.13-1.06.45-1.86.56,0-.16.24-.44-.17-.51-2.6.24-4.93.29-7.79.41,0-.06.17-.11.24-.13-1.86-.06-3.68.59-5.22.38-.29.09-1.16.23-.89.5.36,0,.41.38.38.59-1.37.3-.67-.5-1.59-.4-.29-.52.58-.35.58-.81l-1.32.33c-.75-.16-1.49.14-2.14-.11.29.06.09-.39.57-.19-.07,0,0,.06-.09.08,1.1,0,.6-.25,1.59-.37a12.12,12.12,0,0,1-2.82.16c.17.35-.63.15-.84.38h-.05c0,.16-.48.26-.63.31l-.19-.45c-.34.06.1.23-.24.28s-2.19.16-2.31-.31c-.58,0-.75.29-1.35.23,0-.11.2-.16.22-.22A29.5,29.5,0,0,1,335,600a8.22,8.22,0,0,0-2.45.5c.27,0,1,.07.56.33-.27.19-.68.12-1.09.2.1-.24-1-.22-.21-.39-.21-.52-1.77.1-1.75-.41-.2.16-1.36.07-1.79.34-.1-.22.63-.15.62-.31l-.53.07v-.15c-1-.13-1.2.5-1.8.6v-.06l-.4.08.48-.42c-.65.06-1,.43-1.71.51l-.07-.13-.44.15a.07.07,0,0,0,.05-.12c-.41.39-1.35.24-1.73.57-.29-.06-.53-.55-.92-.21l.08-.49c1-.06.36.34,1.37.16-.75-.62-2.84-.55-4.24-.5-1.13.32-3-.2-3.46.52l.12-.3-1.9-.24c-1.62.12-3.28-.11-4.5.3l-.34-.25c-1.27.83-4.33.34-5.17,1.34-.72-.22.21-.38.29-.56-.53-.08-1.42.57-1.93.12,0-.15.75-.14.41-.23-.39-.29-.55.28-1,0,.2.3-.69.64-1.34.7h.17c.09.22-.39.18-.65.21a.14.14,0,0,1,.09-.08,56.89,56.89,0,0,1-10.68.28l.65-.21a4.37,4.37,0,0,1-1.69,0h.08c-.94-.46-1.06.45-1.79-.08l.15-.05c-1.13,0-1.81-.48-2.91-.22-.87-.18-.77-.42-1.38-.63a.92.92,0,0,0-.77.36h.25c.26.27-.53.23-.89.34.26.43.12,1.1,1.13,1.53.75-.14.73.69,1.57.62.48-.57,1.2.43,2-.08-.41.39.91.21.24.64.32.31,1.64-.34,2.24,0-.1.09-.07.18-.22.23.85-.23.58.27,1.21.27v-.4c.24-.14.32.15.53.08-.17,0-.53-.24-.34-.41a2.75,2.75,0,0,1,.84-.22c0,.15-.21.22-.36.27s.68,0,.73.23c-.24.13-.56.13-.77.35.89.12.07.13.5.45-.12-.47.78-.2,1.26-.31.05.19-.34.06-.46.21.92.83,1.37-.15,2.55,0,0,.06-.17.11-.24.13.55-.13.94.31,1.3,0,.53.08.1.53.92.52-.25-.49,1,.09,1-.43l.63.31c.55-.29-.15-.88.93-.93,1,.19-.09.86.49,1.13l.24-.29.48.2h-.07c.29-.1.81,0,.82.14s-.37.12-.41.24c.48-.26,1.9.71,2.4-.08.29.14.87.14.8.39.25-.35,1.28.11,1.66-.11-.05.11.31.3.6.21-.39-.13-.14-.26.12-.45.34.25,1.3,0,1.45.45.53-.23.33-.52.45-.82.34.25,1.42.2,1.23.67-.29,0-.94-.15-.82.17.56.18.24-.13.7-.18,0,.09.31.3.22.43a2.8,2.8,0,0,1,1,0c-.6-.22.38-.34,0-.53l-.57.35c-.7,0-.15-.26-.41-.38,1.22-.1,1-.58,2.14-.81a6.67,6.67,0,0,0,.72.23c-.39,0-.31.46-.09.54.64-.37,1.15.24,1.68.32-.46-.11-.22-.39-.05-.5,1.11-.26.43.17.92.37,1.7,0,2.79.52,4.16.22l-.65-.4-.22.38c-.5-.3.1-.86.38-1.11.08.14.92.06.58.28l.82-.17c-.12-.17-.65-.09-.27-.27.27.12,1.11.2.58.42.44,0,1-.11.89-.34.7,0-.07.49-.38.64.55,0,.48.36.32.46h.76c-.16.1-.16.26-.33.36.51.14.87-.28,1.3,0l.19-.32a11,11,0,0,0,2.55.34l-.21-.24c1-.43.72.38,2,.2.75-.14,1.23-.25,1.13-.63.43-.14.53.09.72.23.34-.21,1.06-.61,1.59-.37a5.92,5.92,0,0,1-1,.27c.1.38,1.16.09,1.71.26.39-.18,1.64-.64,2.33-1-.31-.31-.19-.76.44-1.07-.1.24.84.24,1.27.4-.21.23,1,.56.05.66-.26-.12-.38-.44-.75-.32a4.14,4.14,0,0,0,1.4.72c0,.12-.36.27-.67.27C334.6,606.37,334.5,606.29,334.48,606.2Z"/><path class="cls-1" d="M421.53,601.45h-.1l.12.09S421.51,601.47,421.53,601.45Z"/><path class="cls-1" d="M353.25,606.34a.16.16,0,0,0,.13-.12A.37.37,0,0,0,353.25,606.34Z"/><path class="cls-1" d="M366.36,606.08a.17.17,0,0,1,0-.1A.09.09,0,0,0,366.36,606.08Z"/><path class="cls-1" d="M422.38,604.14l-.24.07C422.23,604.21,422.27,604.17,422.38,604.14Z"/></svg>