<svg id="Layer_1" data-name="Layer 1" xmlns="http://www.w3.org/2000/svg" viewBox="0 0 279.72 103.91"><defs><style>.cls-1{fill:#ede3d3;}.cls-2,.cls-3{fill:none;stroke-miterlimit:10;}.cls-2{stroke:#003960;stroke-linecap:round;stroke-width:11.33px;}.cls-3{stroke:#685a4d;stroke-width:0.45px;}</style></defs><path class="cls-1" d="M265.26,95.07H13.46a141.39,141.39,0,0,1,0-92.58h251.8a152.66,152.66,0,0,0,0,92.58Z"/><path class="cls-2" d="M274.05,5.67H13.21a145.8,145.8,0,0,0,0,92.57H274.05"/><line class="cls-3" x1="14.84" y1="24.31" x2="83.86" y2="24.31"/><line class="cls-3" x1="26.41" y1="39.05" x2="109.38" y2="39.05"/><line class="cls-3" x1="258.07" y1="48.78" x2="182.92" y2="48.78"/><line class="cls-3" x1="258.48" y1="28.43" x2="152.53" y2="28.43"/><line class="cls-3" x1="258.48" y1="64.85" x2="233.61" y2="64.85"/><line class="cls-3" x1="258.48" y1="39.05" x2="246.05" y2="39.05"/><line class="cls-3" x1="34.09" y1="51.95" x2="9.22" y2="51.95"/><line class="cls-3" x1="263.2" y1="83.83" x2="157.61" y2="83.83"/><line class="cls-3" x1="86.75" y1="73.2" x2="11.95" y2="73.2"/><path d="M114.43,42.11a6.9,6.9,0,0,1-.38,2.35q-3,3-5,3a10.22,10.22,0,0,0-2.34-.46q-2,0-6.47,2.4a45.28,45.28,0,0,0-7.56,5.27c1.64,2.76,3.85,4.13,6.62,4.13a12.67,12.67,0,0,0,4.31-.91h.23q2.17,0,2.17,6.13-.8,1.69-3.78,3.25l-2,.17q-8,0-14.33-9.49c-.72,2.17-1.37,4-1.93,5.48C82.76,66.34,82,68,81.55,68.32a2.58,2.58,0,0,1-1.69.54q-2,0-5.39-2.81l.47-3.25q2.88-1.38,5.66-12.6a70.37,70.37,0,0,0,2.14-16.73v-.73l5-5.33a12.43,12.43,0,0,1,4.74,2.11q-2.8,13.8-5.39,23Q97.45,41.32,110.6,38.22A19.08,19.08,0,0,1,114.38,40C114.42,41.29,114.43,42,114.43,42.11Z"/><path d="M150.56,48.94a12.13,12.13,0,0,1-1.29,4.63,16.45,16.45,0,0,1-2.55,4.25q-6.12,6.68-9.84,6.68-3.07,0-6.65-4.16c-2,1.09-3,3-3,5.88a10.19,10.19,0,0,0,.11,1.15,8.58,8.58,0,0,1,.12,1.14l-3,1.61c-3-1.72-4.51-3.44-4.51-5.15q0-3.19,4.22-8.59a20.83,20.83,0,0,1,3.22-3.22q2.46-2.05,4-2a2.9,2.9,0,0,1,1.81.47l1.09,1.31,3.28,3.84a2,2,0,0,0,1.46.85,3,3,0,0,0,2.14-1.43c1.06-1.29,1.58-3.45,1.58-6.48a18.07,18.07,0,0,0-.38-4q-1.08-5-3.34-5-3.18,0-7.94,3.34A24.43,24.43,0,0,0,125,50.38h-2.14q-3.66-2.64-3.66-5.69a2.41,2.41,0,0,1,.15-1.11,15.51,15.51,0,0,1,1.34-1.35A33.53,33.53,0,0,1,130,36a34.1,34.1,0,0,1,13.33-3.25,4.75,4.75,0,0,1,4.51,3A29.56,29.56,0,0,1,150.56,48.94Z"/><path d="M169.45,57.23q0,3.29-3,7.21A28.86,28.86,0,0,1,160.64,70a10.25,10.25,0,0,1-5.57-5.21l1.38-2.29c3.36-1,5-2.9,5-5.83a10.52,10.52,0,0,0-1.09-1.9l1.14-2a12.2,12.2,0,0,1,3-.24C167.81,52.54,169.45,54.11,169.45,57.23Zm22.33-9.37a18.25,18.25,0,0,1-.09,2.13,9.14,9.14,0,0,1-.61,2,46.19,46.19,0,0,1-2.79,5.56q-5.85,9.74-11.1,11.34A10.14,10.14,0,0,1,173,61.71l1.82-1.78q2.69,0,6.65-5.39c2.32-3.17,3.48-5.87,3.48-8.12,0-2-1.38-3.05-4.16-3.05q-6.53,0-17.81,5.28a15.54,15.54,0,0,1-4.69-4.75l1.94-3.16a47.7,47.7,0,0,1,21.41-4.87,9.83,9.83,0,0,1,3.78.94Q191.78,39.77,191.78,47.86Z"/></svg>