<svg xmlns="http://www.w3.org/2000/svg" viewBox="0 0 254.93155 205.02089"><defs><style>.a{fill:#231f20;}.b{fill:none;stroke:#231f20;stroke-linecap:round;stroke-linejoin:round;stroke-width:14.74462px;}</style></defs><path class="a" d="M26.71378,130.51015q3.42041,3.75145,3.41992,11.31054,0,7.62012-4.5,12.48047a23.89474,23.89474,0,0,1-11.28028,6.7793l-2.46.7207a1.16343,1.16343,0,0,1-1.10937-.41992,1.70736,1.70736,0,0,1-.51074-1.20117V154.1205a1.71352,1.71352,0,0,1,.42089-1.11035,2.95879,2.95879,0,0,1,1.07911-.80957l1.92089-.78028a9.67561,9.67561,0,0,0,4.34961-3.21,10.04032,10.04032,0,0,0,1.58985-6.08984q0-3.77929-1.32031-5.28028-1.31983-1.49853-4.91993-1.5H11.83389l-8.04-.05957a1.43842,1.43842,0,0,1-1.5-1.5V119.9203a1.41478,1.41478,0,0,1,.4502-1.08008,1.492,1.492,0,0,1,1.0498-.41992h6.4795a1.43842,1.43842,0,0,1,1.5,1.5v6.83985h3.7207Q23.29288,126.76015,26.71378,130.51015Z"/><path class="a" d="M34.54385,133.54042a1.20143,1.20143,0,0,1-.33007-.83984,1.76442,1.76442,0,0,1,.12011-.66016L38.954,120.101a3.64861,3.64861,0,0,1,.87012-1.23047,2.05646,2.05646,0,0,1,1.41015-.4502h4.37989a1.05634,1.05634,0,0,1,.87011.41992,1.282,1.282,0,0,1,.26953.96094l-1.85937,12a3.10194,3.10194,0,0,1-.7207,1.5,1.91287,1.91287,0,0,1-1.5.59961H35.3544A1.05467,1.05467,0,0,1,34.54385,133.54042Zm13.56055,0a1.19712,1.19712,0,0,1-.33008-.83984,1.74538,1.74538,0,0,1,.12012-.66016L52.51358,120.101a3.66207,3.66207,0,0,1,.87012-1.23047,2.05986,2.05986,0,0,1,1.41015-.4502h4.37989a1.05377,1.05377,0,0,1,.87011.41992,1.27859,1.27859,0,0,1,.27051.96094l-1.86035,12a3.10939,3.10939,0,0,1-.71973,1.5,1.91564,1.91564,0,0,1-1.5.59961H48.914A1.05265,1.05265,0,0,1,48.1044,133.54042Z"/><path class="a" d="M66.10342,146.38124a1.41188,1.41188,0,0,1-.45019-1.08008v-17.041a1.41479,1.41479,0,0,1,.45019-1.08008,1.56657,1.56657,0,0,1,1.11036-.41992h7.5a1.43842,1.43842,0,0,1,1.5,1.5v17.041a1.492,1.492,0,0,1-.41993,1.04981,1.41332,1.41332,0,0,1-1.08007.45019h-7.5A1.56657,1.56657,0,0,1,66.10342,146.38124Z"/><path class="a" d="M86.92276,157.72108q-4.17187-3.89942-4.16992-11.041V128.26015a1.41136,1.41136,0,0,1,.45019-1.08008,1.492,1.492,0,0,1,1.04981-.41992h6.24023a1.56748,1.56748,0,0,1,1.10938.41992,1.41479,1.41479,0,0,1,.45019,1.08008v18.12109a6.19352,6.19352,0,0,0,1.9502,5.00977,8.14811,8.14811,0,0,0,5.42969,1.64941q6.71923,0,6.78027-6.41992a13.49315,13.49315,0,0,0,.03027-1.62012c-.02148-.67969-.03027-1.19922-.03027-1.55957V142.1205a10.81382,10.81382,0,0,0-1.14063-5.25,3.42627,3.42627,0,0,0-3.11914-1.83008,7.12121,7.12121,0,0,0-1.7705.24023,5.7975,5.7975,0,0,0-1.53028.60059,1.88742,1.88742,0,0,1-.54.11914,1.26638,1.26638,0,0,1-.92968-.38965,1.33771,1.33771,0,0,1-.38965-.99023v-4.73926a2.359,2.359,0,0,1,1.13965-2.2207,11.3184,11.3184,0,0,1,5.75976-1.13965q6.60059,0,9.4502,3.45019,2.84911,3.45119,2.96972,10.64942v6.2998q-.66065,14.70117-16.67968,14.7002Q91.0917,161.6205,86.92276,157.72108Z"/><path class="a" d="M150.0419,160.601a1.41189,1.41189,0,0,1-.45019-1.08008V141.76015q0-6.83936-6.78028-6.83985h-9.11914a1.53507,1.53507,0,0,1-1.5-1.5v-5.16015a1.414,1.414,0,0,1,.44922-1.08008,1.4959,1.4959,0,0,1,1.05078-.41992h9.47949q8.33935,0,12.4502,3.41992,4.10889,3.42041,4.11035,11.2207v18.12012a1.48865,1.48865,0,0,1-.4209,1.0498,1.41119,1.41119,0,0,1-1.0791.4502h-7.08008A1.56236,1.56236,0,0,1,150.0419,160.601Z"/><path class="a" d="M166.96182,160.601a1.41189,1.41189,0,0,1-.45019-1.08008V128.26015a1.41479,1.41479,0,0,1,.45019-1.08008,1.56585,1.56585,0,0,1,1.10938-.41992h7.5a1.43841,1.43841,0,0,1,1.5,1.5v31.26074a1.492,1.492,0,0,1-.41992,1.0498,1.41187,1.41187,0,0,1-1.08008.4502h-7.5A1.56164,1.56164,0,0,1,166.96182,160.601Z"/><path class="a" d="M211.75089,127.18007a1.46766,1.46766,0,0,1,.41992,1.08008v5.16015a1.49594,1.49594,0,0,1-.41992,1.05078,1.41109,1.41109,0,0,1-1.08008.44922H207.911a9.18487,9.18487,0,0,0-1.10937,3.06055,21.39314,21.39314,0,0,0-.39063,4.25977v17.46a1.121,1.121,0,0,1-.56933.93066,2.056,2.056,0,0,1-1.1709.38965h-7.01953a1.23986,1.23986,0,0,1-1.32032-1.32031V141.58046q0-4.86036,1.2002-6.66016H183.85147a1.53688,1.53688,0,0,1-1.5-1.5v-5.16015a1.41137,1.41137,0,0,1,.4502-1.08008,1.49191,1.49191,0,0,1,1.0498-.41992h26.81934A1.46455,1.46455,0,0,1,211.75089,127.18007Z"/><path class="a" d="M247.871,130.4203q3.83935,3.66064,3.83985,10.98047v18.12012a1.49192,1.49192,0,0,1-.41993,1.0498,1.41329,1.41329,0,0,1-1.08007.4502H233.831a1.5387,1.5387,0,0,1-1.5-1.5v-5.16016a1.40994,1.40994,0,0,1,.4502-1.08008,1.492,1.492,0,0,1,1.0498-.41992h7.74024V141.88124a7.21618,7.21618,0,0,0-1.5-4.86035,4.90877,4.90877,0,0,0-3.90039-1.74024h-4.67969l-5.10059,24.17969a1.82134,1.82134,0,0,1-.47949,1.11035,1.4133,1.4133,0,0,1-1.08008.4502h-6.90039a1.50669,1.50669,0,0,1-1.10937-.4502,1.17731,1.17731,0,0,1-.33008-1.11035l5.87988-24.12012h-3.96a1.40822,1.40822,0,0,1-1.08008-.44921,1.56565,1.56565,0,0,1-.41992-1.11036v-5.5205a1.414,1.414,0,0,1,.44922-1.08008,1.4959,1.4959,0,0,1,1.05078-.41992h19.25977Q244.02968,126.76015,247.871,130.4203Z"/><path class="a" d="M16.75479,195.11073a.79391.79391,0,0,1-.23144-.58886V183.84413q0-6.14209-6.10743-6.14258H3.77335a.8344.8344,0,0,1-.58887-.21484.73774.73774,0,0,1-.23242-.57129v-1.14258a.78534.78534,0,0,1,.23242-.60742.83375.83375,0,0,1,.58887-.21387h6.82129q9.07031,0,9.07128,8.78516v10.78516a.79506.79506,0,0,1-.82128.82128h-1.5A.79841.79841,0,0,1,16.75479,195.11073Zm-13.57031,0a.79466.79466,0,0,1-.23242-.58886v-12a.79506.79506,0,0,1,.82129-.82129h1.5a.79359.79359,0,0,1,.82129.82129v12a.79359.79359,0,0,1-.82129.82128h-1.5A.79465.79465,0,0,1,3.18448,195.11073Z"/><path class="a" d="M28.93253,195.11073a.79463.79463,0,0,1-.23243-.58886v-1.17872a.78391.78391,0,0,1,.23243-.60742.83371.83371,0,0,1,.58886-.21386h5.10742a5.974,5.974,0,0,0,4.57129-1.57129,6.98314,6.98314,0,0,0,1.60645-4.57129q.03516-.49952.03613-1.25,0-.71486-.03613-1.21387a6.77516,6.77516,0,0,0-1.58887-4.58887,6.07513,6.07513,0,0,0-4.58887-1.55371H29.52139a.79508.79508,0,0,1-.82129-.82129v-1.17871a.78531.78531,0,0,1,.23243-.60742.83372.83372,0,0,1,.58886-.21387h5.28614q4.53369,0,6.73144,2.26758a9.53163,9.53163,0,0,1,2.33887,6.55274q.03516.501.03613,1.35742,0,.85693-.03613,1.39258A9.528,9.528,0,0,1,41.539,193.0746q-2.1958,2.269-6.73144,2.26855H29.52139A.79462.79462,0,0,1,28.93253,195.11073Z"/><path class="a" d="M62.787,195.11073a.79388.79388,0,0,1-.23145-.58886V183.84413q0-6.14209-6.14258-6.14258H51.80557a.83438.83438,0,0,1-.58886-.21484.73771.73771,0,0,1-.23243-.57129v-1.14258a.79508.79508,0,0,1,.82129-.82129h4.82129q9.07032,0,9.07129,8.71387v10.85645a.79506.79506,0,0,1-.82129.82128h-1.5A.7984.7984,0,0,1,62.787,195.11073Z"/><path class="a" d="M89.1962,175.16542a.82066.82066,0,0,1,.21484.60742v1.14258a.74108.74108,0,0,1-.23242.57129.83771.83771,0,0,1-.58887.21484H86.48233a3.92013,3.92013,0,0,0-.80371,1.67774,10.04083,10.04083,0,0,0-.30371,2.57129V194.557a.71292.71292,0,0,1-.25.57129.89654.89654,0,0,1-.60645.21484h-1.5a.739.739,0,0,1-.78613-.78613V181.73671a10.78457,10.78457,0,0,1,.25-2.5,3.70892,3.70892,0,0,1,.67871-1.53516H73.3046a.8344.8344,0,0,1-.58887-.21484.73774.73774,0,0,1-.23242-.57129v-1.14258a.79506.79506,0,0,1,.82129-.82129H88.58975A.82025.82025,0,0,1,89.1962,175.16542Z"/><path class="a" d="M111.31924,195.11073a.79391.79391,0,0,1-.23144-.58886V183.84413q0-6.14209-6.10742-6.14258H98.3378a.83442.83442,0,0,1-.58887-.21484.73774.73774,0,0,1-.23242-.57129v-1.14258a.78534.78534,0,0,1,.23242-.60742.83376.83376,0,0,1,.58887-.21387h6.82129q9.07031,0,9.07129,8.78516v10.78516a.79506.79506,0,0,1-.82129.82128h-1.5A.79844.79844,0,0,1,111.31924,195.11073Zm-13.57031,0a.79466.79466,0,0,1-.23242-.58886v-12a.79506.79506,0,0,1,.82129-.82129h1.5a.79359.79359,0,0,1,.82129.82129v12a.79359.79359,0,0,1-.82129.82128h-1.5A.79466.79466,0,0,1,97.74893,195.11073Z"/><path class="a" d="M137.06729,195.11073a.79391.79391,0,0,1-.23144-.58886V183.84413q0-6.14209-6.10743-6.14258h-6.64257a.8344.8344,0,0,1-.58887-.21484.73774.73774,0,0,1-.23242-.57129v-1.14258a.78534.78534,0,0,1,.23242-.60742.83375.83375,0,0,1,.58887-.21387h6.82129q9.07031,0,9.07128,8.78516v10.78516a.79506.79506,0,0,1-.82128.82128h-1.5A.79841.79841,0,0,1,137.06729,195.11073Zm-13.57031,0a.79466.79466,0,0,1-.23242-.58886v-12a.79506.79506,0,0,1,.82129-.82129h1.5a.79359.79359,0,0,1,.82129.82129v12a.79359.79359,0,0,1-.82129.82128h-1.5A.79465.79465,0,0,1,123.497,195.11073Z"/><path class="a" d="M179.6171,183.66542v10.85645a.79359.79359,0,0,1-.82129.82128h-1.5a.79506.79506,0,0,1-.82129-.82128V183.84413q0-6.14209-6.14258-6.14258h-2.57129q-.356,2.25-.51758,3.73145a27.1067,27.1067,0,0,0-.125,3.375l.07129,9.71387a.79357.79357,0,0,1-.82129.82128l-4.96386-.07128a.79513.79513,0,0,1-.82129-.82227v-1.07129a.79506.79506,0,0,1,.82129-.82129l2.75.03613v-7.64257q-.03663-2.25.08886-3.80371a22.08586,22.08586,0,0,1,.58985-3.44532h-1.92871a.8344.8344,0,0,1-.58887-.21484.73771.73771,0,0,1-.23242-.57129v-1.14258a.78531.78531,0,0,1,.23242-.60742.83375.83375,0,0,1,.58887-.21387h7.64257Q179.6171,174.95155,179.6171,183.66542Z"/><path class="a" d="M188.6337,186.82558a.79466.79466,0,0,1-.23242-.58887V175.77284a.78531.78531,0,0,1,.23242-.60742.83372.83372,0,0,1,.58886-.21387h1.57227a.79506.79506,0,0,1,.82129.82129v10.46387a.79506.79506,0,0,1-.82129.82129h-1.57227A.79466.79466,0,0,1,188.6337,186.82558Z"/><path class="a" d="M200.56143,186.82558a.7947.7947,0,0,1-.23242-.58887V175.77284a.78534.78534,0,0,1,.23242-.60742.83376.83376,0,0,1,.58887-.21387h1.57226a.79506.79506,0,0,1,.82129.82129v10.46387a.79506.79506,0,0,1-.82129.82129H201.1503A.7947.7947,0,0,1,200.56143,186.82558Z"/><path class="a" d="M223.48819,195.11073a.79392.79392,0,0,1-.23145-.58886V183.84413q0-6.14209-6.14257-6.14258h-4.60743a.83438.83438,0,0,1-.58886-.21484.73771.73771,0,0,1-.23242-.57129v-1.14258a.79506.79506,0,0,1,.82128-.82129H217.328q9.07032,0,9.07129,8.71387v10.85645a.79506.79506,0,0,1-.82129.82128h-1.5A.7984.7984,0,0,1,223.48819,195.11073Z"/><path class="a" d="M242.79,195.6996a.64005.64005,0,0,1-.64356-.67773V193.4496a1.04611,1.04611,0,0,1,.78614-.96387l1.39257-.53515a8.22626,8.22626,0,0,0,3.78516-2.67871,8.446,8.446,0,0,0,1.32129-5.14258,10.06775,10.06775,0,0,0-.57129-3.76758,3.64888,3.64888,0,0,0-1.875-1.98242,8.67306,8.67306,0,0,0-3.58887-.60645h-7.14258a.79506.79506,0,0,1-.82128-.82129v-1.21484a.74054.74054,0,0,1,.23242-.57129.83372.83372,0,0,1,.58886-.21387h7.57129a12.04746,12.04746,0,0,1,5.19629.92871,5.57944,5.57944,0,0,1,2.76758,2.96387,14.22905,14.22905,0,0,1,.85742,5.42774,10.41621,10.41621,0,0,1-2.25,7.125,13.25562,13.25562,0,0,1-5.85742,3.76757l-1.499.5A.62865.62865,0,0,1,242.79,195.6996Zm-7.125,6.25a.78389.78389,0,0,1-.23242-.60742V182.52187a.79506.79506,0,0,1,.82128-.82129h1.46485a.79506.79506,0,0,1,.82129.82129v18.82031a.79359.79359,0,0,1-.82129.82129h-1.46485A.83372.83372,0,0,1,235.665,201.9496Z"/><path class="b" d="M141.3734,59.20878l14.439,14.24177a28.21915,28.21915,0,0,0,40.61776-.93024c10.37581-11.24566,9.49188-28.86986-1.378-39.6387l0,0a17.90624,17.90624,0,0,0-25.31644.11163l-7.21751,7.27767"/><path class="b" d="M100.70955,39.27663l-3.58606-3.596A26.86266,26.86266,0,1,0,97.30085,73.669L162.9814,7.37231"/><line class="b" x1="128.39897" y1="74.44361" x2="121.18146" y2="81.72127"/></svg>