<svg id="Layer_1" data-name="Layer 1" xmlns="http://www.w3.org/2000/svg" viewBox="0 0 100.53 11.17"><defs><style>.cls-1{fill:#fff;}</style></defs><path class="cls-1" d="M99.56,3.14l-.26,0S99.4,3.19,99.56,3.14Z"/><path class="cls-1" d="M99.78,3.61h0S99.79,3.6,99.78,3.61Z"/><path class="cls-1" d="M18.86,10.89a.52.52,0,0,0-.22.16C18.78,11,18.84,11,18.86,10.89Z"/><path class="cls-1" d="M33.78,1.57a.62.62,0,0,0,0,.13A.14.14,0,0,0,33.78,1.57Z"/><path class="cls-1" d="M96.6,3.35l.11,0C96.74,3.27,96.63,3.28,96.6,3.35Z"/><path class="cls-1" d="M15,10.38a.35.35,0,0,0,0,.12A.7.7,0,0,0,15,10.38Z"/><path class="cls-1" d="M87.46,1.15a.22.22,0,0,1-.11.05A.13.13,0,0,0,87.46,1.15Z"/><path class="cls-1" d="M36.79,11.17a.3.3,0,0,0,.09-.15A.14.14,0,0,0,36.79,11.17Z"/><path class="cls-1" d="M36.83,9.87c-.76.38.17.75.05,1.15.21-.11.64,0,.43-.34.4.8,1.21-.44,1.64.2,0-.08-.23-.34.06-.54.45-.08.42.29.6.46.13-.23.81-.4.74-.28.3-.2-.31-.78.1-1.13.28-.53.66-.08,1-.23.4.38-.39.26-.56.44L42,9.36c.33.28-.14.52-.48.46a.76.76,0,0,0,1.16-.41c.28.09.43,0,.7.17-.27.25-.25,1-.66,1.15-.68-.05.24-.59-.33-.7l0,.45c-.25-.26-.45.08-.71.12-.15-.12,0-.17.13-.23-.48,0-.86-.21-1.23.31.65.42,1.62-.15,1.91.37l1.28-.63c0-.22-.44-.56-.08-.87a1.19,1.19,0,0,0,1,.88c-.19-.59.79-.52.54-1-.23.29-.35-.2-.38-.25.48,0,.06-.54.33-.57.87.13,0,.38.83.59a3.94,3.94,0,0,1-1.13,1.09c0,.26.48,0,.68.26-.28-.31.2-.55,0-.68a13.49,13.49,0,0,1,2.34-1c-.13.87-1.42.66-1.15,1.68.41-.13.41-.55.74-.49.28.52,1,.07,1.54.05l-.25-.26c.21-.21.61,0,.86,0l-.07.11.25-.16a.07.07,0,0,1,0,.08c.27-.26,1,0,1.48-.16,0-.43-.51,0-.76-.07-.07-.09-.55-.27-.31-.57.64,0,1.08-.5,1.81-.49l-.23-.13c.23-.29.54-.14.89-.16.63.29-.46.59-.08.83-.25.37-.68-.05-.74.49l.39.58c.33-.35.7.18.93.1l-.25-.26c.05-.46.28-.11.4-.05l-.17-.67c-.36-.11-.61.48-.87.09.64-.22.49-.75,1.27-.77,0,.26-.15.1-.23.29.26.18.54-.36,1-.15-.25.17-.64.43-.33.79l.23-.51c.2.08.12.28.2.3.28.09-.06-.53.38-.4.07.1.22.21.15.33.51,0,.25-.16.72-.41-.42,0-.44-.76,0-.85.63.09,1.06-.34,1.49.29L57.43,8c-.18.47.4.16.6.24.06.52-.94,0-.94.83.41.09.23.35.1.57.44-.08.16-.6.36-.94,0,.21.76.06.5.52.38,0,.44-.51.72-.41a2.5,2.5,0,0,0-.06.74c0-.17.39,0,.46.06s.13-.44-.2-.29c.08-.41.78,0,.76-.36,0,.47.71.09,1.06.29,0-1.11-.65.42-.76-.49.46-.37,1.55,0,2.29-.52.65.21,0,.42.14.83-.6.18-.75-.15-1.26.05a2.35,2.35,0,0,0,1.9-.26c.61-.05.68,1.1,1.42.82-.1-.35-.08-.44-.31-.57.2-.13.43,0,.64,0,.13-.22-.33-.27,0-.47.11.07.36.11.31.36l0,0c.71-.33.52.86,1.13.18,0-.18-.18,0-.33-.07-.12-.27.26-.66.54-.78,0,.25.25,0,.45.13.13.41-.5.12-.6.39l.55.07L66.7,8.9l.6-.39c-.42.13-.2-.5,0-.55.41.08.83.16.78.62,0-.46.56-.44.92-.54-.4-.17,0-.39.07-.54l.59.45c-.63.13.13.41,0,.72-.18.47-.57.23-.9.17.65.84.91-.46,1.47-.06,0,.21,0,.46-.29.41.1.15.51-.41.89-.16-.1-.15-.31-.57.06-.75l.5.52c.58.11.2-.56.68-.8l-.32-.36c0-.46.65,0,.66-.5-.29,0-.46.37-.77.23-.12-.49.39-.27.57-.53.65.21.52.23,1,.62,0,.77-.8,1-.69,1.94.62-.13,1.53-.38,1.94-.08.57-.23.52-.84.43-1.28a.47.47,0,0,1,.5.1l-.27.25a4.46,4.46,0,0,1,1.82-.49c.41-.14.25-.59.15-1l.45-.08-.07-.1c.1-.49.49-.33.79-.31,0,.21-.18.26-.16.39a.72.72,0,0,0,.87-.08c0,.21-.18.68-.49.54,0,0,0-.13,0-.18l-.53.28c.61-.27,1,.27,1,.78.61-.27-.5-.52.23-.72,1,1,1.82-.28,2.35,1.14a3.3,3.3,0,0,1,1.66-.82c0-.42.47-.16.4-.69-.66-.55-1.24.82-1.77,0-.3.2-.2.55-.33.78-.26,0-.51,0-.54-.27.61-.27.16-1,.94-1.05-.1-.36-.73-.23-1-.32a.54.54,0,0,0-.18-.59c.19-.34.64-.63.87-.93-.08.2.07.31,0,.43l.81-.61a.66.66,0,0,1,.18.8c.45.13,1.21-.44,1.21.19.58-.1-.18-.37-.23-.55l0,0-.61,0c-.07-.74.69.17.79-.53.09-1.33.86.43,1.29.22l-.5,1,.43-.22c-.25.38-.25,1-.62,1.41.59,0,1.43.32,1.81.14a1.5,1.5,0,0,1,.15,1c.6-.6.93.31,1.44.32.54-.35-.55-.48-.15-1,.17.25.46,0,.61,0C88,7.47,87.37,7.15,87,7c.3,0,.27-.46.35-.65l-.5-.1c0-.59.61,0,.84-.35-.14.53-.06.54-.21,1.06a1.4,1.4,0,0,1,1.44.11c.21.22-.18.27-.3.41.1.36.43-.21.51.23s-.26,0-.41.13L90,8c0,.21-.32.28-.51.2.38.24.66.13,1.1-.59.43.21.93.52.78.83.2-.13.06-.33.06-.54.58.12.65-.63,1-.65l-.26-.39c.56.41.13-.65.63-.34a3.68,3.68,0,0,0,0,1.32c.08-.41.4,0,.61,0-.13-.41.46-.38.12-.79.49-.32.72.23,1.09-.29-.23-.13.43-.42.23-.72a.7.7,0,0,1,.68.9c-.17,0-.43-.21-.42.13L96,6.93c.21.21.49.3.53.78.28-.54.82.37,1-.27-.3.41-.53-.14-.64-.21L97,7.14a.11.11,0,0,1-.07,0l.38-.82c-.36-.32-.07.54-.58.53-.45-.77,1-1.16.54-1.63-.38-.25-.31.49-.62.76l.08,0L96,6.31a.68.68,0,0,1,.18-.48c-.86,0-1-.4-1.92-.5.07.1.25.9-.16,1s-.33-.28-.58-.33c.15-.09.28-.54.48-.24l0-.56c.7-.66.33-1.2,1.27-1.4,0-.4.73-.62,1.24-.5L96.28,3c.53-.7.1.57.78,0,.28.73.8,1.59.42,2.2.48.18.64-.21,1.07-.21.27.6-.13.65-.08,1.25.31-.07.71-.33.48-.67l.59.24c0,.13-.2.13-.28.12.23.13.68-.17.81-.39,0,0-.2.13-.26,0,.24-.16.69-.46.72-.62-.36.31-.39-.38-.77,0,0-.17.09-.49.29-.41-.31-.36-.63-.29-.76-.7.27.3.44-.14.49-.2a.91.91,0,0,0-.87.17c0-.69-.92.11-.61-.59,0,.25-.4.26-.58.1,0-.29.48-.46.68-.8.92-.33,0,.51.2.72l.7,0c-.07-.1.29-.48-.17-.44.21-.42.65-.72,1-.39.08-.2-.18-.17-.27-.18.09-.2.53-.92,0-1,.17,0-.28.33,0,.56-.23.08-.86-.22-.61-.59-.28.11-.81.39-1,.47-.07-.31.2-.13.31-.27l-.81.18.23.34c-.59-.25-1,.57-1.45.82.07-.54.46-.59.78-.87-.3-.65-.2.34-.7.24a.53.53,0,0,1,0-.39l-.39.48a.12.12,0,0,1,0-.21c-.68.58,0,.76-.89,1,.54.27.46-.38.92-.33.27.39-.53.7-.66.93-.44-.13-.5-.94-1.06-.5.4-.27,0-.51.58-.53.31-.27-.17-.24-.23-.55-.15.1.1.57-.31.49V2.32l-.67.58c-.63-.29-1.42.66-1.85,0l.09.57a6,6,0,0,0-1.23.19c.06-.33.33-.36.61-.48a2.24,2.24,0,0,0-1.82.7,3.88,3.88,0,0,0,.73.66c-.46.79-.55-.49-1.14-.1,0-.56.18-.47,0-1-.25.37-.66.29-.94.62A.77.77,0,0,1,89,3c.47.48,1-.35,1.36.1l-.23-.34c.46-.17.74-.07,1.14-.33l0,.08.2-.55h-.22A2.2,2.2,0,0,1,92,1.15c-.66.08-.71,1-1,1.45-.6,0-.83-1-1.23-.54,0-.26-.36-.53-.1-.78s.57.2.6-.18c-.35,0-.22-.21-.75-.14a2.94,2.94,0,0,1-.87,1.35,1.31,1.31,0,0,1-1.22.1c.39-.05.79-.52.69-.88-.23.5-.78-.41-.66.29-.46-.05-1.24,0-1.29-.63.44-.23.86.14,1.23,0a.23.23,0,0,1-.14-.31l.55.07c-.42-.29-.33-.49-.86-.42,0,0,.1.14,0,.17s-.3,0-.43,0l0-.56c-.4.26-1.16-.44-1.88,0L84.68,0c-.58-.12-.63,1-1.25,1.11a.9.9,0,0,0,.06-.75C83.18.65,83,.2,82.7.05c.36.33-.25.59,0,.77,0,.55-.63.55-1,.49-.2-.72,1-.39.53-1.13a.26.26,0,0,0-.18.48c-.42-.09-1-.17-1.34-.61-.5.54-.7.25-1,1C80,1,80,.46,80.37.74L80,1.26c-.48,0-.86-.42-1.19-.49l.34-.23V.63c.13-.23.58-.1.53-.49-.32.49-.57,0-1,.36l0-.08c-.73.4-1.26-.8-1.72.21.13,0,.4.37.32.57C77.15,1,76.7,1,76.72.74l.15-.09c-.41-.08-.66-.13-.81,0-.12.36,0,.64-.3.84-.73-.23.3-.84-.2-1.14l-.67.37L74.74.36c-1-.33-1.79.75-2.86.75,0-.55.76-.78,1-.82-.33-.49-.81.18-1.25-.16-.42-.08-.73.41-.66.72-.51.2-.37-.33-.43-.42-.17.6-.81.39-1.22.52l0-.34L68.67,1c.17,0,0,.34,0,.55l-.16,0c.63.93,1.42-.65,2.06.41-.2.13.07.31-.13.44-.16,0-.2-.08-.21-.21-.1.27-.37.52,0,.5,0,.72-.71.54-1.19.78-.38-.45.4-.68.59-1-.18,0-.33.36-.59.18l.06-.54c-.66.29-.18.47-.32,1-.18.69-.6,0-.78,0L68.2,3c-.51-.23-.63.34-1.09.3l-.22-.43c.58.54.71-.75,1-.47-.84-.51.18-1.11.45-1.57a.76.76,0,0,1-.9-.26c-.52.71-1.1-.25-1.61.58-.28-.1.24-.38-.05-.39a2.83,2.83,0,0,0-1.71.34c-.29,0-.24-.26-.33-.49-1.43-.32-2,1-3.56.66L60.45,1c-.33-.07-.62-.17-.78.23-.41-.93-1.4.57-1.93-.43-.7-.18-.73.62-1.27.77,0-.21.16-.6-.12-.7A51.36,51.36,0,0,1,51,1.38c0-.08.11-.15.16-.18-1.27-.08-2.52.82-3.58.53-.2.13-.79.31-.61.68.24,0,.28.52.26.82-.94.41-.46-.69-1.09-.55-.2-.72.4-.48.4-1.11L45.63,2c-.51-.22-1,.18-1.47-.16.2.08.06-.53.39-.26,0,0,0,.08-.06.12.76.06.41-.35,1.09-.51a4,4,0,0,1-1.93.21c.11.49-.43.22-.58.53l0-.05c0,.21-.32.35-.42.42l-.14-.62c-.23.08.07.31-.16.39s-1.51.22-1.59-.43c-.4.05-.51.4-.92.32,0-.16.13-.23.14-.31a10.69,10.69,0,0,1-2.77-.29,3.46,3.46,0,0,0-1.69.69c.19,0,.72.1.38.45-.18.27-.46.17-.74.28.07-.32-.71-.31-.15-.53-.14-.71-1.21.14-1.2-.57-.13.22-.93.09-1.23.47-.06-.31.43-.21.43-.42l-.36.09V1.63c-.7-.18-.83.69-1.24.82l0-.08-.28.11.33-.57c-.45.08-.68.59-1.18.7l0-.18-.3.2a.12.12,0,0,0,0-.16c-.28.53-.92.33-1.19.78-.2-.08-.36-.75-.63-.29l.05-.67c.66-.08.25.47.94.23-.51-.86-1.95-.77-2.9-.7-.78.44-2-.27-2.38.72l.08-.41-1.31-.34c-1.1.17-2.24-.14-3.09.41l-.23-.34c-.87,1.14-3,.48-3.55,1.85-.49-.31.15-.52.2-.77-.36-.11-1,.79-1.32.17,0-.21.51-.2.28-.33-.26-.39-.38.39-.68,0,.13.41-.48.88-.92,1,.08,0,.08,0,.12.07.06.31-.27.24-.45.29A.24.24,0,0,1,13,3.94a19.8,19.8,0,0,1-7.33.38L6.15,4A1.49,1.49,0,0,1,5,4L5,4c-.65-.63-.73.62-1.22-.11l.09-.07c-.77,0-1.23-.66-2-.3-.6-.25-.53-.57-.95-.86-.34,0-.51.4-.53.48l.17,0c.18.37-.36.31-.61.47.18.59.08,1.5.78,2.1.51-.19.5.95,1.07.85.33-.79.83.58,1.36-.12-.28.54.63.29.17.88.21.42,1.12-.46,1.53,0-.07.11,0,.24-.15.31.58-.31.4.37.83.37l0-.55c.17-.18.22.21.37.11-.12-.07-.37-.33-.24-.55s.37-.31.58-.31A.43.43,0,0,1,6,7.14s.47.05.5.31c-.17.18-.38.18-.53.49.61.16,0,.18.35.62-.08-.65.53-.28.86-.43,0,.26-.23.08-.32.28.63,1.14,1-.2,1.76.05,0,.08-.12.14-.17.18.38-.18.65.42.89,0,.37.12.07.74.63.72-.16-.67.66.13.68-.59l.43.43c.38-.4-.1-1.21.64-1.28.68.26-.06,1.18.33,1.55l.17-.39.33.28-.05,0c.2-.13.56,0,.56.19s-.25.17-.28.33c.33-.36,1.31,1,1.65-.1.2.19.6.19.55.53.18-.48.88.15,1.14-.16,0,.17.21.43.41.3-.26-.18-.1-.36.08-.62.24.34.9,0,1,.61.36-.31.23-.71.31-1.12.23.34,1,.28.84.93-.2-.08-.64-.21-.56.23.38.24.17-.18.48-.25,0,.12.21.4.15.59a1,1,0,0,1,.71,0c-.41-.3.26-.46,0-.72l-.4.47c-.48,0-.1-.36-.28-.52.84-.13.67-.8,1.47-1.11a2.85,2.85,0,0,0,.49.31c-.26,0-.21.64-.06.75.44-.51.79.32,1.16.44-.32-.15-.15-.54,0-.69.76-.36.3.23.63.51,1.17-.07,1.92.71,2.86.3L25,10.13l-.15.52c-.34-.41.07-1.17.27-1.51.05.18.62.08.39.37L26,9.28c-.08-.23-.44-.13-.18-.37.18.16.76.27.4.58.3,0,.68-.16.61-.47.48,0-.05.67-.26.88.38,0,.33.49.21.64l.53-.07c-.11.14-.11.36-.23.5.35.2.6-.39.89,0l.13-.44a3.94,3.94,0,0,0,1.76.47l-.15-.32c.67-.59.49.52,1.4.27.51-.19.84-.34.78-.86.29-.2.36.11.49.31.23-.3.73-.84,1.09-.51a3.54,3.54,0,0,1-.67.38c.06.52.79.11,1.17.35.26-.24,1.12-.88,1.6-1.34a1.28,1.28,0,0,1,.3-1.46c-.07.32.57.32.87.55-.15.31.66.76,0,.9-.19-.17-.27-.61-.52-.44a3.07,3.07,0,0,0,1,1,.52.52,0,0,1-.46.37C36.92,10.1,36.85,10,36.83,9.87Z"/><path class="cls-1" d="M96.6,3.35l-.07,0,.08.12A.12.12,0,0,1,96.6,3.35Z"/><path class="cls-1" d="M49.72,10.07a.28.28,0,0,0,.09-.17A.39.39,0,0,0,49.72,10.07Z"/><path class="cls-1" d="M58.72,9.71a.61.61,0,0,1,0-.14A.23.23,0,0,0,58.72,9.71Z"/><path class="cls-1" d="M97.18,7l-.16.1C97.08,7.15,97.11,7.09,97.18,7Z"/></svg>