<svg id="Layer_1" data-name="Layer 1" xmlns="http://www.w3.org/2000/svg" xmlns:xlink="http://www.w3.org/1999/xlink" viewBox="0 0 888.43 220.54"><defs><style>.cls-1,.cls-4{fill:none;}.cls-2{fill:#f92b49;}.cls-3{clip-path:url(#clip-path);}.cls-4{stroke:#f92b49;stroke-miterlimit:10;}.cls-5{opacity:0.5;}.cls-6{clip-path:url(#clip-path-2);}</style><clipPath id="clip-path"><rect class="cls-1" x="20.68" y="115.84" width="841.02" height="55.15"/></clipPath><clipPath id="clip-path-2"><rect class="cls-1" x="19.68" y="165.39" width="841.02" height="55.15"/></clipPath></defs><path class="cls-2" d="M37,90.29a11.73,11.73,0,0,1,0,20.64,13.37,13.37,0,0,1-6.47,1.55A13.55,13.55,0,0,1,24,110.93a11.69,11.69,0,0,1,0-20.64,13.55,13.55,0,0,1,6.51-1.55A13.37,13.37,0,0,1,37,90.29ZM21.59,81l-3-62.21H42.91L39.87,81Z"/><path class="cls-2" d="M117.72,41.77q7.84,7.36,7.84,21.58v47.86h-24l-.13-50a9.54,9.54,0,0,0-1.72-6.09,5.8,5.8,0,0,0-4.82-2.16H85.44a114.65,114.65,0,0,0-.82,13.46V86.52a30.06,30.06,0,0,1-3,14,20.91,20.91,0,0,1-8.66,9,27.43,27.43,0,0,1-13.46,3.11,64.42,64.42,0,0,1-10.79-1V93.25l4.06.06A8.58,8.58,0,0,0,59,91.12q2.27-2.19,2.26-6.51V68.68a39,39,0,0,1,.92-7.93,27.84,27.84,0,0,1,2.76-7.81H54.15V34.4H94.84Q109.89,34.4,117.72,41.77Z"/><path class="cls-2" d="M143,52.94h-5.65V34.4h29.7v76.81H143Z"/><path class="cls-2" d="M245.34,49.83l-24.12,61.38H195.89L219.7,52.94H180.4V13.71h24.06V34.4h40.88Z"/><path class="cls-2" d="M312.43,79.47,334,111.21H307.23L281.84,73.82a9.58,9.58,0,0,0-.25,2.41v35H258.42V87q0-11,3.2-17.42a21.94,21.94,0,0,1,10.57-10L255.12,34.4H281.9l15.87,23.43L308.05,34.4h26.86Z"/><path class="cls-2" d="M371.91,90.33a65,65,0,0,0,11.14,3.52,50.5,50.5,0,0,0,11,1.36q13.64,0,21.39-5.77t7.74-17.71V34.4h23.23V74.52q0,12.77-6.82,21.61a41,41,0,0,1-18.47,13.27A73.32,73.32,0,0,1,395,113.81a107.76,107.76,0,0,1-23.39-2.69,105.31,105.31,0,0,1-22.89-7.91V34.4h23.17Zm13.24-12.1q.41-4.59.41-9.42V34.4h23.23V63.54A52.23,52.23,0,0,1,407.3,76q-1.49,6.06-3.78,9l-19.42.13A44.56,44.56,0,0,0,385.15,78.23Z"/><path class="cls-2" d="M465,84.8a35.38,35.38,0,0,1,.92-8.69A19.9,19.9,0,0,1,468,70.68a8.68,8.68,0,0,1,2.13-2.51h19a85.74,85.74,0,0,0-1,13.84v29.2H465Zm42.91-23.86A7.55,7.55,0,0,0,505.56,55,9.47,9.47,0,0,0,499,52.94H465.41V34.4h35.42a38.55,38.55,0,0,1,16.67,3.34,24.14,24.14,0,0,1,10.72,9.58,28.46,28.46,0,0,1,3.72,14.82v49.07H507.88Z"/><path class="cls-2" d="M581.77,52.94h-5.65V34.4h29.7v76.81H581.77Z"/><path class="cls-2" d="M648.67,61.89q0-9-9.9-9H616.93V34.4h23.81a40.05,40.05,0,0,1,17.17,3.4,24.57,24.57,0,0,1,11,9.84A29.55,29.55,0,0,1,672.73,63v48.24H648.67Z"/><path class="cls-2" d="M694.37,70.78A39.51,39.51,0,0,1,696.75,61,24.7,24.7,0,0,1,701,53.57a3,3,0,0,1,.77-.63l-.07-.38a43.6,43.6,0,0,0-5.33,1.3,44.12,44.12,0,0,0-5,1.75l-5-17.21A93.3,93.3,0,0,1,704,33.9a117.49,117.49,0,0,1,19.55-1.72q18.47,0,28,9.3t9.65,27.33v42.4H726.56V92.68h10.53L737,65.51q0-6.42-2.35-10.13a7.24,7.24,0,0,0-6.41-3.71,8.24,8.24,0,0,0-7.39,3.87q-2.52,3.87-3.27,11.93l-3.94,43.74H689.93Z"/><path class="cls-2" d="M769.47,111.78V90.26a49,49,0,0,0,7.17.64A22.1,22.1,0,0,0,787,88.71a17,17,0,0,0,6.88-7.21V52.94H777.34V34.4h40.18V72.93a64.14,64.14,0,0,0,1.27,12.64l5.08,25.64h-22l-4.63-18.34h-.38a25.85,25.85,0,0,1-4.13,10,22,22,0,0,1-7.58,6.86,20.31,20.31,0,0,1-9.87,2.48A42.65,42.65,0,0,1,769.47,111.78Z"/><path class="cls-2" d="M842.88,112q-3.46-.45-8.41-1.53l-.07-17.9a77,77,0,0,0,9.14.57q4,0,5.87-2.12t1.88-6.51V52.94H838.34V34.4h37V86.46a30,30,0,0,1-3,13.9,21.2,21.2,0,0,1-8.66,9,27.36,27.36,0,0,1-13.46,3.14A58.71,58.71,0,0,1,842.88,112Z"/><g class="cls-3"><path class="cls-4" d="M37.56,139.87a11.7,11.7,0,0,1,0,20.63,13.26,13.26,0,0,1-6.47,1.55,13.5,13.5,0,0,1-6.51-1.55,11.68,11.68,0,0,1,0-20.63,13.5,13.5,0,0,1,6.51-1.56A13.26,13.26,0,0,1,37.56,139.87Zm-15.42-9.3-3-62.21H43.47l-3,62.21Z"/><path class="cls-4" d="M118.27,91.34q7.85,7.36,7.84,21.58v47.87h-24l-.13-50a9.61,9.61,0,0,0-1.71-6.1,5.82,5.82,0,0,0-4.83-2.16H86A114.85,114.85,0,0,0,85.17,116v20.12a30.23,30.23,0,0,1-3,14A21,21,0,0,1,73.49,159,27.54,27.54,0,0,1,60,162.12a65.58,65.58,0,0,1-10.79-1V142.82l4.06.06a8.66,8.66,0,0,0,6.26-2.18c1.5-1.47,2.25-3.63,2.25-6.51V118.26a39.85,39.85,0,0,1,.92-7.94,28,28,0,0,1,2.76-7.81H54.7V84H95.39Q110.44,84,118.27,91.34Z"/><path class="cls-4" d="M143.57,102.51h-5.65V84h29.71v76.81H143.57Z"/><path class="cls-4" d="M245.89,99.4l-24.12,61.39H196.45l23.8-58.28H181V63.29h24V84h40.88Z"/><path class="cls-4" d="M313,129.05l21.52,31.74H307.78L282.39,123.4a9.53,9.53,0,0,0-.25,2.41v35H259V136.54q0-11,3.2-17.43a22,22,0,0,1,10.57-10L255.67,84h26.79l15.86,23.42L308.61,84h26.85Z"/><path class="cls-4" d="M372.46,139.9a64.8,64.8,0,0,0,11.15,3.52,50.54,50.54,0,0,0,11,1.37q13.65,0,21.39-5.78t7.74-17.71V84H447V124.1q0,12.75-6.83,21.61A41,41,0,0,1,421.69,159a73.28,73.28,0,0,1-26.12,4.41,107.25,107.25,0,0,1-23.39-2.7,105.2,105.2,0,0,1-22.88-7.9V84h23.16Zm13.24-12.09q.41-4.61.41-9.43V84h23.24v29.13a51.75,51.75,0,0,1-1.5,12.48q-1.49,6.06-3.77,9l-19.43.13A43.22,43.22,0,0,0,385.7,127.81Z"/><path class="cls-4" d="M465.52,134.38a35.41,35.41,0,0,1,.92-8.7,19.34,19.34,0,0,1,2.1-5.42,8.39,8.39,0,0,1,2.12-2.51h19a84.36,84.36,0,0,0-1,13.84v29.2H465.52Zm42.91-23.87a7.54,7.54,0,0,0-2.31-5.9,9.47,9.47,0,0,0-6.58-2.1H466V84h35.42a38.53,38.53,0,0,1,16.66,3.33,24.24,24.24,0,0,1,10.73,9.59,28.5,28.5,0,0,1,3.71,14.82v49.07H508.43Z"/><path class="cls-4" d="M582.32,102.51h-5.65V84h29.71v76.81H582.32Z"/><path class="cls-4" d="M649.22,111.46q0-8.94-9.9-8.95H617.48V84h23.81a39.87,39.87,0,0,1,17.17,3.4,24.61,24.61,0,0,1,11,9.83,29.6,29.6,0,0,1,3.81,15.33v48.25H649.22Z"/><path class="cls-4" d="M694.93,120.35a39.1,39.1,0,0,1,2.38-9.77,24.16,24.16,0,0,1,4.22-7.43,3.29,3.29,0,0,1,.76-.64l-.06-.38a45.64,45.64,0,0,0-5.34,1.3,48.54,48.54,0,0,0-4.95,1.75l-5-17.2a93.66,93.66,0,0,1,17.58-4.51,118.52,118.52,0,0,1,19.55-1.71q18.48,0,28,9.3t9.65,27.32v42.41H727.11V142.25h10.54l-.07-27.17q0-6.4-2.35-10.12a7.23,7.23,0,0,0-6.41-3.72,8.25,8.25,0,0,0-7.39,3.88q-2.5,3.87-3.27,11.93l-3.94,43.74H690.48Z"/><path class="cls-4" d="M770,161.36V139.84a50.31,50.31,0,0,0,7.17.63,22.1,22.1,0,0,0,10.38-2.19,17,17,0,0,0,6.89-7.2V102.51H777.89V84h40.18v38.53a64,64,0,0,0,1.27,12.63l5.08,25.65h-22l-4.64-18.35h-.38a25.68,25.68,0,0,1-4.13,10,22.09,22.09,0,0,1-7.58,6.86,20.3,20.3,0,0,1-9.87,2.47A44.29,44.29,0,0,1,770,161.36Z"/><path class="cls-4" d="M843.43,161.61c-2.31-.3-5.11-.8-8.41-1.52l-.06-17.9a76.89,76.89,0,0,0,9.14.57q4,0,5.87-2.13c1.24-1.42,1.87-3.59,1.87-6.51V102.51h-13V84h37V136a30,30,0,0,1-3,13.9,21.15,21.15,0,0,1-8.66,9,27.22,27.22,0,0,1-13.46,3.14A57,57,0,0,1,843.43,161.61Z"/></g><g class="cls-5"><g class="cls-6"><path class="cls-4" d="M36.56,189.42a11.71,11.71,0,0,1,0,20.63,13.37,13.37,0,0,1-6.47,1.55,13.61,13.61,0,0,1-6.51-1.55,11.68,11.68,0,0,1,0-20.63,13.5,13.5,0,0,1,6.51-1.56A13.26,13.26,0,0,1,36.56,189.42Zm-15.42-9.3-3-62.21H42.47l-3,62.21Z"/><path class="cls-4" d="M117.27,140.89q7.85,7.37,7.84,21.58v47.86h-24l-.13-50a9.6,9.6,0,0,0-1.71-6.09,5.82,5.82,0,0,0-4.83-2.16H85a114.85,114.85,0,0,0-.83,13.46v20.12a30.18,30.18,0,0,1-3,14,20.93,20.93,0,0,1-8.67,9A27.44,27.44,0,0,1,59,211.67a64.56,64.56,0,0,1-10.79-1V192.37l4.06.06a8.62,8.62,0,0,0,6.26-2.19q2.25-2.19,2.25-6.5V167.8a39.84,39.84,0,0,1,.92-7.93,27.84,27.84,0,0,1,2.76-7.81H53.7V133.53H94.39Q109.44,133.53,117.27,140.89Z"/><path class="cls-4" d="M142.57,152.06h-5.65V133.53h29.71v76.8H142.57Z"/><path class="cls-4" d="M244.89,149l-24.12,61.38H195.45l23.8-58.27H180V112.83h24v20.7h40.88Z"/><path class="cls-4" d="M312,178.59l21.52,31.74H306.78l-25.39-37.39a9.61,9.61,0,0,0-.25,2.42v35H258V186.08q0-11,3.2-17.42a22,22,0,0,1,10.57-10l-17.07-25.13h26.79L297.32,157l10.29-23.42h26.85Z"/><path class="cls-4" d="M371.46,189.45A64.8,64.8,0,0,0,382.61,193a50.54,50.54,0,0,0,11,1.37q13.65,0,21.39-5.78t7.74-17.71V133.53H446v40.11q0,12.77-6.83,21.62a41,41,0,0,1-18.47,13.26,73.28,73.28,0,0,1-26.12,4.41,107.22,107.22,0,0,1-23.39-2.69,105.22,105.22,0,0,1-22.88-7.91v-68.8h23.16Zm13.24-12.09q.41-4.61.41-9.43v-34.4h23.24v29.13a51.67,51.67,0,0,1-1.5,12.47q-1.49,6.08-3.77,9.05l-19.43.13A43.41,43.41,0,0,0,384.7,177.36Z"/><path class="cls-4" d="M464.52,183.93a35.41,35.41,0,0,1,.92-8.7,19.55,19.55,0,0,1,2.1-5.43,8.53,8.53,0,0,1,2.12-2.51h19a84.54,84.54,0,0,0-1,13.84v29.2H464.52Zm42.91-23.87a7.54,7.54,0,0,0-2.31-5.9,9.47,9.47,0,0,0-6.58-2.1H465V133.53h35.42a38.53,38.53,0,0,1,16.66,3.33,24.27,24.27,0,0,1,10.73,9.58,28.55,28.55,0,0,1,3.71,14.82v49.07H507.43Z"/><path class="cls-4" d="M581.32,152.06h-5.65V133.53h29.71v76.8H581.32Z"/><path class="cls-4" d="M648.22,161q0-9-9.9-8.95H616.48V133.53h23.81a40,40,0,0,1,17.17,3.39,24.69,24.69,0,0,1,11,9.84,29.6,29.6,0,0,1,3.81,15.33v48.24H648.22Z"/><path class="cls-4" d="M693.93,169.9a39.07,39.07,0,0,1,2.38-9.78,24.22,24.22,0,0,1,4.22-7.42,2.8,2.8,0,0,1,.76-.64l-.06-.38a43.71,43.71,0,0,0-5.34,1.3,46.22,46.22,0,0,0-4.95,1.75l-5-17.21a93.7,93.7,0,0,1,17.58-4.5,118.57,118.57,0,0,1,19.55-1.72q18.48,0,28,9.3t9.65,27.33v42.4H726.11V191.8h10.54l-.07-27.17q0-6.4-2.35-10.13a7.24,7.24,0,0,0-6.41-3.71,8.24,8.24,0,0,0-7.39,3.87c-1.67,2.59-2.76,6.56-3.27,11.94l-3.94,43.73H689.48Z"/><path class="cls-4" d="M769,210.9V189.38a49.08,49.08,0,0,0,7.17.64,22.1,22.1,0,0,0,10.38-2.19,17,17,0,0,0,6.89-7.21V152.06H776.89V133.53h40.18v38.53a64,64,0,0,0,1.27,12.63l5.08,25.64h-22L796.82,192h-.38a25.74,25.74,0,0,1-4.13,10,22,22,0,0,1-7.58,6.85,20.31,20.31,0,0,1-9.87,2.48A42.77,42.77,0,0,1,769,210.9Z"/><path class="cls-4" d="M842.43,211.16q-3.46-.45-8.41-1.53l-.06-17.9a76.89,76.89,0,0,0,9.14.57c2.66,0,4.62-.7,5.87-2.12s1.87-3.59,1.87-6.51V152.06h-13V133.53h37v52.05a30,30,0,0,1-3,13.9,21.15,21.15,0,0,1-8.66,9,27.33,27.33,0,0,1-13.46,3.14A58.82,58.82,0,0,1,842.43,211.16Z"/></g></g></svg>