<svg id="Layer_1" data-name="Layer 1" xmlns="http://www.w3.org/2000/svg" xmlns:xlink="http://www.w3.org/1999/xlink" viewBox="0 0 524.73 129.83"><defs><style>.cls-1{fill:none;stroke-miterlimit:10;stroke-width:4.39px;stroke:url(#linear-gradient);}.cls-2{fill:#30e6ef;}</style><linearGradient id="linear-gradient" y1="64.91" x2="524.73" y2="64.91" gradientUnits="userSpaceOnUse"><stop offset="0.06" stop-color="#0674c6"/><stop offset="0.87" stop-color="#30e6ef"/></linearGradient></defs><rect class="cls-1" x="2.19" y="2.19" width="520.34" height="125.44" rx="62.72"/><path class="cls-2" d="M73,72.3c0-4,.83-6.91,2.47-8.85h8.58a37.65,37.65,0,0,0-.65,7.68V86.39H73ZM96.67,59.81a6.11,6.11,0,0,0-1.61-4.64,7,7,0,0,0-4.94-1.53h-17V45.27H90.91A20.64,20.64,0,0,1,99.84,47a12.53,12.53,0,0,1,5.66,5.14,16.14,16.14,0,0,1,1.94,8.15V86.39H96.67Z"/><path class="cls-2" d="M149.45,45.27v8.37h-7.24V86.39H131.48V53.64H114.05V45.27Z"/><path class="cls-2" d="M159.73,63.24A19.61,19.61,0,0,1,161.14,58a12.31,12.31,0,0,1,2.5-3.94,1.89,1.89,0,0,1,.48-.38l0-.17a34.88,34.88,0,0,0-6.41,1.82l-2.3-7.82a54.62,54.62,0,0,1,9.33-2.35,59.24,59.24,0,0,1,10-.91q9.38,0,14.25,4.8t4.92,14.1V86.39h-18V78h7.24l0-16.35a10.69,10.69,0,0,0-1.66-6.4A5.46,5.46,0,0,0,176.78,53a5.3,5.3,0,0,0-4.53,2.26,13.64,13.64,0,0,0-2.09,6.62l-2.44,24.52H157.09Z"/><path class="cls-2" d="M204.69,53.64h-3.6V45.27h14.37V86.39H204.69Z"/><path class="cls-2" d="M256.89,52.17,243.27,86.39H231.89l13.44-32.75H223.28V33.72h10.77V45.27h22.84Z"/><path class="cls-2" d="M264.12,72.3c0-4,.83-6.91,2.47-8.85h8.58a37.57,37.57,0,0,0-.66,7.68V86.39H264.12Zm23.67-12.49a6.07,6.07,0,0,0-1.62-4.64,6.93,6.93,0,0,0-4.93-1.53h-17V45.27H282A20.66,20.66,0,0,1,291,47a12.53,12.53,0,0,1,5.66,5.14,16.14,16.14,0,0,1,1.93,8.15V86.39H287.79Z"/><path class="cls-2" d="M326.2,45.27h35.08V86.39H326.2ZM350.51,78V53.64H337V78Z"/><path class="cls-2" d="M373.08,53.64h-3.61V45.27h14.37V86.39H373.08Z"/><path class="cls-2" d="M397.63,53.64h-6.45V45.27H408.4V68.73H397.63Z"/><path class="cls-2" d="M427.36,84.81a16.82,16.82,0,0,1-6.5-6.79,21.66,21.66,0,0,1-2.41-10.11V65.4a17.47,17.47,0,0,1,1.16-6.22,15.06,15.06,0,0,1,2.81-5.06,4.83,4.83,0,0,1,.55-.51l-.07-.18c-.84.16-2.61.59-5.31,1.27l-2-7.82A67,67,0,0,1,425.18,45a77.45,77.45,0,0,1,10.28-.74q9.6,0,14.74,5.06t5.14,14.62v4A21.5,21.5,0,0,1,453.05,78a16.45,16.45,0,0,1-6.48,6.79,19.11,19.11,0,0,1-9.67,2.4A18.73,18.73,0,0,1,427.36,84.81Zm13.55-7.76a8.3,8.3,0,0,0,2.71-3.64,14.32,14.32,0,0,0,1-5.44V64.1q0-5.38-2-8.25A6.58,6.58,0,0,0,436.83,53a6.37,6.37,0,0,0-5.65,3q-2,3-2,8.67V68a14.32,14.32,0,0,0,1,5.44,8.23,8.23,0,0,0,2.71,3.64,6.62,6.62,0,0,0,4,1.28A6.71,6.71,0,0,0,440.91,77.05Z"/></svg>