<svg id="Layer_1" data-name="Layer 1" xmlns="http://www.w3.org/2000/svg" viewBox="0 0 397.74 124.76"><defs><style>@font-face {
    font-family: Heebo;
    src: url("../../../assets/fonts/heebo/Heebo-SemiBold.ttf");
    font-weight: 200;
}
.cls-1,.cls-2{fill:#e04c69;}.cls-2{font-size:100px;font-family: Heebo;font-weight:700;}</style></defs><path class="cls-1" d="M102.53,5.83A88.61,88.61,0,0,0,81.37,8.52a85.43,85.43,0,0,0-12.51,4.16A77.13,77.13,0,0,0,51.27,23.19a33.66,33.66,0,0,0-18.07-.77,37.49,37.49,0,0,0-10.74,4.75A56.88,56.88,0,0,0,8.26,39.05l28.11.59a71.4,71.4,0,0,1-4.81,7.6L32.49,49l-.34.18A36.89,36.89,0,0,0,17.7,50.9a16.77,16.77,0,0,0-2.47,1,21.86,21.86,0,0,0-8.5,8.61,9.72,9.72,0,0,1,4.77-2.17,13.32,13.32,0,0,1,4.33.48A35.34,35.34,0,0,0,3.31,68.79a27.57,27.57,0,0,0-3.31,6,22.91,22.91,0,0,0,6.73,1.45,35.35,35.35,0,0,0,15.71-3A13.45,13.45,0,0,1,20,76.91a9.71,9.71,0,0,1-4.76,2.17,21.8,21.8,0,0,0,12.08-.79,15.64,15.64,0,0,0,2.39-1.2c5.29-3,8.4-6.84,11.68-11l.09-.12,0,0,1.13,2.13,8.37.28L36.13,91.67C49,89.74,58.86,84.92,63.81,80.16a39.7,39.7,0,0,0,6.31-8,36.47,36.47,0,0,0,3-7,78.77,78.77,0,0,0,9.52-3.36,50.24,50.24,0,0,0,9.81-5.14l.16-.1c15.86-9.84,24.79-25.28,24.79-25.28a70.2,70.2,0,0,0,8-21.11A63,63,0,0,0,102.53,5.83Zm-.48,26.68c-4,3-13.72-2.29-13.72-2.29.19-1.47.93-6.92,2.42-10a4.49,4.49,0,0,1,1.13-1.55,5.49,5.49,0,0,1,4.32-1,5.23,5.23,0,0,1,3.67,2.31,5.14,5.14,0,0,1,.54,3.82,4.94,4.94,0,0,1,3.17,2.11A5.52,5.52,0,0,1,102.05,32.51Z"/><text class="cls-2" transform="translate(135.98 85.55)">tillder</text></svg>