<svg id="Layer_1" data-name="Layer 1" xmlns="http://www.w3.org/2000/svg" xmlns:xlink="http://www.w3.org/1999/xlink" viewBox="0 0 889.28 220.51"><defs><style>.cls-1,.cls-4{fill:none;}.cls-2{fill:#0bd3ac;}.cls-3{clip-path:url(#clip-path);}.cls-4{stroke:#0bd3ac;stroke-miterlimit:10;}.cls-5{opacity:0.5;}.cls-6{clip-path:url(#clip-path-2);}</style><clipPath id="clip-path"><rect class="cls-1" x="17.04" y="116.82" width="841.02" height="55.15"/></clipPath><clipPath id="clip-path-2"><rect class="cls-1" x="17.04" y="166.36" width="841.02" height="55.15"/></clipPath></defs><path class="cls-2" d="M35.67,90.29a11.73,11.73,0,0,1,0,20.64,13.43,13.43,0,0,1-6.48,1.55,13.54,13.54,0,0,1-6.5-1.55,11.69,11.69,0,0,1,0-20.64,13.54,13.54,0,0,1,6.5-1.55A13.43,13.43,0,0,1,35.67,90.29ZM20.24,81l-3-62.21H41.57L38.52,81Z"/><path class="cls-2" d="M116.38,41.77q7.83,7.36,7.84,21.58v47.86h-24l-.12-50a9.6,9.6,0,0,0-1.72-6.09,5.8,5.8,0,0,0-4.82-2.16H84.1a114.72,114.72,0,0,0-.83,13.46V86.52a30.06,30.06,0,0,1-3,14,20.87,20.87,0,0,1-8.67,9,27.39,27.39,0,0,1-13.45,3.11,64.33,64.33,0,0,1-10.79-1V93.25l4.06.06a8.58,8.58,0,0,0,6.25-2.19c1.5-1.46,2.26-3.63,2.26-6.51V68.68a39,39,0,0,1,.92-7.93,27.84,27.84,0,0,1,2.76-7.81H52.81V34.4H93.49Q108.54,34.4,116.38,41.77Z"/><path class="cls-2" d="M141.67,52.94H136V34.4h29.71v76.81H141.67Z"/><path class="cls-2" d="M244,49.83l-24.12,61.38H194.55l23.8-58.27H179.06V13.71h24.06V34.4H244Z"/><path class="cls-2" d="M311.09,79.47l21.52,31.74H305.89L280.5,73.82a9.53,9.53,0,0,0-.26,2.41v35H257.07V87q0-11,3.21-17.42a21.94,21.94,0,0,1,10.57-10L253.77,34.4h26.79l15.87,23.43L306.71,34.4h26.85Z"/><path class="cls-2" d="M370.57,90.33a64.68,64.68,0,0,0,11.14,3.52,50.48,50.48,0,0,0,11,1.36q13.65,0,21.39-5.77t7.75-17.71V34.4h23.23V74.52q0,12.77-6.82,21.61A41,41,0,0,1,419.8,109.4a73.37,73.37,0,0,1-26.13,4.41,107.83,107.83,0,0,1-23.39-2.69,105.22,105.22,0,0,1-22.88-7.91V34.4h23.17Zm13.23-12.1q.42-4.59.42-9.42V34.4h23.23V63.54A52.23,52.23,0,0,1,406,76q-1.5,6.06-3.78,9l-19.42.13A43.6,43.6,0,0,0,383.8,78.23Z"/><path class="cls-2" d="M463.63,84.8a34.9,34.9,0,0,1,.92-8.69,19.9,19.9,0,0,1,2.09-5.43,8.38,8.38,0,0,1,2.13-2.51h19a84.61,84.61,0,0,0-1,13.84v29.2H463.63Zm42.91-23.86A7.59,7.59,0,0,0,504.22,55a9.51,9.51,0,0,0-6.57-2.09H464.07V34.4h35.42a38.5,38.5,0,0,1,16.66,3.34,24.11,24.11,0,0,1,10.73,9.58,28.46,28.46,0,0,1,3.71,14.82v49.07H506.54Z"/><path class="cls-2" d="M580.42,52.94h-5.65V34.4h29.71v76.81H580.42Z"/><path class="cls-2" d="M647.33,61.89q0-9-9.91-9H615.59V34.4h23.8a40,40,0,0,1,17.17,3.4,24.55,24.55,0,0,1,11,9.84A29.55,29.55,0,0,1,671.38,63v48.24h-24Z"/><path class="cls-2" d="M693,70.78A39.07,39.07,0,0,1,695.41,61a24.49,24.49,0,0,1,4.22-7.43,3.07,3.07,0,0,1,.76-.63l-.06-.38a43.6,43.6,0,0,0-5.33,1.3,44.12,44.12,0,0,0-5,1.75L685,38.4a93.62,93.62,0,0,1,17.59-4.5,117.49,117.49,0,0,1,19.55-1.72q18.47,0,28,9.3t9.65,27.33v42.4h-34.6V92.68h10.54l-.06-27.17q0-6.42-2.35-10.13a7.27,7.27,0,0,0-6.41-3.71,8.25,8.25,0,0,0-7.4,3.87q-2.5,3.87-3.27,11.93l-3.93,43.74H688.59Z"/><path class="cls-2" d="M768.12,111.78V90.26a49.2,49.2,0,0,0,7.18.64,22.08,22.08,0,0,0,10.37-2.19,16.91,16.91,0,0,0,6.89-7.21V52.94H776V34.4h40.18V72.93a64.9,64.9,0,0,0,1.27,12.64l5.08,25.64h-22l-4.63-18.34h-.38a25.85,25.85,0,0,1-4.13,10,21.93,21.93,0,0,1-7.59,6.86,20.26,20.26,0,0,1-9.87,2.48A42.89,42.89,0,0,1,768.12,111.78Z"/><path class="cls-2" d="M841.53,112c-2.3-.3-5.11-.81-8.41-1.53l-.06-17.9a76.89,76.89,0,0,0,9.14.57c2.67,0,4.62-.71,5.87-2.12s1.87-3.59,1.87-6.51V52.94H837V34.4h37V86.46a30,30,0,0,1-3,13.9,21.17,21.17,0,0,1-8.67,9,27.29,27.29,0,0,1-13.45,3.14A58.87,58.87,0,0,1,841.53,112Z"/><g class="cls-3"><path class="cls-4" d="M33.93,140.84a11.7,11.7,0,0,1,0,20.63A13.26,13.26,0,0,1,27.46,163,13.47,13.47,0,0,1,21,161.47a11.41,11.41,0,0,1-4.51-4.25A11.69,11.69,0,0,1,21,140.84a13.47,13.47,0,0,1,6.51-1.55A13.26,13.26,0,0,1,33.93,140.84Zm-15.42-9.3-3-62.2H39.84l-3.05,62.2Z"/><path class="cls-4" d="M114.64,92.31q7.85,7.36,7.84,21.59v47.86h-24l-.13-50a9.63,9.63,0,0,0-1.71-6.1,5.85,5.85,0,0,0-4.83-2.15H82.36a114.62,114.62,0,0,0-.82,13.45v20.12a30.1,30.1,0,0,1-3,14A20.91,20.91,0,0,1,69.86,160a27.54,27.54,0,0,1-13.46,3.11,65.49,65.49,0,0,1-10.79-1V143.79l4.06.07a8.62,8.62,0,0,0,6.26-2.19q2.25-2.19,2.25-6.51V119.23a39.94,39.94,0,0,1,.92-7.94,27.78,27.78,0,0,1,2.76-7.8H51.07V85H91.76Q106.81,85,114.64,92.31Z"/><path class="cls-4" d="M139.94,103.49h-5.65V85H164v76.81H139.94Z"/><path class="cls-4" d="M242.26,100.38l-24.12,61.38H192.81l23.81-58.27H177.33V64.26h24V85h40.88Z"/><path class="cls-4" d="M309.36,130l21.51,31.74H304.15l-25.39-37.39a9.53,9.53,0,0,0-.25,2.41v35H255.34V137.51q0-11,3.2-17.42a21.94,21.94,0,0,1,10.57-10L252,85h26.78l15.87,23.42L305,85h26.85Z"/><path class="cls-4" d="M368.83,140.87A65,65,0,0,0,380,144.4a50.57,50.57,0,0,0,11,1.36q13.65,0,21.39-5.78t7.74-17.7V85h23.23v40.12q0,12.75-6.82,21.61A41,41,0,0,1,418.06,160a73.32,73.32,0,0,1-26.12,4.41,107.25,107.25,0,0,1-23.39-2.7,105.2,105.2,0,0,1-22.88-7.9V85h23.16Zm13.24-12.09q.4-4.61.41-9.42V85h23.23v29.14a51.72,51.72,0,0,1-1.49,12.47q-1.49,6.06-3.78,9.05l-19.42.12A44.2,44.2,0,0,0,382.07,128.78Z"/><path class="cls-4" d="M461.89,135.35a35.47,35.47,0,0,1,.92-8.7,19.6,19.6,0,0,1,2.1-5.42,8.39,8.39,0,0,1,2.12-2.51h19.05a84.45,84.45,0,0,0-1,13.84v29.2H461.89Zm42.91-23.87a7.54,7.54,0,0,0-2.32-5.9c-1.54-1.4-3.73-2.09-6.57-2.09H462.34V85h35.42a38.53,38.53,0,0,1,16.66,3.33,24.22,24.22,0,0,1,10.72,9.59,28.46,28.46,0,0,1,3.72,14.82v49.07H504.8Z"/><path class="cls-4" d="M578.69,103.49H573V85h29.71v76.81H578.69Z"/><path class="cls-4" d="M645.59,112.44q0-9-9.9-9H613.85V85h23.81a39.9,39.9,0,0,1,17.17,3.4,24.57,24.57,0,0,1,11,9.84,29.55,29.55,0,0,1,3.81,15.33v48.24H645.59Z"/><path class="cls-4" d="M691.29,121.32a39.54,39.54,0,0,1,2.38-9.77,24.49,24.49,0,0,1,4.23-7.43,2.89,2.89,0,0,1,.76-.63l-.07-.38a41.82,41.82,0,0,0-5.33,1.3,46.47,46.47,0,0,0-5,1.74l-5-17.2a94.44,94.44,0,0,1,17.58-4.51,118.52,118.52,0,0,1,19.55-1.71q18.48,0,28,9.3t9.65,27.33v42.4H723.48V143.22H734L734,116.05q0-6.4-2.35-10.12a7.24,7.24,0,0,0-6.41-3.71,8.24,8.24,0,0,0-7.39,3.87Q715.28,110,714.53,118l-3.94,43.74H686.85Z"/><path class="cls-4" d="M766.39,162.33V140.81a50.39,50.39,0,0,0,7.17.64,22.22,22.22,0,0,0,10.38-2.19,17.08,17.08,0,0,0,6.89-7.21V103.49H774.26V85h40.18v38.53a64,64,0,0,0,1.27,12.63l5.08,25.65h-22l-4.63-18.35h-.38a25.83,25.83,0,0,1-4.13,10,22,22,0,0,1-7.58,6.86,20.3,20.3,0,0,1-9.87,2.47A44.29,44.29,0,0,1,766.39,162.33Z"/><path class="cls-4" d="M839.8,162.58q-3.46-.44-8.41-1.52l-.07-17.9a77,77,0,0,0,9.14.57q4,0,5.88-2.13c1.24-1.41,1.87-3.58,1.87-6.5V103.49h-13V85h37V137a29.92,29.92,0,0,1-3,13.9,21.09,21.09,0,0,1-8.66,9A27.22,27.22,0,0,1,847.13,163,56.8,56.8,0,0,1,839.8,162.58Z"/></g><g class="cls-5"><g class="cls-6"><path class="cls-4" d="M33.93,190.39a11.7,11.7,0,0,1,0,20.63,13.26,13.26,0,0,1-6.47,1.55A13.47,13.47,0,0,1,21,211a11.67,11.67,0,0,1,0-20.63,13.47,13.47,0,0,1,6.51-1.56A13.26,13.26,0,0,1,33.93,190.39Zm-15.42-9.3-3-62.21H39.83l-3,62.21Z"/><path class="cls-4" d="M114.64,141.86q7.85,7.37,7.84,21.58V211.3h-24l-.13-50a9.61,9.61,0,0,0-1.71-6.1A5.83,5.83,0,0,0,91.82,153H82.36a114.78,114.78,0,0,0-.82,13.46v20.12a30.13,30.13,0,0,1-3,14,21,21,0,0,1-8.66,8.95,27.54,27.54,0,0,1-13.46,3.11,65.49,65.49,0,0,1-10.79-.95V193.34l4.06.06a8.58,8.58,0,0,0,6.25-2.19c1.51-1.46,2.26-3.62,2.26-6.5V168.78a39.85,39.85,0,0,1,.92-7.94A28,28,0,0,1,61.86,153H51.07V134.5H91.76Q106.81,134.5,114.64,141.86Z"/><path class="cls-4" d="M139.94,153h-5.65V134.5H164v76.8H139.94Z"/><path class="cls-4" d="M242.26,149.92,218.14,211.3H192.81L216.62,153h-39.3V113.8h24.06v20.7h40.88Z"/><path class="cls-4" d="M309.36,179.57l21.51,31.73H304.15l-25.39-37.38a9.53,9.53,0,0,0-.25,2.41v35H255.34V187.06q0-11,3.2-17.43a22,22,0,0,1,10.57-10L252,134.5h26.78l15.87,23.42L305,134.5h26.85Z"/><path class="cls-4" d="M368.83,190.42A65,65,0,0,0,380,193.94a50.63,50.63,0,0,0,11,1.37q13.65,0,21.39-5.78t7.74-17.71V134.5h23.23v40.12q0,12.75-6.82,21.61a41.16,41.16,0,0,1-18.47,13.27,73.32,73.32,0,0,1-26.12,4.41,107.25,107.25,0,0,1-23.39-2.7,105.47,105.47,0,0,1-22.89-7.9V134.5h23.17Zm13.24-12.09q.4-4.61.41-9.43V134.5h23.23v29.13a52.25,52.25,0,0,1-1.49,12.48q-1.49,6.06-3.78,9l-19.42.13A44.39,44.39,0,0,0,382.07,178.33Z"/><path class="cls-4" d="M461.89,184.9a35.41,35.41,0,0,1,.92-8.7,19.34,19.34,0,0,1,2.1-5.42,8.39,8.39,0,0,1,2.12-2.51h19a85.56,85.56,0,0,0-1,13.84V211.3H461.89ZM504.8,161a7.52,7.52,0,0,0-2.32-5.9,9.43,9.43,0,0,0-6.57-2.1H462.33V134.5h35.42a38.55,38.55,0,0,1,16.67,3.33,24.16,24.16,0,0,1,10.72,9.59,28.41,28.41,0,0,1,3.72,14.82V211.3H504.8Z"/><path class="cls-4" d="M578.69,153H573V134.5h29.7v76.8h-24Z"/><path class="cls-4" d="M645.59,162q0-8.94-9.9-8.95H613.85V134.5h23.81a40.05,40.05,0,0,1,17.17,3.39,24.69,24.69,0,0,1,11,9.84,29.6,29.6,0,0,1,3.81,15.33V211.3H645.59Z"/><path class="cls-4" d="M691.29,170.87a39.73,39.73,0,0,1,2.38-9.78,24.43,24.43,0,0,1,4.23-7.42,3.29,3.29,0,0,1,.76-.64l-.07-.38a45.53,45.53,0,0,0-5.33,1.3,48.54,48.54,0,0,0-5,1.75l-5-17.2A93.46,93.46,0,0,1,700.88,134a118.52,118.52,0,0,1,19.55-1.71q18.47,0,28,9.3t9.65,27.32v42.4H723.48V192.77H734L734,165.6q0-6.4-2.35-10.12a7.23,7.23,0,0,0-6.41-3.72,8.22,8.22,0,0,0-7.39,3.88q-2.52,3.87-3.27,11.93l-3.94,43.73H686.85Z"/><path class="cls-4" d="M766.39,211.88V190.36a50.19,50.19,0,0,0,7.17.63,22.1,22.1,0,0,0,10.38-2.19,17,17,0,0,0,6.89-7.2V153H774.26V134.5h40.18V173a64,64,0,0,0,1.27,12.63l5.08,25.64h-22L794.19,193h-.38a25.83,25.83,0,0,1-4.13,10,22,22,0,0,1-7.58,6.85,20.2,20.2,0,0,1-9.87,2.48A44.29,44.29,0,0,1,766.39,211.88Z"/><path class="cls-4" d="M839.8,212.13c-2.31-.3-5.11-.8-8.41-1.52l-.07-17.9a77,77,0,0,0,9.14.57q4,0,5.88-2.13c1.24-1.42,1.87-3.59,1.87-6.51V153h-13V134.5h37v52.05a30,30,0,0,1-3,13.9,21.15,21.15,0,0,1-8.66,9,27.25,27.25,0,0,1-13.46,3.14A56.86,56.86,0,0,1,839.8,212.13Z"/></g></g></svg>