<svg id="Layer_1" data-name="Layer 1" xmlns="http://www.w3.org/2000/svg" xmlns:xlink="http://www.w3.org/1999/xlink" viewBox="0 0 206.25 206.25"><defs><style>.cls-1{fill:url(#linear-gradient);}.cls-2{fill:none;stroke-miterlimit:10;stroke-width:3.87px;stroke:url(#linear-gradient-2);}</style><linearGradient id="linear-gradient" x1="33.49" y1="136.26" x2="180.35" y2="61.33" gradientUnits="userSpaceOnUse"><stop offset="0.06" stop-color="#08a385"/><stop offset="1" stop-color="#0ae8bd"/></linearGradient><linearGradient id="linear-gradient-2" x1="11.25" y1="150" x2="195" y2="56.25" xlink:href="#linear-gradient"/></defs><path class="cls-1" d="M158.24,74.3c-1-1.54-10.92-17-29.18-16.75-16.08.27-25.4,12.58-26.48,14-1.08-1.52-10-13.52-25.39-14C59.12,56.93,49.05,72.61,48,74.3c-9.11,14.71-3.42,30-2.7,31.88A36.71,36.71,0,0,0,57.2,121.85c33,30.26,45.92,39.45,45.92,39.45s13-9.19,45.93-39.45a36.71,36.71,0,0,0,11.89-15.67C161.66,104.34,167.35,89,158.24,74.3Z"/><circle class="cls-2" cx="103.12" cy="103.12" r="101.19"/></svg>