<svg id="Layer_1" data-name="Layer 1" xmlns="http://www.w3.org/2000/svg" xmlns:xlink="http://www.w3.org/1999/xlink" viewBox="0 0 227.49 268.35"><defs><style>.cls-1{fill:#0bd3ac;}.cls-2{fill:url(#linear-gradient);}.cls-3{fill:none;stroke-miterlimit:10;stroke-width:3.87px;stroke:url(#linear-gradient-2);}</style><linearGradient id="linear-gradient" x1="45.74" y1="136.26" x2="192.61" y2="61.33" gradientUnits="userSpaceOnUse"><stop offset="0.06" stop-color="#08a385"/><stop offset="1" stop-color="#0ae8bd"/></linearGradient><linearGradient id="linear-gradient-2" x1="23.5" y1="150" x2="207.26" y2="56.25" xlink:href="#linear-gradient"/></defs><path class="cls-1" d="M16.87,248.9a4.5,4.5,0,0,1,0,7.93,5.1,5.1,0,0,1-2.49.6,5.16,5.16,0,0,1-2.5-.6,4.39,4.39,0,0,1-1.73-1.63,4.64,4.64,0,0,1,0-4.67,4.39,4.39,0,0,1,1.73-1.63,5.16,5.16,0,0,1,2.5-.6A5.1,5.1,0,0,1,16.87,248.9Zm-5.93-3.58L9.79,221.4h9.35L18,245.32Z"/><path class="cls-1" d="M48.88,227.4v7.13h-5.3v22.41H34.33V234.53H22.58V227.4Z"/><path class="cls-1" d="M54.27,234.53H52.1V227.4H63.53v29.54H54.27Z"/><path class="cls-1" d="M94.43,250.08v6.86h-26v-7.15H81.81V237.61a2.87,2.87,0,0,0-.89-2.27,3.63,3.63,0,0,0-2.53-.81H70.07V227.4h9a14.84,14.84,0,0,1,6.39,1.28,9.46,9.46,0,0,1,4.13,3.69,10.87,10.87,0,0,1,1.44,5.7v11.45Z"/><path class="cls-1" d="M96.27,256.38l1.39-6.69a35.48,35.48,0,0,0,5.93.71q3.38,0,4.83-1.36a5.29,5.29,0,0,0,1.47-4.13V234.53H97.44V227.4h21.7v16q0,7.31-3.71,10.66T105,257.43A42.93,42.93,0,0,1,96.27,256.38Z"/><path class="cls-1" d="M126.27,246.79a13.89,13.89,0,0,1,.35-3.35,7.84,7.84,0,0,1,.81-2.09,3.08,3.08,0,0,1,.82-1h7.32a32.66,32.66,0,0,0-.39,5.32v11.23h-8.91Zm16.5-9.18a2.87,2.87,0,0,0-.89-2.27,3.6,3.6,0,0,0-2.52-.81H126.44V227.4h13.62a14.87,14.87,0,0,1,6.41,1.28,9.35,9.35,0,0,1,4.13,3.69,11,11,0,0,1,1.43,5.7v18.87h-9.26Z"/><path class="cls-1" d="M193.85,233.33l-9.28,23.61h-9.74L184,234.53H168.87V219.44h9.26v8h15.72Z"/><path class="cls-1" d="M196.9,256.38l1.39-6.69a35.6,35.6,0,0,0,5.93.71q3.38,0,4.84-1.36a5.32,5.32,0,0,0,1.46-4.13V234.53H198.07V227.4h21.71v16q0,7.31-3.72,10.66t-10.44,3.38A43,43,0,0,1,196.9,256.38Z"/><path class="cls-2" d="M170.5,74.3c-1-1.54-10.92-17-29.18-16.75-16.08.27-25.4,12.58-26.48,14-1.09-1.52-10-13.52-25.4-14C71.38,56.93,61.31,72.61,60.27,74.3c-9.11,14.71-3.43,30-2.71,31.88a36.79,36.79,0,0,0,11.89,15.67c33,30.26,45.93,39.45,45.93,39.45s13-9.19,45.93-39.45a36.79,36.79,0,0,0,11.89-15.67C173.92,104.34,179.6,89,170.5,74.3Z"/><circle class="cls-3" cx="115.38" cy="103.12" r="101.19"/></svg>