<svg id="Layer_1" data-name="Layer 1" xmlns="http://www.w3.org/2000/svg" xmlns:xlink="http://www.w3.org/1999/xlink" viewBox="0 0 385.83 184.44"><defs><style>.cls-1{fill:url(#linear-gradient);}.cls-2{fill:#fff;}</style><linearGradient id="linear-gradient" x1="379.15" y1="92.22" x2="-6.68" y2="92.22" gradientUnits="userSpaceOnUse"><stop offset="0" stop-color="#ea7265"/><stop offset="0.16" stop-color="#ea7265"/><stop offset="0.91" stop-color="#e22b6d"/><stop offset="1" stop-color="#bc427a"/></linearGradient></defs><path class="cls-1" d="M335.08,45.25a241.8,241.8,0,0,0-55.18-19,235.14,235.14,0,0,0-35.72-5,211.87,211.87,0,0,0-55.88,4.49c-7.68-7.35-22.24-19-43.39-23.75C132.46-.76,122.35-.08,112.8.63a157,157,0,0,0-49.21,12l68.25,35.51a199.84,199.84,0,0,1-21,12.82l.16,5.42-1.07,0c-9.25-5.15-22-11.48-37.52-13.27a44.22,44.22,0,0,0-7.29-.48c-18,.64-31.29,10.85-31.29,10.85a26.64,26.64,0,0,1,14.32.42c4.38,1.39,10,6.45,10,6.45S36.5,69.2,15.42,79.56A75.23,75.23,0,0,0,0,90.36a62.45,62.45,0,0,0,14.75,11.7c20.43,11.6,42.14,11.75,42.14,11.75s-6,4.7-10.41,5.83a26.61,26.61,0,0,1-14.32-.42s12.63,11,30.59,12.68a44.14,44.14,0,0,0,7.31-.05c16.6-.91,28.9-6.62,42-12.82l.39-.19h.13l.2,6.59,20.2,10.8L68.23,175.44c33.94,10.84,64,10.95,81.84,5.26a108.38,108.38,0,0,0,25.22-12.06A98,98,0,0,0,191,155.06a212.45,212.45,0,0,0,27.44,3.28,137.19,137.19,0,0,0,30.29-.72l.51-.05c50.8-4.94,91.43-32,91.43-32a192,192,0,0,0,45.15-42.13A172.48,172.48,0,0,0,335.08,45.25Z"/><path class="cls-2" d="M181.39,82.6c0-3.67-2-5.51-6.1-5.51H161.85V65.69H176.5a24.66,24.66,0,0,1,10.57,2.09,15.21,15.21,0,0,1,6.78,6,18.26,18.26,0,0,1,2.34,9.44V113h-14.8Z"/><path class="cls-2" d="M206.93,77.09h-3.47V65.69h18.28V113H206.93Z"/><path class="cls-2" d="M232.56,77.52l-2.35-.78v-11h27.85v11.4H247L252.44,113H237.28Z"/><path class="cls-2" d="M266.31,65.69h21.95q9.23,0,14,4.53t4.89,13.28V113H292.4l-.08-30.78a5.76,5.76,0,0,0-1.09-3.75,3.7,3.7,0,0,0-3-1.33H281l0,35.86h-14.8Z"/></svg>