<svg id="Layer_1" data-name="Layer 1" xmlns="http://www.w3.org/2000/svg" xmlns:xlink="http://www.w3.org/1999/xlink" viewBox="0 0 486.95 248.54"><defs><style>.cls-1,.cls-4{fill:none;}.cls-2{fill:#fff;}.cls-3{clip-path:url(#clip-path);}.cls-4{stroke:#fff;stroke-miterlimit:10;stroke-width:0.75px;}.cls-5{opacity:0.5;}.cls-6{clip-path:url(#clip-path-2);}</style><clipPath id="clip-path"><rect class="cls-1" x="-22.13" y="121.34" width="554.8" height="79.62"/></clipPath><clipPath id="clip-path-2"><rect class="cls-1" x="-23.72" y="184.15" width="554.8" height="79.62"/></clipPath></defs><path class="cls-2" d="M110.39,17.08q11,10.31,11,30.18v66.91H87.8l-.18-69.93c0-3.67-.79-6.51-2.39-8.52a8.14,8.14,0,0,0-6.75-3H65.26a160.23,160.23,0,0,0-1.15,18.82V79.65q0,11.35-4.22,19.52a29.31,29.31,0,0,1-12.11,12.51Q39.88,116,29,116a90.58,90.58,0,0,1-15.09-1.33V89.05l5.68.09q5.6,0,8.74-3.06T31.45,77V54.71a55.2,55.2,0,0,1,1.29-11.09A39.23,39.23,0,0,1,36.6,32.7H21.51V6.79H78.4Q99.43,6.79,110.39,17.08Z"/><path class="cls-2" d="M145.75,32.7h-7.9V6.79h41.53V114.17H145.75Z"/><path class="cls-2" d="M294,6.79V32.7H274.69v81.47H241.06V32.7H198.37V6.79Z"/><path class="cls-2" d="M313.56,32.7h-7.9V6.79h41.53V114.17H313.56Z"/><path class="cls-2" d="M448.54,69.8l30.08,44.37H441.26L405.76,61.9a13.72,13.72,0,0,0-.35,3.37v48.9H373V80.27q0-15.36,4.48-24.36t14.77-14L368.4,6.79h37.45L428,39.54,442.41,6.79H480Z"/><g class="cls-3"><path class="cls-4" d="M110.29,80.94q11,10.31,11,30.17V178H87.7l-.17-69.93q0-5.5-2.4-8.52a8.13,8.13,0,0,0-6.74-3H65.16A160.2,160.2,0,0,0,64,115.37v28.14q0,11.36-4.22,19.52a29.25,29.25,0,0,1-12.11,12.51q-7.91,4.35-18.81,4.35a90.68,90.68,0,0,1-15.09-1.33V152.91l5.68.09q5.59,0,8.74-3.06t3.15-9.1V118.57a55.2,55.2,0,0,1,1.29-11.09A39.23,39.23,0,0,1,36.5,96.56H21.41V70.65H78.3Q99.33,70.65,110.29,80.94Z"/><path class="cls-4" d="M145.65,96.56h-7.9V70.65h41.53V178H145.65Z"/><path class="cls-4" d="M293.85,70.65V96.56H274.59V178H241V96.56H198.28V70.65Z"/><path class="cls-4" d="M313.46,96.56h-7.9V70.65H347.1V178H313.46Z"/><path class="cls-4" d="M448.44,133.66,478.52,178H441.16l-35.5-52.27a13.66,13.66,0,0,0-.35,3.37V178H372.92v-33.9q0-15.36,4.48-24.36t14.78-14L368.3,70.65h37.45l22.19,32.74,14.37-32.74h37.54Z"/></g><g class="cls-5"><g class="cls-6"><path class="cls-4" d="M108.7,143.75q11,10.29,11,30.17v66.91H86.11l-.17-69.92q0-5.5-2.4-8.52a8.13,8.13,0,0,0-6.74-3H63.57a160.2,160.2,0,0,0-1.15,18.81v28.13q0,11.37-4.22,19.53a29.25,29.25,0,0,1-12.11,12.51q-7.89,4.35-18.81,4.35a91.75,91.75,0,0,1-15.09-1.33V215.72l5.68.09q5.6,0,8.74-3.06t3.15-9.1V181.38a55.29,55.29,0,0,1,1.29-11.1,39.16,39.16,0,0,1,3.86-10.91H19.82V133.46H76.71Q97.74,133.46,108.7,143.75Z"/><path class="cls-4" d="M144.06,159.37h-7.9V133.46H177.7V240.83H144.06Z"/><path class="cls-4" d="M292.26,133.46v25.91H273v81.46H239.37V159.37H196.69V133.46Z"/><path class="cls-4" d="M311.87,159.37H304V133.46h41.53V240.83H311.87Z"/><path class="cls-4" d="M446.85,196.46l30.08,44.37H439.57l-35.49-52.26a13.14,13.14,0,0,0-.36,3.37v48.89H371.33v-33.9q0-15.35,4.48-24.35t14.78-14l-23.88-35.14h37.45l22.19,32.74,14.38-32.74h37.53Z"/></g></g></svg>