<svg id="Layer_1" data-name="Layer 1" xmlns="http://www.w3.org/2000/svg" xmlns:xlink="http://www.w3.org/1999/xlink" viewBox="0 0 227.04 268.35"><defs><style>.cls-1{fill:#f92b49;}.cls-2{fill:none;stroke-miterlimit:10;stroke-width:3.87px;stroke:url(#linear-gradient);}.cls-3{fill:url(#linear-gradient-2);}</style><linearGradient id="linear-gradient" x1="12.51" y1="103.12" x2="218.76" y2="103.12" gradientUnits="userSpaceOnUse"><stop offset="0.06" stop-color="#f92b49"/><stop offset="1" stop-color="#f96446"/></linearGradient><linearGradient id="linear-gradient-2" x1="61.92" y1="130.53" x2="169.35" y2="75.72" xlink:href="#linear-gradient"/></defs><path class="cls-1" d="M67.94,248.76a4.32,4.32,0,0,1,1.7,1.61,4.47,4.47,0,0,1-1.7,6.24,5.4,5.4,0,0,1-4.95,0,4.55,4.55,0,0,1-1.7-6.24,4.32,4.32,0,0,1,1.7-1.61,5.57,5.57,0,0,1,4.95,0Z"/><path class="cls-1" d="M83.32,248.76a4.32,4.32,0,0,1,1.7,1.61,4.47,4.47,0,0,1-1.7,6.24,5.4,5.4,0,0,1-4.95,0,4.55,4.55,0,0,1-1.7-6.24,4.32,4.32,0,0,1,1.7-1.61,5.57,5.57,0,0,1,4.95,0Z"/><path class="cls-1" d="M98.7,248.76a4.32,4.32,0,0,1,1.7,1.61,4.47,4.47,0,0,1-1.7,6.24,5.4,5.4,0,0,1-5,0,4.42,4.42,0,0,1-1.7-1.62,4.68,4.68,0,0,1,0-4.62,4.32,4.32,0,0,1,1.7-1.61,5.57,5.57,0,0,1,5,0Z"/><path class="cls-1" d="M109.51,234.53h-4.25V227.4h13.48v17h-9.23Z"/><path class="cls-1" d="M126,234.53h-2.17V227.4h11.42v29.54H126Z"/><path class="cls-1" d="M163.15,244.74l8.27,12.2H161.14l-9.76-14.38a3.53,3.53,0,0,0-.1.93v13.45h-8.91v-9.32a15.29,15.29,0,0,1,1.23-6.71,8.43,8.43,0,0,1,4.07-3.84l-6.57-9.67h10.3l6.11,9,4-9h10.33Z"/><circle class="cls-2" cx="115.64" cy="103.12" r="101.19"/><path class="cls-3" d="M131,103.12,160.07,74a10.88,10.88,0,0,0,0-15.34h0a10.88,10.88,0,0,0-15.34,0L115.64,87.78,86.54,58.69a10.88,10.88,0,0,0-15.34,0h0A10.88,10.88,0,0,0,71.2,74l29.09,29.09L71.2,132.22a10.88,10.88,0,0,0,0,15.34h0a10.88,10.88,0,0,0,15.34,0l29.1-29.09,29.09,29.09a10.85,10.85,0,0,0,15.34-15.34Z"/></svg>