<svg id="Layer_1" data-name="Layer 1" xmlns="http://www.w3.org/2000/svg" xmlns:xlink="http://www.w3.org/1999/xlink" viewBox="0 0 524.73 129.83"><defs><style>.cls-1{fill:none;stroke-miterlimit:10;stroke-width:4.39px;stroke:url(#linear-gradient);}.cls-2{fill:#30e6ef;}</style><linearGradient id="linear-gradient" y1="64.91" x2="524.73" y2="64.91" gradientUnits="userSpaceOnUse"><stop offset="0.06" stop-color="#0674c6"/><stop offset="0.87" stop-color="#30e6ef"/></linearGradient></defs><rect class="cls-1" x="2.19" y="2.19" width="520.34" height="125.44" rx="62.72"/><path class="cls-2" d="M87.74,76.48a36.07,36.07,0,0,0,6.36,2,28.51,28.51,0,0,0,6.26.76q7.44,0,11.83-3.17t4.39-9.59V45.27H127V67.7a17.37,17.37,0,0,1-3.49,11,20.9,20.9,0,0,1-9.39,6.74,37.2,37.2,0,0,1-13.29,2.25,55.78,55.78,0,0,1-23.46-5.38v-37H87.74ZM96.4,69.6a35.74,35.74,0,0,0,.36-5.26V45.27h10.43V62.08a25.23,25.23,0,0,1-.81,6.53,11.82,11.82,0,0,1-2.24,4.71l-8.75,0A12.37,12.37,0,0,0,96.4,69.6Z"/><path class="cls-2" d="M170.05,45.27v8.37h-7.24V86.39H152.08V53.64H134.66V45.27Z"/><path class="cls-2" d="M178,45.27h17.91q8.06,0,12.19,3.93t4.2,11.64V86.39H201.56L201.49,60q0-6.31-5.55-6.31h-7.2V86.39H178Z"/><path class="cls-2" d="M224.82,63.24a19.23,19.23,0,0,1,1.4-5.28,12.31,12.31,0,0,1,2.5-3.94,1.89,1.89,0,0,1,.48-.38l0-.17a34.88,34.88,0,0,0-6.41,1.82l-2.3-7.82a54.62,54.62,0,0,1,9.33-2.35,59.26,59.26,0,0,1,10.05-.91q9.36,0,14.24,4.8T259,63.11V86.39H241V78h7.24l0-16.35a10.69,10.69,0,0,0-1.66-6.4A5.46,5.46,0,0,0,241.86,53a5.3,5.3,0,0,0-4.53,2.26,13.75,13.75,0,0,0-2.09,6.62l-2.43,24.52H222.17Z"/><path class="cls-2" d="M316.89,52.17,303.28,86.39H291.89l13.45-32.75h-22V33.72h10.76V45.27h22.84Z"/><path class="cls-2" d="M324.92,45.27h17.9q8.06,0,12.19,3.93t4.2,11.64V86.39H348.48L348.41,60q0-6.31-5.56-6.31h-7.2V86.39H324.88Z"/><path class="cls-2" d="M400.43,49.2q4.15,3.93,4.15,11.64V86.39H393.85L393.78,60a7.05,7.05,0,0,0-1.37-4.75,5.3,5.3,0,0,0-4.19-1.56h-5.31a32.15,32.15,0,0,0-.81,4.15,34.47,34.47,0,0,0-.29,4.29V73.84a15.78,15.78,0,0,1-1.47,7.1,10.39,10.39,0,0,1-4.29,4.51A13.62,13.62,0,0,1,369.33,87a31,31,0,0,1-5.21-.48v-8.3c1,0,1.76.07,2.26.07q5,0,5-5.28V63a22.42,22.42,0,0,1,.6-4.92,14.5,14.5,0,0,1,1.73-4.48h-6.41V45.27h20.92Q396.29,45.27,400.43,49.2Z"/><path class="cls-2" d="M414,72.3q0-5.94,2.47-8.85H425a38.38,38.38,0,0,0-.65,7.68V86.39H414Zm23.66-12.49A6.07,6.07,0,0,0,436,55.17a6.94,6.94,0,0,0-4.94-1.53h-17V45.27h17.76A20.61,20.61,0,0,1,440.81,47a12.53,12.53,0,0,1,5.66,5.14,16.14,16.14,0,0,1,1.94,8.15V86.39H437.64Z"/></svg>