<svg id="Layer_1" data-name="Layer 1" xmlns="http://www.w3.org/2000/svg" xmlns:xlink="http://www.w3.org/1999/xlink" viewBox="0 0 795.98 574.78"><defs><style>.cls-1,.cls-4{fill:none;}.cls-2{fill:#0bd3ac;}.cls-3{clip-path:url(#clip-path);}.cls-4{stroke:#0bd3ac;stroke-miterlimit:10;stroke-width:2px;}.cls-5{opacity:0.5;}.cls-6{clip-path:url(#clip-path-2);}</style><clipPath id="clip-path"><rect class="cls-1" x="38.6" y="403.38" width="729.85" height="117.69"/></clipPath><clipPath id="clip-path-2"><rect class="cls-1" x="38.6" y="474.76" width="708.79" height="117.69"/></clipPath></defs><path class="cls-2" d="M42.4,139.38a66.17,66.17,0,0,1,1.73-16.32,37.23,37.23,0,0,1,3.93-10.18,15.76,15.76,0,0,1,4-4.7H87.78a159,159,0,0,0-1.91,26v54.78H42.4ZM122.91,94.6q0-7.14-4.35-11.07T106.24,79.6h-63V44.82h66.45q18.11,0,31.26,6.25a45.37,45.37,0,0,1,20.12,18q7,11.73,7,27.8v92.06H122.91Z"/><path class="cls-2" d="M315.23,155.45v33.47H188.52V154h65.14V94.6q0-7.14-4.34-11.07T237,79.6H196.38V44.82h44.07q18,0,31.14,6.25a45.74,45.74,0,0,1,20.18,18q7,11.73,7,27.8v55.85Z"/><path class="cls-2" d="M335.48,79.6h-10.6V44.82h55.73v144.1H335.48Z"/><path class="cls-2" d="M460.76,149.74a121.84,121.84,0,0,0,20.89,6.61,95.34,95.34,0,0,0,20.67,2.56q25.6,0,40.13-10.84T557,114.85v-70h43.58v75.26q0,23.94-12.8,40.55t-34.65,24.89q-21.86,8.28-49,8.28a201.57,201.57,0,0,1-43.88-5.06,197.1,197.1,0,0,1-42.93-14.83V44.82h43.47Zm24.83-22.69q.77-8.62.77-17.68V44.82h43.58V99.48a97.83,97.83,0,0,1-2.79,23.4q-2.8,11.38-7.09,17l-36.44.24A82.12,82.12,0,0,0,485.59,127.05Z"/><path class="cls-2" d="M749.6,58.64q14.7,13.81,14.71,40.49v89.79h-45l-.24-93.84q0-7.38-3.21-11.44a10.91,10.91,0,0,0-9.05-4H689a215.45,215.45,0,0,0-1.54,25.24v37.75q0,15.25-5.66,26.2a39.23,39.23,0,0,1-16.26,16.79q-10.59,5.83-25.24,5.84a122.13,122.13,0,0,1-20.25-1.79V155.22l7.63.11q7.5,0,11.72-4.1T643.67,139V109.13a74.4,74.4,0,0,1,1.73-14.89,52.58,52.58,0,0,1,5.18-14.64H630.34V44.82h76.33Q734.89,44.82,749.6,58.64Z"/><path class="cls-2" d="M126.06,349.68a22,22,0,0,1,0,38.7,24.91,24.91,0,0,1-12.14,2.92,25.27,25.27,0,0,1-12.21-2.92,21.91,21.91,0,0,1,0-38.7,25.27,25.27,0,0,1,12.21-2.92A24.91,24.91,0,0,1,126.06,349.68ZM97.13,332.23l-5.6-116.7h45.61l-5.72,116.7Z"/><path class="cls-2" d="M163.22,339.38A65.69,65.69,0,0,1,165,323.06a36.91,36.91,0,0,1,3.93-10.18,15.61,15.61,0,0,1,4-4.7h35.73a159,159,0,0,0-1.91,26v54.78H163.22Zm80.5-44.78q0-7.14-4.35-11.07t-12.32-3.93h-63V244.82H230.5q18.1,0,31.26,6.25a45.45,45.45,0,0,1,20.13,18q7,11.73,7,27.8v92.06H243.72Z"/><path class="cls-2" d="M326.55,390.46q-6.49-.82-15.78-2.85L310.65,354a142.91,142.91,0,0,0,17.15,1.08q7.5,0,11-4t3.51-12.21V279.6H318V244.82h69.43v97.65q0,15.13-5.66,26.08a39.63,39.63,0,0,1-16.25,16.85q-10.6,5.89-25.25,5.9A107.13,107.13,0,0,1,326.55,390.46Z"/><path class="cls-2" d="M423.78,279.6h-10.6V244.82h55.73v144.1H423.78Z"/><path class="cls-2" d="M493.92,386.18l6.79-32.63q17.74,3.33,28.94,3.45,16.43-.12,23.58-6.61t7.14-20.18V279.6H499.64V244.82H605.51v78q0,35.61-18.11,52t-51,16.49Q518.22,391.3,493.92,386.18Z"/><path class="cls-2" d="M646.77,390.46q-6.49-.82-15.78-2.85L630.87,354A142.91,142.91,0,0,0,648,355.1q7.5,0,11-4t3.52-12.21V279.6h-24.3V244.82h69.43v97.65q0,15.13-5.66,26.08a39.63,39.63,0,0,1-16.25,16.85q-10.6,5.89-25.25,5.9A107.13,107.13,0,0,1,646.77,390.46Z"/><g class="cls-3"><path class="cls-4" d="M123.16,429.37a22,22,0,0,1,0,38.7A25,25,0,0,1,111,471a25.39,25.39,0,0,1-12.21-2.92,21.9,21.9,0,0,1,0-38.7A25.27,25.27,0,0,1,111,426.45,24.91,24.91,0,0,1,123.16,429.37ZM94.23,411.92l-5.6-116.7h45.61l-5.72,116.7Z"/><path class="cls-4" d="M160.32,419.07A66.16,66.16,0,0,1,162,402.75,37.23,37.23,0,0,1,166,392.57a15.76,15.76,0,0,1,4-4.7h35.73a159,159,0,0,0-1.91,26v54.78H160.32Zm80.5-44.78q0-7.14-4.35-11.08t-12.32-3.93h-63V324.51H227.6q18.1,0,31.26,6.25a45.45,45.45,0,0,1,20.13,18q7,11.73,7,27.8v92.06H240.82Z"/><path class="cls-4" d="M323.64,470.15q-6.48-.82-15.77-2.85l-.12-33.59a142.91,142.91,0,0,0,17.15,1.08q7.5,0,11-4t3.51-12.21V359.28H315.13V324.51h69.43v97.65q0,15.13-5.66,26.08a39.63,39.63,0,0,1-16.25,16.85Q352,471,337.4,471A107.4,107.4,0,0,1,323.64,470.15Z"/><path class="cls-4" d="M420.88,359.28h-10.6V324.51H466v144.1H420.88Z"/><path class="cls-4" d="M491,465.87l6.79-32.63q17.74,3.33,28.94,3.45,16.43-.12,23.58-6.61t7.14-20.18V359.28H496.74V324.51H602.6v78q0,35.61-18.1,52t-51,16.5Q515.32,471,491,465.87Z"/><path class="cls-4" d="M643.87,470.15q-6.5-.82-15.78-2.85L628,433.71a142.91,142.91,0,0,0,17.15,1.08q7.5,0,11-4t3.52-12.21V359.28h-24.3V324.51h69.43v97.65q0,15.13-5.66,26.08a39.63,39.63,0,0,1-16.25,16.85q-10.61,5.9-25.25,5.9A107.13,107.13,0,0,1,643.87,470.15Z"/></g><g class="cls-5"><g class="cls-6"><path class="cls-4" d="M123.16,500.75a22,22,0,0,1,0,38.7A24.91,24.91,0,0,1,111,542.37a25.27,25.27,0,0,1-12.21-2.92,21.9,21.9,0,0,1,0-38.7A25.39,25.39,0,0,1,111,497.83,25,25,0,0,1,123.16,500.75ZM94.23,483.3l-5.6-116.7h45.61l-5.72,116.7Z"/><path class="cls-4" d="M160.32,490.45A66.22,66.22,0,0,1,162,474.13,37.23,37.23,0,0,1,166,464a15.76,15.76,0,0,1,4-4.7h35.73a159,159,0,0,0-1.91,26V540H160.32Zm80.5-44.78q0-7.14-4.35-11.07t-12.32-3.93h-63V395.89H227.6q18.1,0,31.26,6.26a45.37,45.37,0,0,1,20.13,18q7,11.73,7,27.81V540H240.82Z"/><path class="cls-4" d="M323.64,541.54q-6.48-.84-15.77-2.86l-.12-33.58a144.93,144.93,0,0,0,17.15,1.07q7.5,0,11-4T339.42,490v-59.3H315.13V395.89h69.43v97.66q0,15.12-5.66,26.08a39.68,39.68,0,0,1-16.25,16.85q-10.61,5.89-25.25,5.89A109.3,109.3,0,0,1,323.64,541.54Z"/><path class="cls-4" d="M420.88,430.67h-10.6V395.89H466V540H420.88Z"/><path class="cls-4" d="M491,537.25l6.79-32.63q17.74,3.33,28.94,3.45,16.43-.1,23.58-6.61t7.14-20.18V430.67H496.74V395.89H602.6v78q0,35.61-18.1,52t-51,16.49Q515.32,542.37,491,537.25Z"/><path class="cls-4" d="M643.87,541.54q-6.5-.84-15.78-2.86L628,505.1a144.93,144.93,0,0,0,17.15,1.07q7.5,0,11-4T659.65,490v-59.3h-24.3V395.89h69.43v97.66q0,15.12-5.66,26.08a39.68,39.68,0,0,1-16.25,16.85q-10.61,5.89-25.25,5.89A109,109,0,0,1,643.87,541.54Z"/></g></g></svg>