<svg id="Layer_1" data-name="Layer 1" xmlns="http://www.w3.org/2000/svg" xmlns:xlink="http://www.w3.org/1999/xlink" viewBox="0 0 356.38 204.37"><defs><style>.cls-1{fill:#0bd3ac;}.cls-2{fill:none;stroke-miterlimit:10;stroke-width:14px;stroke:url(#linear-gradient);}</style><linearGradient id="linear-gradient" x1="364.37" y1="47.02" x2="-7.99" y2="157.36" gradientUnits="userSpaceOnUse"><stop offset="0.06" stop-color="#08a385"/><stop offset="1" stop-color="#0ae8bd"/></linearGradient></defs><path class="cls-1" d="M69.69,70.62h-8V52.74H92.25V171H69.69Z"/><path class="cls-1" d="M117.51,70.62h-7.69V52.74h30.69v87.82h-23Z"/><path class="cls-1" d="M157.14,138.51l3.51-16.7a91.16,91.16,0,0,0,19,2.42q10.69-.08,15.75-4.73t5-14V70.62H160.51V52.74h62.84V101.6q0,20.66-10.69,30.5t-30,9.85A111.43,111.43,0,0,1,157.14,138.51Z"/><path class="cls-1" d="M248.62,141.55c-2.49-.32-5.45-.84-8.86-1.57l.07-17.29a71.84,71.84,0,0,0,10.62.73c3.37,0,5.87-.92,7.51-2.78s2.45-4.71,2.45-8.57V70.62H244.88V52.74h38.53V113.9a33.18,33.18,0,0,1-3.19,15.16,22.09,22.09,0,0,1-9.23,9.63A29.41,29.41,0,0,1,256.53,142,62,62,0,0,1,248.62,141.55Z"/><rect class="cls-2" x="7" y="7" width="342.38" height="190.37" rx="16.45"/></svg>