<svg id="Layer_1" data-name="Layer 1" xmlns="http://www.w3.org/2000/svg" xmlns:xlink="http://www.w3.org/1999/xlink" viewBox="0 0 206.25 206.25"><defs><style>.cls-1{fill:none;stroke-miterlimit:10;stroke-width:3.87px;stroke:url(#linear-gradient);}.cls-2{fill:url(#linear-gradient-2);}</style><linearGradient id="linear-gradient" y1="103.12" x2="206.25" y2="103.12" gradientUnits="userSpaceOnUse"><stop offset="0.06" stop-color="#f92b49"/><stop offset="1" stop-color="#f96446"/></linearGradient><linearGradient id="linear-gradient-2" x1="49.41" y1="130.53" x2="156.84" y2="75.72" xlink:href="#linear-gradient"/></defs><circle class="cls-1" cx="103.12" cy="103.12" r="101.19"/><path class="cls-2" d="M118.47,103.12,147.56,74a10.88,10.88,0,0,0,0-15.34h0a10.88,10.88,0,0,0-15.34,0l-29.1,29.09L74,58.69a10.88,10.88,0,0,0-15.34,0h0a10.88,10.88,0,0,0,0,15.34l29.09,29.09-29.09,29.1a10.88,10.88,0,0,0,0,15.34h0a10.88,10.88,0,0,0,15.34,0l29.09-29.09,29.1,29.09a10.85,10.85,0,0,0,15.34-15.34Z"/></svg>