<svg id="Layer_1" data-name="Layer 1" xmlns="http://www.w3.org/2000/svg" xmlns:xlink="http://www.w3.org/1999/xlink" viewBox="0 0 533.79 204.37"><defs><style>.cls-1{fill:#f92b49;}.cls-2{fill:none;stroke-miterlimit:10;stroke-width:14px;stroke:url(#linear-gradient);}</style><linearGradient id="linear-gradient" x1="533.72" y1="23.12" x2="0.06" y2="181.26" gradientUnits="userSpaceOnUse"><stop offset="0.06" stop-color="#f92b49"/><stop offset="1" stop-color="#f96446"/></linearGradient></defs><path class="cls-1" d="M50,73.12H42V55.25H72.58V173.53H50Z"/><path class="cls-1" d="M97.85,73.12H90.16V55.25h30.68v87.81h-23Z"/><path class="cls-1" d="M137.47,141l3.52-16.7a91,91,0,0,0,19,2.42q10.68-.08,15.74-4.72t5.06-14V73.12H140.84V55.25h62.84V104.1q0,20.66-10.69,30.5t-30,9.85A111.43,111.43,0,0,1,137.47,141Z"/><path class="cls-1" d="M229,144.05q-3.73-.48-8.86-1.57l.07-17.29a71.84,71.84,0,0,0,10.62.73c3.37,0,5.87-.92,7.51-2.78s2.45-4.71,2.45-8.57V73.12H225.21V55.25h38.53V116.4a33.15,33.15,0,0,1-3.19,15.16,22.2,22.2,0,0,1-9.22,9.64,29.58,29.58,0,0,1-14.47,3.33A62.14,62.14,0,0,1,229,144.05Z"/><path class="cls-1" d="M381.88,106.08l25.63,37H381.88L349.21,95.9a13,13,0,0,0-2.49,8.2v39H324.53V114q0-12.17,3.74-19.49a25.43,25.43,0,0,1,12.08-11.35l-19.41-27.9h25.71l21.17,30.54,14.79-30.54h25.78Z"/><path class="cls-1" d="M490.35,70l-29.08,73.09H437l28.71-69.94h-47.1V30.56h23V55.25h48.78Z"/><rect class="cls-2" x="7" y="7" width="519.79" height="190.37" rx="20.27"/></svg>