<svg id="Layer_1" data-name="Layer 1" xmlns="http://www.w3.org/2000/svg" xmlns:xlink="http://www.w3.org/1999/xlink" viewBox="0 0 1029.77 578.94"><defs><style>.cls-1,.cls-4{fill:none;}.cls-2{fill:#f92b49;}.cls-3{clip-path:url(#clip-path);}.cls-4{stroke:#f92b49;stroke-miterlimit:10;stroke-width:2px;}.cls-5{opacity:0.5;}.cls-6{clip-path:url(#clip-path-2);}</style><clipPath id="clip-path"><rect class="cls-1" x="10.38" y="389.86" width="1039.1" height="117.69"/></clipPath><clipPath id="clip-path-2"><rect class="cls-1" x="18.38" y="461.25" width="1031.1" height="117.69"/></clipPath></defs><path class="cls-2" d="M159.81,133.38a65.69,65.69,0,0,1,1.73-16.32,37.23,37.23,0,0,1,3.93-10.18,15.48,15.48,0,0,1,4-4.7h35.72a159.06,159.06,0,0,0-1.9,26v54.78H159.81Zm80.5-44.78q0-7.14-4.34-11.07c-2.9-2.63-7-3.93-12.33-3.93h-63V38.82h66.45q18.1,0,31.26,6.25a45.45,45.45,0,0,1,20.13,18q7,11.73,7,27.8v92.06H240.31Z"/><path class="cls-2" d="M432.64,149.45v33.47H305.93V148h65.14V88.6q0-7.14-4.35-11.07c-2.9-2.63-7-3.93-12.32-3.93H313.79V38.82h44.06q18,0,31.14,6.25a45.82,45.82,0,0,1,20.19,18q7,11.73,7,27.8v55.85Z"/><path class="cls-2" d="M452.88,73.6h-10.6V38.82H498v144.1H452.88Z"/><path class="cls-2" d="M578.16,143.74a122,122,0,0,0,20.9,6.61,95.26,95.26,0,0,0,20.66,2.56q25.6,0,40.13-10.84t14.53-33.22v-70H718v75.26q0,23.94-12.8,40.55t-34.66,24.89q-21.85,8.28-49,8.28a201.73,201.73,0,0,1-43.89-5.06,197.82,197.82,0,0,1-42.93-14.83V38.82h43.47ZM603,121.05q.76-8.62.77-17.68V38.82h43.59V93.48a97.84,97.84,0,0,1-2.8,23.4q-2.81,11.38-7.08,17l-36.45.24A81.16,81.16,0,0,0,603,121.05Z"/><path class="cls-2" d="M867,52.64q14.71,13.81,14.71,40.49v89.79h-45l-.24-93.84q0-7.39-3.22-11.44a10.91,10.91,0,0,0-9-4H806.45a215.52,215.52,0,0,0-1.55,25.24v37.75q0,15.25-5.66,26.2A39.26,39.26,0,0,1,783,179.58q-10.61,5.83-25.25,5.84a121.92,121.92,0,0,1-20.24-1.79V149.22l7.62.11q7.5,0,11.73-4.1T761.08,133V103.13a74.32,74.32,0,0,1,1.72-14.89A52.58,52.58,0,0,1,768,73.6H747.74V38.82h76.33Q852.3,38.82,867,52.64Z"/><path class="cls-2" d="M61,343.68a22,22,0,0,1,0,38.7,25,25,0,0,1-12.15,2.92,25.44,25.44,0,0,1-12.21-2.92,21.91,21.91,0,0,1,0-38.7,25.33,25.33,0,0,1,12.21-2.92A24.93,24.93,0,0,1,61,343.68ZM32.09,326.23l-5.6-116.7H72.1l-5.71,116.7Z"/><path class="cls-2" d="M98.18,333.38a66.17,66.17,0,0,1,1.73-16.32,37.23,37.23,0,0,1,3.93-10.18,15.76,15.76,0,0,1,4-4.7h35.72a159.06,159.06,0,0,0-1.9,26v54.78H98.18Zm80.5-44.78q0-7.14-4.34-11.07c-2.9-2.63-7-3.93-12.33-3.93H99V238.82h66.45q18.09,0,31.26,6.25a45.37,45.37,0,0,1,20.12,18q7,11.73,7,27.8v92.06H178.68Z"/><path class="cls-2" d="M261.51,384.46q-6.49-.82-15.78-2.85L245.61,348a143,143,0,0,0,17.15,1.08q7.5,0,11-4t3.51-12.21V273.6H253V238.82h69.43v97.65q0,15.13-5.65,26.08a39.65,39.65,0,0,1-16.26,16.85q-10.61,5.89-25.25,5.9A107.24,107.24,0,0,1,261.51,384.46Z"/><path class="cls-2" d="M358.74,273.6h-10.6V238.82h55.74v144.1H358.74Z"/><path class="cls-2" d="M428.89,380.18l6.78-32.63q17.74,3.33,28.94,3.45,16.44-.12,23.58-6.61t7.15-20.18V273.6H434.6V238.82H540.47v78q0,35.61-18.1,52t-51,16.49Q453.18,385.3,428.89,380.18Z"/><path class="cls-2" d="M581.73,384.46q-6.5-.82-15.78-2.85L565.83,348A143,143,0,0,0,583,349.1q7.5,0,11-4t3.51-12.21V273.6H573.22V238.82h69.42v97.65q0,15.13-5.65,26.08a39.59,39.59,0,0,1-16.26,16.85q-10.59,5.89-25.24,5.9A107.29,107.29,0,0,1,581.73,384.46Z"/><path class="cls-2" d="M839.38,323.37l40.37,59.55H829.61L782,312.78a17.75,17.75,0,0,0-.48,4.52v65.62H738V337.43q0-20.61,6-32.69T763.87,286l-32-47.16H782.1l29.77,43.95,19.29-43.95h50.37Z"/><path class="cls-2" d="M1017.65,267.76,972.39,382.92H924.88L969.54,273.6H895.82V200H941v38.82h76.69Z"/><g class="cls-3"><path class="cls-4" d="M57.55,415.85a22,22,0,0,1,0,38.7,25,25,0,0,1-12.15,2.92,25.27,25.27,0,0,1-12.21-2.92,21.91,21.91,0,0,1,0-38.7,25.39,25.39,0,0,1,12.21-2.92A25.09,25.09,0,0,1,57.55,415.85ZM28.61,398.4,23,281.7H68.62L62.9,398.4Z"/><path class="cls-4" d="M94.7,405.55a65.55,65.55,0,0,1,1.73-16.31,37.31,37.31,0,0,1,3.93-10.19,15.48,15.48,0,0,1,4-4.7h35.72a159.14,159.14,0,0,0-1.9,26v54.78H94.7Zm80.5-44.78q0-7.14-4.34-11.07t-12.33-3.93h-63V311H162q18.11,0,31.26,6.25a45.43,45.43,0,0,1,20.13,18q7,11.73,7,27.81v92H175.2Z"/><path class="cls-4" d="M258,456.64q-6.49-.84-15.78-2.86l-.12-33.58a144.93,144.93,0,0,0,17.15,1.07q7.5,0,11-4t3.52-12.21v-59.3h-24.3V311h69.43v97.65q0,15.12-5.66,26.08A39.68,39.68,0,0,1,297,451.58q-10.61,5.9-25.25,5.89A109,109,0,0,1,258,456.64Z"/><path class="cls-4" d="M355.26,345.77h-10.6V311H400.4V455.09H355.26Z"/><path class="cls-4" d="M425.4,452.35l6.79-32.63q17.74,3.33,28.94,3.46,16.44-.12,23.58-6.61t7.14-20.19V345.77H431.12V311H537v78q0,35.61-18.1,52t-51,16.49Q449.69,457.47,425.4,452.35Z"/><path class="cls-4" d="M578.25,456.64q-6.5-.84-15.78-2.86l-.12-33.58a145.06,145.06,0,0,0,17.15,1.07q7.5,0,11-4T594,405.07v-59.3H569.74V311h69.42v97.65q0,15.12-5.65,26.08a39.71,39.71,0,0,1-16.26,16.85q-10.61,5.9-25.24,5.89A109.18,109.18,0,0,1,578.25,456.64Z"/><path class="cls-4" d="M835.89,395.55l40.37,59.54H826.13L778.49,385a18.32,18.32,0,0,0-.47,4.52v65.62H734.55V409.6q0-20.6,6-32.69t19.82-18.76l-32-47.15h50.25l29.78,43.94L827.68,311h50.37Z"/><path class="cls-4" d="M1014.17,339.93,968.91,455.09H921.4l44.66-109.32H892.34v-73.6h45.13V311h76.7Z"/></g><g class="cls-5"><g class="cls-6"><path class="cls-4" d="M56.36,487.23a22,22,0,0,1,0,38.71,25.09,25.09,0,0,1-12.15,2.92A25.39,25.39,0,0,1,32,525.94a21.92,21.92,0,0,1,0-38.71,25.38,25.38,0,0,1,12.21-2.91A25.09,25.09,0,0,1,56.36,487.23ZM27.42,469.79l-5.6-116.71H67.43L61.72,469.79Z"/><path class="cls-4" d="M93.51,476.93a66.09,66.09,0,0,1,1.73-16.31,37.1,37.1,0,0,1,3.93-10.18,16,16,0,0,1,4-4.71h35.72a159.14,159.14,0,0,0-1.9,26v54.78H93.51ZM174,432.16q0-7.16-4.34-11.08t-12.33-3.93h-63V382.38h66.45q18.11,0,31.26,6.25a45.33,45.33,0,0,1,20.13,18q7,11.73,7,27.81v92.05H174Z"/><path class="cls-4" d="M256.84,528q-6.49-.82-15.78-2.86l-.12-33.58a142.84,142.84,0,0,0,17.15,1.07q7.5,0,11-4t3.52-12.2V417.15h-24.3V382.38h69.43V480q0,15.12-5.66,26.08A39.63,39.63,0,0,1,295.84,523q-10.6,5.89-25.25,5.9A107.13,107.13,0,0,1,256.84,528Z"/><path class="cls-4" d="M354.07,417.15h-10.6V382.38h55.74V526.47H354.07Z"/><path class="cls-4" d="M424.21,523.73,431,491.1q17.75,3.34,28.94,3.46,16.44-.12,23.58-6.61t7.14-20.19V417.15H429.93V382.38H535.8v78q0,35.61-18.1,52t-51,16.5Q448.51,528.86,424.21,523.73Z"/><path class="cls-4" d="M577.06,528q-6.49-.82-15.78-2.86l-.12-33.58a143,143,0,0,0,17.15,1.07q7.5,0,11-4t3.51-12.2V417.15H568.55V382.38H638V480q0,15.12-5.65,26.08A39.59,39.59,0,0,1,616.06,523q-10.6,5.89-25.24,5.9A107.29,107.29,0,0,1,577.06,528Z"/><path class="cls-4" d="M834.7,466.93l40.37,59.54H824.94l-47.63-70.14a17.83,17.83,0,0,0-.48,4.53v65.61H733.36V481q0-20.6,6-32.69t19.82-18.75l-32-47.16h50.25l29.78,43.94,19.29-43.94h50.37Z"/><path class="cls-4" d="M1013,411.32,967.72,526.47H920.21l44.66-109.32H891.15V343.56h45.14v38.82H1013Z"/></g></g></svg>