<?xml version="1.0" encoding="utf-8"?><svg xml:space="preserve" viewBox="0 0 100 100" y="0" x="0" xmlns="http://www.w3.org/2000/svg" id="圖層_1" version="1.1" width="200px" height="200px" xmlns:xlink="http://www.w3.org/1999/xlink" style="width:100%;height:100%;background-size:initial;background-repeat-y:initial;background-repeat-x:initial;background-position-y:initial;background-position-x:initial;background-origin:initial;background-color:initial;background-clip:initial;background-attachment:initial;animation-play-state:paused" ><g class="ldl-scale" style="transform-origin:50% 50%;transform:rotate(0deg) scale(0.8, 0.8);animation-play-state:paused" ><path fill="#e0e0e0" d="M87.5 42.1h-7.9V31.3c0-.6-.5-1.1-1.1-1.1h-66c-.6 0-1.2.5-1.2 1.2v37.5c0 .6.5 1.2 1.2 1.2h66c.6 0 1.1-.5 1.1-1.1V57.9h7.9c.6 0 1.1-.5 1.1-1.1V43.2c.1-.6-.4-1.1-1.1-1.1z" style="fill:rgba(255, 255, 255, 0);animation-play-state:paused" ></path>
<path fill="#333" d="M87.5 38.3h-4.1v-7c0-2.7-2.2-5-5-5h-66c-2.7 0-5 2.2-5 5v37.5c0 2.7 2.2 5 5 5h66c2.7 0 5-2.2 5-5v-7h4.1c2.7 0 5-2.2 5-5V43.2c0-2.7-2.2-4.9-5-4.9zm1.2 18.5c0 .6-.5 1.1-1.1 1.1h-7.9v10.8c0 .6-.5 1.1-1.1 1.1h-66c-.6 0-1.2-.5-1.2-1.2V31.3c0-.6.5-1.2 1.2-1.2h66c.6 0 1.1.5 1.1 1.1V42h7.9c.6 0 1.1.5 1.1 1.1v13.7z" style="fill:rgb(255, 255, 255);animation-play-state:paused" ></path>
<path d="M14.4 33.2h15.5v33.2H14.4z" fill="#f8b26a" style="fill:rgb(248, 178, 106);animation-play-state:paused" ></path>
<path d="M30 33.2h15.5v33.2H30z" fill="#f8b26a" style="fill:rgb(248, 178, 106);animation-play-state:paused" ></path>
<metadata xmlns:d="https://loading.io/stock/" style="animation-play-state:paused" ><d:name style="animation-play-state:paused" >battery</d:name>
<d:tags style="animation-play-state:paused" >charge,energy,power,electricity,progress,battery,web application</d:tags>
<d:license style="animation-play-state:paused" >pro</d:license>
<d:slug style="animation-play-state:paused" >fs42h4</d:slug></metadata></g><!-- generated by https://loading.io/ --></svg>