<svg id="Layer_1" data-name="Layer 1" xmlns="http://www.w3.org/2000/svg" xmlns:xlink="http://www.w3.org/1999/xlink" viewBox="0 0 191 191"><defs><style>.cls-1{fill:url(#linear-gradient);}.cls-2{fill:#f48c00;}.cls-3{fill:#ffa600;}</style><linearGradient id="linear-gradient" x1="95.5" y1="191" x2="95.5" gradientUnits="userSpaceOnUse"><stop offset="0" stop-color="#1f9da0"/><stop offset="0.39" stop-color="#1ab4bc"/><stop offset="0.75" stop-color="#17c3cf"/><stop offset="1" stop-color="#16c8d5"/></linearGradient></defs><path class="cls-1" d="M191,40V151a40,40,0,0,1-40,40H40A40.12,40.12,0,0,1,0,151V40A40.12,40.12,0,0,1,40,0H151A40.12,40.12,0,0,1,191,40Z"/><path class="cls-2" d="M160.88,189.76A39.8,39.8,0,0,1,151,191H40A40.12,40.12,0,0,1,0,151V140.67L49.67,77.21a14.68,14.68,0,0,1,23.11,0l49,62.6Z"/><path class="cls-3" d="M191,126.62V151a40,40,0,0,1-40,40H82.38a8.21,8.21,0,0,1,1.41-2.65l38-48.54,27.4-35a15.71,15.71,0,0,1,24.75,0Z"/><circle class="cls-3" cx="136.5" cy="47.5" r="12.5"/></svg>