<svg id="Layer_1" data-name="Layer 1" xmlns="http://www.w3.org/2000/svg" xmlns:xlink="http://www.w3.org/1999/xlink" viewBox="0 0 132.98 132.98"><defs><style>.cls-1{fill:url(#linear-gradient);}.cls-2{fill:#fff;}</style><linearGradient id="linear-gradient" x1="3.31" y1="129.16" x2="134.15" y2="-0.63" gradientUnits="userSpaceOnUse"><stop offset="0" stop-color="#ea7265"/><stop offset="0.16" stop-color="#ea7265"/><stop offset="0.91" stop-color="#e22b6d"/><stop offset="1" stop-color="#bc427a"/></linearGradient></defs><rect class="cls-1" width="132.98" height="132.98" rx="29.34"/><path class="cls-2" d="M104.2,25.89a83.43,83.43,0,0,0-20,2.54,82,82,0,0,0-11.84,3.93,73.55,73.55,0,0,0-16.64,10,31.88,31.88,0,0,0-17.09-.73,35.67,35.67,0,0,0-10.16,4.49A54.07,54.07,0,0,0,15,57.31l26.59.56a67.62,67.62,0,0,1-4.55,7.19l.88,1.66-.33.17A34.63,34.63,0,0,0,24,68.53a14,14,0,0,0-2.33,1,20.68,20.68,0,0,0-8,8.15,9.21,9.21,0,0,1,4.51-2.06,12.74,12.74,0,0,1,4.1.46,33.41,33.41,0,0,0-11.85,9.41A26.17,26.17,0,0,0,7.2,91.16a22,22,0,0,0,6.37,1.37,33.31,33.31,0,0,0,14.86-2.81,12.65,12.65,0,0,1-2.33,3.4,9.25,9.25,0,0,1-4.51,2.06A20.68,20.68,0,0,0,33,94.43a14.42,14.42,0,0,0,2.26-1.13c5-2.82,7.95-6.48,11-10.4l.1-.11,0,0,1.07,2,7.92.25L41.38,107.09c12.18-1.83,21.51-6.39,26.18-10.89a37.57,37.57,0,0,0,6-7.6A33.63,33.63,0,0,0,76.33,82a72.62,72.62,0,0,0,9-3.18,47.3,47.3,0,0,0,9.28-4.86l.16-.09c15-9.31,23.45-23.92,23.45-23.92a66.31,66.31,0,0,0,7.55-20A59.61,59.61,0,0,0,104.2,25.89Zm-.46,25.23c-3.82,2.8-13-2.16-13-2.16.18-1.39.88-6.55,2.29-9.5A4.26,4.26,0,0,1,94.12,38a5.2,5.2,0,0,1,4.09-1,4.93,4.93,0,0,1,3.47,2.19,4.85,4.85,0,0,1,.51,3.61,4.71,4.71,0,0,1,3,2A5.2,5.2,0,0,1,103.74,51.12Z"/></svg>