<svg id="Layer_1" data-name="Layer 1" xmlns="http://www.w3.org/2000/svg" viewBox="0 0 191 191"><defs><style>.cls-1,.cls-8{fill:#fff;}.cls-1{opacity:0.05;}.cls-2{fill:#f4c97d;}.cls-3{fill:#efb962;}.cls-4{fill:#8c6239;opacity:0.1;}.cls-5{fill:none;}.cls-6{fill:blue;}.cls-7{fill:#ed1c24;}.cls-9{fill:#e6e6e6;}.cls-10{fill:#1b1464;}.cls-11{fill:#c1272d;}.cls-12{fill:#d80909;}.cls-13{fill:#8e1720;}</style></defs><path d="M191,40V151a40.12,40.12,0,0,1-40,40H40A40.12,40.12,0,0,1,0,151V40A39.48,39.48,0,0,1,1.91,27.84c.28-.91.61-1.8,1-2.68A40.28,40.28,0,0,1,28.78,1.61,39.63,39.63,0,0,1,40,0H151a39.58,39.58,0,0,1,16.46,3.57h0a40.31,40.31,0,0,1,20.65,21.59c.36.88.69,1.77,1,2.68A39.48,39.48,0,0,1,191,40Z"/><path class="cls-1" d="M184,173.55A40,40,0,0,1,151,191H94.6L65.94,151.19l-2-2.84h63.26Z"/><path class="cls-2" d="M135.91,59.14a1.82,1.82,0,0,0-.65-.33h0a2.49,2.49,0,0,0-1.27,0,2.5,2.5,0,0,1,1.27,0,8.23,8.23,0,0,0-.3-2.27c-.63-2.17-2.2-3.71-3.8-3.91a3.19,3.19,0,0,0-1.68.28A5.27,5.27,0,0,0,127.37,50a3.32,3.32,0,0,0-2.38-.24h0a3,3,0,0,0-.4.12,3.1,3.1,0,0,1,.4-.13,4.88,4.88,0,0,0-.47-2.36c-.79-1.39-2.55-1.54-4.18-.81a6.36,6.36,0,0,0-2.48-3.1,4.21,4.21,0,0,0-4.59.57,3.73,3.73,0,0,0-1.1-.57c-2.27-.69-4.42,1.44-5.68,3.92h0c-1.67-.91-3.67.7-5.49,2.7,0-2.92-.74-5.71-2.11-6.61s-3.38,0-4.87,1.57a4.11,4.11,0,0,0-2.73-1.57,3.66,3.66,0,0,0-2.4.74h0c-1.06-2.64-3.7-5.67-6.14-4.64a4.28,4.28,0,0,0-1.84,1.81,6.34,6.34,0,0,1,1.57,1.12,7.14,7.14,0,0,0-1.57-1.12,6.11,6.11,0,0,0-4.81-.51c-2.38.86-4.24,3.66-5.26,6.53h-.43a3.91,3.91,0,0,0-1.82.59,5.74,5.74,0,0,0-1.22.95,6.69,6.69,0,0,0-.85,1,7.26,7.26,0,0,1,.84-1A4.24,4.24,0,0,0,62.78,50a8.41,8.41,0,0,0-2.09,3.87,2.75,2.75,0,0,0-.76,0c-2.48.47-4.37,4.38-3.8,6.51a2.12,2.12,0,0,0,.13.38,2.54,2.54,0,0,0,.65.86,3.85,3.85,0,0,0,1,.63l.44.17a20,20,0,0,0,2.5.56c.23,0,.45.09.67.15.38.09.76.2,1.13.32,5,1.65,8.38,5.71,11.85,9.31A37.26,37.26,0,0,0,78,76.06c3.88,3.13,9.18,3.7,17.61,3L97,79c4-.35,8.71-.94,14.24-1.64.94-.12,1.85-.24,2.72-.37l2.47-.37c11.82-1.94,16.72-4.57,18.83-6.77a6.64,6.64,0,0,0,1.06-1.41,5.78,5.78,0,0,0,.57-1.49c.06-.26.12-.54.17-.84C137.41,63.7,137.27,60.22,135.91,59.14Zm-3.32.37-.23.2h0ZM118.68,53l0,0h-.08A.53.53,0,0,0,118.68,53ZM121,50.45v0a.14.14,0,0,1,0,.06A.43.43,0,0,0,121,50.45Zm-9.73-2.23v-.14c0,.12,0,.24,0,.35C111.25,48.36,111.23,48.29,111.22,48.22Zm.2.91-.06-.19a.44.44,0,0,1,0-.1Zm-.21-1.7a3.84,3.84,0,0,1,.11-.59,3.7,3.7,0,0,0-.1.58c0,.06,0,.12,0,.18A1,1,0,0,0,111.21,47.43Zm-3.79.81.08.13-.15-.2A.46.46,0,0,1,107.42,48.24ZM68.75,53.48a3.05,3.05,0,0,0,.16-.58c0,.1,0,.21,0,.31A1.69,1.69,0,0,1,68.75,53.48ZM69,51.83a0,0,0,0,1,0,0V52A1,1,0,0,1,69,51.83Zm1.34,1.91h0s0,0,0,0Zm23-1.06,0,0,0,0Zm3.06,5.52-.1-.08v0Zm9.2-8.17c0-.08,0-.17.07-.26a0,0,0,0,1,0,0c0,.09,0,.18-.07.27a1.13,1.13,0,0,1,0,.15C105.49,50.12,105.5,50.08,105.51,50Zm-.21,1.19a3.33,3.33,0,0,0,0,.63,1.36,1.36,0,0,0,.23.78.49.49,0,0,0,.12.13.8.8,0,0,1-.13-.13,1.39,1.39,0,0,1-.23-.79A4.33,4.33,0,0,1,105.3,51.22Zm-13-.26c0-.06,0-.12,0-.19a6,6,0,0,0,.15.64A2.54,2.54,0,0,1,92.27,51Zm-3.36-2.48c0,.05,0,.1-.08.14l-.13.15Zm-2.17,1.67h0S86.74,50.15,86.74,50.15Zm-3.24-4.4.09-.3a1.06,1.06,0,0,1,0,.19.54.54,0,0,1,0,.11,3.8,3.8,0,0,1-.48.88A4.48,4.48,0,0,0,83.5,45.75Zm-4.44.08c0-.18.1-.35.16-.52-.07.24-.14.48-.2.72A1.42,1.42,0,0,1,79.06,45.83Zm-.28,1.24c0-.08,0-.17.06-.26,0,.15-.06.31-.08.45A1.37,1.37,0,0,1,78.78,47.07Zm-7,.58s0,0,0,0l-.13-.05Zm-3.28,6.28a.83.83,0,0,0,.16-.2.8.8,0,0,1-.15.2h0a.64.64,0,0,1-.25.19h0A.84.84,0,0,0,68.47,53.93Zm-7.92,3.15a3.69,3.69,0,0,1-.13-.84A4.34,4.34,0,0,0,60.55,57.08Zm67.83,6.21h0Z"/><path class="cls-3" d="M136.29,68.44a6.36,6.36,0,0,0-1-3.28,2.18,2.18,0,0,0-.34-.34,2.07,2.07,0,0,0-.66-.3,8.29,8.29,0,0,0-.37-2.27c-.09-.26-.19-.52-.3-.77s-.15-.3-.23-.44a5.88,5.88,0,0,0-1-1.33h0a4.37,4.37,0,0,0-1-.81,3.37,3.37,0,0,0-1.36-.43,3.15,3.15,0,0,0-1.67.32,8.08,8.08,0,0,0-.65-1.28A4.07,4.07,0,0,0,126.07,56a2.84,2.84,0,0,0-1-.29,3.75,3.75,0,0,0-1.36.13,4.78,4.78,0,0,0-.54-2.35l0-.06a2.3,2.3,0,0,0-1.18-.94,3.89,3.89,0,0,0-3,.32,8.67,8.67,0,0,0-.62-1.12,6.13,6.13,0,0,0-1.42-1.56,4.82,4.82,0,0,0-.53-.35,4.09,4.09,0,0,0-4.17.43c-.14.1-.28.18-.41.29a4.12,4.12,0,0,0-1.12-.54,3.12,3.12,0,0,0-2.28.27,5.77,5.77,0,0,0-1.82,1.53h0c-.17.21-.34.42-.5.65l-.29.45a12.39,12.39,0,0,0-.65,1.19l0,0c-1-.51-2.16-.1-3.28.77a14.54,14.54,0,0,0-2.12,2.11A16.39,16.39,0,0,0,99.52,55a11.46,11.46,0,0,0-.82-3,3.72,3.72,0,0,0-1.31-1.66,2.33,2.33,0,0,0-1.21-.31,4.8,4.8,0,0,0-3,1.44,6.23,6.23,0,0,0-.52.51l-.07.08h0l-.32.39c.1-.13.2-.27.31-.39a4.21,4.21,0,0,0-2.76-1.49h0a3.68,3.68,0,0,0-2.37.82h0a11.12,11.12,0,0,0-.56-1.08,1.63,1.63,0,0,0-.11-.17s0,0,0,0a9,9,0,0,0-2.21-2.52,3.26,3.26,0,0,0-3.4-.66,3,3,0,0,0-1.08.84,5.26,5.26,0,0,0-.7,1,6,6,0,0,0-4.82-.36,5.92,5.92,0,0,0-1.8,1.17,8.79,8.79,0,0,0-1.5,1.79l-.43.68,0,.07A15.93,15.93,0,0,0,70,53.83c-.17.44-.34.87-.48,1.32H69a3.72,3.72,0,0,0-1.69.58A5.88,5.88,0,0,0,66,56.78a3.07,3.07,0,0,0-1.25-.25,4.24,4.24,0,0,0-1.1.16A4.86,4.86,0,0,0,61.52,58a1.49,1.49,0,0,0-.12.14,6.12,6.12,0,0,0-1,1.39,9.15,9.15,0,0,0-.89,2.42,3.24,3.24,0,0,0-.76,0,2.71,2.71,0,0,0-.85.34,3.43,3.43,0,0,0-.69.48,7,7,0,0,0-2.18,5.08,2.71,2.71,0,0,0,.12.72,2.36,2.36,0,0,0,.69,1.1c1.07,1,3,1.16,4.14,1.35,6.63,1.08,10.67,6.35,15.1,10.46h0c.78.73,1.57,1.41,2.38,2C80,85.4,83,86.26,86.94,86.43A57.14,57.14,0,0,0,95.59,86c3.9-.43,8.47-1.14,13.85-2l1.34-.21c1.86-.29,3.59-.6,5.18-.91,17.81-3.49,19.67-8.06,20.13-10.29,0-.25.09-.5.13-.78A16.41,16.41,0,0,0,136.29,68.44Zm-42.18-14,.13.26h0C94.19,54.57,94.15,54.48,94.11,54.39Zm.15.32c0,.11.09.22.13.32s.09.23.13.36L94.38,55Zm-20.38,7.9-.19.1s0,0,0,0Zm-6.55-.9A1,1,0,0,1,67,62,1.12,1.12,0,0,0,67.33,61.71Zm-2.89-1.27a.07.07,0,0,0,0,.05,1.54,1.54,0,0,0,.11.3l-.06-.12a.49.49,0,0,1-.06-.17Zm-2,6.19a3.08,3.08,0,0,1-.75.09A3.08,3.08,0,0,0,62.48,66.63ZM59.37,64.4s0,.08,0,.12a.14.14,0,0,1,0-.07S59.36,64.41,59.37,64.4Zm62.12-3.06a.86.86,0,0,1-.17,0l.17,0,.08,0ZM132,70.11a.65.65,0,0,0,.24,0h0l0,0A.65.65,0,0,1,132,70.11Zm.33-5.26,0,0c.18-.08.35-.15.53-.21C132.69,64.68,132.49,64.76,132.3,64.85Zm1.86,1.33a.34.34,0,0,0,0,.1l0,.13A1.85,1.85,0,0,0,134.16,66.18Zm-20-12.86a2.6,2.6,0,0,1,.1.25c0-.11-.09-.21-.14-.32A.25.25,0,0,1,114.16,53.32Zm-9.93,3.33c0-.22.1-.45.17-.67-.06.23-.12.46-.16.68s-.11.53-.15.89A6.37,6.37,0,0,1,104.23,56.65Zm-4.61,3.19a.57.57,0,0,1,0,.13c0,.1,0,.19,0,.29C99.59,60.12,99.6,60,99.62,59.84Zm-18-9.22.05.08-.11-.15A.19.19,0,0,1,81.63,50.62Zm-4,3c-.24,1.09-.33,2.14,0,2.55h0C77.25,55.76,77.34,54.72,77.59,53.63Zm-7.74,1.55.08,0-.23,0Z"/><path class="cls-2" d="M126.37,65.91c-.11,2.1-2.7,2.93-4.12,3.52a16,16,0,0,0-5.64,4.09h0c-3.36,3.66-5.45,8.5-8.42,12.15-2.62,3.2-6.56,4.88-12.61,6-5,.91-11.36,1.43-19.61,2.11h0c-9.48.77-15.6.45-19.59-.37L53.74,74.53l-.33-2.48a4,4,0,0,1,1.1-1.72,3.26,3.26,0,0,1,2.28-.71,4.73,4.73,0,0,1,0-2.42c.48-1.52,2.17-2,3.91-1.65A6.5,6.5,0,0,1,62.47,62a4.21,4.21,0,0,1,4.62-.39,4,4,0,0,1,1-.79,2.75,2.75,0,0,1,.9-.31c1.87-.36,4,1.13,5.46,3l0,0a2.52,2.52,0,0,1,2.4-.37A11.33,11.33,0,0,1,80.35,65a14.63,14.63,0,0,1-.2-4.83,4,4,0,0,1,.91-2.08c1.13-1.12,3.3-.73,5.09.55a4.21,4.21,0,0,1,2.35-2.11,3.77,3.77,0,0,1,2.51.24h0c.5-2.8,2.45-6.32,5-5.79a4.06,4.06,0,0,1,2.17,1.38,6.12,6.12,0,0,1,4.61-1.48c2.51.35,4.91,2.71,6.49,5.31a2.88,2.88,0,0,1,.42-.11A4.9,4.9,0,0,1,113,57a4.28,4.28,0,0,1,4.69.1,8.6,8.6,0,0,1,2.83,3.37,2.75,2.75,0,0,1,.75-.13,2.58,2.58,0,0,1,.87.12C124.41,61,126.47,64,126.37,65.91Z"/><path class="cls-4" d="M97,79a48.18,48.18,0,0,1-11,5.46c-3.94-.17-6.94-1-9.42-2.9-5.47-4.15-9.7-11.22-17.5-12.49-1.51-.24-4.22-.44-4.83-2.45-.48-1.64.47-4.38,2.06-5.8a2.12,2.12,0,0,1-.13-.38c-.57-2.13,1.32-6,3.8-6.51a2.75,2.75,0,0,1,.76,0A8.41,8.41,0,0,1,62.78,50,4.24,4.24,0,0,1,67.33,49,6.14,6.14,0,0,1,68.56,48c.41.68.8,1.41,1.22,2.18l.26.48c.78,1.47,1.64,3.06,2.65,4.68a27.77,27.77,0,0,0,10,9.67c10.48,6,19.77,2.48,20.7,5.91C103.87,72.93,101.32,76,97,79Z"/><path class="cls-5" d="M74.48,72.32a13,13,0,0,1-.1-1.54v-.13a14.78,14.78,0,0,0,.12,1.78Z"/><polygon class="cls-6" points="53.17 70.27 53.17 70.22 53.15 70.22 53.17 70.27"/><polygon class="cls-6" points="137.84 70.22 137.83 70.22 137.83 70.25 137.84 70.22"/><path class="cls-7" d="M79.09,139.43c-4.43-4-7.4-8.88-11.24-15.26A103.28,103.28,0,0,1,57.22,99.88l-.89-6.48L53.74,74.53l-.33-2.48-.24-1.78v0C53.37,64,58,58.94,63.67,58.94A9.53,9.53,0,0,1,69,60.53a11.91,11.91,0,0,1,5.22,9.69h.22a3.1,3.1,0,0,0,0,.43,1.09,1.09,0,0,0,0,.18,12.16,12.16,0,0,0,.1,1.49v.11l0,.06v0L76,93.77Z"/><path class="cls-8" d="M95.4,70.65h0c0-.14,0-.29,0-.43C95.2,64,90.57,58.94,84.89,58.94s-10.3,5-10.5,11.28a3.1,3.1,0,0,0,0,.43v.13s0-.09,0-.13l.12,1.79s0-.08,0-.12v.11l0,.06v0l4.58,66.9h0a34.09,34.09,0,0,0,4.53,3.45,44.22,44.22,0,0,0,11.93,5.27,1.72,1.72,0,0,0,0-.32l0-77.19Z"/><polygon class="cls-9" points="95.59 70.65 95.59 70.65 95.4 70.65 95.4 70.65 95.59 70.65"/><path class="cls-10" d="M74.38,70.78a13,13,0,0,0,.1,1.54Z"/><path class="cls-10" d="M74.49,72.44l-.12-1.79s0,.09,0,.13l.1,1.54S74.49,72.4,74.49,72.44Z"/><path class="cls-7" d="M111.49,147.59l5.32-76.94c0-.14,0-.29,0-.43h-.21c-.19-6.27-4.82-11.28-10.5-11.28s-10.3,5-10.5,11.28a1.93,1.93,0,0,0,0,.24c0,.06,0,.13,0,.19h0l0,77.19a1.83,1.83,0,0,0,0,.33,50.45,50.45,0,0,0,15.2,1.81,3.71,3.71,0,0,0,.67-1.88l0-.26v-.07A1.09,1.09,0,0,1,111.49,147.59Z"/><path class="cls-11" d="M95.59,70.65h0c0-.06,0-.13,0-.19s0,.13,0,.19Z"/><path class="cls-8" d="M137.83,70.26v0h0c-.19-6.27-4.82-11.28-10.5-11.28S117,64,116.82,70.22c0,.14,0,.29,0,.43l-5.33,77.12v.07a3.59,3.59,0,0,0,.63,2.07,44.14,44.14,0,0,0,13.9-3.07c.49-.2,1-.41,1.41-.61l9.83-71.7v0l.58-4.24v0Z"/><rect class="cls-9" x="137.83" y="70.22" height="0.04" transform="translate(30.76 181.89) rotate(-73.2)"/><path class="cls-9" d="M111.48,147.77l5.33-77.12-5.32,76.94A1.09,1.09,0,0,0,111.48,147.77Z"/><path class="cls-12" d="M79.09,139.44h0c-4.43-4-7.4-8.88-11.24-15.26A103.28,103.28,0,0,1,57.22,99.88l6.65,48.47a3.76,3.76,0,0,0,3.72,3.24h8.32a3.74,3.74,0,0,0,3.75-3.75v-.07Z"/><path class="cls-9" d="M79.09,139.44l.56,8.15a1.09,1.09,0,0,1,0,.18v.07l0,.26a3.76,3.76,0,0,0,3.75,3.49h8.39a3.74,3.74,0,0,0,3.73-3.43,44.22,44.22,0,0,1-11.93-5.27A34.09,34.09,0,0,1,79.09,139.44Z"/><path class="cls-13" d="M79.65,147.59l-.56-8.15.57,8.33A1.09,1.09,0,0,0,79.65,147.59Z"/><path class="cls-12" d="M95.59,148.17a3.73,3.73,0,0,0,3.73,3.42h8.39a3.73,3.73,0,0,0,3.08-1.61A50.45,50.45,0,0,1,95.59,148.17Z"/><path class="cls-9" d="M112.11,149.91a3.72,3.72,0,0,0,3.12,1.68h8.18a3.75,3.75,0,0,0,3.72-3.24l.29-2.12c-.45.2-.92.41-1.41.61A44.14,44.14,0,0,1,112.11,149.91Z"/></svg>