<svg xmlns="http://www.w3.org/2000/svg" viewBox="0 0 191 191"><defs><style>.a{fill:#abbd81;}.b{fill:#e0e0e0;}.b,.c,.d,.e,.f,.g{stroke:#333;stroke-linecap:round;}.b,.c{stroke-linejoin:round;stroke-width:4px;}.c,.e{fill:#e15b64;}.d{fill:none;}.d,.e,.f,.g{stroke-miterlimit:10;stroke-width:3px;}.f{fill:#a0c8d7;}.g{fill:#f8b26a;}</style></defs><rect class="a" width="191" height="191" rx="40"/><path class="b" d="M125,124.69349l-.25368.10127-.01539.00779L85.84351,140.49924,51.63059,154.31269,25.48268,164.86544a1.84157,1.84157,0,0,1-2.32953-2.47488l5.01274-11.92224,7.63452-18.16379,8.67237-20.65406,7.227-17.183,8.68007-20.65406,3.183-7.57989L63.66279,66c.3075,0,.60736,0,.9226.00779a63.57209,63.57209,0,0,1,40.402,15.10523l.00769.00779c.592.49817,1.16859,1.01952,1.73752,1.54866a57.09461,57.09461,0,0,1,15.15365,23.28436,58.80733,58.80733,0,0,1,3.106,17.9071C125,124.1332,125,124.41344,125,124.69349Z"/><path class="c" d="M121.88625,105.95383,51.6998,94.46745l8.68007-20.65406L104.98739,81.113l.00769.00779c.592.49817,1.16859,1.01952,1.73752,1.54866A57.09461,57.09461,0,0,1,121.88625,105.95383Z"/><polygon class="c" points="124.746 124.795 124.731 124.803 85.844 140.499 35.8 132.305 44.473 111.65 124.746 124.795"/><path class="c" d="M51.63059,154.31269,25.48268,164.86544a1.84157,1.84157,0,0,1-2.32953-2.47488l5.01274-11.92224Z"/><path class="d" d="M124,78c5.1803-7.70776,13.267-12.06885,21-11a18.56084,18.56084,0,0,1,9,4"/><path class="d" d="M98,66c8.52411-9.08179,11.36084-18.58252,8-23-2.87634-3.78076-10.99719-4.7644-13-2-1.39545,1.926-.19409,6.187,2,7,4.85071,1.79736,16.58453-7.28662,15-14a6.91534,6.91534,0,0,0-3-4"/><path class="d" d="M131.5,111.5c9.79938-5.6499,19.17261-4.46973,22,0,2.22076,3.51074,1.15863,10.24561-3,13-2.95538,1.95752-7.74286,2.08252-9,0-1.26758-2.09985,1.07507-6.40967,4-8,4.551-2.47437,12.18372.72656,19,8"/><path class="d" d="M75.5,54.5a105.8724,105.8724,0,0,0-2-28c-.58521-2.80957-1.26227-5.47754-2-8"/><path class="d" d="M117.5,61.5a67.106,67.106,0,0,1,22-25c1.67957-1.11938,3.352-2.11426,5-3"/><path class="d" d="M58.5,44.5q.5,4.99988,1,10"/><path class="d" d="M131.5,96.5a35.938,35.938,0,0,0,14-4,35.19372,35.19372,0,0,0,6-4"/><circle class="e" cx="162.5" cy="83.5" r="5"/><circle class="f" cx="92.5" cy="13.5" r="5"/><circle class="g" cx="110.5" cy="72.5" r="5"/><circle class="e" cx="58.5" cy="27.5" r="5"/></svg>