<svg id="Layer_1" data-name="Layer 1" xmlns="http://www.w3.org/2000/svg" xmlns:xlink="http://www.w3.org/1999/xlink" viewBox="0 0 191 191"><defs><style>.cls-1{fill:url(#radial-gradient);}.cls-2{fill:#fff;}.cls-3{stroke:#000;stroke-miterlimit:10;stroke-width:3px;fill:url(#radial-gradient-2);}</style><radialGradient id="radial-gradient" cx="95.66" cy="95.94" r="95.5" gradientUnits="userSpaceOnUse"><stop offset="0" stop-color="#f6e466"/><stop offset="0.28" stop-color="#f6e263"/><stop offset="0.52" stop-color="#f4dd58"/><stop offset="0.74" stop-color="#f2d446"/><stop offset="0.95" stop-color="#f0c72e"/><stop offset="1" stop-color="#efc427"/></radialGradient><radialGradient id="radial-gradient-2" cx="95.66" cy="128.67" r="8.52" xlink:href="#radial-gradient"/></defs><rect class="cls-1" x="0.16" y="0.44" width="191" height="191" rx="40"/><circle class="cls-2" cx="95.66" cy="95.94" r="64.5"/><path d="M113.65,61.54q-7-6.85-18.4-6.85A44.84,44.84,0,0,0,84.57,56q-3.16.82-13.84,5.55V71.2a4.25,4.25,0,0,0,.82,2.94,2.65,2.65,0,0,0,2,.89,2.62,2.62,0,0,0,2.09-.89,4.37,4.37,0,0,0,.79-2.94V65.31a52.77,52.77,0,0,1,9.76-3.84,34.08,34.08,0,0,1,8.53-1q8.91,0,14.49,5.45A17.64,17.64,0,0,1,114.85,79a10.47,10.47,0,0,1-3.09,7.74q-5.48,5.55-20.48,11.1v9.66a4.3,4.3,0,0,0,.82,2.95,2.78,2.78,0,0,0,2.13.89,2.69,2.69,0,0,0,2-.89,4.3,4.3,0,0,0,.82-2.95v-5.82q15.21-6.45,19.36-11.41a17.3,17.3,0,0,0,4.14-11.41A23.32,23.32,0,0,0,113.65,61.54Z"/><circle class="cls-3" cx="95.66" cy="128.67" r="8.52"/></svg>