<svg xmlns="http://www.w3.org/2000/svg" viewBox="0 0 191 191"><defs><style>.a{fill:#ffd880;}.b{fill:#ed1c24;}.c{fill:#fff;}</style></defs><path d="M191,40V151a40.12314,40.12314,0,0,1-40,40H40A40.1176,40.1176,0,0,1,0,151V40A39.476,39.476,0,0,1,1.91,27.84c.27991-.91.61-1.8.97-2.68a40.28055,40.28055,0,0,1,25.9-23.55A39.62434,39.62434,0,0,1,40,0H151a39.58265,39.58265,0,0,1,16.46,3.57h.01a40.31307,40.31307,0,0,1,20.65,21.59c.36.88.69006,1.77.97009,2.68A39.47593,39.47593,0,0,1,191,40Z"/><path class="a" d="M143.39451,64.84182a2.19287,2.19287,0,0,0-.78334-.39785V64.456a3.00429,3.00429,0,0,0-1.53077.02413,3.0108,3.0108,0,0,1,1.53077-.0362,9.92,9.92,0,0,0-.36165-2.73609c-.75951-2.61545-2.65164-4.47168-4.58027-4.71269a3.839,3.839,0,0,0-2.02485.33753,6.34908,6.34908,0,0,0-2.54335-3.47139,4.00394,4.00394,0,0,0-2.86851-.28927v.01207a3.671,3.671,0,0,0-.4823.14463,3.7516,3.7516,0,0,1,.4823-.1567,5.88086,5.88086,0,0,0-.56676-2.84453c-.952-1.67541-3.07332-1.85616-5.03814-.9763a7.66475,7.66475,0,0,0-2.98916-3.73646,5.079,5.079,0,0,0-5.53252.687,4.48873,4.48873,0,0,0-1.32567-.687c-2.73609-.83167-5.32741,1.73559-6.84612,4.72483a.04214.04214,0,0,1-.02413-.01207c-2.01278-1.09681-4.42342.84374-6.61718,3.25437-.06032-3.51958-.89192-6.88239-2.54335-7.96713-1.60316-1.04869-4.07383-.04826-5.86974,1.89229A4.94806,4.94806,0,0,0,89.589,46.01477a4.40968,4.40968,0,0,0-2.89264.89193l-.01206-.01207c-1.27742-3.182-4.45962-6.83413-7.40052-5.59269a5.15478,5.15478,0,0,0-2.21789,2.18162,7.36464,7.36464,0,0,0-5.79735-.61472c-2.86881,1.03663-5.11083,4.4115-6.34028,7.87076-.13242-.01207-.25307-.01207-.37342-.01207H64.41a4.71248,4.71248,0,0,0-2.19376.71117,6.92409,6.92409,0,0,0-1.47045,1.145,8.06411,8.06411,0,0,0-1.02435,1.21738,8.74507,8.74507,0,0,1,1.01228-1.21738,5.10654,5.10654,0,0,0-5.484,1.27764A10.13125,10.13125,0,0,0,52.73058,58.526a3.3167,3.3167,0,0,0-.91605.0362c-2.98916.56646-5.26738,5.27914-4.58026,7.84662a2.55194,2.55194,0,0,0,.15684.45788,3.06157,3.06157,0,0,0,.78334,1.0367,4.63329,4.63329,0,0,0,1.24151.75921,4.14217,4.14217,0,0,0-.8316.57853,8.47246,8.47246,0,0,0-2.62751,6.12311,3.25172,3.25172,0,0,0,.14449.86779,2.84633,2.84633,0,0,0,.8316,1.326c1.28977,1.20531,3.56769,1.39806,4.98988,1.627,7.99141,1.30184,12.86094,7.65388,18.20041,12.60772h.01206c.94019.87986,1.89243,1.69954,2.86881,2.44668,3.00123,2.25408,6.60512,3.29064,11.36606,3.4956A68.89227,68.89227,0,0,0,94.796,97.20456c4.70091-.51835,10.19723-1.37408,16.68169-2.3865h.01207c.53027-.08431,1.0726-.16877,1.61523-.25322,2.24172-.34944,4.3269-.723,6.24346-1.09673,21.46648-4.20655,23.7085-9.71493,24.2629-12.40277.06032-.30132.10858-.60265.15684-.94018a19.77674,19.77674,0,0,0,.08416-4.07383,6.95951,6.95951,0,0,0,.68711-1.79591c.07239-.31339.14478-.65092.20511-1.01257C145.20249,70.33814,145.03358,66.14351,143.39451,64.84182Z"/><path class="b" d="M44.9474,76.56938l20.41,71.05026c.38987,1.35719,1.999,2.3269,3.86124,2.3269h3.15093c2.364,0,4.19822-1.53761,3.92162-3.28739L65.06,75.60888c-.23425-1.48194-1.91952-2.59869-3.92162-2.59869H48.80864C46.295,73.01019,44.42116,74.73743,44.9474,76.56938Z"/><path class="c" d="M65.16891,76.29758,76.4,147.34785c.23426,1.48194,1.91952,2.59869,3.92162,2.59869h9.64685c2.17368,0,3.93862-1.30934,3.9487-2.92939l.44235-71.05026c.01015-1.63072-1.76071-2.9567-3.9487-2.9567H69.09053C66.72658,73.01019,64.89231,74.5478,65.16891,76.29758Z"/><path class="c" d="M142.19136,73.01019H129.25512c-1.98191,0-3.65678,1.095-3.91506,2.5595L112.80963,146.62c-.31084,1.76257,1.52986,3.32659,3.91507,3.32659h5.05668c1.86224,0,3.47137-.96971,3.86124-2.3269l20.41-71.05026C146.57884,74.73743,144.705,73.01019,142.19136,73.01019Z"/><path class="b" d="M121.2897,73.01019H98.30843c-2.17368,0-3.93861,1.30934-3.9487,2.92939l-.44235,71.05026c-.01015,1.63072,1.76071,2.9567,3.9487,2.9567h10.8932c1.98191,0,3.65678-1.095,3.91507-2.5595l12.53042-71.05026c.31085-1.76257-1.52986-3.32659-3.91507-3.32659Z"/></svg>