<svg xmlns="http://www.w3.org/2000/svg" viewBox="0 0 242.93769 242.93771"><defs><style>.a{fill:#51ad9b;}.b{fill:#d8415e;}.c,.d{fill:none;stroke-linecap:round;stroke-linejoin:round;}.c{stroke:#f77fa4;stroke-width:11.3278px;}.d{stroke:#ff8089;stroke-width:6.09958px;}</style></defs><circle class="a" cx="121.46884" cy="121.46885" r="121.46885"/><path class="b" d="M146.91823,79.33818c1.47088,0,3.0387.07954,4.71436.24317,10.19774.99593,21.99014,10.33259,23.42914,28.22451v5.955c-1.33734,17.12472-14.26718,38.24751-52.04918,64.7487-37.78371-26.50119-50.71014-47.624-52.04764-64.7487v-5.955C72.40082,89.91394,84.19322,80.57728,94.3908,79.58135c1.67582-.16363,3.24365-.24317,4.71452-.24317,11.78284,0,17.436,5.09253,23.90723,12.80428,6.47121-7.71175,12.1212-12.80428,23.90568-12.80428"/><path class="c" d="M94.63416,94.17206s-14.7568,6.50064-8.66179,21.7111"/><polyline class="d" points="55.269 154.091 67.95 154.091 76.961 177.117 85.303 134.297 92.025 155.707 113.336 155.707 118.675 142.744 124.014 155.707 178.223 155.707"/></svg>