<?xml version="1.0" encoding="utf-8"?>
<!-- Generator: Adobe Illustrator 23.0.0, SVG Export Plug-In . SVG Version: 6.00 Build 0)  -->
<svg version="1.1" id="Layer_1" xmlns="http://www.w3.org/2000/svg" xmlns:xlink="http://www.w3.org/1999/xlink" x="0px" y="0px"
	 viewBox="0 0 71.4 85.7" style="enable-background:new 0 0 71.4 85.7;" xml:space="preserve">
<style type="text/css">
	.st0{fill:none;stroke:#FFFFFF;stroke-width:5;stroke-linecap:round;stroke-linejoin:round;}
</style>
<g id="גלילה" transform="translate(3.535 2.5)">
	<g id="Group_31" transform="translate(15.317 30.03)">
		<g id="Group_30">
			<g id="Group_29">
				<line id="Line_74" class="st0" x1="16" y1="15.9" x2="16" y2="23"/>
				<path id="Path_74" class="st0" d="M4.7,30.1V-4.8c0-3.1,2.6-5.6,5.7-5.6c1.5,0,2.9,0.6,4,1.6c1.1,1,1.7,2.5,1.7,3.9V9.3"/>
				<line id="Line_75" class="st0" x1="38.7" y1="19.8" x2="38.7" y2="27"/>
				<path id="Path_75" class="st0" d="M4.7,30.1l-8.7-8.7c-2.2-2.2-5.8-2.2-8,0c-2.2,2.1-2.2,5.6-0.1,7.8c0,0,0.1,0.1,0.1,0.1
					l14.3,14l8.1,7.3H50V18.8c0-3.1-2.6-5.6-5.7-5.6c0,0,0,0,0,0c-1.5,0-2.9,0.6-4,1.6c-1.1,1-1.7,2.5-1.7,3.9"/>
				<path id="Path_76" class="st0" d="M27.3,14.3v-5c0-3.1-2.6-5.6-5.7-5.6c-1.5,0-2.9,0.6-4,1.6c-1.1,1-1.7,2.5-1.7,3.9v6.6"/>
				<path id="Path_77" class="st0" d="M27.3,25.6V14.3c0-3.1,2.6-5.6,5.7-5.6c0,0,0,0,0,0c1.5,0,2.9,0.6,4,1.6
					c1.1,1,1.7,2.5,1.7,3.9v5.5"/>
			</g>
		</g>
	</g>
	<line class="st0" x1="5" y1="10.4" x2="12.5" y2="15.8"/>
	<line class="st0" x1="16.2" y1="0" x2="18.9" y2="8.1"/>
	<line class="st0" x1="-1" y1="23.9" x2="7.5" y2="23.9"/>
</g>
</svg>
