<?xml version="1.0" encoding="utf-8"?><svg xml:space="preserve" viewBox="0 0 100 100" y="0" x="0" xmlns="http://www.w3.org/2000/svg" id="圖層_1" version="1.1" width="233px" height="233px" xmlns:xlink="http://www.w3.org/1999/xlink" style="width:100%;height:100%;background-size:initial;background-repeat-y:initial;background-repeat-x:initial;background-position-y:initial;background-position-x:initial;background-origin:initial;background-image:initial;background-color:rgba(255, 255, 255, 0);background-clip:initial;background-attachment:initial;animation-play-state:paused" ><g class="ldl-scale" style="transform-origin:50% 50%;transform:rotate(0deg) scale(1, 1);animation-play-state:paused" ><circle fill="#333" r="40" cy="50" cx="50" style="fill:rgb(255, 0, 0);animation-play-state:paused" ></circle>
<path fill="#e15b64" d="M63.9 29L50 42.9 36.1 29c-2-2-5.2-2-7.1 0s-2 5.2 0 7.1L42.9 50 29 63.9c-2 2-2 5.2 0 7.1 2 2 5.2 2 7.1 0L50 57.1 63.9 71c2 2 5.2 2 7.1 0 2-2 2-5.2 0-7.1L57.1 50 71 36.1c2-2 2-5.2 0-7.1-1.9-2-5.1-2-7.1 0z" style="fill:rgb(255, 255, 255);animation-play-state:paused" ></path>
<metadata xmlns:d="https://loading.io/stock/" style="animation-play-state:paused" ><d:name style="animation-play-state:paused" >close</d:name>
<d:tags style="animation-play-state:paused" >close,reject,off,disable,remove,delete,cancel,drop,collapse</d:tags>
<d:license style="animation-play-state:paused" >by</d:license>
<d:slug style="animation-play-state:paused" >d2t9zh</d:slug></metadata></g><!-- generated by https://loading.io/ --></svg>