<?xml version="1.0"?>
<svg xmlns="http://www.w3.org/2000/svg" xmlns:xlink="http://www.w3.org/1999/xlink" xmlns:svgjs="http://svgjs.com/svgjs" version="1.1" width="512" height="512" x="0" y="0" viewBox="0 0 24 24" style="enable-background:new 0 0 512 512" xml:space="preserve"><g><path xmlns="http://www.w3.org/2000/svg" d="M2,14h9V24H2ZM13,24h9V14H13ZM24,10v2H13V8.953c-.326.029-.658.047-1,.047s-.674-.018-1-.047V12H0V10A3,3,0,0,1,3,7H6.134A6.547,6.547,0,0,1,4,2H6c0,2.881,1.971,4.307,4.152,4.8A9.239,9.239,0,0,1,9,3a3,3,0,0,1,6,0,9.239,9.239,0,0,1-1.152,3.8C16.029,6.307,18,4.881,18,2h2a6.547,6.547,0,0,1-2.134,5H21A3,3,0,0,1,24,10ZM11,3a7.71,7.71,0,0,0,1,3.013A7.71,7.71,0,0,0,13,3a1,1,0,0,0-2,0Z" fill="#89c2d7" data-original="#000000"/></g></svg>
