<?xml version="1.0" encoding="utf-8"?><svg xml:space="preserve" viewBox="0 0 100 100" y="0" x="0" xmlns="http://www.w3.org/2000/svg" id="圖層_1" version="1.1" width="200px" height="200px" xmlns:xlink="http://www.w3.org/1999/xlink" style="width:100%;height:100%;background-size:initial;background-repeat-y:initial;background-repeat-x:initial;background-position-y:initial;background-position-x:initial;background-origin:initial;background-image:initial;background-color:rgba(255, 255, 255, 0);background-clip:initial;background-attachment:initial;animation-play-state:paused" ><g class="ldl-scale" style="transform-origin:50% 50%;transform:rotate(0deg) scale(0.8, 0.8);animation-play-state:paused" ><path fill="#d1d1d1" d="M39.573 25.232a11.937 11.937 0 0 0 4.014 1.995c1.301.371 2.699.56 4.155.56a15.06 15.06 0 0 0 4.075-.553 12.139 12.139 0 0 0 4.024-1.963 10.845 10.845 0 0 0 3.137-3.724c.797-1.54 1.202-3.28 1.202-5.172 0-1.915-.405-3.668-1.204-5.213a10.68 10.68 0 0 0-3.201-3.751 12.114 12.114 0 0 0-4.047-1.901A15.617 15.617 0 0 0 47.743 5c-1.424 0-2.794.174-4.072.519a11.904 11.904 0 0 0-4.031 1.932 10.408 10.408 0 0 0-3.173 3.87c-.722 1.499-1.089 3.2-1.089 5.055 0 1.833.367 3.523 1.089 5.018a10.535 10.535 0 0 0 3.106 3.838z" style="fill:rgb(137, 194, 215);animation-play-state:paused" ></path>
<path fill="#d1d1d1" d="M68.143 82.437c-1.257-.81-2.656-.81-3.582-.81h-.273c-.38-.056-.961-.163-1.315-.243-.194-.14-.444-.334-.624-.486-.17-.362-.398-.927-.482-1.223-.044-.741-.099-3.384-.099-6.56V40.539c0-5.22-4.247-9.466-9.466-9.466H38.974c-5.485 0-9.466 2.769-9.466 6.584 0 1.437 0 4.427 2.886 5.889.568.288 1.35.508 2.326.654 1.24.185 2.038.336 2.347.435.162.099.435.3.627.459.152.304.355.774.444 1.042.043.775.095 3.34.095 6.413v20.565c0 2.929-.133 6.029-.237 7.106-.136.252-.337.589-.495.83-.238.14-.554.312-.754.407-.426.083-1.334.218-1.567.236h-.33c-.592 0-1.825 0-2.973.731-2.37 1.507-2.37 4.099-2.37 5.992 0 3.814 3.981 6.584 9.466 6.584h22.054c5.485 0 9.466-2.769 9.466-6.584.001-1.883.001-4.463-2.35-5.979z" style="fill:rgb(137, 194, 215);animation-play-state:paused" ></path>
<path fill="#454545" d="M47.743 24.503c-1.151 0-2.245-.146-3.253-.434a8.687 8.687 0 0 1-2.918-1.444 7.28 7.28 0 0 1-2.146-2.658c-.506-1.048-.763-2.257-.763-3.593 0-1.358.257-2.579.763-3.629a7.145 7.145 0 0 1 2.176-2.662 8.677 8.677 0 0 1 2.925-1.395c.999-.269 2.08-.405 3.216-.405 1.081 0 2.14.135 3.147.401a8.833 8.833 0 0 1 2.953 1.381 7.41 7.41 0 0 1 2.218 2.607c.555 1.072.835 2.316.835 3.701 0 1.361-.28 2.593-.834 3.662a7.59 7.59 0 0 1-2.19 2.606 8.874 8.874 0 0 1-2.942 1.429c-1.017.287-2.09.433-3.187.433z" style="fill:rgb(28, 124, 159);animation-play-state:paused" ></path>
<g style="animation-play-state:paused" ><path fill="#454545" d="M66.091 85.619c-.468-.302-1.737-.163-2.208-.226-.47-.064-2.11-.337-2.536-.556-.426-.219-1.76-1.231-2.066-1.664-.306-.433-1.108-2.284-1.176-3.028s-.124-3.908-.124-7.031V40.538c0-3.124-2.556-5.68-5.68-5.68H38.975c-3.124 0-5.68 1.259-5.68 2.797 0 1.538.155 2.179.812 2.512.236.12.874.241 1.172.285.924.138 2.557.382 3.341.723.602.262 1.787 1.177 2.095 1.587.308.409 1.112 2.151 1.181 2.844.068.694.125 3.818.125 6.941v20.565c0 3.124-.167 7.656-.372 8.229-.205.574-1.172 2.195-1.544 2.515-.372.32-1.779 1.098-2.24 1.228-.461.129-2.064.37-2.509.39-.445.022-1.145-.048-1.445.144-.604.384-.616 1.259-.616 2.797 0 1.538 2.556 2.797 5.68 2.797h22.054c3.124 0 5.68-1.259 5.68-2.797-.002-1.537-.016-2.408-.618-2.796z" style="fill:rgb(28, 124, 159);animation-play-state:paused" ></path></g>
<metadata xmlns:d="https://loading.io/stock/" style="animation-play-state:paused" ><d:name style="animation-play-state:paused" >information</d:name>
<d:tags style="animation-play-state:paused" >helpdesk,tour guide,information,map</d:tags>
<d:license style="animation-play-state:paused" >free</d:license>
<d:slug style="animation-play-state:paused" >c5kb2q</d:slug></metadata></g><!-- generated by https://loading.io/ --></svg>