<?xml version="1.0" encoding="utf-8"?><svg xml:space="preserve" viewBox="0 0 100 100" y="0" x="0" xmlns="http://www.w3.org/2000/svg" id="Layer_1" version="1.1" width="200px" height="200px" xmlns:xlink="http://www.w3.org/1999/xlink" style="width:100%;height:100%;background-size:initial;background-repeat-y:initial;background-repeat-x:initial;background-position-y:initial;background-position-x:initial;background-origin:initial;background-image:initial;background-color:rgba(255, 255, 255, 0);background-clip:initial;background-attachment:initial;animation-play-state:paused" ><g class="ldl-scale" style="transform-origin:50% 50%;transform:rotate(0deg) scale(0.8, 0.8);animation-play-state:paused" ><path fill="#333" d="M44.2 24.3L28.7 36.6l-.3.3H11.9c-1.1 0-1.9.9-1.9 1.9v22.3c0 1.1.9 1.9 1.9 1.9h16.4l.3.3 15.5 12.4c1.3 1 3.1.1 3.1-1.5V25.8c.1-1.6-1.7-2.5-3-1.5z" style="fill:rgb(28, 124, 159);animation-play-state:paused" ></path>
<path d="M85 40l-5-5-10 10-10-10-5 5 10 10-10 10 5 5 10-10 10 10 5-5-10-10z" fill="#b93a38" style="fill:rgb(28, 124, 159);animation-play-state:paused" ></path>
<metadata xmlns:d="https://loading.io/stock/" style="animation-play-state:paused" ><d:name style="animation-play-state:paused" >mute</d:name>
<d:tags style="animation-play-state:paused" >volume,sound,speaker,quiet,silence,voice,hear,listen,broadcast,mute,web application</d:tags>
<d:license style="animation-play-state:paused" >by</d:license>
<d:slug style="animation-play-state:paused" >nu99f3</d:slug></metadata></g><!-- generated by https://loading.io/ --></svg>