<?xml version="1.0" encoding="utf-8"?><svg xml:space="preserve" viewBox="0 0 100 100" y="0" x="0" xmlns="http://www.w3.org/2000/svg" id="圖層_1" version="1.1" width="200px" height="200px" xmlns:xlink="http://www.w3.org/1999/xlink" style="width:100%;height:100%;background-size:initial;background-repeat-y:initial;background-repeat-x:initial;background-position-y:initial;background-position-x:initial;background-origin:initial;background-image:initial;background-color:rgba(255, 255, 255, 0);background-clip:initial;background-attachment:initial;animation-play-state:paused" ><g class="ldl-scale" style="transform-origin:50% 50%;transform:rotate(0deg) scale(0.8, 0.8);animation-play-state:paused" ><path stroke-miterlimit="10" stroke-linejoin="round" stroke-width="3.5" stroke="#333" fill="#e0e0e0" d="M9.249 88.366l14.455-39.813c9.482-8.811 38.619 22.544 29.137 31.356l-40.765 11.5c-1.83.516-3.476-1.255-2.827-3.043z" style="stroke:rgb(255, 255, 255);fill:rgba(255, 255, 255, 0);animation-play-state:paused" ></path>
<path stroke-miterlimit="10" stroke-linejoin="round" stroke-width="3.5" stroke="#333" fill="#e0e0e0" d="M52.841 79.909c2.281-2.119 2.312-5.548.935-9.403l-35.243-7.712-3.691 10.166 35.272 7.718 2.727-.769z" style="stroke:rgb(255, 255, 255);fill:rgba(255, 255, 255, 0);animation-play-state:paused" ></path>
<path stroke-miterlimit="10" stroke-linejoin="round" stroke-width="3.5" stroke="#333" fill="#e0e0e0" d="M9.249 88.366c-.649 1.787.997 3.559 2.828 3.043l15.494-4.371-16.526-3.616-1.796 4.944z" style="stroke:rgb(255, 255, 255);fill:rgba(255, 255, 255, 0);animation-play-state:paused" ></path>
<path stroke-miterlimit="10" stroke-linejoin="round" stroke-width="3.5" stroke="#333" fill="#e0e0e0" d="M23.704 48.553l-1.372 3.779 22.751 4.978c-7.247-7.673-16.702-13.103-21.379-8.757z" style="stroke:rgb(255, 255, 255);fill:rgba(255, 255, 255, 0);animation-play-state:paused" ></path>
<path stroke-miterlimit="10" stroke-linejoin="round" stroke-width="3.5" stroke="#333" fill="#e15b64" d="M45.083 57.31l-22.751-4.978-3.798 10.462 35.243 7.712c-1.525-4.268-4.782-9.054-8.694-13.196z" style="stroke:rgb(255, 255, 255);fill:rgba(225, 91, 100, 0);animation-play-state:paused" ></path>
<path d="M14.842 72.96l-3.798 10.462 16.526 3.616 22.544-6.36z" stroke-miterlimit="10" stroke-linejoin="round" stroke-width="3.5" stroke="#333" fill="#e15b64" style="stroke:rgb(255, 255, 255);fill:rgba(225, 91, 100, 0);animation-play-state:paused" ></path>
<path stroke-miterlimit="10" stroke-linejoin="round" stroke-width="3.5" stroke="#333" fill="none" d="M32.79 40.466c3.701-5.514 6.382-12.246 4.96-18.733-.397-1.812-1.375-3.794-3.19-4.178-1.151-.244-2.332.239-3.343.841-1.269.755-2.494 1.844-2.745 3.299-.097.561-.032 1.163.261 1.651.582.969 1.948 1.241 3.009.848s1.851-1.295 2.455-2.25c2.445-3.865 2.451-8.733 2.378-13.307" style="stroke:rgb(255, 255, 255);animation-play-state:paused" ></path>
<path stroke-miterlimit="10" stroke-linejoin="round" stroke-width="3.5" stroke="#333" fill="none" d="M41.944 43.19a142.169 142.169 0 0 0 6.928-22.847" style="stroke:rgb(255, 255, 255);animation-play-state:paused" ></path>
<path stroke-miterlimit="10" stroke-linejoin="round" stroke-width="3.5" stroke="#333" fill="none" d="M54.557 34.897a52.095 52.095 0 0 1 15.612-15.785" style="stroke:rgb(255, 255, 255);animation-play-state:paused" ></path>
<path stroke-miterlimit="10" stroke-linejoin="round" stroke-width="3.5" stroke="#333" fill="none" d="M52.491 54.936c6.274-5.09 14.434-7.797 22.506-7.466" style="stroke:rgb(255, 255, 255);animation-play-state:paused" ></path>
<path stroke-miterlimit="10" stroke-linejoin="round" stroke-width="3.5" stroke="#333" fill="none" d="M60.528 63.579c4.615-1.438 9.958-.223 13.497 3.069 1.068.994 1.999 2.203 2.348 3.62s.014 3.062-1.096 4.009c-1.338 1.141-3.358.992-5.018.41-1.618-.568-3.352-2.111-2.707-3.699.411-1.011 1.594-1.439 2.661-1.668 6.513-1.396 13.656.592 18.511 5.152" style="stroke:rgb(255, 255, 255);animation-play-state:paused" ></path>
<circle stroke-miterlimit="10" stroke-linejoin="round" stroke-width="3.5" stroke="#333" fill="#a0c8d7" r="7.388" cy="39.155" cx="83.507" style="stroke:rgb(255, 255, 255);fill:rgba(160, 200, 215, 0);animation-play-state:paused" ></circle>
<circle stroke-miterlimit="10" stroke-linejoin="round" stroke-width="3.5" stroke="#333" fill="#f8b26a" r="5.13" cy="13.63" cx="52.491" style="stroke:rgb(255, 255, 255);fill:rgba(248, 178, 106, 0);animation-play-state:paused" ></circle>
<circle stroke-miterlimit="10" stroke-linejoin="round" stroke-width="3.5" stroke="#333" fill="#abbd81" r="4.889" cy="26.166" cx="62.905" style="stroke:rgb(255, 255, 255);fill:rgba(171, 189, 129, 0);animation-play-state:paused" ></circle>
<circle stroke-miterlimit="10" stroke-linejoin="round" stroke-width="3.5" stroke="#333" fill="#f8b26a" r="5.727" cy="60.082" cx="70.925" style="stroke:rgb(255, 255, 255);fill:rgba(248, 178, 106, 0);animation-play-state:paused" ></circle>
<circle stroke-miterlimit="10" stroke-linejoin="round" stroke-width="3.5" stroke="#333" fill="#abbd81" r="5.727" cy="29.17" cx="20.57" style="stroke:rgb(255, 255, 255);fill:rgba(171, 189, 129, 0);animation-play-state:paused" ></circle>
<metadata xmlns:d="https://loading.io/stock/" style="animation-play-state:paused" ><d:name style="animation-play-state:paused" >party</d:name>
<d:tags style="animation-play-state:paused" >party,celebrate,cracker snap,pop,bang,firecracker,wedding,ceremony,festival</d:tags>
<d:license style="animation-play-state:paused" >by</d:license>
<d:slug style="animation-play-state:paused" >wzfdam</d:slug></metadata></g><!-- generated by https://loading.io/ --></svg>