<?xml version="1.0" encoding="utf-8"?><svg xml:space="preserve" viewBox="0 0 100 100" y="0" x="0" xmlns="http://www.w3.org/2000/svg" id="圖層_1" version="1.1" width="800px" height="800px" xmlns:xlink="http://www.w3.org/1999/xlink" style="width:100%;height:100%;background-size:initial;background-repeat-y:initial;background-repeat-x:initial;background-position-y:initial;background-position-x:initial;background-origin:initial;background-image:initial;background-color:rgba(255, 255, 255, 0);background-clip:initial;background-attachment:initial;animation-play-state:paused" ><g class="ldl-scale" style="transform-origin:50% 50%;transform:rotate(0deg) scale(0.84, 0.84);animation-play-state:paused" ><circle stroke-width="3.5" fill="none" stroke="#e0e0e0" stroke-miterlimit="10" r="33.625" cy="50" cx="50" style="stroke:rgba(224, 224, 224, 0);animation-play-state:paused" ></circle>
<path stroke-miterlimit="10" stroke-width="3.5" stroke="#333" fill="none" d="M41.356 51.958h0a3.214 3.214 0 0 1-3.214-3.214v-5.571a3.214 3.214 0 0 1 3.214-3.214h0a3.214 3.214 0 0 1 3.214 3.214v5.571a3.213 3.213 0 0 1-3.214 3.214z" style="stroke:rgb(255, 255, 255);animation-play-state:paused" ></path>
<path stroke-miterlimit="10" stroke-width="3.5" stroke="#333" fill="none" d="M58.644 60.021h0a3.214 3.214 0 0 0 3.214-3.214v-5.571a3.214 3.214 0 0 0-3.214-3.214h0a3.214 3.214 0 0 0-3.214 3.214v5.571a3.213 3.213 0 0 0 3.214 3.214z" style="stroke:rgb(255, 255, 255);animation-play-state:paused" ></path>
<path d="M55.804 37.02l-12 25.96" stroke-miterlimit="10" stroke-width="3.5" stroke="#333" fill="none" style="stroke:rgb(255, 255, 255);animation-play-state:paused" ></path>
<metadata xmlns:d="https://loading.io/stock/" style="animation-play-state:paused" ><d:name style="animation-play-state:paused" >0%</d:name>


<d:tags style="animation-play-state:paused" >0,percentage,progress,loading,status,bar,curved,circular,downloading,process</d:tags>


<d:license style="animation-play-state:paused" >by</d:license>


<d:slug style="animation-play-state:paused" >go2zph</d:slug></metadata></g><!-- generated by https://loading.io/ --></svg>